<svg width="221" height="296" viewBox="0 0 221 296" fill="none" xmlns="http://www.w3.org/2000/svg">
<g filter="url(#filter0_d_429:11)">
<rect x="4" y="3" width="213" height="288" rx="27" fill="white"/>
</g>
<path d="M41.377 248.645H44.3848V260.52H50.0195V248.645H53.0176V260.52H54.5117V266.076H51.9141V263H41.377V248.645ZM56.3672 248.645H63.4082C63.9941 248.645 64.5085 248.7 64.9512 248.811C65.4004 248.921 65.7878 249.071 66.1133 249.26C66.4388 249.449 66.7122 249.667 66.9336 249.914C67.1549 250.161 67.3307 250.422 67.4609 250.695C67.5911 250.962 67.6823 251.236 67.7344 251.516C67.793 251.796 67.8223 252.062 67.8223 252.316C67.8223 252.681 67.7897 253.01 67.7246 253.303C67.6595 253.589 67.5553 253.853 67.4121 254.094C67.2754 254.328 67.0931 254.543 66.8652 254.738C66.6439 254.927 66.377 255.1 66.0645 255.256C66.5462 255.438 66.9336 255.663 67.2266 255.93C67.5195 256.197 67.7441 256.486 67.9004 256.799C68.0566 257.105 68.1608 257.424 68.2129 257.756C68.265 258.081 68.291 258.397 68.291 258.703C68.291 259.4 68.1641 260.015 67.9102 260.549C67.6562 261.083 67.2982 261.532 66.8359 261.896C66.3737 262.255 65.8105 262.528 65.1465 262.717C64.4889 262.906 63.7565 263 62.9492 263H56.3672V248.645ZM59.248 260.52H62.9883C63.3203 260.52 63.6263 260.48 63.9062 260.402C64.1862 260.324 64.4271 260.207 64.6289 260.051C64.8372 259.888 64.9967 259.686 65.1074 259.445C65.2246 259.198 65.2832 258.908 65.2832 258.576C65.2832 258.16 65.2148 257.827 65.0781 257.58C64.9414 257.326 64.7591 257.131 64.5312 256.994C64.3099 256.857 64.056 256.77 63.7695 256.73C63.4896 256.685 63.2031 256.662 62.9102 256.662H59.248V260.52ZM59.248 254.299H62.9492C63.2096 254.299 63.4603 254.27 63.7012 254.211C63.9421 254.152 64.1536 254.058 64.3359 253.928C64.5247 253.791 64.6745 253.618 64.7852 253.41C64.8958 253.202 64.9512 252.951 64.9512 252.658C64.9512 252.352 64.8991 252.102 64.7949 251.906C64.6973 251.704 64.5605 251.545 64.3848 251.428C64.209 251.311 64.0039 251.229 63.7695 251.184C63.5352 251.138 63.2878 251.115 63.0273 251.115H59.248V254.299ZM70.8203 248.645H81.3574V251.115H73.7012V254.299H80.7422V256.779H73.7012V260.402H81.6992V263H70.8203V248.645ZM82.7637 248.645H94.5215V251.115H90.1367V263H87.1387V251.115H82.7637V248.645ZM96.5039 248.645H99.502V254.484L104.99 248.645H108.867L103.008 254.523L109.209 263H105.41L100.967 256.643L99.502 258.137V263H96.5039V248.645ZM110.098 255.822C110.098 254.748 110.241 253.752 110.527 252.834C110.814 251.916 111.243 251.122 111.816 250.451C112.389 249.774 113.109 249.243 113.975 248.859C114.84 248.475 115.85 248.283 117.002 248.283C118.063 248.283 119.02 248.475 119.873 248.859C120.726 249.243 121.449 249.774 122.041 250.451C122.64 251.122 123.099 251.916 123.418 252.834C123.737 253.752 123.896 254.748 123.896 255.822C123.896 256.89 123.737 257.886 123.418 258.811C123.099 259.729 122.64 260.526 122.041 261.203C121.449 261.874 120.726 262.401 119.873 262.785C119.02 263.169 118.063 263.361 117.002 263.361C115.85 263.361 114.84 263.169 113.975 262.785C113.109 262.401 112.389 261.874 111.816 261.203C111.243 260.526 110.814 259.729 110.527 258.811C110.241 257.886 110.098 256.89 110.098 255.822ZM117.002 260.764C117.614 260.764 118.161 260.64 118.643 260.393C119.124 260.145 119.531 259.803 119.863 259.367C120.202 258.924 120.459 258.404 120.635 257.805C120.811 257.199 120.898 256.538 120.898 255.822C120.898 255.106 120.811 254.449 120.635 253.85C120.459 253.244 120.202 252.723 119.863 252.287C119.531 251.844 119.124 251.499 118.643 251.252C118.161 251.005 117.614 250.881 117.002 250.881C116.39 250.881 115.843 251.005 115.361 251.252C114.88 251.499 114.469 251.844 114.131 252.287C113.799 252.723 113.542 253.244 113.359 253.85C113.184 254.449 113.096 255.106 113.096 255.822C113.096 256.538 113.184 257.199 113.359 257.805C113.542 258.404 113.799 258.924 114.131 259.367C114.469 259.803 114.88 260.145 115.361 260.393C115.843 260.64 116.39 260.764 117.002 260.764ZM126.426 248.645H133.467C134.053 248.645 134.567 248.7 135.01 248.811C135.459 248.921 135.846 249.071 136.172 249.26C136.497 249.449 136.771 249.667 136.992 249.914C137.214 250.161 137.389 250.422 137.52 250.695C137.65 250.962 137.741 251.236 137.793 251.516C137.852 251.796 137.881 252.062 137.881 252.316C137.881 252.681 137.848 253.01 137.783 253.303C137.718 253.589 137.614 253.853 137.471 254.094C137.334 254.328 137.152 254.543 136.924 254.738C136.702 254.927 136.436 255.1 136.123 255.256C136.605 255.438 136.992 255.663 137.285 255.93C137.578 256.197 137.803 256.486 137.959 256.799C138.115 257.105 138.219 257.424 138.271 257.756C138.324 258.081 138.35 258.397 138.35 258.703C138.35 259.4 138.223 260.015 137.969 260.549C137.715 261.083 137.357 261.532 136.895 261.896C136.432 262.255 135.869 262.528 135.205 262.717C134.548 262.906 133.815 263 133.008 263H126.426V248.645ZM129.307 260.52H133.047C133.379 260.52 133.685 260.48 133.965 260.402C134.245 260.324 134.486 260.207 134.688 260.051C134.896 259.888 135.055 259.686 135.166 259.445C135.283 259.198 135.342 258.908 135.342 258.576C135.342 258.16 135.273 257.827 135.137 257.58C135 257.326 134.818 257.131 134.59 256.994C134.368 256.857 134.115 256.77 133.828 256.73C133.548 256.685 133.262 256.662 132.969 256.662H129.307V260.52ZM129.307 254.299H133.008C133.268 254.299 133.519 254.27 133.76 254.211C134.001 254.152 134.212 254.058 134.395 253.928C134.583 253.791 134.733 253.618 134.844 253.41C134.954 253.202 135.01 252.951 135.01 252.658C135.01 252.352 134.958 252.102 134.854 251.906C134.756 251.704 134.619 251.545 134.443 251.428C134.268 251.311 134.062 251.229 133.828 251.184C133.594 251.138 133.346 251.115 133.086 251.115H129.307V254.299ZM153.838 248.645H156.836V263H153.838V248.645ZM143.877 260.52H146.416C146.689 260.52 146.969 260.5 147.256 260.461C147.549 260.422 147.816 260.337 148.057 260.207C148.304 260.077 148.506 259.885 148.662 259.631C148.818 259.37 148.896 259.025 148.896 258.596C148.896 258.146 148.818 257.795 148.662 257.541C148.512 257.281 148.314 257.085 148.066 256.955C147.819 256.825 147.539 256.743 147.227 256.711C146.921 256.678 146.611 256.662 146.299 256.662H143.877V260.52ZM140.879 248.645H143.877V254.299H146.738C146.953 254.299 147.227 254.305 147.559 254.318C147.897 254.331 148.258 254.38 148.643 254.465C149.027 254.543 149.411 254.67 149.795 254.846C150.179 255.021 150.527 255.272 150.84 255.598C151.152 255.917 151.406 256.327 151.602 256.828C151.797 257.323 151.895 257.935 151.895 258.664C151.895 259.387 151.797 259.995 151.602 260.49C151.406 260.985 151.156 261.395 150.85 261.721C150.55 262.04 150.215 262.287 149.844 262.463C149.479 262.632 149.121 262.759 148.77 262.844C148.424 262.922 148.105 262.967 147.812 262.98C147.526 262.993 147.314 263 147.178 263H140.879V248.645ZM159.766 248.645H170.303V251.115H162.646V254.299H169.688V256.779H162.646V260.402H170.645V263H159.766V248.645Z" fill="#425807"/>
<path d="M103.55 162.602C104.315 162.602 105.08 162.602 105.934 162.602C105.934 146.323 105.934 130.073 105.934 113.964C101.912 115.013 97.8708 116.074 93.8299 117.119C92.0775 117.574 91.6154 117.304 91.168 115.549C90.3473 112.338 89.5524 109.12 88.7464 105.906C88.7131 105.773 88.6688 105.64 88.6429 105.503C88.0107 102.215 87.9552 102.278 85.3969 99.9905C82.7498 97.6296 80.232 95.1209 77.6478 92.686C76.7457 91.8362 76.8233 91.0419 77.6478 90.1884C80.0472 87.6981 82.3542 85.1118 84.8534 82.725C86.0919 81.5427 87.6706 80.7151 89.2492 79.6177C88.7797 77.3196 89.4341 74.9328 90.2068 72.5497C91.0349 70.0114 91.8224 67.462 92.5877 64.9016C92.9056 63.8375 93.5268 63.2833 94.6248 63.6232C98.2738 64.7538 101.915 65.9139 105.542 67.1147C106.319 67.3733 107.017 67.8537 107.635 67.8684C112.094 66.4497 116.548 65.0087 121.018 63.6232C121.928 63.3424 122.545 63.8596 122.808 64.7168C123.913 68.3266 125.092 71.9142 126.039 75.5646C126.409 76.9981 126.235 78.5758 126.316 80.2458C129.096 81.1141 130.982 83.3605 132.978 85.4665C134.535 87.1033 136.08 88.7548 137.648 90.3805C138.398 91.1601 138.657 91.9766 137.77 92.7747C134.49 95.7305 131.174 98.6494 127.895 101.613C127.61 101.871 127.422 102.318 127.348 102.71C126.52 106.996 125.769 111.296 124.86 115.568C124.76 116.033 123.732 116.709 123.27 116.617C119.343 115.841 115.439 114.939 111.546 113.994C110.674 113.783 109.879 113.251 108.925 112.811C108.925 129.415 108.925 145.961 108.925 162.58C109.239 162.609 109.55 162.657 109.86 162.668C110.36 162.683 110.859 162.672 111.428 162.672C109.779 154.957 113.225 148.902 117.739 143.485C122.305 138.009 127.418 132.988 132.35 127.823C132.716 127.439 133.655 127.258 134.139 127.45C134.513 127.598 134.882 128.569 134.753 129.035C132.398 137.596 130.324 146.26 126.05 154.156C124.323 157.344 122.183 160.2 119.27 162.672C120.985 162.672 122.697 162.672 124.412 162.672C127.248 162.672 127.47 162.89 127.059 165.668C125.322 177.377 123.554 189.082 121.835 200.794C121.65 202.05 121.085 202.527 119.839 202.523C111.535 202.498 103.232 202.498 94.9279 202.523C93.6931 202.527 93.0979 202.091 92.913 200.82C91.3972 190.475 89.8334 180.137 88.2843 169.795C88.0514 168.247 87.8295 166.695 87.5818 165.151C87.2676 163.222 87.6965 162.683 89.6152 162.672C91.5895 162.661 93.5674 162.668 95.5454 162.668C95.5454 162.495 95.5786 162.373 95.5417 162.339C89.7631 157.78 87.0236 151.329 84.7536 144.667C83.0344 139.62 81.648 134.455 80.2062 129.316C80.0509 128.758 80.3208 127.812 80.7385 127.457C81.0417 127.202 82.1286 127.413 82.5131 127.782C88.288 133.354 94.0998 138.904 98.7322 145.513C101.457 149.4 103.72 153.509 103.842 158.423C103.856 159.797 103.649 161.164 103.55 162.602ZM84.1657 133.217C84.273 133.735 84.2914 133.897 84.3395 134.049C85.822 138.59 87.1863 143.175 88.8315 147.66C90.3288 151.739 92.377 155.556 95.5269 158.659C96.9761 160.086 98.6213 161.209 100.714 161.829C100.832 161.139 100.965 160.559 101.021 159.971C101.313 156.93 100.459 154.13 99.0798 151.481C95.4344 144.464 89.8629 139.026 84.1657 133.217ZM130.512 133.653C126.349 137.577 122.249 141.568 119.04 146.304C117.251 148.942 115.779 151.839 114.489 154.761C113.528 156.945 113.395 159.365 114.23 161.826C117.325 160.788 119.565 158.8 121.373 156.306C126.29 149.537 128.283 141.568 130.512 133.653ZM90.1254 82.4959C85.8405 84.5761 83.5742 88.4592 80.2357 91.4187C83.393 94.0161 85.7481 97.1456 89.1827 99.2664C91.1495 94.5593 94.7764 92.3609 99.4051 91.4963C100.318 91.3264 101.202 91.0049 102.1 90.7574C97.2571 89.1908 92.4398 87.8718 90.1254 82.4959ZM105.039 95.6751C101.317 99.8021 97.5529 103.604 91.2161 102.714C91.375 106.826 92.9278 110.425 93.6931 114.389C97.9485 112.819 102.514 112.915 106.256 110.055C102.725 105.444 103.982 100.604 105.039 95.6751ZM123.432 79.5919C123.847 74.8848 121.491 70.9831 120.53 66.6122C116.837 67.7945 113.354 68.9104 109.657 70.0927C113.957 75.2986 112.67 80.5636 110.482 86.0946C112.622 84.299 114.367 82.6474 116.304 81.2656C118.353 79.8098 120.796 79.4736 123.432 79.5919ZM105.797 70.0668C102.049 68.8623 98.577 67.7465 94.8947 66.5642C93.9926 70.8833 91.6523 74.7444 91.9629 79.4478C97.5677 78.8529 100.999 82.3334 104.6 85.6919C102.677 80.3899 101.586 75.2505 105.797 70.0668ZM120.016 194.048C111.472 194.048 103.132 194.048 94.6876 194.048C94.9871 196.01 95.2681 197.846 95.5454 199.656C103.509 199.656 111.313 199.656 119.188 199.656C119.469 197.772 119.735 195.969 120.016 194.048ZM134.879 91.7476C132.561 88.2634 127.407 83.5563 125.133 82.906C122.985 87.809 118.345 89.1539 113.65 90.5689C119.362 91.4077 124.405 93.074 126.76 99.3107C129.607 96.6616 132.25 94.1972 134.879 91.7476ZM122.56 113.606C123.285 110.066 124.009 106.519 124.775 102.784C121.602 103.235 118.881 103.05 116.615 101.457C114.423 99.9203 112.515 97.9806 110.419 96.1628C111.846 100.803 113.014 105.462 109.964 109.878C111.99 111.611 115.987 112.778 122.56 113.606ZM91.0312 169.448C102.026 169.448 112.833 169.448 123.702 169.448C123.902 168.07 124.083 166.821 124.268 165.539C112.914 165.539 101.742 165.539 90.4434 165.539C90.6467 166.913 90.839 168.181 91.0312 169.448ZM123.244 172.404C112.626 172.404 102.134 172.404 91.4786 172.404C91.7078 173.941 91.9111 175.326 92.1182 176.708C102.374 176.708 112.46 176.708 122.619 176.708C122.83 175.245 123.033 173.845 123.244 172.404ZM93.1718 183.839C102.703 183.839 112.108 183.839 121.58 183.839C121.769 182.369 121.943 181.031 122.12 179.675C112.175 179.675 102.44 179.675 92.5692 179.675C92.7836 181.164 92.9796 182.516 93.1718 183.839ZM121.074 186.828C111.849 186.828 102.806 186.828 93.6303 186.828C93.8521 188.317 94.0591 189.703 94.2662 191.114C103.047 191.114 111.691 191.114 120.467 191.114C120.671 189.688 120.867 188.302 121.074 186.828ZM124.397 99.9795C123.27 98.5459 122.49 97.2934 121.458 96.3032C119.236 94.1639 116.208 94.0605 113.402 93.4508C113.21 93.4102 112.833 93.6134 112.763 93.7908C112.692 93.9681 112.84 94.3117 112.999 94.4817C114.101 95.6529 115.177 96.8611 116.364 97.94C118.497 99.8834 121.037 100.537 124.397 99.9795ZM107.705 85.4998C110.47 79.8394 110.437 74.8995 107.679 72.291C104.503 76.0227 105.454 79.7803 107.705 85.4998ZM91.9703 99.9942C97.3274 100.508 99.9634 96.8574 103.05 93.4619C98.6287 94.5851 94.0591 94.9435 91.9703 99.9942ZM110.711 90.8793C110.681 89.3755 109.461 88.1895 107.956 88.2006C106.481 88.2117 105.228 89.4605 105.217 90.9273C105.206 92.4348 106.559 93.7464 108.071 93.6873C109.557 93.6356 110.74 92.3757 110.711 90.8793ZM108.03 107.653C110.016 104.073 108.822 100.733 107.764 97.0828C106.925 100.789 105.738 104.203 108.03 107.653ZM102.111 87.5097C99.4421 84.7313 97.1203 82.1819 93.1016 82.1819C94.9982 85.7621 98.3699 86.5491 102.111 87.5097ZM113.546 87.4321C116.829 86.5565 120.26 85.9357 122.224 82.3888C118.172 82.3334 115.901 84.9529 113.546 87.4321Z" fill="#8BC93E"/>
<defs>
<filter id="filter0_d_429:11" x="0" y="0" width="221" height="296" filterUnits="userSpaceOnUse" color-interpolation-filters="sRGB">
<feFlood flood-opacity="0" result="BackgroundImageFix"/>
<feColorMatrix in="SourceAlpha" type="matrix" values="0 0 0 0 0 0 0 0 0 0 0 0 0 0 0 0 0 0 127 0" result="hardAlpha"/>
<feOffset dy="1"/>
<feGaussianBlur stdDeviation="2"/>
<feComposite in2="hardAlpha" operator="out"/>
<feColorMatrix type="matrix" values="0 0 0 0 0.662745 0 0 0 0 0.882353 0 0 0 0 0.388235 0 0 0 1 0"/>
<feBlend mode="normal" in2="BackgroundImageFix" result="effect1_dropShadow_429:11"/>
<feBlend mode="normal" in="SourceGraphic" in2="effect1_dropShadow_429:11" result="shape"/>
</filter>
</defs>
</svg>
