<svg width="89" height="106" viewBox="0 0 89 106" fill="none" xmlns="http://www.w3.org/2000/svg">
<path d="M17.7993 85.1367V105.924C7.968 105.924 0 96.6185 0 85.1367H17.7993Z" fill="#87CE2E"/>
<path d="M53.3926 105.924H71.1919C71.1919 94.4423 63.2239 85.1367 53.3926 85.1367V105.924Z" fill="#87CE2E"/>
<path d="M35.5938 85.1367H53.3931C53.3931 96.6185 45.4251 105.924 35.5938 105.924V85.1367Z" fill="#87CE2E"/>
<path d="M17.7988 105.924V85.1367C27.6301 85.1367 35.5981 94.4423 35.5981 105.924H17.7988Z" fill="#87CE2E"/>
<path d="M17.9673 21.0469H0.167969C0.167969 9.56527 8.13597 0.259766 17.9673 0.259766V21.0469Z" fill="#87CE2E"/>
<path d="M70.6333 42.5762V63.8801C60.802 63.8801 52.834 54.3422 52.834 42.5762H70.6333Z" fill="#87CE2E"/>
<path d="M71.2012 105.807V85.2559C81.0325 85.2559 89.0005 94.4572 89.0005 105.807H71.2012Z" fill="#87CE2E"/>
<path d="M53.3931 0V21.304C43.5617 21.304 35.5938 11.7661 35.5938 0H53.3931Z" fill="#87CE2E"/>
<path d="M18.1761 86.0625V64.7305C8.13665 64.7305 0 74.2809 0 86.0625H18.1761Z" fill="#87CE2E"/>
<path d="M70.8574 42.5762V63.8801C80.6887 63.8801 88.6567 54.3422 88.6567 42.5762H70.8574Z" fill="#87CE2E"/>
<path d="M70.6328 21.0469H88.8748C88.8748 9.56527 80.7078 0.259766 70.6328 0.259766V21.0469Z" fill="#87CE2E"/>
<path d="M53.3086 0V21.304C63.1399 21.304 71.1079 11.7661 71.1079 0H53.3086Z" fill="#87CE2E"/>
<path d="M17.8672 0.0117188H35.8278C35.8278 11.766 27.7877 21.292 17.8672 21.292V0.0117188Z" fill="#87CE2E"/>
<path d="M35.7251 64.73H18.1758C18.1758 52.9474 26.0317 43.3984 35.7251 43.3984V64.73Z" fill="#87CE2E"/>
<path d="M35.5938 43.377V64.0159C45.1162 64.0159 52.8337 54.7744 52.8337 43.377H35.5938Z" fill="#87CE2E"/>
<path d="M17.5488 64.7305V85.3271C27.5884 85.3271 35.7249 76.1046 35.7249 64.7305H17.5488Z" fill="#87CE2E"/>
<path d="M89.0003 20.5957V41.9275C78.9609 41.9275 70.8242 32.3771 70.8242 20.5957H89.0003Z" fill="#87CE2E"/>
</svg>
