<svg width="90" height="93" viewBox="0 0 90 93" fill="none" xmlns="http://www.w3.org/2000/svg">
<path d="M54.0001 74.2754V92.8747C43.9251 92.8747 35.7578 84.5483 35.7578 74.2754H54.0001Z" fill="#87CE2E"/>
<path d="M72.2214 55.7522V37.0371C62.1603 37.0371 54 45.4161 54 55.7522H72.2214Z" fill="#87CE2E"/>
<path d="M18.0645 74.2754V93.001C27.9828 93.001 36.0213 84.6185 36.0213 74.2754H18.0645Z" fill="#87CE2E"/>
<path d="M53.8783 37.125V55.7488C43.8694 55.7488 35.7578 47.4084 35.7578 37.125H53.8783Z" fill="#87CE2E"/>
<path d="M71.9707 92.874V74.3203C62.0454 74.3203 54 82.6292 54 92.8775H71.9707V92.874Z" fill="#87CE2E"/>
<path d="M71.9355 74.457H89.8924C89.8924 84.6984 81.8539 93.0037 71.9355 93.0037V74.457Z" fill="#87CE2E"/>
<path d="M71.9355 18.8203V37.367C81.8539 37.367 89.8924 29.0652 89.8924 18.8203H71.9355Z" fill="#87CE2E"/>
<path d="M71.9355 55.91V37.3633C81.8539 37.3633 89.8924 45.6651 89.8924 55.91H71.9355Z" fill="#87CE2E"/>
<path d="M71.9355 18.7717V0.228516C81.8539 0.228516 89.8924 8.53033 89.8924 18.7752H71.9355V18.7717Z" fill="#87CE2E"/>
<path d="M89.8885 74.4568H71.9316C71.9316 64.2155 79.9701 55.9102 89.8885 55.9102V74.4568Z" fill="#87CE2E"/>
<path d="M18.0578 18.421H0C0 8.3725 8.08371 0.228516 18.0578 0.228516V18.421Z" fill="#87CE2E"/>
<path d="M53.9992 0V18.6449C44.0251 18.6449 35.9414 10.2975 35.9414 0H53.9992Z" fill="#87CE2E"/>
<path d="M72.1309 19.0616H90.6378C90.6378 9.01313 82.3521 0.869141 72.1309 0.869141V19.0616Z" fill="#87CE2E"/>
<path d="M53.9141 0V18.6449C63.8881 18.6449 71.9718 10.2975 71.9718 0H53.9141Z" fill="#87CE2E"/>
<path d="M18.0578 74.2754V92.9202C8.08371 92.9202 0 84.5729 0 74.2754H18.0578Z" fill="#87CE2E"/>
<path d="M17.957 0.00976562H36.1784C36.1784 10.2967 28.0216 18.6336 17.957 18.6336V0.00976562Z" fill="#87CE2E"/>
</svg>
