<svg width="33" height="30" viewBox="0 0 33 30" fill="none" xmlns="http://www.w3.org/2000/svg">
<g clip-path="url(#clip0_6_3039)">
<mask id="path-1-inside-1_6_3039" fill="white">
<path d="M23.9927 0.509705C20.9293 0.509705 18.2306 2.22997 16.6989 4.93325C15.1671 2.22997 12.4684 0.509705 9.40499 0.509705C4.59103 0.509705 0.652344 4.93325 0.652344 10.3398C0.652344 18.2242 11.1494 26.2157 15.1634 28.9834C16.0952 29.6259 17.3038 29.6282 18.2375 28.9885C22.2538 26.2369 32.7454 18.2883 32.7454 10.3398C32.7454 4.93325 28.8067 0.509705 23.9927 0.509705Z"/>
</mask>
<path d="M16.6989 4.93325L14.9588 5.9192L16.6989 8.99023L18.4389 5.9192L16.6989 4.93325ZM18.2375 28.9885L17.1071 27.3386L18.2375 28.9885ZM23.9927 -1.4903C20.1376 -1.4903 16.8089 0.682 14.9588 3.94729L18.4389 5.9192C19.6522 3.77794 21.721 2.5097 23.9927 2.5097V-1.4903ZM18.4389 3.94729C16.5888 0.682 13.2601 -1.4903 9.40499 -1.4903V2.5097C11.6767 2.5097 13.7455 3.77794 14.9588 5.9192L18.4389 3.94729ZM9.40499 -1.4903C3.27449 -1.4903 -1.34766 4.0533 -1.34766 10.3398H2.65234C2.65234 5.8132 5.90757 2.5097 9.40499 2.5097V-1.4903ZM-1.34766 10.3398C-1.34766 15.0943 1.75734 19.5547 4.94457 22.9493C8.21079 26.4281 11.9701 29.2109 14.0281 30.6299L16.2987 27.3369C14.3427 25.9882 10.8465 23.3914 7.86066 20.2114C4.79587 16.9472 2.65234 13.4697 2.65234 10.3398H-1.34766ZM19.3679 30.6384C21.4279 29.227 25.1881 26.4583 28.4549 22.9828C31.6452 19.5885 34.7454 15.1239 34.7454 10.3398H30.7454C30.7454 13.5042 28.5998 16.9882 25.5402 20.2432C22.5571 23.417 19.0634 25.9983 17.1071 27.3386L19.3679 30.6384ZM34.7454 10.3398C34.7454 4.0533 30.1232 -1.4903 23.9927 -1.4903V2.5097C27.4901 2.5097 30.7454 5.8132 30.7454 10.3398H34.7454ZM14.0281 30.6299C15.6409 31.742 17.7504 31.7465 19.3679 30.6384L17.1071 27.3386C16.8572 27.5098 16.5494 27.5097 16.2987 27.3369L14.0281 30.6299Z" fill="#131313" mask="url(#path-1-inside-1_6_3039)"/>
</g>
<defs>
<clipPath id="clip0_6_3039">
<rect width="33" height="30" fill="white"/>
</clipPath>
</defs>
</svg>
