<svg width="18" height="20" viewBox="0 0 18 20" fill="none" xmlns="http://www.w3.org/2000/svg">
<path fill-rule="evenodd" clip-rule="evenodd" d="M14.1439 8.2619C14.1439 11.7644 11.3818 14.5238 8.07194 14.5238C4.7621 14.5238 2 11.7644 2 8.2619C2 4.75944 4.7621 2 8.07194 2C11.3818 2 14.1439 4.75944 14.1439 8.2619ZM12.1003 15.423C10.9148 16.1232 9.53905 16.5238 8.07194 16.5238C3.61393 16.5238 0 12.8248 0 8.2619C0 3.69898 3.61393 0 8.07194 0C12.5299 0 16.1439 3.69898 16.1439 8.2619C16.1439 10.5881 15.2046 12.6898 13.693 14.1913L18.0006 18.6002L16.5701 19.9979L12.1003 15.423Z" fill="#B4B5BA"/>
</svg>
