<svg width="24" height="24" viewBox="0 0 24 24" fill="none" xmlns="http://www.w3.org/2000/svg">
<path d="M16.5925 4.25978L19.24 6.90603L16.5925 4.25978ZM18.295 1.92853L11.1363 9.08728C10.7664 9.45666 10.5141 9.92726 10.4113 10.4398L9.75 13.7498L13.06 13.0873C13.5725 12.9848 14.0425 12.7335 14.4125 12.3635L21.5713 5.20478C21.7864 4.98966 21.957 4.73428 22.0734 4.45321C22.1899 4.17214 22.2498 3.87089 22.2498 3.56666C22.2498 3.26243 22.1899 2.96118 22.0734 2.68011C21.957 2.39904 21.7864 2.14366 21.5713 1.92853C21.3561 1.71341 21.1007 1.54277 20.8197 1.42635C20.5386 1.30992 20.2374 1.25 19.9331 1.25C19.6289 1.25 19.3276 1.30992 19.0466 1.42635C18.7655 1.54277 18.5101 1.71341 18.295 1.92853V1.92853Z" stroke="black" stroke-width="2" stroke-linecap="round" stroke-linejoin="round"/>
<path d="M19.75 16.25V20C19.75 20.663 19.4866 21.2989 19.0178 21.7678C18.5489 22.2366 17.913 22.5 17.25 22.5H3.5C2.83696 22.5 2.20107 22.2366 1.73223 21.7678C1.26339 21.2989 1 20.663 1 20V6.25C1 5.58696 1.26339 4.95107 1.73223 4.48223C2.20107 4.01339 2.83696 3.75 3.5 3.75H7.25" stroke="black" stroke-width="2" stroke-linecap="round" stroke-linejoin="round"/>
</svg>
