<svg width="21" height="22" viewBox="0 0 21 22" fill="none" xmlns="http://www.w3.org/2000/svg">
<path d="M14.5689 3.88944L17.1106 6.42989L14.5689 3.88944ZM16.2033 1.6514L9.33082 8.52392C8.97572 8.87853 8.73354 9.33031 8.63481 9.82234L8 13L11.1777 12.364C11.6697 12.2656 12.1209 12.0244 12.4761 11.6692L19.3486 4.79666C19.5551 4.59014 19.7189 4.34496 19.8307 4.07513C19.9425 3.8053 20 3.51609 20 3.22403C20 2.93197 19.9425 2.64276 19.8307 2.37293C19.7189 2.1031 19.5551 1.85792 19.3486 1.6514C19.1421 1.44488 18.8969 1.28106 18.6271 1.16929C18.3572 1.05753 18.068 1 17.776 1C17.4839 1 17.1947 1.05753 16.9249 1.16929C16.655 1.28106 16.4099 1.44488 16.2033 1.6514V1.6514Z" stroke="#131313" stroke-width="2" stroke-linecap="round" stroke-linejoin="round"/>
<path d="M19 14.5V18.1C19 18.7365 18.7471 19.347 18.2971 19.7971C17.847 20.2471 17.2365 20.5 16.6 20.5H3.4C2.76348 20.5 2.15303 20.2471 1.70294 19.7971C1.25286 19.347 1 18.7365 1 18.1V4.9C1 4.26348 1.25286 3.65303 1.70294 3.20294C2.15303 2.75286 2.76348 2.5 3.4 2.5H7" stroke="#131313" stroke-width="2" stroke-linecap="round" stroke-linejoin="round"/>
</svg>
