<svg width="434" height="186" viewBox="0 0 434 186" fill="none" xmlns="http://www.w3.org/2000/svg">
<path fill-rule="evenodd" clip-rule="evenodd" d="M320 114.621L374.576 114.621L374.576 57.555L432.133 57.555C432.133 88.6806 407.434 114.03 376.564 115.078L376.564 115.618C408.127 115.884 433.625 141.546 433.625 173.172L376.069 173.172L376.069 173.168C345.054 172.892 320 146.789 320 114.621ZM432.138 -0.00178009L432.138 57.5547L374.582 57.5547C374.582 25.7638 400.348 -0.0017787 432.138 -0.00178009Z" fill="#A9E163"/>
<path d="M115.615 126.576L58.0586 126.576C58.0586 158.367 83.8242 184.133 115.615 184.133L115.615 126.576Z" fill="#A9E163"/>
<path fill-rule="evenodd" clip-rule="evenodd" d="M58.5506 72L58.5506 128.564H57.5544C57.2883 160.127 31.6255 185.625 5.16698e-06 185.625L0 128.069H0.00397085C0.279374 97.054 26.3827 72 58.5506 72ZM58.5526 128.074L58.5525 72.0063L117.598 72.0063C117.598 102.975 91.1656 128.074 58.5526 128.074ZM173.172 184.138L115.615 184.138L115.615 126.582C147.406 126.582 173.172 152.348 173.172 184.138Z" fill="#A9E163"/>
</svg>
