<svg width="483" height="360" viewBox="0 0 483 360" fill="none" xmlns="http://www.w3.org/2000/svg">
<path d="M417.742 233.002L417.742 295.492C381.394 295.492 351.934 267.518 351.934 233.002L417.742 233.002Z" fill="#A9E163"/>
<path fill-rule="evenodd" clip-rule="evenodd" d="M417.744 233V293.831H354.147V293.832C318.715 293.833 289.999 322.549 289.999 357.981H354.148V357.98C388.84 357.98 417.093 330.451 418.259 296.043H418.853C419.149 331.221 447.752 359.641 483 359.641L483 295.491H482.997C482.69 260.924 453.597 233 417.744 233Z" fill="#A9E163"/>
<path fill-rule="evenodd" clip-rule="evenodd" d="M126.641 127.745L65.8093 127.745L65.8093 127.744L126.638 127.744L126.638 61.9355C97.07 61.9355 72.3027 83.5541 65.8093 112.603L65.8093 64.1477L65.8086 64.1477C65.8078 28.716 37.0913 -4.64678e-05 1.65945 -4.68903e-05L1.65946 64.1491L1.66016 64.1491C1.66091 98.8405 29.1901 127.094 63.5975 128.259L63.5975 128.853C28.4194 129.15 0.000191155 157.752 0.000190735 193L64.1493 193L64.1493 192.998C98.7166 192.691 126.641 163.597 126.641 127.745Z" fill="#A9E163"/>
</svg>
