<svg width="483" height="360" viewBox="0 0 483 360" fill="none" xmlns="http://www.w3.org/2000/svg">
<path d="M354.148 293.831L418.297 293.831C418.297 329.264 389.58 357.98 354.148 357.98L354.148 293.831Z" fill="#A9E163"/>
<path d="M354.149 357.981L290 357.981C290 322.549 318.717 293.832 354.149 293.832L354.149 357.981Z" fill="#A9E163"/>
<path d="M417.742 233.002L417.742 295.492C381.394 295.492 351.934 267.518 351.934 233.002L417.742 233.002Z" fill="#A9E163"/>
<path d="M417.745 296.043L417.745 233C453.788 233 483 261.222 483 296.043H417.745Z" fill="#A9E163"/>
<path d="M483.001 295.491L483.001 359.641C447.568 359.641 418.852 330.924 418.852 295.491L483.001 295.491Z" fill="#A9E163"/>
<path d="M65.8093 64.1477L65.8093 128.297C30.377 128.297 1.66016 99.58 1.66016 64.1477H65.8093Z" fill="#A9E163"/>
<path d="M1.65945 64.1491L1.65945 2.03908e-06C37.0917 9.12808e-07 65.8086 28.7169 65.8086 64.1491L1.65945 64.1491Z" fill="#A9E163"/>
<path d="M126.639 127.742L64.1484 127.742C64.1484 91.3935 92.1226 61.934 126.639 61.934L126.639 127.742Z" fill="#A9E163"/>
<path d="M63.5975 127.745L126.641 127.745C126.641 163.788 98.4189 193 63.5975 193L63.5975 127.745Z" fill="#A9E163"/>
<path d="M64.1491 193.001L-6.22624e-06 193.001C-2.78722e-06 157.568 28.7169 128.852 64.1491 128.852L64.1491 193.001Z" fill="#A9E163"/>
</svg>
