<svg width="1098" height="551" viewBox="0 0 1098 551" fill="none" xmlns="http://www.w3.org/2000/svg">
<path d="M329.326 439.965L440.09 439.965C440.09 379.331 390.505 330.189 329.326 330.189L329.326 439.965Z" fill="#87CE2E"/>
<path d="M329.821 438.478L329.821 549.242C390.454 549.242 439.596 499.658 439.596 438.478L329.821 438.478Z" fill="#87CE2E"/>
<path d="M218.561 331.177L218.561 441.941C279.194 441.941 328.336 392.357 328.336 331.177L218.561 331.177Z" fill="#87CE2E"/>
<path d="M219.549 439.964L219.549 550.729C280.183 550.729 329.324 501.144 329.324 439.964L219.549 439.964Z" fill="#87CE2E"/>
<path d="M439.596 438.478L439.596 549.242C500.229 549.242 549.371 499.658 549.371 438.478L439.596 438.478Z" fill="#87CE2E"/>
<path d="M658.157 438.352L547.393 438.352C547.393 498.985 596.977 548.127 658.157 548.127L658.157 438.352Z" fill="#87CE2E"/>
<path d="M650 442.775L760.764 442.775C760.764 382.142 711.179 333 650 333L650 442.775Z" fill="#87CE2E"/>
<path d="M548.873 441.942V331.178C488.239 331.178 439.098 380.762 439.098 441.942H548.873Z" fill="#87CE2E"/>
<path d="M658.156 441.448L658.156 330.684C597.523 330.684 548.381 380.268 548.381 441.448H658.156Z" fill="#87CE2E"/>
<path d="M439.1 220.414L328.336 220.414C328.336 281.048 377.92 330.189 439.1 330.189L439.1 220.414Z" fill="#87CE2E"/>
<path d="M437.127 332.166L547.891 332.166C547.891 271.532 498.306 222.391 437.127 222.391L437.127 332.166Z" fill="#87CE2E"/>
<path d="M549.201 225.123L549.201 114.359C488.567 114.359 439.426 163.944 439.426 225.123H549.201Z" fill="#87CE2E"/>
<path d="M328 223L440 223C440 160.585 389.862 110 328 110L328 223Z" fill="#87CE2E"/>
<path d="M771.435 331.931L657.729 331.931C657.729 393.308 708.63 443.053 771.435 443.053L771.435 331.931Z" fill="#87CE2E"/>
<path d="M766.267 331.931L766.267 443.053C827.644 443.053 877.389 393.308 877.389 331.931L766.267 331.931Z" fill="#87CE2E"/>
<path d="M661.617 221.98L661.617 332.744C722.251 332.744 771.393 283.16 771.393 221.98L661.617 221.98Z" fill="#87CE2E"/>
<path d="M771 111V0C710.795 0 662 49.69 662 111L771 111Z" fill="#87CE2E"/>
<path d="M662.611 221.986V111.139C599.746 111.139 548.795 160.76 548.795 221.986H662.611Z" fill="#87CE2E"/>
<path d="M548.795 221.983L548.795 332.83C611.661 332.83 662.611 283.208 662.611 221.983L548.795 221.983Z" fill="#87CE2E"/>
<path d="M882.735 219.506L771.971 219.506C771.971 280.14 821.555 329.281 882.735 329.281L882.735 219.506Z" fill="#87CE2E"/>
<path d="M1098 217.033L987.236 217.033C987.236 277.667 1036.82 326.809 1098 326.809L1098 217.033Z" fill="#87CE2E"/>
<path d="M987.232 217.941L1098 217.941C1098 157.308 1048.41 108.166 987.232 108.166L987.232 217.941Z" fill="#87CE2E"/>
<path d="M986 111L1097 111C1097 50.2423 1047.31 0.999998 986 0.999995L986 111Z" fill="#87CE2E"/>
<path d="M987 112V1C926.242 1 877 50.69 877 112L987 112Z" fill="#87CE2E"/>
<path d="M770 110L877 110C877 49.2423 829.101 -2.09375e-06 770 -4.67712e-06L770 110Z" fill="#87CE2E"/>
<path d="M987.646 329.284V218.52C927.013 218.52 877.871 268.104 877.871 329.284H987.646Z" fill="#87CE2E"/>
<path d="M987 438L1098 438C1098 377.242 1048.31 328 987 328L987 438Z" fill="#87CE2E"/>
<path d="M988 329L877 329C877 389.205 926.69 438 988 438L988 329Z" fill="#87CE2E"/>
<path d="M330 221V110C269.242 110 220 159.69 220 221H330Z" fill="#87CE2E"/>
<path d="M220.539 221.405V110.641C159.905 110.641 110.764 160.225 110.764 221.405H220.539Z" fill="#87CE2E"/>
<path d="M2.86485e-06 222L113 222C113 161.795 62.4147 113 7.62939e-06 113L2.86485e-06 222Z" fill="#87CE2E"/>
<path d="M-0.000432045 331.179L110.764 331.179C110.764 270.546 61.1793 221.404 -0.000427246 221.404L-0.000432045 331.179Z" fill="#87CE2E"/>
<path d="M111.26 220.91L111.26 331.674C171.893 331.674 221.035 282.089 221.035 220.91L111.26 220.91Z" fill="#87CE2E"/>
<path d="M110.764 331.178L-4.79842e-06 331.178C-2.14805e-06 391.811 49.5844 440.953 110.764 440.953L110.764 331.178Z" fill="#87CE2E"/>
<path d="M220.538 440.953L109.773 440.953C109.773 501.587 159.358 550.729 220.538 550.729L220.538 440.953Z" fill="#87CE2E"/>
<path d="M218.559 331.178L107.795 331.178C107.795 391.811 157.379 440.953 218.559 440.953L218.559 331.178Z" fill="#87CE2E"/>
<path d="M331.303 218.438L220.539 218.438C220.539 279.071 270.123 328.213 331.303 328.213L331.303 218.438Z" fill="#87CE2E"/>
<rect x="10.877" y="205.58" width="400.531" height="159.223" fill="#87CE2E"/>
<rect x="661.623" y="108.166" width="326.604" height="131.631" fill="#87CE2E"/>
<rect x="446.684" y="221.668" width="433.289" height="111.122" fill="#87CE2E"/>
<rect x="547.805" y="326.889" width="101.94" height="99.9605" fill="#87CE2E"/>
<rect x="882.324" y="197.238" width="105.899" height="131.631" fill="#87CE2E"/>
<rect x="110.764" y="314.365" width="424.266" height="127.577" fill="#87CE2E"/>
</svg>
