<svg width="398" height="77" viewBox="0 0 398 77" fill="none" xmlns="http://www.w3.org/2000/svg">
<rect width="376.207" height="77.0004" rx="38.5002" transform="matrix(1 -8.33365e-08 -9.17095e-08 -1 0 77)" fill="#A9E163"/>
<path d="M25.4844 20.6445H27.3984V26.5625H35.0352V20.6445H36.959V35H35.0352V28.2422H27.3984V35H25.4844V20.6445ZM48.6777 31.6602C48.6061 32.1159 48.4499 32.5618 48.209 32.998C47.9681 33.4342 47.6523 33.8249 47.2617 34.1699C46.8711 34.515 46.4089 34.7917 45.875 35C45.3477 35.2148 44.7617 35.3223 44.1172 35.3223C43.4141 35.3223 42.763 35.2083 42.1641 34.9805C41.5716 34.7461 41.0573 34.3978 40.6211 33.9355C40.1914 33.4668 39.8529 32.8809 39.6055 32.1777C39.3581 31.4746 39.2344 30.6478 39.2344 29.6973C39.2344 29.0592 39.3027 28.4831 39.4395 27.9688C39.5827 27.4479 39.7715 26.9857 40.0059 26.582C40.2467 26.1719 40.5234 25.8203 40.8359 25.5273C41.1484 25.2279 41.4772 24.9837 41.8223 24.7949C42.1738 24.5996 42.5319 24.4564 42.8965 24.3652C43.2611 24.2676 43.6126 24.2188 43.9512 24.2188C44.6673 24.2188 45.3216 24.3262 45.9141 24.541C46.5065 24.7559 47.0143 25.0846 47.4375 25.5273C47.8672 25.9635 48.1992 26.5137 48.4336 27.1777C48.6745 27.8353 48.7949 28.61 48.7949 29.502V30.4004H41.1484C41.1549 30.9082 41.2266 31.3704 41.3633 31.7871C41.5 32.1973 41.6953 32.5488 41.9492 32.8418C42.2031 33.1348 42.5091 33.3626 42.8672 33.5254C43.2318 33.6816 43.6419 33.7598 44.0977 33.7598C44.5599 33.7598 44.9505 33.6947 45.2695 33.5645C45.5885 33.4342 45.8555 33.2682 46.0703 33.0664C46.2852 32.8646 46.4577 32.64 46.5879 32.3926C46.7246 32.1452 46.8385 31.901 46.9297 31.6602H48.6777ZM46.9883 28.9648C46.9753 28.457 46.8971 28.0046 46.7539 27.6074C46.6172 27.2103 46.4219 26.8783 46.168 26.6113C45.9206 26.3379 45.6211 26.1328 45.2695 25.9961C44.918 25.8529 44.5273 25.7812 44.0977 25.7812C43.6875 25.7812 43.3099 25.8626 42.9648 26.0254C42.6198 26.1816 42.3171 26.403 42.0566 26.6895C41.7962 26.9694 41.5879 27.3047 41.4316 27.6953C41.2754 28.0794 41.181 28.5026 41.1484 28.9648H46.9883ZM59.1758 28.9551H60.084C60.3249 28.9551 60.5755 28.9258 60.8359 28.8672C61.0964 28.8086 61.334 28.7174 61.5488 28.5938C61.7637 28.4635 61.9395 28.2975 62.0762 28.0957C62.2194 27.8939 62.291 27.6497 62.291 27.3633C62.291 27.1549 62.2454 26.9564 62.1543 26.7676C62.0697 26.5723 61.9395 26.403 61.7637 26.2598C61.5944 26.11 61.3796 25.9928 61.1191 25.9082C60.8587 25.8236 60.556 25.7812 60.2109 25.7812C60.0286 25.7812 59.8138 25.8073 59.5664 25.8594C59.319 25.9115 59.0749 26.0091 58.834 26.1523C58.5996 26.2891 58.388 26.4876 58.1992 26.748C58.0169 27.002 57.8997 27.334 57.8477 27.7441H56.168C56.2135 27.2754 56.3079 26.8652 56.4512 26.5137C56.5944 26.1556 56.7734 25.8464 56.9883 25.5859C57.2031 25.3255 57.444 25.1074 57.7109 24.9316C57.9844 24.7559 58.2643 24.6159 58.5508 24.5117C58.8438 24.4076 59.1367 24.3327 59.4297 24.2871C59.7227 24.2415 60.0026 24.2188 60.2695 24.2188C60.7383 24.2188 61.2005 24.2806 61.6562 24.4043C62.112 24.5215 62.5189 24.7038 62.877 24.9512C63.2415 25.1921 63.5345 25.498 63.7559 25.8691C63.9772 26.2402 64.0879 26.6732 64.0879 27.168C64.0879 27.487 64.0423 27.7702 63.9512 28.0176C63.86 28.2585 63.7396 28.4701 63.5898 28.6523C63.4466 28.8346 63.2839 28.9909 63.1016 29.1211C62.9193 29.2448 62.7402 29.349 62.5645 29.4336V29.4824C62.7467 29.515 62.9486 29.5833 63.1699 29.6875C63.3913 29.7852 63.5964 29.9284 63.7852 30.1172C63.974 30.2995 64.1302 30.5371 64.2539 30.8301C64.3841 31.1165 64.4492 31.4681 64.4492 31.8848C64.4492 32.4707 64.3223 32.9785 64.0684 33.4082C63.821 33.8379 63.4954 34.196 63.0918 34.4824C62.6882 34.7624 62.2324 34.9707 61.7246 35.1074C61.2168 35.2507 60.7057 35.3223 60.1914 35.3223C59.5273 35.3223 58.9251 35.2376 58.3848 35.0684C57.8509 34.8991 57.3887 34.6582 56.998 34.3457C56.6074 34.0332 56.2949 33.6589 56.0605 33.2227C55.8327 32.7865 55.696 32.3047 55.6504 31.7773H57.457C57.5026 32.1615 57.6133 32.4805 57.7891 32.7344C57.9648 32.9883 58.1764 33.1901 58.4238 33.3398C58.6712 33.4896 58.9447 33.597 59.2441 33.6621C59.5501 33.7272 59.8594 33.7598 60.1719 33.7598C60.9987 33.7598 61.6172 33.5938 62.0273 33.2617C62.444 32.9297 62.6523 32.4837 62.6523 31.9238C62.6523 31.6829 62.6133 31.4681 62.5352 31.2793C62.4635 31.0905 62.3398 30.931 62.1641 30.8008C61.9883 30.6641 61.7539 30.5632 61.4609 30.498C61.1745 30.4264 60.8164 30.3906 60.3867 30.3906C60.3021 30.3906 60.2044 30.3939 60.0938 30.4004C59.9896 30.4004 59.8822 30.4036 59.7715 30.4102C59.6673 30.4167 59.5632 30.4264 59.459 30.4395C59.3548 30.446 59.2604 30.4525 59.1758 30.459V28.9551ZM66.4707 24.541H68.2676V28.7598H73.1504V24.541H74.957V35H73.1504V30.3223H68.2676V35H66.4707V24.541ZM77.584 27.6758C77.6035 27.0378 77.724 26.5007 77.9453 26.0645C78.1667 25.6217 78.4661 25.2637 78.8438 24.9902C79.2214 24.7168 79.6673 24.5215 80.1816 24.4043C80.7025 24.2806 81.2689 24.2188 81.8809 24.2188C82.3887 24.2188 82.8802 24.2708 83.3555 24.375C83.8372 24.4792 84.2637 24.6484 84.6348 24.8828C85.0059 25.1107 85.3021 25.4102 85.5234 25.7812C85.7513 26.1458 85.8652 26.5918 85.8652 27.1191V33.2031C85.8652 33.3724 85.9108 33.5189 86.002 33.6426C86.0931 33.7598 86.2396 33.8184 86.4414 33.8184C86.5326 33.8184 86.627 33.8118 86.7246 33.7988C86.8223 33.7793 86.9232 33.7598 87.0273 33.7402V34.9805C86.8776 35.0195 86.7279 35.0553 86.5781 35.0879C86.4349 35.1204 86.2624 35.1367 86.0605 35.1367C85.748 35.1367 85.4779 35.1107 85.25 35.0586C85.0286 35.0065 84.8398 34.9219 84.6836 34.8047C84.5339 34.681 84.4167 34.5247 84.332 34.3359C84.2474 34.1406 84.1921 33.903 84.166 33.623C83.9447 33.8639 83.7103 34.0885 83.4629 34.2969C83.2155 34.4987 82.9388 34.6777 82.6328 34.834C82.3268 34.9837 81.985 35.1009 81.6074 35.1855C81.2298 35.2767 80.8034 35.3223 80.3281 35.3223C79.9245 35.3223 79.5306 35.2572 79.1465 35.127C78.7689 34.9967 78.4271 34.8047 78.1211 34.5508C77.8216 34.2969 77.5807 33.9844 77.3984 33.6133C77.2161 33.2357 77.125 32.7995 77.125 32.3047C77.125 31.7643 77.2161 31.2988 77.3984 30.9082C77.5807 30.5111 77.8184 30.1823 78.1113 29.9219C78.4043 29.6549 78.7396 29.4499 79.1172 29.3066C79.4948 29.1634 79.8789 29.069 80.2695 29.0234L83.209 28.6621C83.4889 28.6296 83.707 28.5221 83.8633 28.3398C84.026 28.151 84.1074 27.8516 84.1074 27.4414C84.1074 26.8099 83.8991 26.3574 83.4824 26.084C83.0723 25.804 82.4798 25.6641 81.7051 25.6641C80.9108 25.6641 80.3184 25.8333 79.9277 26.1719C79.5371 26.5039 79.3158 27.0052 79.2637 27.6758H77.584ZM84.0684 29.6777C83.9251 29.7819 83.7461 29.8698 83.5312 29.9414C83.3229 30.0065 83.0918 30.0618 82.8379 30.1074C82.584 30.153 82.3138 30.1953 82.0273 30.2344C81.7409 30.2669 81.4544 30.3027 81.168 30.3418C80.8424 30.3874 80.543 30.4525 80.2695 30.5371C79.9961 30.6217 79.7585 30.7324 79.5566 30.8691C79.3548 31.0059 79.1986 31.1719 79.0879 31.3672C78.9772 31.556 78.9219 31.7806 78.9219 32.041C78.9219 32.3405 78.9674 32.6042 79.0586 32.832C79.1562 33.0599 79.2865 33.252 79.4492 33.4082C79.6185 33.5645 79.8203 33.6816 80.0547 33.7598C80.2891 33.8379 80.5462 33.877 80.8262 33.877C81.002 33.877 81.2038 33.8574 81.4316 33.8184C81.6595 33.7728 81.8939 33.7077 82.1348 33.623C82.3757 33.5384 82.61 33.431 82.8379 33.3008C83.0723 33.1641 83.2806 33.0013 83.4629 32.8125C83.6452 32.6237 83.7917 32.4089 83.9023 32.168C84.013 31.9271 84.0684 31.6569 84.0684 31.3574V29.6777ZM100.475 29.7559C100.475 29.1764 100.41 28.6458 100.279 28.1641C100.149 27.6758 99.9538 27.2559 99.6934 26.9043C99.4395 26.5527 99.1204 26.2793 98.7363 26.084C98.3587 25.8822 97.9193 25.7812 97.418 25.7812C96.9167 25.7812 96.474 25.8822 96.0898 26.084C95.7122 26.2793 95.3932 26.5527 95.1328 26.9043C94.8789 27.2559 94.6868 27.6758 94.5566 28.1641C94.4264 28.6458 94.3613 29.1764 94.3613 29.7559C94.3613 30.3418 94.4264 30.8822 94.5566 31.377C94.6868 31.8652 94.8789 32.2852 95.1328 32.6367C95.3932 32.9883 95.7122 33.265 96.0898 33.4668C96.474 33.6621 96.9167 33.7598 97.418 33.7598C97.9193 33.7598 98.3587 33.6621 98.7363 33.4668C99.1204 33.265 99.4395 32.9883 99.6934 32.6367C99.9538 32.2852 100.149 31.8652 100.279 31.377C100.41 30.8822 100.475 30.3418 100.475 29.7559ZM88.7363 24.541H90.5332V28.9648H92.5547C92.6263 28.2292 92.7891 27.5684 93.043 26.9824C93.2969 26.3965 93.6322 25.8984 94.0488 25.4883C94.4655 25.0781 94.957 24.7656 95.5234 24.5508C96.0898 24.3294 96.7214 24.2188 97.418 24.2188C98.1797 24.2188 98.86 24.349 99.459 24.6094C100.058 24.8633 100.566 25.2311 100.982 25.7129C101.406 26.1947 101.728 26.7773 101.949 27.4609C102.171 28.1445 102.281 28.9095 102.281 29.7559C102.281 30.6152 102.171 31.39 101.949 32.0801C101.728 32.7637 101.406 33.3464 100.982 33.8281C100.566 34.3099 100.058 34.681 99.459 34.9414C98.86 35.1953 98.1797 35.3223 97.418 35.3223C96.7083 35.3223 96.0638 35.2116 95.4844 34.9902C94.9115 34.7624 94.4167 34.4368 94 34.0137C93.5833 33.584 93.2513 33.0664 93.0039 32.4609C92.7565 31.849 92.6068 31.1621 92.5547 30.4004H90.5332V35H88.7363V24.541ZM104.645 37.041C105.094 36.9629 105.41 36.6471 105.592 36.0938C105.689 35.8008 105.738 35.5176 105.738 35.2441C105.738 35.1986 105.735 35.1562 105.729 35.1172C105.729 35.0846 105.722 35.0456 105.709 35H104.645V32.8711H106.734V34.8438C106.734 35.6185 106.578 36.2988 106.266 36.8848C105.953 37.4707 105.413 37.832 104.645 37.9688V37.041ZM115.436 24.541H121.93V26.1035H117.232V35H115.436V24.541ZM132.223 35H124.137V37.5586H122.457V33.4375H123.834C124.12 32.7344 124.348 32.0182 124.518 31.2891C124.687 30.5534 124.817 29.8145 124.908 29.0723C124.999 28.3236 125.058 27.5716 125.084 26.8164C125.11 26.0612 125.123 25.3027 125.123 24.541H132.428V33.4375H133.902V37.5586H132.223V35ZM130.631 33.4375V26.1035H126.842C126.796 26.696 126.747 27.3047 126.695 27.9297C126.65 28.5547 126.585 29.1829 126.5 29.8145C126.422 30.4395 126.314 31.0579 126.178 31.6699C126.048 32.2819 125.875 32.8711 125.66 33.4375H130.631ZM144.537 31.6602C144.465 32.1159 144.309 32.5618 144.068 32.998C143.827 33.4342 143.512 33.8249 143.121 34.1699C142.73 34.515 142.268 34.7917 141.734 35C141.207 35.2148 140.621 35.3223 139.977 35.3223C139.273 35.3223 138.622 35.2083 138.023 34.9805C137.431 34.7461 136.917 34.3978 136.48 33.9355C136.051 33.4668 135.712 32.8809 135.465 32.1777C135.217 31.4746 135.094 30.6478 135.094 29.6973C135.094 29.0592 135.162 28.4831 135.299 27.9688C135.442 27.4479 135.631 26.9857 135.865 26.582C136.106 26.1719 136.383 25.8203 136.695 25.5273C137.008 25.2279 137.337 24.9837 137.682 24.7949C138.033 24.5996 138.391 24.4564 138.756 24.3652C139.12 24.2676 139.472 24.2188 139.811 24.2188C140.527 24.2188 141.181 24.3262 141.773 24.541C142.366 24.7559 142.874 25.0846 143.297 25.5273C143.727 25.9635 144.059 26.5137 144.293 27.1777C144.534 27.8353 144.654 28.61 144.654 29.502V30.4004H137.008C137.014 30.9082 137.086 31.3704 137.223 31.7871C137.359 32.1973 137.555 32.5488 137.809 32.8418C138.062 33.1348 138.368 33.3626 138.727 33.5254C139.091 33.6816 139.501 33.7598 139.957 33.7598C140.419 33.7598 140.81 33.6947 141.129 33.5645C141.448 33.4342 141.715 33.2682 141.93 33.0664C142.145 32.8646 142.317 32.64 142.447 32.3926C142.584 32.1452 142.698 31.901 142.789 31.6602H144.537ZM142.848 28.9648C142.835 28.457 142.757 28.0046 142.613 27.6074C142.477 27.2103 142.281 26.8783 142.027 26.6113C141.78 26.3379 141.48 26.1328 141.129 25.9961C140.777 25.8529 140.387 25.7812 139.957 25.7812C139.547 25.7812 139.169 25.8626 138.824 26.0254C138.479 26.1816 138.176 26.403 137.916 26.6895C137.656 26.9694 137.447 27.3047 137.291 27.6953C137.135 28.0794 137.04 28.5026 137.008 28.9648H142.848ZM151.236 24.541H153.209L155.992 33.0566H156.031L158.814 24.541H160.787L156.793 35.4199C156.591 35.9668 156.406 36.4421 156.236 36.8457C156.067 37.2493 155.901 37.5911 155.738 37.8711C155.576 38.1576 155.41 38.3887 155.24 38.5645C155.077 38.7402 154.895 38.877 154.693 38.9746C154.498 39.0788 154.277 39.1471 154.029 39.1797C153.788 39.2188 153.508 39.2383 153.189 39.2383C152.929 39.2383 152.724 39.2253 152.574 39.1992C152.431 39.1797 152.304 39.1536 152.193 39.1211V37.5C152.311 37.5391 152.464 37.5781 152.652 37.6172C152.841 37.6562 153.04 37.6758 153.248 37.6758C153.58 37.6758 153.847 37.5944 154.049 37.4316C154.257 37.2754 154.417 37.0508 154.527 36.7578L155.113 35.2832L151.236 24.541ZM165.035 28.9551H165.943C166.184 28.9551 166.435 28.9258 166.695 28.8672C166.956 28.8086 167.193 28.7174 167.408 28.5938C167.623 28.4635 167.799 28.2975 167.936 28.0957C168.079 27.8939 168.15 27.6497 168.15 27.3633C168.15 27.1549 168.105 26.9564 168.014 26.7676C167.929 26.5723 167.799 26.403 167.623 26.2598C167.454 26.11 167.239 25.9928 166.979 25.9082C166.718 25.8236 166.415 25.7812 166.07 25.7812C165.888 25.7812 165.673 25.8073 165.426 25.8594C165.178 25.9115 164.934 26.0091 164.693 26.1523C164.459 26.2891 164.247 26.4876 164.059 26.748C163.876 27.002 163.759 27.334 163.707 27.7441H162.027C162.073 27.2754 162.167 26.8652 162.311 26.5137C162.454 26.1556 162.633 25.8464 162.848 25.5859C163.062 25.3255 163.303 25.1074 163.57 24.9316C163.844 24.7559 164.124 24.6159 164.41 24.5117C164.703 24.4076 164.996 24.3327 165.289 24.2871C165.582 24.2415 165.862 24.2188 166.129 24.2188C166.598 24.2188 167.06 24.2806 167.516 24.4043C167.971 24.5215 168.378 24.7038 168.736 24.9512C169.101 25.1921 169.394 25.498 169.615 25.8691C169.837 26.2402 169.947 26.6732 169.947 27.168C169.947 27.487 169.902 27.7702 169.811 28.0176C169.719 28.2585 169.599 28.4701 169.449 28.6523C169.306 28.8346 169.143 28.9909 168.961 29.1211C168.779 29.2448 168.6 29.349 168.424 29.4336V29.4824C168.606 29.515 168.808 29.5833 169.029 29.6875C169.251 29.7852 169.456 29.9284 169.645 30.1172C169.833 30.2995 169.99 30.5371 170.113 30.8301C170.243 31.1165 170.309 31.4681 170.309 31.8848C170.309 32.4707 170.182 32.9785 169.928 33.4082C169.68 33.8379 169.355 34.196 168.951 34.4824C168.548 34.7624 168.092 34.9707 167.584 35.1074C167.076 35.2507 166.565 35.3223 166.051 35.3223C165.387 35.3223 164.785 35.2376 164.244 35.0684C163.71 34.8991 163.248 34.6582 162.857 34.3457C162.467 34.0332 162.154 33.6589 161.92 33.2227C161.692 32.7865 161.555 32.3047 161.51 31.7773H163.316C163.362 32.1615 163.473 32.4805 163.648 32.7344C163.824 32.9883 164.036 33.1901 164.283 33.3398C164.531 33.4896 164.804 33.597 165.104 33.6621C165.41 33.7272 165.719 33.7598 166.031 33.7598C166.858 33.7598 167.477 33.5938 167.887 33.2617C168.303 32.9297 168.512 32.4837 168.512 31.9238C168.512 31.6829 168.473 31.4681 168.395 31.2793C168.323 31.0905 168.199 30.931 168.023 30.8008C167.848 30.6641 167.613 30.5632 167.32 30.498C167.034 30.4264 166.676 30.3906 166.246 30.3906C166.161 30.3906 166.064 30.3939 165.953 30.4004C165.849 30.4004 165.742 30.4036 165.631 30.4102C165.527 30.4167 165.423 30.4264 165.318 30.4395C165.214 30.446 165.12 30.4525 165.035 30.459V28.9551ZM172.33 24.541H174.127V28.7598H179.01V24.541H180.816V35H179.01V30.3223H174.127V35H172.33V24.541ZM183.443 27.6758C183.463 27.0378 183.583 26.5007 183.805 26.0645C184.026 25.6217 184.326 25.2637 184.703 24.9902C185.081 24.7168 185.527 24.5215 186.041 24.4043C186.562 24.2806 187.128 24.2188 187.74 24.2188C188.248 24.2188 188.74 24.2708 189.215 24.375C189.697 24.4792 190.123 24.6484 190.494 24.8828C190.865 25.1107 191.161 25.4102 191.383 25.7812C191.611 26.1458 191.725 26.5918 191.725 27.1191V33.2031C191.725 33.3724 191.77 33.5189 191.861 33.6426C191.952 33.7598 192.099 33.8184 192.301 33.8184C192.392 33.8184 192.486 33.8118 192.584 33.7988C192.682 33.7793 192.783 33.7598 192.887 33.7402V34.9805C192.737 35.0195 192.587 35.0553 192.438 35.0879C192.294 35.1204 192.122 35.1367 191.92 35.1367C191.607 35.1367 191.337 35.1107 191.109 35.0586C190.888 35.0065 190.699 34.9219 190.543 34.8047C190.393 34.681 190.276 34.5247 190.191 34.3359C190.107 34.1406 190.051 33.903 190.025 33.623C189.804 33.8639 189.57 34.0885 189.322 34.2969C189.075 34.4987 188.798 34.6777 188.492 34.834C188.186 34.9837 187.844 35.1009 187.467 35.1855C187.089 35.2767 186.663 35.3223 186.188 35.3223C185.784 35.3223 185.39 35.2572 185.006 35.127C184.628 34.9967 184.286 34.8047 183.98 34.5508C183.681 34.2969 183.44 33.9844 183.258 33.6133C183.076 33.2357 182.984 32.7995 182.984 32.3047C182.984 31.7643 183.076 31.2988 183.258 30.9082C183.44 30.5111 183.678 30.1823 183.971 29.9219C184.264 29.6549 184.599 29.4499 184.977 29.3066C185.354 29.1634 185.738 29.069 186.129 29.0234L189.068 28.6621C189.348 28.6296 189.566 28.5221 189.723 28.3398C189.885 28.151 189.967 27.8516 189.967 27.4414C189.967 26.8099 189.758 26.3574 189.342 26.084C188.932 25.804 188.339 25.6641 187.564 25.6641C186.77 25.6641 186.178 25.8333 185.787 26.1719C185.396 26.5039 185.175 27.0052 185.123 27.6758H183.443ZM189.928 29.6777C189.785 29.7819 189.605 29.8698 189.391 29.9414C189.182 30.0065 188.951 30.0618 188.697 30.1074C188.443 30.153 188.173 30.1953 187.887 30.2344C187.6 30.2669 187.314 30.3027 187.027 30.3418C186.702 30.3874 186.402 30.4525 186.129 30.5371C185.855 30.6217 185.618 30.7324 185.416 30.8691C185.214 31.0059 185.058 31.1719 184.947 31.3672C184.837 31.556 184.781 31.7806 184.781 32.041C184.781 32.3405 184.827 32.6042 184.918 32.832C185.016 33.0599 185.146 33.252 185.309 33.4082C185.478 33.5645 185.68 33.6816 185.914 33.7598C186.148 33.8379 186.406 33.877 186.686 33.877C186.861 33.877 187.063 33.8574 187.291 33.8184C187.519 33.7728 187.753 33.7077 187.994 33.623C188.235 33.5384 188.469 33.431 188.697 33.3008C188.932 33.1641 189.14 33.0013 189.322 32.8125C189.505 32.6237 189.651 32.4089 189.762 32.168C189.872 31.9271 189.928 31.6569 189.928 31.3574V29.6777ZM197.379 26.1035H193.775V24.541H202.779V26.1035H199.176V35H197.379V26.1035ZM204.596 24.541H206.393V28.4766H209.293C209.866 28.4766 210.377 28.5547 210.826 28.7109C211.275 28.8607 211.656 29.0788 211.969 29.3652C212.281 29.6452 212.519 29.987 212.682 30.3906C212.851 30.7878 212.936 31.237 212.936 31.7383C212.936 32.2461 212.851 32.7018 212.682 33.1055C212.519 33.5026 212.281 33.8444 211.969 34.1309C211.656 34.4108 211.275 34.6257 210.826 34.7754C210.377 34.9251 209.866 35 209.293 35H204.596V24.541ZM206.393 33.5645H208.941C209.254 33.5645 209.544 33.5319 209.811 33.4668C210.084 33.4017 210.318 33.2975 210.514 33.1543C210.709 33.0046 210.862 32.8158 210.973 32.5879C211.083 32.3535 211.139 32.0703 211.139 31.7383C211.139 31.4128 211.08 31.1361 210.963 30.9082C210.852 30.6803 210.693 30.4948 210.484 30.3516C210.283 30.2018 210.035 30.0944 209.742 30.0293C209.456 29.9577 209.133 29.9219 208.775 29.9219H206.393V33.5645ZM220.162 24.541H222.779L225.543 33.1152H225.582L228.385 24.541H230.846V35H229.166V26.582H229.127L226.363 35H224.645L221.881 26.582H221.842V35H220.162V24.541ZM233.482 24.541H235.279V28.7598H240.162V24.541H241.969V35H240.162V30.3223H235.279V35H233.482V24.541ZM253.521 31.6602C253.45 32.1159 253.294 32.5618 253.053 32.998C252.812 33.4342 252.496 33.8249 252.105 34.1699C251.715 34.515 251.253 34.7917 250.719 35C250.191 35.2148 249.605 35.3223 248.961 35.3223C248.258 35.3223 247.607 35.2083 247.008 34.9805C246.415 34.7461 245.901 34.3978 245.465 33.9355C245.035 33.4668 244.697 32.8809 244.449 32.1777C244.202 31.4746 244.078 30.6478 244.078 29.6973C244.078 29.0592 244.146 28.4831 244.283 27.9688C244.426 27.4479 244.615 26.9857 244.85 26.582C245.09 26.1719 245.367 25.8203 245.68 25.5273C245.992 25.2279 246.321 24.9837 246.666 24.7949C247.018 24.5996 247.376 24.4564 247.74 24.3652C248.105 24.2676 248.456 24.2188 248.795 24.2188C249.511 24.2188 250.165 24.3262 250.758 24.541C251.35 24.7559 251.858 25.0846 252.281 25.5273C252.711 25.9635 253.043 26.5137 253.277 27.1777C253.518 27.8353 253.639 28.61 253.639 29.502V30.4004H245.992C245.999 30.9082 246.07 31.3704 246.207 31.7871C246.344 32.1973 246.539 32.5488 246.793 32.8418C247.047 33.1348 247.353 33.3626 247.711 33.5254C248.076 33.6816 248.486 33.7598 248.941 33.7598C249.404 33.7598 249.794 33.6947 250.113 33.5645C250.432 33.4342 250.699 33.2682 250.914 33.0664C251.129 32.8646 251.301 32.64 251.432 32.3926C251.568 32.1452 251.682 31.901 251.773 31.6602H253.521ZM251.832 28.9648C251.819 28.457 251.741 28.0046 251.598 27.6074C251.461 27.2103 251.266 26.8783 251.012 26.6113C250.764 26.3379 250.465 26.1328 250.113 25.9961C249.762 25.8529 249.371 25.7812 248.941 25.7812C248.531 25.7812 248.154 25.8626 247.809 26.0254C247.464 26.1816 247.161 26.403 246.9 26.6895C246.64 26.9694 246.432 27.3047 246.275 27.6953C246.119 28.0794 246.025 28.5026 245.992 28.9648H251.832ZM255.748 24.541H257.545V28.7598H262.428V24.541H264.234V35H262.428V30.3223H257.545V35H255.748V24.541ZM266.881 24.541H268.678V32.5586H268.717L273.854 24.541H275.914V35H274.107V26.9824H274.068L268.941 35H266.881V24.541ZM287.467 31.6602C287.395 32.1159 287.239 32.5618 286.998 32.998C286.757 33.4342 286.441 33.8249 286.051 34.1699C285.66 34.515 285.198 34.7917 284.664 35C284.137 35.2148 283.551 35.3223 282.906 35.3223C282.203 35.3223 281.552 35.2083 280.953 34.9805C280.361 34.7461 279.846 34.3978 279.41 33.9355C278.98 33.4668 278.642 32.8809 278.395 32.1777C278.147 31.4746 278.023 30.6478 278.023 29.6973C278.023 29.0592 278.092 28.4831 278.229 27.9688C278.372 27.4479 278.561 26.9857 278.795 26.582C279.036 26.1719 279.312 25.8203 279.625 25.5273C279.938 25.2279 280.266 24.9837 280.611 24.7949C280.963 24.5996 281.321 24.4564 281.686 24.3652C282.05 24.2676 282.402 24.2188 282.74 24.2188C283.456 24.2188 284.111 24.3262 284.703 24.541C285.296 24.7559 285.803 25.0846 286.227 25.5273C286.656 25.9635 286.988 26.5137 287.223 27.1777C287.464 27.8353 287.584 28.61 287.584 29.502V30.4004H279.938C279.944 30.9082 280.016 31.3704 280.152 31.7871C280.289 32.1973 280.484 32.5488 280.738 32.8418C280.992 33.1348 281.298 33.3626 281.656 33.5254C282.021 33.6816 282.431 33.7598 282.887 33.7598C283.349 33.7598 283.74 33.6947 284.059 33.5645C284.378 33.4342 284.645 33.2682 284.859 33.0664C285.074 32.8646 285.247 32.64 285.377 32.3926C285.514 32.1452 285.628 31.901 285.719 31.6602H287.467ZM285.777 28.9648C285.764 28.457 285.686 28.0046 285.543 27.6074C285.406 27.2103 285.211 26.8783 284.957 26.6113C284.71 26.3379 284.41 26.1328 284.059 25.9961C283.707 25.8529 283.316 25.7812 282.887 25.7812C282.477 25.7812 282.099 25.8626 281.754 26.0254C281.409 26.1816 281.106 26.403 280.846 26.6895C280.585 26.9694 280.377 27.3047 280.221 27.6953C280.064 28.0794 279.97 28.5026 279.938 28.9648H285.777ZM302.301 26.1035H298.297L298.219 28.6133C298.18 29.8828 298.082 30.944 297.926 31.7969C297.77 32.6432 297.555 33.3236 297.281 33.8379C297.014 34.3522 296.689 34.7168 296.305 34.9316C295.921 35.1465 295.481 35.2539 294.986 35.2539C294.804 35.2539 294.645 35.2246 294.508 35.166C294.378 35.1139 294.277 35.0586 294.205 35V33.418C294.459 33.5156 294.684 33.5645 294.879 33.5645C295.016 33.5645 295.146 33.5417 295.27 33.4961C295.4 33.4505 295.52 33.3626 295.631 33.2324C295.748 33.1022 295.855 32.9199 295.953 32.6855C296.051 32.4447 296.135 32.1322 296.207 31.748C296.285 31.3639 296.347 30.8984 296.393 30.3516C296.445 29.8047 296.48 29.1536 296.5 28.3984L296.588 24.541H304.098V35H302.301V26.1035ZM318.482 29.7559C318.482 29.1764 318.417 28.6458 318.287 28.1641C318.157 27.6758 317.962 27.2559 317.701 26.9043C317.447 26.5527 317.128 26.2793 316.744 26.084C316.367 25.8822 315.927 25.7812 315.426 25.7812C314.924 25.7812 314.482 25.8822 314.098 26.084C313.72 26.2793 313.401 26.5527 313.141 26.9043C312.887 27.2559 312.695 27.6758 312.564 28.1641C312.434 28.6458 312.369 29.1764 312.369 29.7559C312.369 30.3418 312.434 30.8822 312.564 31.377C312.695 31.8652 312.887 32.2852 313.141 32.6367C313.401 32.9883 313.72 33.265 314.098 33.4668C314.482 33.6621 314.924 33.7598 315.426 33.7598C315.927 33.7598 316.367 33.6621 316.744 33.4668C317.128 33.265 317.447 32.9883 317.701 32.6367C317.962 32.2852 318.157 31.8652 318.287 31.377C318.417 30.8822 318.482 30.3418 318.482 29.7559ZM306.744 24.541H308.541V28.9648H310.562C310.634 28.2292 310.797 27.5684 311.051 26.9824C311.305 26.3965 311.64 25.8984 312.057 25.4883C312.473 25.0781 312.965 24.7656 313.531 24.5508C314.098 24.3294 314.729 24.2188 315.426 24.2188C316.188 24.2188 316.868 24.349 317.467 24.6094C318.066 24.8633 318.574 25.2311 318.99 25.7129C319.413 26.1947 319.736 26.7773 319.957 27.4609C320.178 28.1445 320.289 28.9095 320.289 29.7559C320.289 30.6152 320.178 31.39 319.957 32.0801C319.736 32.7637 319.413 33.3464 318.99 33.8281C318.574 34.3099 318.066 34.681 317.467 34.9414C316.868 35.1953 316.188 35.3223 315.426 35.3223C314.716 35.3223 314.072 35.2116 313.492 34.9902C312.919 34.7624 312.424 34.4368 312.008 34.0137C311.591 33.584 311.259 33.0664 311.012 32.4609C310.764 31.849 310.615 31.1621 310.562 30.4004H308.541V35H306.744V24.541ZM331.031 35H322.945V37.5586H321.266V33.4375H322.643C322.929 32.7344 323.157 32.0182 323.326 31.2891C323.495 30.5534 323.626 29.8145 323.717 29.0723C323.808 28.3236 323.867 27.5716 323.893 26.8164C323.919 26.0612 323.932 25.3027 323.932 24.541H331.236V33.4375H332.711V37.5586H331.031V35ZM329.439 33.4375V26.1035H325.65C325.605 26.696 325.556 27.3047 325.504 27.9297C325.458 28.5547 325.393 29.1829 325.309 29.8145C325.23 30.4395 325.123 31.0579 324.986 31.6699C324.856 32.2819 324.684 32.8711 324.469 33.4375H329.439ZM343.346 31.6602C343.274 32.1159 343.118 32.5618 342.877 32.998C342.636 33.4342 342.32 33.8249 341.93 34.1699C341.539 34.515 341.077 34.7917 340.543 35C340.016 35.2148 339.43 35.3223 338.785 35.3223C338.082 35.3223 337.431 35.2083 336.832 34.9805C336.24 34.7461 335.725 34.3978 335.289 33.9355C334.859 33.4668 334.521 32.8809 334.273 32.1777C334.026 31.4746 333.902 30.6478 333.902 29.6973C333.902 29.0592 333.971 28.4831 334.107 27.9688C334.251 27.4479 334.439 26.9857 334.674 26.582C334.915 26.1719 335.191 25.8203 335.504 25.5273C335.816 25.2279 336.145 24.9837 336.49 24.7949C336.842 24.5996 337.2 24.4564 337.564 24.3652C337.929 24.2676 338.281 24.2188 338.619 24.2188C339.335 24.2188 339.99 24.3262 340.582 24.541C341.174 24.7559 341.682 25.0846 342.105 25.5273C342.535 25.9635 342.867 26.5137 343.102 27.1777C343.342 27.8353 343.463 28.61 343.463 29.502V30.4004H335.816C335.823 30.9082 335.895 31.3704 336.031 31.7871C336.168 32.1973 336.363 32.5488 336.617 32.8418C336.871 33.1348 337.177 33.3626 337.535 33.5254C337.9 33.6816 338.31 33.7598 338.766 33.7598C339.228 33.7598 339.618 33.6947 339.938 33.5645C340.257 33.4342 340.523 33.2682 340.738 33.0664C340.953 32.8646 341.126 32.64 341.256 32.3926C341.393 32.1452 341.507 31.901 341.598 31.6602H343.346ZM341.656 28.9648C341.643 28.457 341.565 28.0046 341.422 27.6074C341.285 27.2103 341.09 26.8783 340.836 26.6113C340.589 26.3379 340.289 26.1328 339.938 25.9961C339.586 25.8529 339.195 25.7812 338.766 25.7812C338.355 25.7812 337.978 25.8626 337.633 26.0254C337.288 26.1816 336.985 26.403 336.725 26.6895C336.464 26.9694 336.256 27.3047 336.1 27.6953C335.943 28.0794 335.849 28.5026 335.816 28.9648H341.656ZM348.395 20.4785C348.479 20.8952 348.655 21.2272 348.922 21.4746C349.189 21.7155 349.583 21.8359 350.104 21.8359C350.631 21.8359 351.028 21.7188 351.295 21.4844C351.562 21.2435 351.734 20.9082 351.812 20.4785H353.482C353.476 20.8691 353.391 21.224 353.229 21.543C353.066 21.8555 352.835 22.1224 352.535 22.3438C352.242 22.5651 351.887 22.7376 351.471 22.8613C351.061 22.9785 350.605 23.0371 350.104 23.0371C349.602 23.0371 349.146 22.9785 348.736 22.8613C348.326 22.7441 347.975 22.5749 347.682 22.3535C347.389 22.1322 347.158 21.8652 346.988 21.5527C346.826 21.2337 346.741 20.8757 346.734 20.4785H348.395ZM345.572 24.541H347.369V32.5586H347.408L352.545 24.541H354.605V35H352.799V26.9824H352.76L347.633 35H345.572V24.541ZM32.623 52.7559C32.623 52.1764 32.5579 51.6458 32.4277 51.1641C32.2975 50.6758 32.1022 50.2559 31.8418 49.9043C31.5814 49.5527 31.2591 49.2793 30.875 49.084C30.4974 48.8822 30.0579 48.7812 29.5566 48.7812C29.0553 48.7812 28.6159 48.8822 28.2383 49.084C27.8607 49.2793 27.5417 49.5527 27.2812 49.9043C27.0208 50.2559 26.8255 50.6758 26.6953 51.1641C26.5651 51.6458 26.5 52.1764 26.5 52.7559C26.5 53.3418 26.5651 53.8822 26.6953 54.377C26.8255 54.8652 27.0208 55.2852 27.2812 55.6367C27.5417 55.9883 27.8607 56.265 28.2383 56.4668C28.6159 56.6621 29.0553 56.7598 29.5566 56.7598C30.0579 56.7598 30.4974 56.6621 30.875 56.4668C31.2591 56.265 31.5814 55.9883 31.8418 55.6367C32.1022 55.2852 32.2975 54.8652 32.4277 54.377C32.5579 53.8822 32.623 53.3418 32.623 52.7559ZM34.4199 52.7559C34.4199 53.6152 34.3092 54.39 34.0879 55.0801C33.8665 55.7637 33.5475 56.3464 33.1309 56.8281C32.7142 57.3099 32.2031 57.681 31.5977 57.9414C30.9987 58.1953 30.3184 58.3223 29.5566 58.3223C28.7949 58.3223 28.1146 58.1953 27.5156 57.9414C26.9167 57.681 26.4089 57.3099 25.9922 56.8281C25.5755 56.3464 25.2565 55.7637 25.0352 55.0801C24.8138 54.39 24.7031 53.6152 24.7031 52.7559C24.7031 51.9095 24.8138 51.1445 25.0352 50.4609C25.2565 49.7773 25.5755 49.1947 25.9922 48.7129C26.4089 48.2311 26.9167 47.8633 27.5156 47.6094C28.1146 47.349 28.7949 47.2188 29.5566 47.2188C30.3184 47.2188 30.9987 47.349 31.5977 47.6094C32.2031 47.8633 32.7142 48.2311 33.1309 48.7129C33.5475 49.1947 33.8665 49.7773 34.0879 50.4609C34.3092 51.1445 34.4199 51.9095 34.4199 52.7559ZM41.9199 47.541H43.7168V48.9766H43.7559C43.873 48.7357 44.0195 48.5078 44.1953 48.293C44.3776 48.0781 44.5924 47.8926 44.8398 47.7363C45.0938 47.5736 45.3835 47.4466 45.709 47.3555C46.041 47.2643 46.4186 47.2188 46.8418 47.2188C47.4017 47.2188 47.9388 47.3262 48.4531 47.541C48.9674 47.7559 49.4232 48.0781 49.8203 48.5078C50.2174 48.9375 50.5332 49.4779 50.7676 50.1289C51.002 50.7734 51.1191 51.5254 51.1191 52.3848C51.1191 53.459 51.0085 54.3737 50.7871 55.1289C50.5723 55.8776 50.263 56.4896 49.8594 56.9648C49.4622 57.4401 48.9805 57.7852 48.4141 58C47.8477 58.2148 47.2161 58.3223 46.5195 58.3223C46.1745 58.3223 45.8522 58.2767 45.5527 58.1855C45.2533 58.0944 44.9831 57.9772 44.7422 57.834C44.5078 57.6842 44.306 57.5215 44.1367 57.3457C43.9674 57.1634 43.8405 56.9876 43.7559 56.8184H43.7168V62.1211H41.9199V47.541ZM43.6777 52.8242C43.6777 53.3906 43.7331 53.9147 43.8438 54.3965C43.9544 54.8717 44.1237 55.2852 44.3516 55.6367C44.5859 55.9883 44.8757 56.265 45.2207 56.4668C45.5723 56.6621 45.9857 56.7598 46.4609 56.7598C46.9557 56.7598 47.3822 56.6621 47.7402 56.4668C48.1048 56.265 48.4043 55.9883 48.6387 55.6367C48.873 55.2852 49.0456 54.8717 49.1562 54.3965C49.2669 53.9147 49.3223 53.3906 49.3223 52.8242C49.3223 52.2318 49.2669 51.6882 49.1562 51.1934C49.0456 50.6986 48.873 50.2721 48.6387 49.9141C48.4043 49.556 48.1048 49.2793 47.7402 49.084C47.3822 48.8822 46.9557 48.7812 46.4609 48.7812C45.9857 48.7812 45.5723 48.8822 45.2207 49.084C44.8757 49.2793 44.5859 49.556 44.3516 49.9141C44.1237 50.2721 43.9544 50.6986 43.8438 51.1934C43.7331 51.6882 43.6777 52.2318 43.6777 52.8242ZM53.1309 50.6758C53.1504 50.0378 53.2708 49.5007 53.4922 49.0645C53.7135 48.6217 54.013 48.2637 54.3906 47.9902C54.7682 47.7168 55.2142 47.5215 55.7285 47.4043C56.2493 47.2806 56.8158 47.2188 57.4277 47.2188C57.9355 47.2188 58.4271 47.2708 58.9023 47.375C59.3841 47.4792 59.8105 47.6484 60.1816 47.8828C60.5527 48.1107 60.849 48.4102 61.0703 48.7812C61.2982 49.1458 61.4121 49.5918 61.4121 50.1191V56.2031C61.4121 56.3724 61.4577 56.5189 61.5488 56.6426C61.64 56.7598 61.7865 56.8184 61.9883 56.8184C62.0794 56.8184 62.1738 56.8118 62.2715 56.7988C62.3691 56.7793 62.4701 56.7598 62.5742 56.7402V57.9805C62.4245 58.0195 62.2747 58.0553 62.125 58.0879C61.9818 58.1204 61.8092 58.1367 61.6074 58.1367C61.2949 58.1367 61.0247 58.1107 60.7969 58.0586C60.5755 58.0065 60.3867 57.9219 60.2305 57.8047C60.0807 57.681 59.9635 57.5247 59.8789 57.3359C59.7943 57.1406 59.7389 56.903 59.7129 56.623C59.4915 56.8639 59.2572 57.0885 59.0098 57.2969C58.7624 57.4987 58.4857 57.6777 58.1797 57.834C57.8737 57.9837 57.5319 58.1009 57.1543 58.1855C56.7767 58.2767 56.3503 58.3223 55.875 58.3223C55.4714 58.3223 55.0775 58.2572 54.6934 58.127C54.3158 57.9967 53.974 57.8047 53.668 57.5508C53.3685 57.2969 53.1276 56.9844 52.9453 56.6133C52.763 56.2357 52.6719 55.7995 52.6719 55.3047C52.6719 54.7643 52.763 54.2988 52.9453 53.9082C53.1276 53.5111 53.3652 53.1823 53.6582 52.9219C53.9512 52.6549 54.2865 52.4499 54.6641 52.3066C55.0417 52.1634 55.4258 52.069 55.8164 52.0234L58.7559 51.6621C59.0358 51.6296 59.2539 51.5221 59.4102 51.3398C59.5729 51.151 59.6543 50.8516 59.6543 50.4414C59.6543 49.8099 59.446 49.3574 59.0293 49.084C58.6191 48.804 58.0267 48.6641 57.252 48.6641C56.4577 48.6641 55.8652 48.8333 55.4746 49.1719C55.084 49.5039 54.8626 50.0052 54.8105 50.6758H53.1309ZM59.6152 52.6777C59.472 52.7819 59.293 52.8698 59.0781 52.9414C58.8698 53.0065 58.6387 53.0618 58.3848 53.1074C58.1309 53.153 57.8607 53.1953 57.5742 53.2344C57.2878 53.2669 57.0013 53.3027 56.7148 53.3418C56.3893 53.3874 56.0898 53.4525 55.8164 53.5371C55.543 53.6217 55.3053 53.7324 55.1035 53.8691C54.9017 54.0059 54.7454 54.1719 54.6348 54.3672C54.5241 54.556 54.4688 54.7806 54.4688 55.041C54.4688 55.3405 54.5143 55.6042 54.6055 55.832C54.7031 56.0599 54.8333 56.252 54.9961 56.4082C55.1654 56.5645 55.3672 56.6816 55.6016 56.7598C55.8359 56.8379 56.0931 56.877 56.373 56.877C56.5488 56.877 56.7507 56.8574 56.9785 56.8184C57.2064 56.7728 57.4408 56.7077 57.6816 56.623C57.9225 56.5384 58.1569 56.431 58.3848 56.3008C58.6191 56.1641 58.8275 56.0013 59.0098 55.8125C59.1921 55.6237 59.3385 55.4089 59.4492 55.168C59.5599 54.9271 59.6152 54.6569 59.6152 54.3574V52.6777ZM66.9883 51.9551H67.8965C68.1374 51.9551 68.388 51.9258 68.6484 51.8672C68.9089 51.8086 69.1465 51.7174 69.3613 51.5938C69.5762 51.4635 69.752 51.2975 69.8887 51.0957C70.0319 50.8939 70.1035 50.6497 70.1035 50.3633C70.1035 50.1549 70.0579 49.9564 69.9668 49.7676C69.8822 49.5723 69.752 49.403 69.5762 49.2598C69.4069 49.11 69.1921 48.9928 68.9316 48.9082C68.6712 48.8236 68.3685 48.7812 68.0234 48.7812C67.8411 48.7812 67.6263 48.8073 67.3789 48.8594C67.1315 48.9115 66.8874 49.0091 66.6465 49.1523C66.4121 49.2891 66.2005 49.4876 66.0117 49.748C65.8294 50.002 65.7122 50.334 65.6602 50.7441H63.9805C64.026 50.2754 64.1204 49.8652 64.2637 49.5137C64.4069 49.1556 64.5859 48.8464 64.8008 48.5859C65.0156 48.3255 65.2565 48.1074 65.5234 47.9316C65.7969 47.7559 66.0768 47.6159 66.3633 47.5117C66.6562 47.4076 66.9492 47.3327 67.2422 47.2871C67.5352 47.2415 67.8151 47.2188 68.082 47.2188C68.5508 47.2188 69.013 47.2806 69.4688 47.4043C69.9245 47.5215 70.3314 47.7038 70.6895 47.9512C71.054 48.1921 71.347 48.498 71.5684 48.8691C71.7897 49.2402 71.9004 49.6732 71.9004 50.168C71.9004 50.487 71.8548 50.7702 71.7637 51.0176C71.6725 51.2585 71.5521 51.4701 71.4023 51.6523C71.2591 51.8346 71.0964 51.9909 70.9141 52.1211C70.7318 52.2448 70.5527 52.349 70.377 52.4336V52.4824C70.5592 52.515 70.7611 52.5833 70.9824 52.6875C71.2038 52.7852 71.4089 52.9284 71.5977 53.1172C71.7865 53.2995 71.9427 53.5371 72.0664 53.8301C72.1966 54.1165 72.2617 54.4681 72.2617 54.8848C72.2617 55.4707 72.1348 55.9785 71.8809 56.4082C71.6335 56.8379 71.3079 57.196 70.9043 57.4824C70.5007 57.7624 70.0449 57.9707 69.5371 58.1074C69.0293 58.2507 68.5182 58.3223 68.0039 58.3223C67.3398 58.3223 66.7376 58.2376 66.1973 58.0684C65.6634 57.8991 65.2012 57.6582 64.8105 57.3457C64.4199 57.0332 64.1074 56.6589 63.873 56.2227C63.6452 55.7865 63.5085 55.3047 63.4629 54.7773H65.2695C65.3151 55.1615 65.4258 55.4805 65.6016 55.7344C65.7773 55.9883 65.9889 56.1901 66.2363 56.3398C66.4837 56.4896 66.7572 56.597 67.0566 56.6621C67.3626 56.7272 67.6719 56.7598 67.9844 56.7598C68.8112 56.7598 69.4297 56.5938 69.8398 56.2617C70.2565 55.9297 70.4648 55.4837 70.4648 54.9238C70.4648 54.6829 70.4258 54.4681 70.3477 54.2793C70.276 54.0905 70.1523 53.931 69.9766 53.8008C69.8008 53.6641 69.5664 53.5632 69.2734 53.498C68.987 53.4264 68.6289 53.3906 68.1992 53.3906C68.1146 53.3906 68.0169 53.3939 67.9062 53.4004C67.8021 53.4004 67.6947 53.4036 67.584 53.4102C67.4798 53.4167 67.3757 53.4264 67.2715 53.4395C67.1673 53.446 67.0729 53.4525 66.9883 53.459V51.9551ZM74.2832 47.541H76.0801V51.7598H80.9629V47.541H82.7695V58H80.9629V53.3223H76.0801V58H74.2832V47.541ZM95.416 47.541H97.2129V58H95.416V47.541ZM85.416 47.541H87.2129V51.4766H90.3574C90.9238 51.4766 91.4316 51.5547 91.8809 51.7109C92.3366 51.8607 92.7207 52.0788 93.0332 52.3652C93.3457 52.6452 93.5833 52.987 93.7461 53.3906C93.9154 53.7878 94 54.237 94 54.7383C94 55.2461 93.9154 55.7018 93.7461 56.1055C93.5833 56.5026 93.3457 56.8444 93.0332 57.1309C92.7207 57.4108 92.3366 57.6257 91.8809 57.7754C91.4316 57.9251 90.9238 58 90.3574 58H85.416V47.541ZM87.2129 56.5645H89.9961C90.3086 56.5645 90.5983 56.5319 90.8652 56.4668C91.1387 56.4017 91.373 56.2975 91.5684 56.1543C91.7637 56.0046 91.9167 55.8158 92.0273 55.5879C92.138 55.3535 92.1934 55.0703 92.1934 54.7383C92.1934 54.4128 92.1348 54.1361 92.0176 53.9082C91.9069 53.6803 91.7474 53.4948 91.5391 53.3516C91.3372 53.2018 91.0898 53.0944 90.7969 53.0293C90.5104 52.9577 90.1914 52.9219 89.8398 52.9219H87.2129V56.5645ZM103.434 54.1035L100.973 58H98.7461L102.408 52.6387L98.9316 47.541H101.188L103.668 51.1836L106.031 47.541H108.189L104.654 52.6387L108.355 58H106.09L103.434 54.1035ZM114.342 47.541H116.314L119.098 56.0566H119.137L121.92 47.541H123.893L119.898 58.4199C119.697 58.9668 119.511 59.4421 119.342 59.8457C119.173 60.2493 119.007 60.5911 118.844 60.8711C118.681 61.1576 118.515 61.3887 118.346 61.5645C118.183 61.7402 118.001 61.877 117.799 61.9746C117.604 62.0788 117.382 62.1471 117.135 62.1797C116.894 62.2188 116.614 62.2383 116.295 62.2383C116.035 62.2383 115.829 62.2253 115.68 62.1992C115.536 62.1797 115.41 62.1536 115.299 62.1211V60.5C115.416 60.5391 115.569 60.5781 115.758 60.6172C115.947 60.6562 116.145 60.6758 116.354 60.6758C116.686 60.6758 116.952 60.5944 117.154 60.4316C117.363 60.2754 117.522 60.0508 117.633 59.7578L118.219 58.2832L114.342 47.541ZM134.156 58H126.07V60.5586H124.391V56.4375H125.768C126.054 55.7344 126.282 55.0182 126.451 54.2891C126.62 53.5534 126.751 52.8145 126.842 52.0723C126.933 51.3236 126.992 50.5716 127.018 49.8164C127.044 49.0612 127.057 48.3027 127.057 47.541H134.361V56.4375H135.836V60.5586H134.156V58ZM132.564 56.4375V49.1035H128.775C128.73 49.696 128.681 50.3047 128.629 50.9297C128.583 51.5547 128.518 52.1829 128.434 52.8145C128.355 53.4395 128.248 54.0579 128.111 54.6699C127.981 55.2819 127.809 55.8711 127.594 56.4375H132.564ZM144.869 52.7559C144.869 52.1764 144.804 51.6458 144.674 51.1641C144.544 50.6758 144.348 50.2559 144.088 49.9043C143.827 49.5527 143.505 49.2793 143.121 49.084C142.743 48.8822 142.304 48.7812 141.803 48.7812C141.301 48.7812 140.862 48.8822 140.484 49.084C140.107 49.2793 139.788 49.5527 139.527 49.9043C139.267 50.2559 139.072 50.6758 138.941 51.1641C138.811 51.6458 138.746 52.1764 138.746 52.7559C138.746 53.3418 138.811 53.8822 138.941 54.377C139.072 54.8652 139.267 55.2852 139.527 55.6367C139.788 55.9883 140.107 56.265 140.484 56.4668C140.862 56.6621 141.301 56.7598 141.803 56.7598C142.304 56.7598 142.743 56.6621 143.121 56.4668C143.505 56.265 143.827 55.9883 144.088 55.6367C144.348 55.2852 144.544 54.8652 144.674 54.377C144.804 53.8822 144.869 53.3418 144.869 52.7559ZM146.666 52.7559C146.666 53.6152 146.555 54.39 146.334 55.0801C146.113 55.7637 145.794 56.3464 145.377 56.8281C144.96 57.3099 144.449 57.681 143.844 57.9414C143.245 58.1953 142.564 58.3223 141.803 58.3223C141.041 58.3223 140.361 58.1953 139.762 57.9414C139.163 57.681 138.655 57.3099 138.238 56.8281C137.822 56.3464 137.503 55.7637 137.281 55.0801C137.06 54.39 136.949 53.6152 136.949 52.7559C136.949 51.9095 137.06 51.1445 137.281 50.4609C137.503 49.7773 137.822 49.1947 138.238 48.7129C138.655 48.2311 139.163 47.8633 139.762 47.6094C140.361 47.349 141.041 47.2188 141.803 47.2188C142.564 47.2188 143.245 47.349 143.844 47.6094C144.449 47.8633 144.96 48.2311 145.377 48.7129C145.794 49.1947 146.113 49.7773 146.334 50.4609C146.555 51.1445 146.666 51.9095 146.666 52.7559ZM156.822 43.5176C156.809 43.6152 156.79 43.7357 156.764 43.8789C156.744 44.0156 156.702 44.1621 156.637 44.3184C156.572 44.4746 156.48 44.6341 156.363 44.7969C156.253 44.9531 156.103 45.0996 155.914 45.2363C155.81 45.3079 155.715 45.3698 155.631 45.4219C155.546 45.474 155.439 45.5195 155.309 45.5586C155.178 45.5977 155.012 45.6302 154.811 45.6562C154.609 45.6823 154.339 45.6986 154 45.7051L153.258 45.7246C152.75 45.7376 152.291 45.8418 151.881 46.0371C151.477 46.2259 151.119 46.4928 150.807 46.8379C150.501 47.1764 150.247 47.5866 150.045 48.0684C149.843 48.5501 149.693 49.0872 149.596 49.6797C149.732 49.4193 149.902 49.1654 150.104 48.918C150.305 48.6641 150.556 48.4395 150.855 48.2441C151.155 48.0423 151.507 47.8828 151.91 47.7656C152.314 47.6419 152.783 47.5801 153.316 47.5801C153.922 47.5801 154.495 47.6875 155.035 47.9023C155.582 48.1172 156.057 48.4395 156.461 48.8691C156.871 49.2988 157.197 49.8327 157.438 50.4707C157.678 51.1087 157.799 51.8509 157.799 52.6973C157.799 52.9642 157.779 53.2897 157.74 53.6738C157.701 54.0514 157.623 54.4486 157.506 54.8652C157.389 55.2819 157.219 55.6986 156.998 56.1152C156.783 56.5254 156.493 56.8932 156.129 57.2188C155.771 57.5443 155.331 57.8079 154.811 58.0098C154.296 58.2181 153.678 58.3223 152.955 58.3223C152.656 58.3223 152.337 58.2962 151.998 58.2441C151.666 58.1986 151.331 58.1107 150.992 57.9805C150.66 57.8503 150.335 57.668 150.016 57.4336C149.703 57.1992 149.417 56.8997 149.156 56.5352C149.026 56.3529 148.896 56.1445 148.766 55.9102C148.642 55.6693 148.528 55.3796 148.424 55.041C148.32 54.7025 148.235 54.3021 148.17 53.8398C148.111 53.3776 148.082 52.8307 148.082 52.1992C148.082 51.7826 148.102 51.3105 148.141 50.7832C148.18 50.2559 148.248 49.7188 148.346 49.1719C148.443 48.625 148.574 48.0977 148.736 47.5898C148.899 47.0755 149.107 46.6263 149.361 46.2422C149.635 45.8255 149.921 45.487 150.221 45.2266C150.52 44.9661 150.839 44.7611 151.178 44.6113C151.516 44.4616 151.881 44.3542 152.271 44.2891C152.662 44.224 153.085 44.1816 153.541 44.1621L154.176 44.1426C154.384 44.1361 154.56 44.1263 154.703 44.1133C154.853 44.0938 154.977 44.0645 155.074 44.0254C155.172 43.9863 155.25 43.9277 155.309 43.8496C155.367 43.7715 155.416 43.6608 155.455 43.5176H156.822ZM149.879 52.9609C149.879 53.1562 149.889 53.3874 149.908 53.6543C149.934 53.9212 149.983 54.2012 150.055 54.4941C150.126 54.7806 150.23 55.0671 150.367 55.3535C150.504 55.64 150.683 55.8971 150.904 56.125C151.132 56.3464 151.412 56.5286 151.744 56.6719C152.076 56.8086 152.473 56.877 152.936 56.877C153.45 56.877 153.883 56.7956 154.234 56.6328C154.586 56.4635 154.876 56.2487 155.104 55.9883C155.331 55.7214 155.504 55.4284 155.621 55.1094C155.745 54.7904 155.833 54.4811 155.885 54.1816C155.943 53.8757 155.976 53.599 155.982 53.3516C155.995 53.0977 156.002 52.9056 156.002 52.7754C156.002 52.3001 155.947 51.8346 155.836 51.3789C155.732 50.9232 155.559 50.5195 155.318 50.168C155.084 49.8164 154.775 49.5332 154.391 49.3184C154.013 49.1035 153.548 48.9961 152.994 48.9961C152.454 48.9961 151.988 49.1035 151.598 49.3184C151.207 49.5267 150.885 49.8132 150.631 50.1777C150.377 50.5358 150.188 50.9557 150.064 51.4375C149.941 51.9128 149.879 52.4206 149.879 52.9609ZM159.732 47.541H161.529V48.9766H161.568C161.686 48.7357 161.832 48.5078 162.008 48.293C162.19 48.0781 162.405 47.8926 162.652 47.7363C162.906 47.5736 163.196 47.4466 163.521 47.3555C163.854 47.2643 164.231 47.2188 164.654 47.2188C165.214 47.2188 165.751 47.3262 166.266 47.541C166.78 47.7559 167.236 48.0781 167.633 48.5078C168.03 48.9375 168.346 49.4779 168.58 50.1289C168.814 50.7734 168.932 51.5254 168.932 52.3848C168.932 53.459 168.821 54.3737 168.6 55.1289C168.385 55.8776 168.076 56.4896 167.672 56.9648C167.275 57.4401 166.793 57.7852 166.227 58C165.66 58.2148 165.029 58.3223 164.332 58.3223C163.987 58.3223 163.665 58.2767 163.365 58.1855C163.066 58.0944 162.796 57.9772 162.555 57.834C162.32 57.6842 162.118 57.5215 161.949 57.3457C161.78 57.1634 161.653 56.9876 161.568 56.8184H161.529V62.1211H159.732V47.541ZM161.49 52.8242C161.49 53.3906 161.546 53.9147 161.656 54.3965C161.767 54.8717 161.936 55.2852 162.164 55.6367C162.398 55.9883 162.688 56.265 163.033 56.4668C163.385 56.6621 163.798 56.7598 164.273 56.7598C164.768 56.7598 165.195 56.6621 165.553 56.4668C165.917 56.265 166.217 55.9883 166.451 55.6367C166.686 55.2852 166.858 54.8717 166.969 54.3965C167.079 53.9147 167.135 53.3906 167.135 52.8242C167.135 52.2318 167.079 51.6882 166.969 51.1934C166.858 50.6986 166.686 50.2721 166.451 49.9141C166.217 49.556 165.917 49.2793 165.553 49.084C165.195 48.8822 164.768 48.7812 164.273 48.7812C163.798 48.7812 163.385 48.8822 163.033 49.084C162.688 49.2793 162.398 49.556 162.164 49.9141C161.936 50.2721 161.767 50.6986 161.656 51.1934C161.546 51.6882 161.49 52.2318 161.49 52.8242ZM179.869 54.6602C179.798 55.1159 179.641 55.5618 179.4 55.998C179.16 56.4342 178.844 56.8249 178.453 57.1699C178.062 57.515 177.6 57.7917 177.066 58C176.539 58.2148 175.953 58.3223 175.309 58.3223C174.605 58.3223 173.954 58.2083 173.355 57.9805C172.763 57.7461 172.249 57.3978 171.812 56.9355C171.383 56.4668 171.044 55.8809 170.797 55.1777C170.549 54.4746 170.426 53.6478 170.426 52.6973C170.426 52.0592 170.494 51.4831 170.631 50.9688C170.774 50.4479 170.963 49.9857 171.197 49.582C171.438 49.1719 171.715 48.8203 172.027 48.5273C172.34 48.2279 172.669 47.9837 173.014 47.7949C173.365 47.5996 173.723 47.4564 174.088 47.3652C174.452 47.2676 174.804 47.2188 175.143 47.2188C175.859 47.2188 176.513 47.3262 177.105 47.541C177.698 47.7559 178.206 48.0846 178.629 48.5273C179.059 48.9635 179.391 49.5137 179.625 50.1777C179.866 50.8353 179.986 51.61 179.986 52.502V53.4004H172.34C172.346 53.9082 172.418 54.3704 172.555 54.7871C172.691 55.1973 172.887 55.5488 173.141 55.8418C173.395 56.1348 173.701 56.3626 174.059 56.5254C174.423 56.6816 174.833 56.7598 175.289 56.7598C175.751 56.7598 176.142 56.6947 176.461 56.5645C176.78 56.4342 177.047 56.2682 177.262 56.0664C177.477 55.8646 177.649 55.64 177.779 55.3926C177.916 55.1452 178.03 54.901 178.121 54.6602H179.869ZM178.18 51.9648C178.167 51.457 178.089 51.0046 177.945 50.6074C177.809 50.2103 177.613 49.8783 177.359 49.6113C177.112 49.3379 176.812 49.1328 176.461 48.9961C176.109 48.8529 175.719 48.7812 175.289 48.7812C174.879 48.7812 174.501 48.8626 174.156 49.0254C173.811 49.1816 173.508 49.403 173.248 49.6895C172.988 49.9694 172.779 50.3047 172.623 50.6953C172.467 51.0794 172.372 51.5026 172.34 51.9648H178.18ZM182.096 47.541H183.893V51.7598H188.775V47.541H190.582V58H188.775V53.3223H183.893V58H182.096V47.541ZM193.229 47.541H195.025V55.5586H195.064L200.201 47.541H202.262V58H200.455V49.9824H200.416L195.289 58H193.229V47.541ZM213.414 58H211.607V53.8594H209.293C208.876 53.8594 208.512 53.8691 208.199 53.8887C207.893 53.9017 207.633 53.9603 207.418 54.0645C207.203 54.1686 207.034 54.3314 206.91 54.5527C206.793 54.7741 206.718 55.0898 206.686 55.5L206.607 56.623C206.601 56.6556 206.594 56.7207 206.588 56.8184C206.581 56.916 206.568 57.0332 206.549 57.1699C206.529 57.3001 206.503 57.4401 206.471 57.5898C206.438 57.7396 206.399 57.8763 206.354 58H204.371C204.417 57.9414 204.459 57.8828 204.498 57.8242C204.544 57.7591 204.586 57.6712 204.625 57.5605C204.671 57.4499 204.71 57.3066 204.742 57.1309C204.781 56.9551 204.817 56.7305 204.85 56.457L204.967 55.1191C205.006 54.7676 205.051 54.4811 205.104 54.2598C205.162 54.0384 205.24 53.8561 205.338 53.7129C205.442 53.5632 205.576 53.4427 205.738 53.3516C205.901 53.2539 206.106 53.1562 206.354 53.0586C205.234 52.6549 204.674 51.8281 204.674 50.5781C204.674 50.2656 204.713 49.9792 204.791 49.7188C204.869 49.4518 204.97 49.2142 205.094 49.0059C205.224 48.7975 205.367 48.6152 205.523 48.459C205.686 48.2962 205.849 48.1628 206.012 48.0586C206.214 47.9284 206.435 47.8307 206.676 47.7656C206.917 47.694 207.158 47.6419 207.398 47.6094C207.646 47.5768 207.887 47.5573 208.121 47.5508C208.355 47.5443 208.57 47.541 208.766 47.541H213.414V58ZM211.607 49.123H208.873C208.639 49.123 208.437 49.1263 208.268 49.1328C208.098 49.1328 207.949 49.1393 207.818 49.1523C207.695 49.1654 207.581 49.1882 207.477 49.2207C207.372 49.2533 207.265 49.2988 207.154 49.3574C206.926 49.4876 206.751 49.6797 206.627 49.9336C206.51 50.1875 206.451 50.4577 206.451 50.7441C206.451 51.0241 206.493 51.2617 206.578 51.457C206.663 51.6458 206.773 51.8021 206.91 51.9258C207.053 52.0495 207.21 52.1471 207.379 52.2188C207.555 52.2839 207.73 52.3327 207.906 52.3652C208.089 52.3913 208.264 52.4076 208.434 52.4141C208.603 52.4206 208.749 52.4238 208.873 52.4238H211.607V49.123ZM219.645 54.1035L217.184 58H214.957L218.619 52.6387L215.143 47.541H217.398L219.879 51.1836L222.242 47.541H224.4L220.865 52.6387L224.566 58H222.301L219.645 54.1035Z" fill="white"/>
<path d="M338 46L386 46C386 63.1226 364.512 77 338 77L338 46Z" fill="#A9E163"/>
</svg>
