<svg width="374" height="77" viewBox="0 0 374 77" fill="none" xmlns="http://www.w3.org/2000/svg">
<path d="M45 40L0 40C-5.81328e-07 59.8843 20.1446 76 45 76L45 40Z" fill="#A9E163"/>
<rect x="374" y="76.7539" width="365.285" height="76.7534" rx="38.3767" transform="rotate(-180 374 76.7539)" fill="#A9E163"/>
<path d="M33.4844 21.6445H36.2383L40.3008 33.7246H40.3398L44.4023 21.6445H47.1562V36H45.3594V23.9199H45.3203L41.2773 36H39.3633L35.3203 23.9199H35.2812V36H33.4844V21.6445ZM49.959 28.6758C49.9785 28.0378 50.099 27.5007 50.3203 27.0645C50.5417 26.6217 50.8411 26.2637 51.2188 25.9902C51.5964 25.7168 52.0423 25.5215 52.5566 25.4043C53.0775 25.2806 53.6439 25.2188 54.2559 25.2188C54.7637 25.2188 55.2552 25.2708 55.7305 25.375C56.2122 25.4792 56.6387 25.6484 57.0098 25.8828C57.3809 26.1107 57.6771 26.4102 57.8984 26.7812C58.1263 27.1458 58.2402 27.5918 58.2402 28.1191V34.2031C58.2402 34.3724 58.2858 34.5189 58.377 34.6426C58.4681 34.7598 58.6146 34.8184 58.8164 34.8184C58.9076 34.8184 59.002 34.8118 59.0996 34.7988C59.1973 34.7793 59.2982 34.7598 59.4023 34.7402V35.9805C59.2526 36.0195 59.1029 36.0553 58.9531 36.0879C58.8099 36.1204 58.6374 36.1367 58.4355 36.1367C58.123 36.1367 57.8529 36.1107 57.625 36.0586C57.4036 36.0065 57.2148 35.9219 57.0586 35.8047C56.9089 35.681 56.7917 35.5247 56.707 35.3359C56.6224 35.1406 56.5671 34.903 56.541 34.623C56.3197 34.8639 56.0853 35.0885 55.8379 35.2969C55.5905 35.4987 55.3138 35.6777 55.0078 35.834C54.7018 35.9837 54.36 36.1009 53.9824 36.1855C53.6048 36.2767 53.1784 36.3223 52.7031 36.3223C52.2995 36.3223 51.9056 36.2572 51.5215 36.127C51.1439 35.9967 50.8021 35.8047 50.4961 35.5508C50.1966 35.2969 49.9557 34.9844 49.7734 34.6133C49.5911 34.2357 49.5 33.7995 49.5 33.3047C49.5 32.7643 49.5911 32.2988 49.7734 31.9082C49.9557 31.5111 50.1934 31.1823 50.4863 30.9219C50.7793 30.6549 51.1146 30.4499 51.4922 30.3066C51.8698 30.1634 52.2539 30.069 52.6445 30.0234L55.584 29.6621C55.8639 29.6296 56.082 29.5221 56.2383 29.3398C56.401 29.151 56.4824 28.8516 56.4824 28.4414C56.4824 27.8099 56.2741 27.3574 55.8574 27.084C55.4473 26.804 54.8548 26.6641 54.0801 26.6641C53.2858 26.6641 52.6934 26.8333 52.3027 27.1719C51.9121 27.5039 51.6908 28.0052 51.6387 28.6758H49.959ZM56.4434 30.6777C56.3001 30.7819 56.1211 30.8698 55.9062 30.9414C55.6979 31.0065 55.4668 31.0618 55.2129 31.1074C54.959 31.153 54.6888 31.1953 54.4023 31.2344C54.1159 31.2669 53.8294 31.3027 53.543 31.3418C53.2174 31.3874 52.918 31.4525 52.6445 31.5371C52.3711 31.6217 52.1335 31.7324 51.9316 31.8691C51.7298 32.0059 51.5736 32.1719 51.4629 32.3672C51.3522 32.556 51.2969 32.7806 51.2969 33.041C51.2969 33.3405 51.3424 33.6042 51.4336 33.832C51.5312 34.0599 51.6615 34.252 51.8242 34.4082C51.9935 34.5645 52.1953 34.6816 52.4297 34.7598C52.6641 34.8379 52.9212 34.877 53.2012 34.877C53.377 34.877 53.5788 34.8574 53.8066 34.8184C54.0345 34.7728 54.2689 34.7077 54.5098 34.623C54.7507 34.5384 54.985 34.431 55.2129 34.3008C55.4473 34.1641 55.6556 34.0013 55.8379 33.8125C56.0202 33.6237 56.1667 33.4089 56.2773 33.168C56.388 32.9271 56.4434 32.6569 56.4434 32.3574V30.6777ZM68.1523 27.1035H64.1484L64.0703 29.6133C64.0312 30.8828 63.9336 31.944 63.7773 32.7969C63.6211 33.6432 63.4062 34.3236 63.1328 34.8379C62.8659 35.3522 62.5404 35.7168 62.1562 35.9316C61.7721 36.1465 61.3327 36.2539 60.8379 36.2539C60.6556 36.2539 60.4961 36.2246 60.3594 36.166C60.2292 36.1139 60.1283 36.0586 60.0566 36V34.418C60.3105 34.5156 60.5352 34.5645 60.7305 34.5645C60.8672 34.5645 60.9974 34.5417 61.1211 34.4961C61.2513 34.4505 61.3717 34.3626 61.4824 34.2324C61.5996 34.1022 61.707 33.9199 61.8047 33.6855C61.9023 33.4447 61.987 33.1322 62.0586 32.748C62.1367 32.3639 62.1986 31.8984 62.2441 31.3516C62.2962 30.8047 62.332 30.1536 62.3516 29.3984L62.4395 25.541H69.9492V36H68.1523V27.1035ZM79.9004 30.7559C79.9004 30.1764 79.8353 29.6458 79.7051 29.1641C79.5749 28.6758 79.3796 28.2559 79.1191 27.9043C78.8587 27.5527 78.5365 27.2793 78.1523 27.084C77.7747 26.8822 77.3353 26.7812 76.834 26.7812C76.3327 26.7812 75.8932 26.8822 75.5156 27.084C75.138 27.2793 74.819 27.5527 74.5586 27.9043C74.2982 28.2559 74.1029 28.6758 73.9727 29.1641C73.8424 29.6458 73.7773 30.1764 73.7773 30.7559C73.7773 31.3418 73.8424 31.8822 73.9727 32.377C74.1029 32.8652 74.2982 33.2852 74.5586 33.6367C74.819 33.9883 75.138 34.265 75.5156 34.4668C75.8932 34.6621 76.3327 34.7598 76.834 34.7598C77.3353 34.7598 77.7747 34.6621 78.1523 34.4668C78.5365 34.265 78.8587 33.9883 79.1191 33.6367C79.3796 33.2852 79.5749 32.8652 79.7051 32.377C79.8353 31.8822 79.9004 31.3418 79.9004 30.7559ZM81.6973 30.7559C81.6973 31.6152 81.5866 32.39 81.3652 33.0801C81.1439 33.7637 80.8249 34.3464 80.4082 34.8281C79.9915 35.3099 79.4805 35.681 78.875 35.9414C78.276 36.1953 77.5957 36.3223 76.834 36.3223C76.0723 36.3223 75.3919 36.1953 74.793 35.9414C74.194 35.681 73.6862 35.3099 73.2695 34.8281C72.8529 34.3464 72.5339 33.7637 72.3125 33.0801C72.0911 32.39 71.9805 31.6152 71.9805 30.7559C71.9805 29.9095 72.0911 29.1445 72.3125 28.4609C72.5339 27.7773 72.8529 27.1947 73.2695 26.7129C73.6862 26.2311 74.194 25.8633 74.793 25.6094C75.3919 25.349 76.0723 25.2188 76.834 25.2188C77.5957 25.2188 78.276 25.349 78.875 25.6094C79.4805 25.8633 79.9915 26.2311 80.4082 26.7129C80.8249 27.1947 81.1439 27.7773 81.3652 28.4609C81.5866 29.1445 81.6973 29.9095 81.6973 30.7559ZM84.0703 38.041C84.5195 37.9629 84.8353 37.6471 85.0176 37.0938C85.1152 36.8008 85.1641 36.5176 85.1641 36.2441C85.1641 36.1986 85.1608 36.1562 85.1543 36.1172C85.1543 36.0846 85.1478 36.0456 85.1348 36H84.0703V33.8711H86.1602V35.8438C86.1602 36.6185 86.0039 37.2988 85.6914 37.8848C85.3789 38.4707 84.8385 38.832 84.0703 38.9688V38.041ZM101.16 31.7812C100.77 31.8854 100.34 31.9733 99.8711 32.0449C99.4089 32.1165 98.9759 32.1523 98.5723 32.1523C97.1725 32.1523 96.1341 31.8854 95.457 31.3516C94.7799 30.8112 94.4414 29.9616 94.4414 28.8027V25.541H96.2383V28.4414C96.2383 28.832 96.2839 29.1706 96.375 29.457C96.4727 29.7435 96.6289 29.9811 96.8438 30.1699C97.0586 30.3522 97.3418 30.4889 97.6934 30.5801C98.0449 30.6712 98.4779 30.7168 98.9922 30.7168C99.1289 30.7168 99.2917 30.7038 99.4805 30.6777C99.6758 30.6517 99.8743 30.6191 100.076 30.5801C100.278 30.541 100.473 30.4987 100.662 30.4531C100.857 30.401 101.023 30.349 101.16 30.2969V25.541H102.967V36H101.16V31.7812ZM108.406 27.1035H104.803V25.541H113.807V27.1035H110.203V36H108.406V27.1035ZM122.928 30.7559C122.928 30.1764 122.863 29.6458 122.732 29.1641C122.602 28.6758 122.407 28.2559 122.146 27.9043C121.886 27.5527 121.564 27.2793 121.18 27.084C120.802 26.8822 120.363 26.7812 119.861 26.7812C119.36 26.7812 118.921 26.8822 118.543 27.084C118.165 27.2793 117.846 27.5527 117.586 27.9043C117.326 28.2559 117.13 28.6758 117 29.1641C116.87 29.6458 116.805 30.1764 116.805 30.7559C116.805 31.3418 116.87 31.8822 117 32.377C117.13 32.8652 117.326 33.2852 117.586 33.6367C117.846 33.9883 118.165 34.265 118.543 34.4668C118.921 34.6621 119.36 34.7598 119.861 34.7598C120.363 34.7598 120.802 34.6621 121.18 34.4668C121.564 34.265 121.886 33.9883 122.146 33.6367C122.407 33.2852 122.602 32.8652 122.732 32.377C122.863 31.8822 122.928 31.3418 122.928 30.7559ZM124.725 30.7559C124.725 31.6152 124.614 32.39 124.393 33.0801C124.171 33.7637 123.852 34.3464 123.436 34.8281C123.019 35.3099 122.508 35.681 121.902 35.9414C121.303 36.1953 120.623 36.3223 119.861 36.3223C119.1 36.3223 118.419 36.1953 117.82 35.9414C117.221 35.681 116.714 35.3099 116.297 34.8281C115.88 34.3464 115.561 33.7637 115.34 33.0801C115.118 32.39 115.008 31.6152 115.008 30.7559C115.008 29.9095 115.118 29.1445 115.34 28.4609C115.561 27.7773 115.88 27.1947 116.297 26.7129C116.714 26.2311 117.221 25.8633 117.82 25.6094C118.419 25.349 119.1 25.2188 119.861 25.2188C120.623 25.2188 121.303 25.349 121.902 25.6094C122.508 25.8633 123.019 26.2311 123.436 26.7129C123.852 27.1947 124.171 27.7773 124.393 28.4609C124.614 29.1445 124.725 29.9095 124.725 30.7559ZM135.027 29.9551H135.936C136.176 29.9551 136.427 29.9258 136.688 29.8672C136.948 29.8086 137.186 29.7174 137.4 29.5938C137.615 29.4635 137.791 29.2975 137.928 29.0957C138.071 28.8939 138.143 28.6497 138.143 28.3633C138.143 28.1549 138.097 27.9564 138.006 27.7676C137.921 27.5723 137.791 27.403 137.615 27.2598C137.446 27.11 137.231 26.9928 136.971 26.9082C136.71 26.8236 136.408 26.7812 136.062 26.7812C135.88 26.7812 135.665 26.8073 135.418 26.8594C135.171 26.9115 134.926 27.0091 134.686 27.1523C134.451 27.2891 134.24 27.4876 134.051 27.748C133.868 28.002 133.751 28.334 133.699 28.7441H132.02C132.065 28.2754 132.16 27.8652 132.303 27.5137C132.446 27.1556 132.625 26.8464 132.84 26.5859C133.055 26.3255 133.296 26.1074 133.562 25.9316C133.836 25.7559 134.116 25.6159 134.402 25.5117C134.695 25.4076 134.988 25.3327 135.281 25.2871C135.574 25.2415 135.854 25.2188 136.121 25.2188C136.59 25.2188 137.052 25.2806 137.508 25.4043C137.964 25.5215 138.37 25.7038 138.729 25.9512C139.093 26.1921 139.386 26.498 139.607 26.8691C139.829 27.2402 139.939 27.6732 139.939 28.168C139.939 28.487 139.894 28.7702 139.803 29.0176C139.712 29.2585 139.591 29.4701 139.441 29.6523C139.298 29.8346 139.135 29.9909 138.953 30.1211C138.771 30.2448 138.592 30.349 138.416 30.4336V30.4824C138.598 30.515 138.8 30.5833 139.021 30.6875C139.243 30.7852 139.448 30.9284 139.637 31.1172C139.826 31.2995 139.982 31.5371 140.105 31.8301C140.236 32.1165 140.301 32.4681 140.301 32.8848C140.301 33.4707 140.174 33.9785 139.92 34.4082C139.673 34.8379 139.347 35.196 138.943 35.4824C138.54 35.7624 138.084 35.9707 137.576 36.1074C137.068 36.2507 136.557 36.3223 136.043 36.3223C135.379 36.3223 134.777 36.2376 134.236 36.0684C133.702 35.8991 133.24 35.6582 132.85 35.3457C132.459 35.0332 132.146 34.6589 131.912 34.2227C131.684 33.7865 131.548 33.3047 131.502 32.7773H133.309C133.354 33.1615 133.465 33.4805 133.641 33.7344C133.816 33.9883 134.028 34.1901 134.275 34.3398C134.523 34.4896 134.796 34.597 135.096 34.6621C135.402 34.7272 135.711 34.7598 136.023 34.7598C136.85 34.7598 137.469 34.5938 137.879 34.2617C138.296 33.9297 138.504 33.4837 138.504 32.9238C138.504 32.6829 138.465 32.4681 138.387 32.2793C138.315 32.0905 138.191 31.931 138.016 31.8008C137.84 31.6641 137.605 31.5632 137.312 31.498C137.026 31.4264 136.668 31.3906 136.238 31.3906C136.154 31.3906 136.056 31.3939 135.945 31.4004C135.841 31.4004 135.734 31.4036 135.623 31.4102C135.519 31.4167 135.415 31.4264 135.311 31.4395C135.206 31.446 135.112 31.4525 135.027 31.459V29.9551ZM142.322 25.541H144.119V29.7598H149.002V25.541H150.809V36H149.002V31.3223H144.119V36H142.322V25.541ZM153.436 28.6758C153.455 28.0378 153.576 27.5007 153.797 27.0645C154.018 26.6217 154.318 26.2637 154.695 25.9902C155.073 25.7168 155.519 25.5215 156.033 25.4043C156.554 25.2806 157.12 25.2188 157.732 25.2188C158.24 25.2188 158.732 25.2708 159.207 25.375C159.689 25.4792 160.115 25.6484 160.486 25.8828C160.857 26.1107 161.154 26.4102 161.375 26.7812C161.603 27.1458 161.717 27.5918 161.717 28.1191V34.2031C161.717 34.3724 161.762 34.5189 161.854 34.6426C161.945 34.7598 162.091 34.8184 162.293 34.8184C162.384 34.8184 162.479 34.8118 162.576 34.7988C162.674 34.7793 162.775 34.7598 162.879 34.7402V35.9805C162.729 36.0195 162.579 36.0553 162.43 36.0879C162.286 36.1204 162.114 36.1367 161.912 36.1367C161.6 36.1367 161.329 36.1107 161.102 36.0586C160.88 36.0065 160.691 35.9219 160.535 35.8047C160.385 35.681 160.268 35.5247 160.184 35.3359C160.099 35.1406 160.044 34.903 160.018 34.623C159.796 34.8639 159.562 35.0885 159.314 35.2969C159.067 35.4987 158.79 35.6777 158.484 35.834C158.178 35.9837 157.837 36.1009 157.459 36.1855C157.081 36.2767 156.655 36.3223 156.18 36.3223C155.776 36.3223 155.382 36.2572 154.998 36.127C154.62 35.9967 154.279 35.8047 153.973 35.5508C153.673 35.2969 153.432 34.9844 153.25 34.6133C153.068 34.2357 152.977 33.7995 152.977 33.3047C152.977 32.7643 153.068 32.2988 153.25 31.9082C153.432 31.5111 153.67 31.1823 153.963 30.9219C154.256 30.6549 154.591 30.4499 154.969 30.3066C155.346 30.1634 155.73 30.069 156.121 30.0234L159.061 29.6621C159.34 29.6296 159.559 29.5221 159.715 29.3398C159.878 29.151 159.959 28.8516 159.959 28.4414C159.959 27.8099 159.751 27.3574 159.334 27.084C158.924 26.804 158.331 26.6641 157.557 26.6641C156.762 26.6641 156.17 26.8333 155.779 27.1719C155.389 27.5039 155.167 28.0052 155.115 28.6758H153.436ZM159.92 30.6777C159.777 30.7819 159.598 30.8698 159.383 30.9414C159.174 31.0065 158.943 31.0618 158.689 31.1074C158.436 31.153 158.165 31.1953 157.879 31.2344C157.592 31.2669 157.306 31.3027 157.02 31.3418C156.694 31.3874 156.395 31.4525 156.121 31.5371C155.848 31.6217 155.61 31.7324 155.408 31.8691C155.206 32.0059 155.05 32.1719 154.939 32.3672C154.829 32.556 154.773 32.7806 154.773 33.041C154.773 33.3405 154.819 33.6042 154.91 33.832C155.008 34.0599 155.138 34.252 155.301 34.4082C155.47 34.5645 155.672 34.6816 155.906 34.7598C156.141 34.8379 156.398 34.877 156.678 34.877C156.854 34.877 157.055 34.8574 157.283 34.8184C157.511 34.7728 157.745 34.7077 157.986 34.623C158.227 34.5384 158.462 34.431 158.689 34.3008C158.924 34.1641 159.132 34.0013 159.314 33.8125C159.497 33.6237 159.643 33.4089 159.754 33.168C159.865 32.9271 159.92 32.6569 159.92 32.3574V30.6777ZM176.326 30.7559C176.326 30.1764 176.261 29.6458 176.131 29.1641C176.001 28.6758 175.805 28.2559 175.545 27.9043C175.291 27.5527 174.972 27.2793 174.588 27.084C174.21 26.8822 173.771 26.7812 173.27 26.7812C172.768 26.7812 172.326 26.8822 171.941 27.084C171.564 27.2793 171.245 27.5527 170.984 27.9043C170.73 28.2559 170.538 28.6758 170.408 29.1641C170.278 29.6458 170.213 30.1764 170.213 30.7559C170.213 31.3418 170.278 31.8822 170.408 32.377C170.538 32.8652 170.73 33.2852 170.984 33.6367C171.245 33.9883 171.564 34.265 171.941 34.4668C172.326 34.6621 172.768 34.7598 173.27 34.7598C173.771 34.7598 174.21 34.6621 174.588 34.4668C174.972 34.265 175.291 33.9883 175.545 33.6367C175.805 33.2852 176.001 32.8652 176.131 32.377C176.261 31.8822 176.326 31.3418 176.326 30.7559ZM164.588 25.541H166.385V29.9648H168.406C168.478 29.2292 168.641 28.5684 168.895 27.9824C169.148 27.3965 169.484 26.8984 169.9 26.4883C170.317 26.0781 170.809 25.7656 171.375 25.5508C171.941 25.3294 172.573 25.2188 173.27 25.2188C174.031 25.2188 174.712 25.349 175.311 25.6094C175.91 25.8633 176.417 26.2311 176.834 26.7129C177.257 27.1947 177.579 27.7773 177.801 28.4609C178.022 29.1445 178.133 29.9095 178.133 30.7559C178.133 31.6152 178.022 32.39 177.801 33.0801C177.579 33.7637 177.257 34.3464 176.834 34.8281C176.417 35.3099 175.91 35.681 175.311 35.9414C174.712 36.1953 174.031 36.3223 173.27 36.3223C172.56 36.3223 171.915 36.2116 171.336 35.9902C170.763 35.7624 170.268 35.4368 169.852 35.0137C169.435 34.584 169.103 34.0664 168.855 33.4609C168.608 32.849 168.458 32.1621 168.406 31.4004H166.385V36H164.588V25.541ZM192.4 27.1035H187.518V36H185.721V25.541H194.207V36H192.4V27.1035ZM196.756 25.541H198.553V26.9766H198.592C198.709 26.7357 198.855 26.5078 199.031 26.293C199.214 26.0781 199.428 25.8926 199.676 25.7363C199.93 25.5736 200.219 25.4466 200.545 25.3555C200.877 25.2643 201.255 25.2188 201.678 25.2188C202.238 25.2188 202.775 25.3262 203.289 25.541C203.803 25.7559 204.259 26.0781 204.656 26.5078C205.053 26.9375 205.369 27.4779 205.604 28.1289C205.838 28.7734 205.955 29.5254 205.955 30.3848C205.955 31.459 205.844 32.3737 205.623 33.1289C205.408 33.8776 205.099 34.4896 204.695 34.9648C204.298 35.4401 203.816 35.7852 203.25 36C202.684 36.2148 202.052 36.3223 201.355 36.3223C201.01 36.3223 200.688 36.2767 200.389 36.1855C200.089 36.0944 199.819 35.9772 199.578 35.834C199.344 35.6842 199.142 35.5215 198.973 35.3457C198.803 35.1634 198.676 34.9876 198.592 34.8184H198.553V40.1211H196.756V25.541ZM198.514 30.8242C198.514 31.3906 198.569 31.9147 198.68 32.3965C198.79 32.8717 198.96 33.2852 199.188 33.6367C199.422 33.9883 199.712 34.265 200.057 34.4668C200.408 34.6621 200.822 34.7598 201.297 34.7598C201.792 34.7598 202.218 34.6621 202.576 34.4668C202.941 34.265 203.24 33.9883 203.475 33.6367C203.709 33.2852 203.882 32.8717 203.992 32.3965C204.103 31.9147 204.158 31.3906 204.158 30.8242C204.158 30.2318 204.103 29.6882 203.992 29.1934C203.882 28.6986 203.709 28.2721 203.475 27.9141C203.24 27.556 202.941 27.2793 202.576 27.084C202.218 26.8822 201.792 26.7812 201.297 26.7812C200.822 26.7812 200.408 26.8822 200.057 27.084C199.712 27.2793 199.422 27.556 199.188 27.9141C198.96 28.2721 198.79 28.6986 198.68 29.1934C198.569 29.6882 198.514 30.2318 198.514 30.8242ZM215.291 30.7559C215.291 30.1764 215.226 29.6458 215.096 29.1641C214.965 28.6758 214.77 28.2559 214.51 27.9043C214.249 27.5527 213.927 27.2793 213.543 27.084C213.165 26.8822 212.726 26.7812 212.225 26.7812C211.723 26.7812 211.284 26.8822 210.906 27.084C210.529 27.2793 210.21 27.5527 209.949 27.9043C209.689 28.2559 209.493 28.6758 209.363 29.1641C209.233 29.6458 209.168 30.1764 209.168 30.7559C209.168 31.3418 209.233 31.8822 209.363 32.377C209.493 32.8652 209.689 33.2852 209.949 33.6367C210.21 33.9883 210.529 34.265 210.906 34.4668C211.284 34.6621 211.723 34.7598 212.225 34.7598C212.726 34.7598 213.165 34.6621 213.543 34.4668C213.927 34.265 214.249 33.9883 214.51 33.6367C214.77 33.2852 214.965 32.8652 215.096 32.377C215.226 31.8822 215.291 31.3418 215.291 30.7559ZM217.088 30.7559C217.088 31.6152 216.977 32.39 216.756 33.0801C216.535 33.7637 216.215 34.3464 215.799 34.8281C215.382 35.3099 214.871 35.681 214.266 35.9414C213.667 36.1953 212.986 36.3223 212.225 36.3223C211.463 36.3223 210.783 36.1953 210.184 35.9414C209.585 35.681 209.077 35.3099 208.66 34.8281C208.243 34.3464 207.924 33.7637 207.703 33.0801C207.482 32.39 207.371 31.6152 207.371 30.7559C207.371 29.9095 207.482 29.1445 207.703 28.4609C207.924 27.7773 208.243 27.1947 208.66 26.7129C209.077 26.2311 209.585 25.8633 210.184 25.6094C210.783 25.349 211.463 25.2188 212.225 25.2188C212.986 25.2188 213.667 25.349 214.266 25.6094C214.871 25.8633 215.382 26.2311 215.799 26.7129C216.215 27.1947 216.535 27.7773 216.756 28.4609C216.977 29.1445 217.088 29.9095 217.088 30.7559ZM232.908 32.3184C232.882 32.5723 232.83 32.849 232.752 33.1484C232.68 33.4479 232.573 33.7474 232.43 34.0469C232.286 34.3398 232.101 34.623 231.873 34.8965C231.652 35.1699 231.378 35.4141 231.053 35.6289C230.734 35.8372 230.356 36.0033 229.92 36.127C229.484 36.2572 228.986 36.3223 228.426 36.3223C228.12 36.3223 227.798 36.2832 227.459 36.2051C227.12 36.1335 226.788 36.0098 226.463 35.834C226.144 35.6582 225.838 35.4336 225.545 35.1602C225.258 34.8802 225.005 34.5352 224.783 34.125C224.568 33.7148 224.396 33.2396 224.266 32.6992C224.135 32.1523 224.07 31.5273 224.07 30.8242C224.07 29.9583 224.194 29.1803 224.441 28.4902C224.689 27.7936 225.018 27.2044 225.428 26.7227C225.844 26.2409 226.326 25.8698 226.873 25.6094C227.426 25.349 228.006 25.2188 228.611 25.2188C229.158 25.2188 229.64 25.2773 230.057 25.3945C230.48 25.5117 230.848 25.668 231.16 25.8633C231.473 26.0586 231.736 26.2865 231.951 26.5469C232.166 26.8008 232.339 27.071 232.469 27.3574C232.605 27.6374 232.706 27.9238 232.771 28.2168C232.843 28.5098 232.889 28.7897 232.908 29.0566H231.229C231.137 28.347 230.89 27.7904 230.486 27.3867C230.089 26.9831 229.529 26.7812 228.807 26.7812C228.312 26.7812 227.879 26.8822 227.508 27.084C227.143 27.2858 226.837 27.569 226.59 27.9336C226.349 28.2917 226.167 28.7279 226.043 29.2422C225.926 29.75 225.867 30.3099 225.867 30.9219C225.867 31.612 225.932 32.2077 226.062 32.709C226.193 33.2038 226.378 33.6139 226.619 33.9395C226.86 34.2585 227.153 34.4961 227.498 34.6523C227.85 34.8021 228.247 34.877 228.689 34.877C229.002 34.877 229.298 34.8216 229.578 34.7109C229.858 34.5938 230.109 34.4277 230.33 34.2129C230.551 33.9915 230.74 33.7214 230.896 33.4023C231.053 33.0833 231.163 32.722 231.229 32.3184H232.908ZM234.666 28.6758C234.686 28.0378 234.806 27.5007 235.027 27.0645C235.249 26.6217 235.548 26.2637 235.926 25.9902C236.303 25.7168 236.749 25.5215 237.264 25.4043C237.785 25.2806 238.351 25.2188 238.963 25.2188C239.471 25.2188 239.962 25.2708 240.438 25.375C240.919 25.4792 241.346 25.6484 241.717 25.8828C242.088 26.1107 242.384 26.4102 242.605 26.7812C242.833 27.1458 242.947 27.5918 242.947 28.1191V34.2031C242.947 34.3724 242.993 34.5189 243.084 34.6426C243.175 34.7598 243.322 34.8184 243.523 34.8184C243.615 34.8184 243.709 34.8118 243.807 34.7988C243.904 34.7793 244.005 34.7598 244.109 34.7402V35.9805C243.96 36.0195 243.81 36.0553 243.66 36.0879C243.517 36.1204 243.344 36.1367 243.143 36.1367C242.83 36.1367 242.56 36.1107 242.332 36.0586C242.111 36.0065 241.922 35.9219 241.766 35.8047C241.616 35.681 241.499 35.5247 241.414 35.3359C241.329 35.1406 241.274 34.903 241.248 34.623C241.027 34.8639 240.792 35.0885 240.545 35.2969C240.298 35.4987 240.021 35.6777 239.715 35.834C239.409 35.9837 239.067 36.1009 238.689 36.1855C238.312 36.2767 237.885 36.3223 237.41 36.3223C237.007 36.3223 236.613 36.2572 236.229 36.127C235.851 35.9967 235.509 35.8047 235.203 35.5508C234.904 35.2969 234.663 34.9844 234.48 34.6133C234.298 34.2357 234.207 33.7995 234.207 33.3047C234.207 32.7643 234.298 32.2988 234.48 31.9082C234.663 31.5111 234.9 31.1823 235.193 30.9219C235.486 30.6549 235.822 30.4499 236.199 30.3066C236.577 30.1634 236.961 30.069 237.352 30.0234L240.291 29.6621C240.571 29.6296 240.789 29.5221 240.945 29.3398C241.108 29.151 241.189 28.8516 241.189 28.4414C241.189 27.8099 240.981 27.3574 240.564 27.084C240.154 26.804 239.562 26.6641 238.787 26.6641C237.993 26.6641 237.4 26.8333 237.01 27.1719C236.619 27.5039 236.398 28.0052 236.346 28.6758H234.666ZM241.15 30.6777C241.007 30.7819 240.828 30.8698 240.613 30.9414C240.405 31.0065 240.174 31.0618 239.92 31.1074C239.666 31.153 239.396 31.1953 239.109 31.2344C238.823 31.2669 238.536 31.3027 238.25 31.3418C237.924 31.3874 237.625 31.4525 237.352 31.5371C237.078 31.6217 236.84 31.7324 236.639 31.8691C236.437 32.0059 236.281 32.1719 236.17 32.3672C236.059 32.556 236.004 32.7806 236.004 33.041C236.004 33.3405 236.049 33.6042 236.141 33.832C236.238 34.0599 236.368 34.252 236.531 34.4082C236.701 34.5645 236.902 34.6816 237.137 34.7598C237.371 34.8379 237.628 34.877 237.908 34.877C238.084 34.877 238.286 34.8574 238.514 34.8184C238.742 34.7728 238.976 34.7077 239.217 34.623C239.458 34.5384 239.692 34.431 239.92 34.3008C240.154 34.1641 240.363 34.0013 240.545 33.8125C240.727 33.6237 240.874 33.4089 240.984 33.168C241.095 32.9271 241.15 32.6569 241.15 32.3574V30.6777ZM254.539 36H246.453V38.5586H244.773V34.4375H246.15C246.437 33.7344 246.665 33.0182 246.834 32.2891C247.003 31.5534 247.133 30.8145 247.225 30.0723C247.316 29.3236 247.374 28.5716 247.4 27.8164C247.426 27.0612 247.439 26.3027 247.439 25.541H254.744V34.4375H256.219V38.5586H254.539V36ZM252.947 34.4375V27.1035H249.158C249.113 27.696 249.064 28.3047 249.012 28.9297C248.966 29.5547 248.901 30.1829 248.816 30.8145C248.738 31.4395 248.631 32.0579 248.494 32.6699C248.364 33.2819 248.191 33.8711 247.977 34.4375H252.947ZM265.252 30.7559C265.252 30.1764 265.187 29.6458 265.057 29.1641C264.926 28.6758 264.731 28.2559 264.471 27.9043C264.21 27.5527 263.888 27.2793 263.504 27.084C263.126 26.8822 262.687 26.7812 262.186 26.7812C261.684 26.7812 261.245 26.8822 260.867 27.084C260.49 27.2793 260.171 27.5527 259.91 27.9043C259.65 28.2559 259.454 28.6758 259.324 29.1641C259.194 29.6458 259.129 30.1764 259.129 30.7559C259.129 31.3418 259.194 31.8822 259.324 32.377C259.454 32.8652 259.65 33.2852 259.91 33.6367C260.171 33.9883 260.49 34.265 260.867 34.4668C261.245 34.6621 261.684 34.7598 262.186 34.7598C262.687 34.7598 263.126 34.6621 263.504 34.4668C263.888 34.265 264.21 33.9883 264.471 33.6367C264.731 33.2852 264.926 32.8652 265.057 32.377C265.187 31.8822 265.252 31.3418 265.252 30.7559ZM267.049 30.7559C267.049 31.6152 266.938 32.39 266.717 33.0801C266.495 33.7637 266.176 34.3464 265.76 34.8281C265.343 35.3099 264.832 35.681 264.227 35.9414C263.628 36.1953 262.947 36.3223 262.186 36.3223C261.424 36.3223 260.743 36.1953 260.145 35.9414C259.546 35.681 259.038 35.3099 258.621 34.8281C258.204 34.3464 257.885 33.7637 257.664 33.0801C257.443 32.39 257.332 31.6152 257.332 30.7559C257.332 29.9095 257.443 29.1445 257.664 28.4609C257.885 27.7773 258.204 27.1947 258.621 26.7129C259.038 26.2311 259.546 25.8633 260.145 25.6094C260.743 25.349 261.424 25.2188 262.186 25.2188C262.947 25.2188 263.628 25.349 264.227 25.6094C264.832 25.8633 265.343 26.2311 265.76 26.7129C266.176 27.1947 266.495 27.7773 266.717 28.4609C266.938 29.1445 267.049 29.9095 267.049 30.7559ZM269.08 25.541H273.533C274.809 25.541 275.763 25.7786 276.395 26.2539C277.033 26.7292 277.352 27.4193 277.352 28.3242C277.352 28.806 277.234 29.2129 277 29.5449C276.766 29.877 276.456 30.1699 276.072 30.4238C276.626 30.6322 277.065 30.9316 277.391 31.3223C277.716 31.7129 277.879 32.2174 277.879 32.8359C277.879 33.3242 277.798 33.7637 277.635 34.1543C277.472 34.5449 277.225 34.877 276.893 35.1504C276.561 35.4238 276.137 35.6354 275.623 35.7852C275.115 35.9284 274.513 36 273.816 36H269.08V25.541ZM270.877 34.5645H273.611C274.087 34.5645 274.48 34.5286 274.793 34.457C275.112 34.3789 275.366 34.2682 275.555 34.125C275.743 33.9818 275.877 33.8092 275.955 33.6074C276.033 33.4056 276.072 33.1777 276.072 32.9238C276.072 32.6699 276.033 32.4421 275.955 32.2402C275.877 32.0319 275.743 31.8594 275.555 31.7227C275.366 31.5794 275.112 31.472 274.793 31.4004C274.48 31.3223 274.087 31.2832 273.611 31.2832H270.877V34.5645ZM270.877 29.9648H273.592C274.197 29.9648 274.676 29.8444 275.027 29.6035C275.379 29.3626 275.555 28.9883 275.555 28.4805C275.555 28.194 275.506 27.9564 275.408 27.7676C275.311 27.5723 275.18 27.416 275.018 27.2988C274.855 27.1816 274.669 27.1003 274.461 27.0547C274.259 27.0026 274.051 26.9766 273.836 26.9766H270.877V29.9648ZM287.342 30.7559C287.342 30.1764 287.277 29.6458 287.146 29.1641C287.016 28.6758 286.821 28.2559 286.561 27.9043C286.3 27.5527 285.978 27.2793 285.594 27.084C285.216 26.8822 284.777 26.7812 284.275 26.7812C283.774 26.7812 283.335 26.8822 282.957 27.084C282.579 27.2793 282.26 27.5527 282 27.9043C281.74 28.2559 281.544 28.6758 281.414 29.1641C281.284 29.6458 281.219 30.1764 281.219 30.7559C281.219 31.3418 281.284 31.8822 281.414 32.377C281.544 32.8652 281.74 33.2852 282 33.6367C282.26 33.9883 282.579 34.265 282.957 34.4668C283.335 34.6621 283.774 34.7598 284.275 34.7598C284.777 34.7598 285.216 34.6621 285.594 34.4668C285.978 34.265 286.3 33.9883 286.561 33.6367C286.821 33.2852 287.016 32.8652 287.146 32.377C287.277 31.8822 287.342 31.3418 287.342 30.7559ZM289.139 30.7559C289.139 31.6152 289.028 32.39 288.807 33.0801C288.585 33.7637 288.266 34.3464 287.85 34.8281C287.433 35.3099 286.922 35.681 286.316 35.9414C285.717 36.1953 285.037 36.3223 284.275 36.3223C283.514 36.3223 282.833 36.1953 282.234 35.9414C281.635 35.681 281.128 35.3099 280.711 34.8281C280.294 34.3464 279.975 33.7637 279.754 33.0801C279.533 32.39 279.422 31.6152 279.422 30.7559C279.422 29.9095 279.533 29.1445 279.754 28.4609C279.975 27.7773 280.294 27.1947 280.711 26.7129C281.128 26.2311 281.635 25.8633 282.234 25.6094C282.833 25.349 283.514 25.2188 284.275 25.2188C285.037 25.2188 285.717 25.349 286.316 25.6094C286.922 25.8633 287.433 26.2311 287.85 26.7129C288.266 27.1947 288.585 27.7773 288.807 28.4609C289.028 29.1445 289.139 29.9095 289.139 30.7559ZM299.891 36H291.805V38.5586H290.125V34.4375H291.502C291.788 33.7344 292.016 33.0182 292.186 32.2891C292.355 31.5534 292.485 30.8145 292.576 30.0723C292.667 29.3236 292.726 28.5716 292.752 27.8164C292.778 27.0612 292.791 26.3027 292.791 25.541H300.096V34.4375H301.57V38.5586H299.891V36ZM298.299 34.4375V27.1035H294.51C294.464 27.696 294.415 28.3047 294.363 28.9297C294.318 29.5547 294.253 30.1829 294.168 30.8145C294.09 31.4395 293.982 32.0579 293.846 32.6699C293.715 33.2819 293.543 33.8711 293.328 34.4375H298.299ZM311.521 32.3184C311.495 32.5723 311.443 32.849 311.365 33.1484C311.294 33.4479 311.186 33.7474 311.043 34.0469C310.9 34.3398 310.714 34.623 310.486 34.8965C310.265 35.1699 309.992 35.4141 309.666 35.6289C309.347 35.8372 308.969 36.0033 308.533 36.127C308.097 36.2572 307.599 36.3223 307.039 36.3223C306.733 36.3223 306.411 36.2832 306.072 36.2051C305.734 36.1335 305.402 36.0098 305.076 35.834C304.757 35.6582 304.451 35.4336 304.158 35.1602C303.872 34.8802 303.618 34.5352 303.396 34.125C303.182 33.7148 303.009 33.2396 302.879 32.6992C302.749 32.1523 302.684 31.5273 302.684 30.8242C302.684 29.9583 302.807 29.1803 303.055 28.4902C303.302 27.7936 303.631 27.2044 304.041 26.7227C304.458 26.2409 304.939 25.8698 305.486 25.6094C306.04 25.349 306.619 25.2188 307.225 25.2188C307.771 25.2188 308.253 25.2773 308.67 25.3945C309.093 25.5117 309.461 25.668 309.773 25.8633C310.086 26.0586 310.35 26.2865 310.564 26.5469C310.779 26.8008 310.952 27.071 311.082 27.3574C311.219 27.6374 311.32 27.9238 311.385 28.2168C311.456 28.5098 311.502 28.7897 311.521 29.0566H309.842C309.751 28.347 309.503 27.7904 309.1 27.3867C308.702 26.9831 308.143 26.7812 307.42 26.7812C306.925 26.7812 306.492 26.8822 306.121 27.084C305.757 27.2858 305.451 27.569 305.203 27.9336C304.962 28.2917 304.78 28.7279 304.656 29.2422C304.539 29.75 304.48 30.3099 304.48 30.9219C304.48 31.612 304.546 32.2077 304.676 32.709C304.806 33.2038 304.992 33.6139 305.232 33.9395C305.473 34.2585 305.766 34.4961 306.111 34.6523C306.463 34.8021 306.86 34.877 307.303 34.877C307.615 34.877 307.911 34.8216 308.191 34.7109C308.471 34.5938 308.722 34.4277 308.943 34.2129C309.165 33.9915 309.354 33.7214 309.51 33.4023C309.666 33.0833 309.777 32.722 309.842 32.3184H311.521ZM316.082 27.1035H312.479V25.541H321.482V27.1035H317.879V36H316.082V27.1035ZM323.299 25.541H327.752C329.028 25.541 329.982 25.7786 330.613 26.2539C331.251 26.7292 331.57 27.4193 331.57 28.3242C331.57 28.806 331.453 29.2129 331.219 29.5449C330.984 29.877 330.675 30.1699 330.291 30.4238C330.844 30.6322 331.284 30.9316 331.609 31.3223C331.935 31.7129 332.098 32.2174 332.098 32.8359C332.098 33.3242 332.016 33.7637 331.854 34.1543C331.691 34.5449 331.443 34.877 331.111 35.1504C330.779 35.4238 330.356 35.6354 329.842 35.7852C329.334 35.9284 328.732 36 328.035 36H323.299V25.541ZM325.096 34.5645H327.83C328.305 34.5645 328.699 34.5286 329.012 34.457C329.331 34.3789 329.585 34.2682 329.773 34.125C329.962 33.9818 330.096 33.8092 330.174 33.6074C330.252 33.4056 330.291 33.1777 330.291 32.9238C330.291 32.6699 330.252 32.4421 330.174 32.2402C330.096 32.0319 329.962 31.8594 329.773 31.7227C329.585 31.5794 329.331 31.472 329.012 31.4004C328.699 31.3223 328.305 31.2832 327.83 31.2832H325.096V34.5645ZM325.096 29.9648H327.811C328.416 29.9648 328.895 29.8444 329.246 29.6035C329.598 29.3626 329.773 28.9883 329.773 28.4805C329.773 28.194 329.725 27.9564 329.627 27.7676C329.529 27.5723 329.399 27.416 329.236 27.2988C329.074 27.1816 328.888 27.1003 328.68 27.0547C328.478 27.0026 328.27 26.9766 328.055 26.9766H325.096V29.9648ZM341.561 30.7559C341.561 30.1764 341.495 29.6458 341.365 29.1641C341.235 28.6758 341.04 28.2559 340.779 27.9043C340.519 27.5527 340.197 27.2793 339.812 27.084C339.435 26.8822 338.995 26.7812 338.494 26.7812C337.993 26.7812 337.553 26.8822 337.176 27.084C336.798 27.2793 336.479 27.5527 336.219 27.9043C335.958 28.2559 335.763 28.6758 335.633 29.1641C335.503 29.6458 335.438 30.1764 335.438 30.7559C335.438 31.3418 335.503 31.8822 335.633 32.377C335.763 32.8652 335.958 33.2852 336.219 33.6367C336.479 33.9883 336.798 34.265 337.176 34.4668C337.553 34.6621 337.993 34.7598 338.494 34.7598C338.995 34.7598 339.435 34.6621 339.812 34.4668C340.197 34.265 340.519 33.9883 340.779 33.6367C341.04 33.2852 341.235 32.8652 341.365 32.377C341.495 31.8822 341.561 31.3418 341.561 30.7559ZM343.357 30.7559C343.357 31.6152 343.247 32.39 343.025 33.0801C342.804 33.7637 342.485 34.3464 342.068 34.8281C341.652 35.3099 341.141 35.681 340.535 35.9414C339.936 36.1953 339.256 36.3223 338.494 36.3223C337.732 36.3223 337.052 36.1953 336.453 35.9414C335.854 35.681 335.346 35.3099 334.93 34.8281C334.513 34.3464 334.194 33.7637 333.973 33.0801C333.751 32.39 333.641 31.6152 333.641 30.7559C333.641 29.9095 333.751 29.1445 333.973 28.4609C334.194 27.7773 334.513 27.1947 334.93 26.7129C335.346 26.2311 335.854 25.8633 336.453 25.6094C337.052 25.349 337.732 25.2188 338.494 25.2188C339.256 25.2188 339.936 25.349 340.535 25.6094C341.141 25.8633 341.652 26.2311 342.068 26.7129C342.485 27.1947 342.804 27.7773 343.025 28.4609C343.247 29.1445 343.357 29.9095 343.357 30.7559ZM345.73 38.041C346.18 37.9629 346.495 37.6471 346.678 37.0938C346.775 36.8008 346.824 36.5176 346.824 36.2441C346.824 36.1986 346.821 36.1562 346.814 36.1172C346.814 36.0846 346.808 36.0456 346.795 36H345.73V33.8711H347.82V35.8438C347.82 36.6185 347.664 37.2988 347.352 37.8848C347.039 38.4707 346.499 38.832 345.73 38.9688V38.041ZM33.3184 48.541H35.1152V52.7598H39.998V48.541H41.8047V59H39.998V54.3223H35.1152V59H33.3184V48.541ZM53.3574 55.6602C53.2858 56.1159 53.1296 56.5618 52.8887 56.998C52.6478 57.4342 52.332 57.8249 51.9414 58.1699C51.5508 58.515 51.0885 58.7917 50.5547 59C50.0273 59.2148 49.4414 59.3223 48.7969 59.3223C48.0938 59.3223 47.4427 59.2083 46.8438 58.9805C46.2513 58.7461 45.737 58.3978 45.3008 57.9355C44.8711 57.4668 44.5326 56.8809 44.2852 56.1777C44.0378 55.4746 43.9141 54.6478 43.9141 53.6973C43.9141 53.0592 43.9824 52.4831 44.1191 51.9688C44.2624 51.4479 44.4512 50.9857 44.6855 50.582C44.9264 50.1719 45.2031 49.8203 45.5156 49.5273C45.8281 49.2279 46.1569 48.9837 46.502 48.7949C46.8535 48.5996 47.2116 48.4564 47.5762 48.3652C47.9408 48.2676 48.2923 48.2188 48.6309 48.2188C49.347 48.2188 50.0013 48.3262 50.5938 48.541C51.1862 48.7559 51.694 49.0846 52.1172 49.5273C52.5469 49.9635 52.8789 50.5137 53.1133 51.1777C53.3542 51.8353 53.4746 52.61 53.4746 53.502V54.4004H45.8281C45.8346 54.9082 45.9062 55.3704 46.043 55.7871C46.1797 56.1973 46.375 56.5488 46.6289 56.8418C46.8828 57.1348 47.1888 57.3626 47.5469 57.5254C47.9115 57.6816 48.3216 57.7598 48.7773 57.7598C49.2396 57.7598 49.6302 57.6947 49.9492 57.5645C50.2682 57.4342 50.5352 57.2682 50.75 57.0664C50.9648 56.8646 51.1374 56.64 51.2676 56.3926C51.4043 56.1452 51.5182 55.901 51.6094 55.6602H53.3574ZM51.668 52.9648C51.6549 52.457 51.5768 52.0046 51.4336 51.6074C51.2969 51.2103 51.1016 50.8783 50.8477 50.6113C50.6003 50.3379 50.3008 50.1328 49.9492 49.9961C49.5977 49.8529 49.207 49.7812 48.7773 49.7812C48.3672 49.7812 47.9896 49.8626 47.6445 50.0254C47.2995 50.1816 46.9967 50.403 46.7363 50.6895C46.4759 50.9694 46.2676 51.3047 46.1113 51.6953C45.9551 52.0794 45.8607 52.5026 45.8281 52.9648H51.668ZM61.1504 48.541H63.7676L66.5312 57.1152H66.5703L69.373 48.541H71.834V59H70.1543V50.582H70.1152L67.3516 59H65.6328L62.8691 50.582H62.8301V59H61.1504V48.541ZM81.7754 53.7559C81.7754 53.1764 81.7103 52.6458 81.5801 52.1641C81.4499 51.6758 81.2546 51.2559 80.9941 50.9043C80.7337 50.5527 80.4115 50.2793 80.0273 50.084C79.6497 49.8822 79.2103 49.7812 78.709 49.7812C78.2077 49.7812 77.7682 49.8822 77.3906 50.084C77.013 50.2793 76.694 50.5527 76.4336 50.9043C76.1732 51.2559 75.9779 51.6758 75.8477 52.1641C75.7174 52.6458 75.6523 53.1764 75.6523 53.7559C75.6523 54.3418 75.7174 54.8822 75.8477 55.377C75.9779 55.8652 76.1732 56.2852 76.4336 56.6367C76.694 56.9883 77.013 57.265 77.3906 57.4668C77.7682 57.6621 78.2077 57.7598 78.709 57.7598C79.2103 57.7598 79.6497 57.6621 80.0273 57.4668C80.4115 57.265 80.7337 56.9883 80.9941 56.6367C81.2546 56.2852 81.4499 55.8652 81.5801 55.377C81.7103 54.8822 81.7754 54.3418 81.7754 53.7559ZM83.5723 53.7559C83.5723 54.6152 83.4616 55.39 83.2402 56.0801C83.0189 56.7637 82.6999 57.3464 82.2832 57.8281C81.8665 58.3099 81.3555 58.681 80.75 58.9414C80.151 59.1953 79.4707 59.3223 78.709 59.3223C77.9473 59.3223 77.2669 59.1953 76.668 58.9414C76.069 58.681 75.5612 58.3099 75.1445 57.8281C74.7279 57.3464 74.4089 56.7637 74.1875 56.0801C73.9661 55.39 73.8555 54.6152 73.8555 53.7559C73.8555 52.9095 73.9661 52.1445 74.1875 51.4609C74.4089 50.7773 74.7279 50.1947 75.1445 49.7129C75.5612 49.2311 76.069 48.8633 76.668 48.6094C77.2669 48.349 77.9473 48.2188 78.709 48.2188C79.4707 48.2188 80.151 48.349 80.75 48.6094C81.3555 48.8633 81.8665 49.2311 82.2832 49.7129C82.6999 50.1947 83.0189 50.7773 83.2402 51.4609C83.4616 52.1445 83.5723 52.9095 83.5723 53.7559ZM85.6035 48.541H92.0977V50.1035H87.4004V59H85.6035V48.541ZM92.5762 48.541H94.5488L97.332 57.0566H97.3711L100.154 48.541H102.127L98.1328 59.4199C97.931 59.9668 97.7454 60.4421 97.5762 60.8457C97.4069 61.2493 97.2409 61.5911 97.0781 61.8711C96.9154 62.1576 96.7493 62.3887 96.5801 62.5645C96.4173 62.7402 96.235 62.877 96.0332 62.9746C95.8379 63.0788 95.6165 63.1471 95.3691 63.1797C95.1283 63.2188 94.8483 63.2383 94.5293 63.2383C94.2689 63.2383 94.0638 63.2253 93.9141 63.1992C93.7708 63.1797 93.6439 63.1536 93.5332 63.1211V61.5C93.6504 61.5391 93.8034 61.5781 93.9922 61.6172C94.181 61.6562 94.3796 61.6758 94.5879 61.6758C94.9199 61.6758 95.1868 61.5944 95.3887 61.4316C95.597 61.2754 95.7565 61.0508 95.8672 60.7578L96.4531 59.2832L92.5762 48.541ZM109.236 48.541H111.033V52.7598H115.916V48.541H117.723V59H115.916V54.3223H111.033V59H109.236V48.541ZM120.35 51.6758C120.369 51.0378 120.49 50.5007 120.711 50.0645C120.932 49.6217 121.232 49.2637 121.609 48.9902C121.987 48.7168 122.433 48.5215 122.947 48.4043C123.468 48.2806 124.035 48.2188 124.646 48.2188C125.154 48.2188 125.646 48.2708 126.121 48.375C126.603 48.4792 127.029 48.6484 127.4 48.8828C127.771 49.1107 128.068 49.4102 128.289 49.7812C128.517 50.1458 128.631 50.5918 128.631 51.1191V57.2031C128.631 57.3724 128.676 57.5189 128.768 57.6426C128.859 57.7598 129.005 57.8184 129.207 57.8184C129.298 57.8184 129.393 57.8118 129.49 57.7988C129.588 57.7793 129.689 57.7598 129.793 57.7402V58.9805C129.643 59.0195 129.493 59.0553 129.344 59.0879C129.201 59.1204 129.028 59.1367 128.826 59.1367C128.514 59.1367 128.243 59.1107 128.016 59.0586C127.794 59.0065 127.605 58.9219 127.449 58.8047C127.299 58.681 127.182 58.5247 127.098 58.3359C127.013 58.1406 126.958 57.903 126.932 57.623C126.71 57.8639 126.476 58.0885 126.229 58.2969C125.981 58.4987 125.704 58.6777 125.398 58.834C125.092 58.9837 124.751 59.1009 124.373 59.1855C123.995 59.2767 123.569 59.3223 123.094 59.3223C122.69 59.3223 122.296 59.2572 121.912 59.127C121.535 58.9967 121.193 58.8047 120.887 58.5508C120.587 58.2969 120.346 57.9844 120.164 57.6133C119.982 57.2357 119.891 56.7995 119.891 56.3047C119.891 55.7643 119.982 55.2988 120.164 54.9082C120.346 54.5111 120.584 54.1823 120.877 53.9219C121.17 53.6549 121.505 53.4499 121.883 53.3066C122.26 53.1634 122.645 53.069 123.035 53.0234L125.975 52.6621C126.255 52.6296 126.473 52.5221 126.629 52.3398C126.792 52.151 126.873 51.8516 126.873 51.4414C126.873 50.8099 126.665 50.3574 126.248 50.084C125.838 49.804 125.245 49.6641 124.471 49.6641C123.676 49.6641 123.084 49.8333 122.693 50.1719C122.303 50.5039 122.081 51.0052 122.029 51.6758H120.35ZM126.834 53.6777C126.691 53.7819 126.512 53.8698 126.297 53.9414C126.089 54.0065 125.857 54.0618 125.604 54.1074C125.35 54.153 125.079 54.1953 124.793 54.2344C124.507 54.2669 124.22 54.3027 123.934 54.3418C123.608 54.3874 123.309 54.4525 123.035 54.5371C122.762 54.6217 122.524 54.7324 122.322 54.8691C122.12 55.0059 121.964 55.1719 121.854 55.3672C121.743 55.556 121.688 55.7806 121.688 56.041C121.688 56.3405 121.733 56.6042 121.824 56.832C121.922 57.0599 122.052 57.252 122.215 57.4082C122.384 57.5645 122.586 57.6816 122.82 57.7598C123.055 57.8379 123.312 57.877 123.592 57.877C123.768 57.877 123.969 57.8574 124.197 57.8184C124.425 57.7728 124.66 57.7077 124.9 57.623C125.141 57.5384 125.376 57.431 125.604 57.3008C125.838 57.1641 126.046 57.0013 126.229 56.8125C126.411 56.6237 126.557 56.4089 126.668 56.168C126.779 55.9271 126.834 55.6569 126.834 55.3574V53.6777ZM134.324 44.4785C134.409 44.8952 134.585 45.2272 134.852 45.4746C135.118 45.7155 135.512 45.8359 136.033 45.8359C136.561 45.8359 136.958 45.7188 137.225 45.4844C137.492 45.2435 137.664 44.9082 137.742 44.4785H139.412C139.406 44.8691 139.321 45.224 139.158 45.543C138.995 45.8555 138.764 46.1224 138.465 46.3438C138.172 46.5651 137.817 46.7376 137.4 46.8613C136.99 46.9785 136.535 47.0371 136.033 47.0371C135.532 47.0371 135.076 46.9785 134.666 46.8613C134.256 46.7441 133.904 46.5749 133.611 46.3535C133.318 46.1322 133.087 45.8652 132.918 45.5527C132.755 45.2337 132.671 44.8757 132.664 44.4785H134.324ZM131.502 48.541H133.299V56.5586H133.338L138.475 48.541H140.535V59H138.729V50.9824H138.689L133.562 59H131.502V48.541ZM145.965 50.1035H142.361V48.541H151.365V50.1035H147.762V59H145.965V50.1035ZM153.182 48.541H154.979V56.5586H155.018L160.154 48.541H162.215V59H160.408V50.9824H160.369L155.242 59H153.182V48.541ZM178.65 55.3184C178.624 55.5723 178.572 55.849 178.494 56.1484C178.423 56.4479 178.315 56.7474 178.172 57.0469C178.029 57.3398 177.843 57.623 177.615 57.8965C177.394 58.1699 177.12 58.4141 176.795 58.6289C176.476 58.8372 176.098 59.0033 175.662 59.127C175.226 59.2572 174.728 59.3223 174.168 59.3223C173.862 59.3223 173.54 59.2832 173.201 59.2051C172.863 59.1335 172.531 59.0098 172.205 58.834C171.886 58.6582 171.58 58.4336 171.287 58.1602C171.001 57.8802 170.747 57.5352 170.525 57.125C170.311 56.7148 170.138 56.2396 170.008 55.6992C169.878 55.1523 169.812 54.5273 169.812 53.8242C169.812 52.9583 169.936 52.1803 170.184 51.4902C170.431 50.7936 170.76 50.2044 171.17 49.7227C171.587 49.2409 172.068 48.8698 172.615 48.6094C173.169 48.349 173.748 48.2188 174.354 48.2188C174.9 48.2188 175.382 48.2773 175.799 48.3945C176.222 48.5117 176.59 48.668 176.902 48.8633C177.215 49.0586 177.479 49.2865 177.693 49.5469C177.908 49.8008 178.081 50.071 178.211 50.3574C178.348 50.6374 178.449 50.9238 178.514 51.2168C178.585 51.5098 178.631 51.7897 178.65 52.0566H176.971C176.88 51.347 176.632 50.7904 176.229 50.3867C175.831 49.9831 175.271 49.7812 174.549 49.7812C174.054 49.7812 173.621 49.8822 173.25 50.084C172.885 50.2858 172.579 50.569 172.332 50.9336C172.091 51.2917 171.909 51.7279 171.785 52.2422C171.668 52.75 171.609 53.3099 171.609 53.9219C171.609 54.612 171.674 55.2077 171.805 55.709C171.935 56.2038 172.12 56.6139 172.361 56.9395C172.602 57.2585 172.895 57.4961 173.24 57.6523C173.592 57.8021 173.989 57.877 174.432 57.877C174.744 57.877 175.04 57.8216 175.32 57.7109C175.6 57.5938 175.851 57.4277 176.072 57.2129C176.294 56.9915 176.482 56.7214 176.639 56.4023C176.795 56.0833 176.906 55.722 176.971 55.3184H178.65ZM187.732 53.7559C187.732 53.1764 187.667 52.6458 187.537 52.1641C187.407 51.6758 187.212 51.2559 186.951 50.9043C186.691 50.5527 186.368 50.2793 185.984 50.084C185.607 49.8822 185.167 49.7812 184.666 49.7812C184.165 49.7812 183.725 49.8822 183.348 50.084C182.97 50.2793 182.651 50.5527 182.391 50.9043C182.13 51.2559 181.935 51.6758 181.805 52.1641C181.674 52.6458 181.609 53.1764 181.609 53.7559C181.609 54.3418 181.674 54.8822 181.805 55.377C181.935 55.8652 182.13 56.2852 182.391 56.6367C182.651 56.9883 182.97 57.265 183.348 57.4668C183.725 57.6621 184.165 57.7598 184.666 57.7598C185.167 57.7598 185.607 57.6621 185.984 57.4668C186.368 57.265 186.691 56.9883 186.951 56.6367C187.212 56.2852 187.407 55.8652 187.537 55.377C187.667 54.8822 187.732 54.3418 187.732 53.7559ZM189.529 53.7559C189.529 54.6152 189.419 55.39 189.197 56.0801C188.976 56.7637 188.657 57.3464 188.24 57.8281C187.824 58.3099 187.312 58.681 186.707 58.9414C186.108 59.1953 185.428 59.3223 184.666 59.3223C183.904 59.3223 183.224 59.1953 182.625 58.9414C182.026 58.681 181.518 58.3099 181.102 57.8281C180.685 57.3464 180.366 56.7637 180.145 56.0801C179.923 55.39 179.812 54.6152 179.812 53.7559C179.812 52.9095 179.923 52.1445 180.145 51.4609C180.366 50.7773 180.685 50.1947 181.102 49.7129C181.518 49.2311 182.026 48.8633 182.625 48.6094C183.224 48.349 183.904 48.2188 184.666 48.2188C185.428 48.2188 186.108 48.349 186.707 48.6094C187.312 48.8633 187.824 49.2311 188.24 49.7129C188.657 50.1947 188.976 50.7773 189.197 51.4609C189.419 52.1445 189.529 52.9095 189.529 53.7559ZM198.865 53.7559C198.865 53.1764 198.8 52.6458 198.67 52.1641C198.54 51.6758 198.344 51.2559 198.084 50.9043C197.824 50.5527 197.501 50.2793 197.117 50.084C196.74 49.8822 196.3 49.7812 195.799 49.7812C195.298 49.7812 194.858 49.8822 194.48 50.084C194.103 50.2793 193.784 50.5527 193.523 50.9043C193.263 51.2559 193.068 51.6758 192.938 52.1641C192.807 52.6458 192.742 53.1764 192.742 53.7559C192.742 54.3418 192.807 54.8822 192.938 55.377C193.068 55.8652 193.263 56.2852 193.523 56.6367C193.784 56.9883 194.103 57.265 194.48 57.4668C194.858 57.6621 195.298 57.7598 195.799 57.7598C196.3 57.7598 196.74 57.6621 197.117 57.4668C197.501 57.265 197.824 56.9883 198.084 56.6367C198.344 56.2852 198.54 55.8652 198.67 55.377C198.8 54.8822 198.865 54.3418 198.865 53.7559ZM200.662 53.7559C200.662 54.6152 200.551 55.39 200.33 56.0801C200.109 56.7637 199.79 57.3464 199.373 57.8281C198.956 58.3099 198.445 58.681 197.84 58.9414C197.241 59.1953 196.561 59.3223 195.799 59.3223C195.037 59.3223 194.357 59.1953 193.758 58.9414C193.159 58.681 192.651 58.3099 192.234 57.8281C191.818 57.3464 191.499 56.7637 191.277 56.0801C191.056 55.39 190.945 54.6152 190.945 53.7559C190.945 52.9095 191.056 52.1445 191.277 51.4609C191.499 50.7773 191.818 50.1947 192.234 49.7129C192.651 49.2311 193.159 48.8633 193.758 48.6094C194.357 48.349 195.037 48.2188 195.799 48.2188C196.561 48.2188 197.241 48.349 197.84 48.6094C198.445 48.8633 198.956 49.2311 199.373 49.7129C199.79 50.1947 200.109 50.7773 200.33 51.4609C200.551 52.1445 200.662 52.9095 200.662 53.7559ZM210.818 44.5176C210.805 44.6152 210.786 44.7357 210.76 44.8789C210.74 45.0156 210.698 45.1621 210.633 45.3184C210.568 45.4746 210.477 45.6341 210.359 45.7969C210.249 45.9531 210.099 46.0996 209.91 46.2363C209.806 46.3079 209.712 46.3698 209.627 46.4219C209.542 46.474 209.435 46.5195 209.305 46.5586C209.174 46.5977 209.008 46.6302 208.807 46.6562C208.605 46.6823 208.335 46.6986 207.996 46.7051L207.254 46.7246C206.746 46.7376 206.287 46.8418 205.877 47.0371C205.473 47.2259 205.115 47.4928 204.803 47.8379C204.497 48.1764 204.243 48.5866 204.041 49.0684C203.839 49.5501 203.689 50.0872 203.592 50.6797C203.729 50.4193 203.898 50.1654 204.1 49.918C204.301 49.6641 204.552 49.4395 204.852 49.2441C205.151 49.0423 205.503 48.8828 205.906 48.7656C206.31 48.6419 206.779 48.5801 207.312 48.5801C207.918 48.5801 208.491 48.6875 209.031 48.9023C209.578 49.1172 210.053 49.4395 210.457 49.8691C210.867 50.2988 211.193 50.8327 211.434 51.4707C211.674 52.1087 211.795 52.8509 211.795 53.6973C211.795 53.9642 211.775 54.2897 211.736 54.6738C211.697 55.0514 211.619 55.4486 211.502 55.8652C211.385 56.2819 211.215 56.6986 210.994 57.1152C210.779 57.5254 210.49 57.8932 210.125 58.2188C209.767 58.5443 209.327 58.8079 208.807 59.0098C208.292 59.2181 207.674 59.3223 206.951 59.3223C206.652 59.3223 206.333 59.2962 205.994 59.2441C205.662 59.1986 205.327 59.1107 204.988 58.9805C204.656 58.8503 204.331 58.668 204.012 58.4336C203.699 58.1992 203.413 57.8997 203.152 57.5352C203.022 57.3529 202.892 57.1445 202.762 56.9102C202.638 56.6693 202.524 56.3796 202.42 56.041C202.316 55.7025 202.231 55.3021 202.166 54.8398C202.107 54.3776 202.078 53.8307 202.078 53.1992C202.078 52.7826 202.098 52.3105 202.137 51.7832C202.176 51.2559 202.244 50.7188 202.342 50.1719C202.439 49.625 202.57 49.0977 202.732 48.5898C202.895 48.0755 203.104 47.6263 203.357 47.2422C203.631 46.8255 203.917 46.487 204.217 46.2266C204.516 45.9661 204.835 45.7611 205.174 45.6113C205.512 45.4616 205.877 45.3542 206.268 45.2891C206.658 45.224 207.081 45.1816 207.537 45.1621L208.172 45.1426C208.38 45.1361 208.556 45.1263 208.699 45.1133C208.849 45.0938 208.973 45.0645 209.07 45.0254C209.168 44.9863 209.246 44.9277 209.305 44.8496C209.363 44.7715 209.412 44.6608 209.451 44.5176H210.818ZM203.875 53.9609C203.875 54.1562 203.885 54.3874 203.904 54.6543C203.93 54.9212 203.979 55.2012 204.051 55.4941C204.122 55.7806 204.227 56.0671 204.363 56.3535C204.5 56.64 204.679 56.8971 204.9 57.125C205.128 57.3464 205.408 57.5286 205.74 57.6719C206.072 57.8086 206.469 57.877 206.932 57.877C207.446 57.877 207.879 57.7956 208.23 57.6328C208.582 57.4635 208.872 57.2487 209.1 56.9883C209.327 56.7214 209.5 56.4284 209.617 56.1094C209.741 55.7904 209.829 55.4811 209.881 55.1816C209.939 54.8757 209.972 54.599 209.979 54.3516C209.992 54.0977 209.998 53.9056 209.998 53.7754C209.998 53.3001 209.943 52.8346 209.832 52.3789C209.728 51.9232 209.555 51.5195 209.314 51.168C209.08 50.8164 208.771 50.5332 208.387 50.3184C208.009 50.1035 207.544 49.9961 206.99 49.9961C206.45 49.9961 205.984 50.1035 205.594 50.3184C205.203 50.5267 204.881 50.8132 204.627 51.1777C204.373 51.5358 204.184 51.9557 204.061 52.4375C203.937 52.9128 203.875 53.4206 203.875 53.9609ZM226.365 59H213.826V48.541H215.623V57.4375H219.393V48.541H221.189V57.4375H224.949V48.541H226.746V57.4375H228.045V61.5586H226.365V59ZM229.686 48.541H231.482V52.7598H236.365V48.541H238.172V59H236.365V54.3223H231.482V59H229.686V48.541ZM240.818 48.541H242.615V56.5586H242.654L247.791 48.541H249.852V59H248.045V50.9824H248.006L242.879 59H240.818V48.541ZM252.498 48.541H254.295V53.5996L259.578 48.541H261.932L257.02 53.1602L262.01 59H259.695L255.613 54.2539L254.295 55.3574V59H252.498V48.541ZM270.76 53.7559C270.76 53.1764 270.695 52.6458 270.564 52.1641C270.434 51.6758 270.239 51.2559 269.979 50.9043C269.718 50.5527 269.396 50.2793 269.012 50.084C268.634 49.8822 268.195 49.7812 267.693 49.7812C267.192 49.7812 266.753 49.8822 266.375 50.084C265.997 50.2793 265.678 50.5527 265.418 50.9043C265.158 51.2559 264.962 51.6758 264.832 52.1641C264.702 52.6458 264.637 53.1764 264.637 53.7559C264.637 54.3418 264.702 54.8822 264.832 55.377C264.962 55.8652 265.158 56.2852 265.418 56.6367C265.678 56.9883 265.997 57.265 266.375 57.4668C266.753 57.6621 267.192 57.7598 267.693 57.7598C268.195 57.7598 268.634 57.6621 269.012 57.4668C269.396 57.265 269.718 56.9883 269.979 56.6367C270.239 56.2852 270.434 55.8652 270.564 55.377C270.695 54.8822 270.76 54.3418 270.76 53.7559ZM272.557 53.7559C272.557 54.6152 272.446 55.39 272.225 56.0801C272.003 56.7637 271.684 57.3464 271.268 57.8281C270.851 58.3099 270.34 58.681 269.734 58.9414C269.135 59.1953 268.455 59.3223 267.693 59.3223C266.932 59.3223 266.251 59.1953 265.652 58.9414C265.053 58.681 264.546 58.3099 264.129 57.8281C263.712 57.3464 263.393 56.7637 263.172 56.0801C262.951 55.39 262.84 54.6152 262.84 53.7559C262.84 52.9095 262.951 52.1445 263.172 51.4609C263.393 50.7773 263.712 50.1947 264.129 49.7129C264.546 49.2311 265.053 48.8633 265.652 48.6094C266.251 48.349 266.932 48.2188 267.693 48.2188C268.455 48.2188 269.135 48.349 269.734 48.6094C270.34 48.8633 270.851 49.2311 271.268 49.7129C271.684 50.1947 272.003 50.7773 272.225 51.4609C272.446 52.1445 272.557 52.9095 272.557 53.7559ZM274.588 48.541H279.041C280.317 48.541 281.271 48.7786 281.902 49.2539C282.54 49.7292 282.859 50.4193 282.859 51.3242C282.859 51.806 282.742 52.2129 282.508 52.5449C282.273 52.877 281.964 53.1699 281.58 53.4238C282.133 53.6322 282.573 53.9316 282.898 54.3223C283.224 54.7129 283.387 55.2174 283.387 55.8359C283.387 56.3242 283.305 56.7637 283.143 57.1543C282.98 57.5449 282.732 57.877 282.4 58.1504C282.068 58.4238 281.645 58.6354 281.131 58.7852C280.623 58.9284 280.021 59 279.324 59H274.588V48.541ZM276.385 57.5645H279.119C279.594 57.5645 279.988 57.5286 280.301 57.457C280.62 57.3789 280.874 57.2682 281.062 57.125C281.251 56.9818 281.385 56.8092 281.463 56.6074C281.541 56.4056 281.58 56.1777 281.58 55.9238C281.58 55.6699 281.541 55.4421 281.463 55.2402C281.385 55.0319 281.251 54.8594 281.062 54.7227C280.874 54.5794 280.62 54.472 280.301 54.4004C279.988 54.3223 279.594 54.2832 279.119 54.2832H276.385V57.5645ZM276.385 52.9648H279.1C279.705 52.9648 280.184 52.8444 280.535 52.6035C280.887 52.3626 281.062 51.9883 281.062 51.4805C281.062 51.194 281.014 50.9564 280.916 50.7676C280.818 50.5723 280.688 50.416 280.525 50.2988C280.363 50.1816 280.177 50.1003 279.969 50.0547C279.767 50.0026 279.559 49.9766 279.344 49.9766H276.385V52.9648Z" fill="white"/>
</svg>
