<svg width="366" height="77" viewBox="0 0 366 77" fill="none" xmlns="http://www.w3.org/2000/svg">
<path d="M41 40L0 40C-5.65867e-07 59.8843 18.354 76 41 76L41 40Z" fill="#A9E163"/>
<rect x="366" y="76.7539" width="357.472" height="76.7534" rx="38.3767" transform="rotate(-180 366 76.7539)" fill="#A9E163"/>
<path d="M37.4844 19.6445H39.3984V25.5625H47.0352V19.6445H48.959V34H47.0352V27.2422H39.3984V34H37.4844V19.6445ZM60.6777 30.6602C60.6061 31.1159 60.4499 31.5618 60.209 31.998C59.9681 32.4342 59.6523 32.8249 59.2617 33.1699C58.8711 33.515 58.4089 33.7917 57.875 34C57.3477 34.2148 56.7617 34.3223 56.1172 34.3223C55.4141 34.3223 54.763 34.2083 54.1641 33.9805C53.5716 33.7461 53.0573 33.3978 52.6211 32.9355C52.1914 32.4668 51.8529 31.8809 51.6055 31.1777C51.3581 30.4746 51.2344 29.6478 51.2344 28.6973C51.2344 28.0592 51.3027 27.4831 51.4395 26.9688C51.5827 26.4479 51.7715 25.9857 52.0059 25.582C52.2467 25.1719 52.5234 24.8203 52.8359 24.5273C53.1484 24.2279 53.4772 23.9837 53.8223 23.7949C54.1738 23.5996 54.5319 23.4564 54.8965 23.3652C55.2611 23.2676 55.6126 23.2188 55.9512 23.2188C56.6673 23.2188 57.3216 23.3262 57.9141 23.541C58.5065 23.7559 59.0143 24.0846 59.4375 24.5273C59.8672 24.9635 60.1992 25.5137 60.4336 26.1777C60.6745 26.8353 60.7949 27.61 60.7949 28.502V29.4004H53.1484C53.1549 29.9082 53.2266 30.3704 53.3633 30.7871C53.5 31.1973 53.6953 31.5488 53.9492 31.8418C54.2031 32.1348 54.5091 32.3626 54.8672 32.5254C55.2318 32.6816 55.6419 32.7598 56.0977 32.7598C56.5599 32.7598 56.9505 32.6947 57.2695 32.5645C57.5885 32.4342 57.8555 32.2682 58.0703 32.0664C58.2852 31.8646 58.4577 31.64 58.5879 31.3926C58.7246 31.1452 58.8385 30.901 58.9297 30.6602H60.6777ZM58.9883 27.9648C58.9753 27.457 58.8971 27.0046 58.7539 26.6074C58.6172 26.2103 58.4219 25.8783 58.168 25.6113C57.9206 25.3379 57.6211 25.1328 57.2695 24.9961C56.918 24.8529 56.5273 24.7812 56.0977 24.7812C55.6875 24.7812 55.3099 24.8626 54.9648 25.0254C54.6198 25.1816 54.3171 25.403 54.0566 25.6895C53.7962 25.9694 53.5879 26.3047 53.4316 26.6953C53.2754 27.0794 53.181 27.5026 53.1484 27.9648H58.9883ZM65.6875 25.1035H62.084V23.541H71.0879V25.1035H67.4844V34H65.6875V25.1035ZM85.1504 25.1035H80.2676V34H78.4707V23.541H86.957V34H85.1504V25.1035ZM89.5059 23.541H91.3027V24.9766H91.3418C91.459 24.7357 91.6055 24.5078 91.7812 24.293C91.9635 24.0781 92.1784 23.8926 92.4258 23.7363C92.6797 23.5736 92.9694 23.4466 93.2949 23.3555C93.627 23.2643 94.0046 23.2188 94.4277 23.2188C94.9876 23.2188 95.5247 23.3262 96.0391 23.541C96.5534 23.7559 97.0091 24.0781 97.4062 24.5078C97.8034 24.9375 98.1191 25.4779 98.3535 26.1289C98.5879 26.7734 98.7051 27.5254 98.7051 28.3848C98.7051 29.459 98.5944 30.3737 98.373 31.1289C98.1582 31.8776 97.849 32.4896 97.4453 32.9648C97.0482 33.4401 96.5664 33.7852 96 34C95.4336 34.2148 94.8021 34.3223 94.1055 34.3223C93.7604 34.3223 93.4382 34.2767 93.1387 34.1855C92.8392 34.0944 92.569 33.9772 92.3281 33.834C92.0938 33.6842 91.8919 33.5215 91.7227 33.3457C91.5534 33.1634 91.4264 32.9876 91.3418 32.8184H91.3027V38.1211H89.5059V23.541ZM91.2637 28.8242C91.2637 29.3906 91.319 29.9147 91.4297 30.3965C91.5404 30.8717 91.7096 31.2852 91.9375 31.6367C92.1719 31.9883 92.4616 32.265 92.8066 32.4668C93.1582 32.6621 93.5716 32.7598 94.0469 32.7598C94.5417 32.7598 94.9681 32.6621 95.3262 32.4668C95.6908 32.265 95.9902 31.9883 96.2246 31.6367C96.459 31.2852 96.6315 30.8717 96.7422 30.3965C96.8529 29.9147 96.9082 29.3906 96.9082 28.8242C96.9082 28.2318 96.8529 27.6882 96.7422 27.1934C96.6315 26.6986 96.459 26.2721 96.2246 25.9141C95.9902 25.556 95.6908 25.2793 95.3262 25.084C94.9681 24.8822 94.5417 24.7812 94.0469 24.7812C93.5716 24.7812 93.1582 24.8822 92.8066 25.084C92.4616 25.2793 92.1719 25.556 91.9375 25.9141C91.7096 26.2721 91.5404 26.6986 91.4297 27.1934C91.319 27.6882 91.2637 28.2318 91.2637 28.8242ZM108.041 28.7559C108.041 28.1764 107.976 27.6458 107.846 27.1641C107.715 26.6758 107.52 26.2559 107.26 25.9043C106.999 25.5527 106.677 25.2793 106.293 25.084C105.915 24.8822 105.476 24.7812 104.975 24.7812C104.473 24.7812 104.034 24.8822 103.656 25.084C103.279 25.2793 102.96 25.5527 102.699 25.9043C102.439 26.2559 102.243 26.6758 102.113 27.1641C101.983 27.6458 101.918 28.1764 101.918 28.7559C101.918 29.3418 101.983 29.8822 102.113 30.377C102.243 30.8652 102.439 31.2852 102.699 31.6367C102.96 31.9883 103.279 32.265 103.656 32.4668C104.034 32.6621 104.473 32.7598 104.975 32.7598C105.476 32.7598 105.915 32.6621 106.293 32.4668C106.677 32.265 106.999 31.9883 107.26 31.6367C107.52 31.2852 107.715 30.8652 107.846 30.377C107.976 29.8822 108.041 29.3418 108.041 28.7559ZM109.838 28.7559C109.838 29.6152 109.727 30.39 109.506 31.0801C109.285 31.7637 108.965 32.3464 108.549 32.8281C108.132 33.3099 107.621 33.681 107.016 33.9414C106.417 34.1953 105.736 34.3223 104.975 34.3223C104.213 34.3223 103.533 34.1953 102.934 33.9414C102.335 33.681 101.827 33.3099 101.41 32.8281C100.993 32.3464 100.674 31.7637 100.453 31.0801C100.232 30.39 100.121 29.6152 100.121 28.7559C100.121 27.9095 100.232 27.1445 100.453 26.4609C100.674 25.7773 100.993 25.1947 101.41 24.7129C101.827 24.2311 102.335 23.8633 102.934 23.6094C103.533 23.349 104.213 23.2188 104.975 23.2188C105.736 23.2188 106.417 23.349 107.016 23.6094C107.621 23.8633 108.132 24.2311 108.549 24.7129C108.965 25.1947 109.285 25.7773 109.506 26.4609C109.727 27.1445 109.838 27.9095 109.838 28.7559ZM117.973 27.8574C117.973 27.3626 117.911 26.9264 117.787 26.5488C117.663 26.1647 117.497 25.8424 117.289 25.582C117.081 25.3216 116.84 25.123 116.566 24.9863C116.293 24.8496 116.007 24.7812 115.707 24.7812C115.225 24.7812 114.815 24.8854 114.477 25.0938C114.138 25.3021 113.861 25.5885 113.646 25.9531C113.432 26.3112 113.275 26.7311 113.178 27.2129C113.08 27.6947 113.031 28.209 113.031 28.7559C113.031 29.0488 113.048 29.3548 113.08 29.6738C113.119 29.9928 113.178 30.3053 113.256 30.6113C113.334 30.9173 113.438 31.207 113.568 31.4805C113.699 31.7539 113.861 31.9948 114.057 32.2031C114.252 32.4115 114.48 32.5775 114.74 32.7012C115.007 32.8184 115.316 32.877 115.668 32.877C116.417 32.877 116.986 32.6133 117.377 32.0859C117.774 31.5521 117.973 30.7969 117.973 29.8203V27.8574ZM117.973 32.7402H117.934C117.745 33.0723 117.546 33.3424 117.338 33.5508C117.136 33.7526 116.921 33.9089 116.693 34.0195C116.472 34.1367 116.238 34.2148 115.99 34.2539C115.749 34.2995 115.502 34.3223 115.248 34.3223C114.74 34.3223 114.245 34.2018 113.764 33.9609C113.282 33.7201 112.852 33.3652 112.475 32.8965C112.104 32.4212 111.804 31.832 111.576 31.1289C111.348 30.4258 111.234 29.6152 111.234 28.6973C111.234 28.248 111.267 27.8021 111.332 27.3594C111.397 26.9102 111.498 26.4837 111.635 26.0801C111.771 25.6764 111.944 25.2988 112.152 24.9473C112.367 24.5957 112.621 24.293 112.914 24.0391C113.214 23.7852 113.555 23.5866 113.939 23.4434C114.324 23.2936 114.753 23.2188 115.229 23.2188C115.587 23.2188 115.909 23.2708 116.195 23.375C116.482 23.4727 116.732 23.5996 116.947 23.7559C117.169 23.9121 117.357 24.0814 117.514 24.2637C117.676 24.446 117.816 24.6185 117.934 24.7812H117.973V19.6445H119.77V24.7812H119.809C119.926 24.6185 120.062 24.446 120.219 24.2637C120.382 24.0814 120.57 23.9121 120.785 23.7559C121.007 23.5996 121.257 23.4727 121.537 23.375C121.824 23.2708 122.149 23.2188 122.514 23.2188C122.989 23.2188 123.419 23.2936 123.803 23.4434C124.187 23.5866 124.525 23.7852 124.818 24.0391C125.118 24.293 125.372 24.5957 125.58 24.9473C125.795 25.2988 125.971 25.6764 126.107 26.0801C126.244 26.4837 126.345 26.9102 126.41 27.3594C126.475 27.8021 126.508 28.248 126.508 28.6973C126.508 29.6152 126.394 30.4258 126.166 31.1289C125.938 31.832 125.635 32.4212 125.258 32.8965C124.887 33.3652 124.46 33.7201 123.979 33.9609C123.497 34.2018 123.002 34.3223 122.494 34.3223C122.24 34.3223 121.99 34.2995 121.742 34.2539C121.501 34.2148 121.267 34.1367 121.039 34.0195C120.818 33.9089 120.603 33.7526 120.395 33.5508C120.186 33.3424 119.991 33.0723 119.809 32.7402H119.77V38.1211H117.973V32.7402ZM122.035 32.877C122.393 32.877 122.709 32.8184 122.982 32.7012C123.256 32.5775 123.49 32.4115 123.686 32.2031C123.887 31.9948 124.053 31.7539 124.184 31.4805C124.314 31.207 124.418 30.9173 124.496 30.6113C124.574 30.3053 124.63 29.9928 124.662 29.6738C124.695 29.3548 124.711 29.0488 124.711 28.7559C124.711 28.209 124.659 27.6947 124.555 27.2129C124.457 26.7311 124.301 26.3112 124.086 25.9531C123.871 25.5885 123.594 25.3021 123.256 25.0938C122.917 24.8854 122.51 24.7812 122.035 24.7812C121.736 24.7812 121.449 24.8496 121.176 24.9863C120.902 25.123 120.661 25.3216 120.453 25.582C120.245 25.8424 120.079 26.1647 119.955 26.5488C119.831 26.9264 119.77 27.3626 119.77 27.8574V29.8203C119.77 30.7969 119.965 31.5521 120.355 32.0859C120.746 32.6133 121.306 32.877 122.035 32.877ZM137.416 30.6602C137.344 31.1159 137.188 31.5618 136.947 31.998C136.706 32.4342 136.391 32.8249 136 33.1699C135.609 33.515 135.147 33.7917 134.613 34C134.086 34.2148 133.5 34.3223 132.855 34.3223C132.152 34.3223 131.501 34.2083 130.902 33.9805C130.31 33.7461 129.796 33.3978 129.359 32.9355C128.93 32.4668 128.591 31.8809 128.344 31.1777C128.096 30.4746 127.973 29.6478 127.973 28.6973C127.973 28.0592 128.041 27.4831 128.178 26.9688C128.321 26.4479 128.51 25.9857 128.744 25.582C128.985 25.1719 129.262 24.8203 129.574 24.5273C129.887 24.2279 130.215 23.9837 130.561 23.7949C130.912 23.5996 131.27 23.4564 131.635 23.3652C131.999 23.2676 132.351 23.2188 132.689 23.2188C133.406 23.2188 134.06 23.3262 134.652 23.541C135.245 23.7559 135.753 24.0846 136.176 24.5273C136.605 24.9635 136.938 25.5137 137.172 26.1777C137.413 26.8353 137.533 27.61 137.533 28.502V29.4004H129.887C129.893 29.9082 129.965 30.3704 130.102 30.7871C130.238 31.1973 130.434 31.5488 130.688 31.8418C130.941 32.1348 131.247 32.3626 131.605 32.5254C131.97 32.6816 132.38 32.7598 132.836 32.7598C133.298 32.7598 133.689 32.6947 134.008 32.5645C134.327 32.4342 134.594 32.2682 134.809 32.0664C135.023 31.8646 135.196 31.64 135.326 31.3926C135.463 31.1452 135.577 30.901 135.668 30.6602H137.416ZM135.727 27.9648C135.714 27.457 135.635 27.0046 135.492 26.6074C135.355 26.2103 135.16 25.8783 134.906 25.6113C134.659 25.3379 134.359 25.1328 134.008 24.9961C133.656 24.8529 133.266 24.7812 132.836 24.7812C132.426 24.7812 132.048 24.8626 131.703 25.0254C131.358 25.1816 131.055 25.403 130.795 25.6895C130.535 25.9694 130.326 26.3047 130.17 26.6953C130.014 27.0794 129.919 27.5026 129.887 27.9648H135.727ZM147.865 30.3184C147.839 30.5723 147.787 30.849 147.709 31.1484C147.637 31.4479 147.53 31.7474 147.387 32.0469C147.243 32.3398 147.058 32.623 146.83 32.8965C146.609 33.1699 146.335 33.4141 146.01 33.6289C145.691 33.8372 145.313 34.0033 144.877 34.127C144.441 34.2572 143.943 34.3223 143.383 34.3223C143.077 34.3223 142.755 34.2832 142.416 34.2051C142.077 34.1335 141.745 34.0098 141.42 33.834C141.101 33.6582 140.795 33.4336 140.502 33.1602C140.215 32.8802 139.962 32.5352 139.74 32.125C139.525 31.7148 139.353 31.2396 139.223 30.6992C139.092 30.1523 139.027 29.5273 139.027 28.8242C139.027 27.9583 139.151 27.1803 139.398 26.4902C139.646 25.7936 139.975 25.2044 140.385 24.7227C140.801 24.2409 141.283 23.8698 141.83 23.6094C142.383 23.349 142.963 23.2188 143.568 23.2188C144.115 23.2188 144.597 23.2773 145.014 23.3945C145.437 23.5117 145.805 23.668 146.117 23.8633C146.43 24.0586 146.693 24.2865 146.908 24.5469C147.123 24.8008 147.296 25.071 147.426 25.3574C147.562 25.6374 147.663 25.9238 147.729 26.2168C147.8 26.5098 147.846 26.7897 147.865 27.0566H146.186C146.094 26.347 145.847 25.7904 145.443 25.3867C145.046 24.9831 144.486 24.7812 143.764 24.7812C143.269 24.7812 142.836 24.8822 142.465 25.084C142.1 25.2858 141.794 25.569 141.547 25.9336C141.306 26.2917 141.124 26.7279 141 27.2422C140.883 27.75 140.824 28.3099 140.824 28.9219C140.824 29.612 140.889 30.2077 141.02 30.709C141.15 31.2038 141.335 31.6139 141.576 31.9395C141.817 32.2585 142.11 32.4961 142.455 32.6523C142.807 32.8021 143.204 32.877 143.646 32.877C143.959 32.877 144.255 32.8216 144.535 32.7109C144.815 32.5938 145.066 32.4277 145.287 32.2129C145.508 31.9915 145.697 31.7214 145.854 31.4023C146.01 31.0833 146.12 30.722 146.186 30.3184H147.865ZM157.865 30.3184C157.839 30.5723 157.787 30.849 157.709 31.1484C157.637 31.4479 157.53 31.7474 157.387 32.0469C157.243 32.3398 157.058 32.623 156.83 32.8965C156.609 33.1699 156.335 33.4141 156.01 33.6289C155.691 33.8372 155.313 34.0033 154.877 34.127C154.441 34.2572 153.943 34.3223 153.383 34.3223C153.077 34.3223 152.755 34.2832 152.416 34.2051C152.077 34.1335 151.745 34.0098 151.42 33.834C151.101 33.6582 150.795 33.4336 150.502 33.1602C150.215 32.8802 149.962 32.5352 149.74 32.125C149.525 31.7148 149.353 31.2396 149.223 30.6992C149.092 30.1523 149.027 29.5273 149.027 28.8242C149.027 27.9583 149.151 27.1803 149.398 26.4902C149.646 25.7936 149.975 25.2044 150.385 24.7227C150.801 24.2409 151.283 23.8698 151.83 23.6094C152.383 23.349 152.963 23.2188 153.568 23.2188C154.115 23.2188 154.597 23.2773 155.014 23.3945C155.437 23.5117 155.805 23.668 156.117 23.8633C156.43 24.0586 156.693 24.2865 156.908 24.5469C157.123 24.8008 157.296 25.071 157.426 25.3574C157.562 25.6374 157.663 25.9238 157.729 26.2168C157.8 26.5098 157.846 26.7897 157.865 27.0566H156.186C156.094 26.347 155.847 25.7904 155.443 25.3867C155.046 24.9831 154.486 24.7812 153.764 24.7812C153.269 24.7812 152.836 24.8822 152.465 25.084C152.1 25.2858 151.794 25.569 151.547 25.9336C151.306 26.2917 151.124 26.7279 151 27.2422C150.883 27.75 150.824 28.3099 150.824 28.9219C150.824 29.612 150.889 30.2077 151.02 30.709C151.15 31.2038 151.335 31.6139 151.576 31.9395C151.817 32.2585 152.11 32.4961 152.455 32.6523C152.807 32.8021 153.204 32.877 153.646 32.877C153.959 32.877 154.255 32.8216 154.535 32.7109C154.815 32.5938 155.066 32.4277 155.287 32.2129C155.508 31.9915 155.697 31.7214 155.854 31.4023C156.01 31.0833 156.12 30.722 156.186 30.3184H157.865ZM159.643 23.541H161.439V31.5586H161.479L166.615 23.541H168.676V34H166.869V25.9824H166.83L161.703 34H159.643V23.541ZM178.627 28.7559C178.627 28.1764 178.562 27.6458 178.432 27.1641C178.301 26.6758 178.106 26.2559 177.846 25.9043C177.585 25.5527 177.263 25.2793 176.879 25.084C176.501 24.8822 176.062 24.7812 175.561 24.7812C175.059 24.7812 174.62 24.8822 174.242 25.084C173.865 25.2793 173.546 25.5527 173.285 25.9043C173.025 26.2559 172.829 26.6758 172.699 27.1641C172.569 27.6458 172.504 28.1764 172.504 28.7559C172.504 29.3418 172.569 29.8822 172.699 30.377C172.829 30.8652 173.025 31.2852 173.285 31.6367C173.546 31.9883 173.865 32.265 174.242 32.4668C174.62 32.6621 175.059 32.7598 175.561 32.7598C176.062 32.7598 176.501 32.6621 176.879 32.4668C177.263 32.265 177.585 31.9883 177.846 31.6367C178.106 31.2852 178.301 30.8652 178.432 30.377C178.562 29.8822 178.627 29.3418 178.627 28.7559ZM180.424 28.7559C180.424 29.6152 180.313 30.39 180.092 31.0801C179.87 31.7637 179.551 32.3464 179.135 32.8281C178.718 33.3099 178.207 33.681 177.602 33.9414C177.003 34.1953 176.322 34.3223 175.561 34.3223C174.799 34.3223 174.118 34.1953 173.52 33.9414C172.921 33.681 172.413 33.3099 171.996 32.8281C171.579 32.3464 171.26 31.7637 171.039 31.0801C170.818 30.39 170.707 29.6152 170.707 28.7559C170.707 27.9095 170.818 27.1445 171.039 26.4609C171.26 25.7773 171.579 25.1947 171.996 24.7129C172.413 24.2311 172.921 23.8633 173.52 23.6094C174.118 23.349 174.799 23.2188 175.561 23.2188C176.322 23.2188 177.003 23.349 177.602 23.6094C178.207 23.8633 178.718 24.2311 179.135 24.7129C179.551 25.1947 179.87 25.7773 180.092 26.4609C180.313 27.1445 180.424 27.9095 180.424 28.7559ZM182.455 23.541H184.252V27.7598H189.135V23.541H190.941V34H189.135V29.3223H184.252V34H182.455V23.541ZM193.568 26.6758C193.588 26.0378 193.708 25.5007 193.93 25.0645C194.151 24.6217 194.451 24.2637 194.828 23.9902C195.206 23.7168 195.652 23.5215 196.166 23.4043C196.687 23.2806 197.253 23.2188 197.865 23.2188C198.373 23.2188 198.865 23.2708 199.34 23.375C199.822 23.4792 200.248 23.6484 200.619 23.8828C200.99 24.1107 201.286 24.4102 201.508 24.7812C201.736 25.1458 201.85 25.5918 201.85 26.1191V32.2031C201.85 32.3724 201.895 32.5189 201.986 32.6426C202.077 32.7598 202.224 32.8184 202.426 32.8184C202.517 32.8184 202.611 32.8118 202.709 32.7988C202.807 32.7793 202.908 32.7598 203.012 32.7402V33.9805C202.862 34.0195 202.712 34.0553 202.562 34.0879C202.419 34.1204 202.247 34.1367 202.045 34.1367C201.732 34.1367 201.462 34.1107 201.234 34.0586C201.013 34.0065 200.824 33.9219 200.668 33.8047C200.518 33.681 200.401 33.5247 200.316 33.3359C200.232 33.1406 200.176 32.903 200.15 32.623C199.929 32.8639 199.695 33.0885 199.447 33.2969C199.2 33.4987 198.923 33.6777 198.617 33.834C198.311 33.9837 197.969 34.1009 197.592 34.1855C197.214 34.2767 196.788 34.3223 196.312 34.3223C195.909 34.3223 195.515 34.2572 195.131 34.127C194.753 33.9967 194.411 33.8047 194.105 33.5508C193.806 33.2969 193.565 32.9844 193.383 32.6133C193.201 32.2357 193.109 31.7995 193.109 31.3047C193.109 30.7643 193.201 30.2988 193.383 29.9082C193.565 29.5111 193.803 29.1823 194.096 28.9219C194.389 28.6549 194.724 28.4499 195.102 28.3066C195.479 28.1634 195.863 28.069 196.254 28.0234L199.193 27.6621C199.473 27.6296 199.691 27.5221 199.848 27.3398C200.01 27.151 200.092 26.8516 200.092 26.4414C200.092 25.8099 199.883 25.3574 199.467 25.084C199.057 24.804 198.464 24.6641 197.689 24.6641C196.895 24.6641 196.303 24.8333 195.912 25.1719C195.521 25.5039 195.3 26.0052 195.248 26.6758H193.568ZM200.053 28.6777C199.91 28.7819 199.73 28.8698 199.516 28.9414C199.307 29.0065 199.076 29.0618 198.822 29.1074C198.568 29.153 198.298 29.1953 198.012 29.2344C197.725 29.2669 197.439 29.3027 197.152 29.3418C196.827 29.3874 196.527 29.4525 196.254 29.5371C195.98 29.6217 195.743 29.7324 195.541 29.8691C195.339 30.0059 195.183 30.1719 195.072 30.3672C194.962 30.556 194.906 30.7806 194.906 31.041C194.906 31.3405 194.952 31.6042 195.043 31.832C195.141 32.0599 195.271 32.252 195.434 32.4082C195.603 32.5645 195.805 32.6816 196.039 32.7598C196.273 32.8379 196.531 32.877 196.811 32.877C196.986 32.877 197.188 32.8574 197.416 32.8184C197.644 32.7728 197.878 32.7077 198.119 32.623C198.36 32.5384 198.594 32.431 198.822 32.3008C199.057 32.1641 199.265 32.0013 199.447 31.8125C199.63 31.6237 199.776 31.4089 199.887 31.168C199.997 30.9271 200.053 30.6569 200.053 30.3574V28.6777ZM211.762 25.1035H207.758L207.68 27.6133C207.641 28.8828 207.543 29.944 207.387 30.7969C207.23 31.6432 207.016 32.3236 206.742 32.8379C206.475 33.3522 206.15 33.7168 205.766 33.9316C205.382 34.1465 204.942 34.2539 204.447 34.2539C204.265 34.2539 204.105 34.2246 203.969 34.166C203.839 34.1139 203.738 34.0586 203.666 34V32.418C203.92 32.5156 204.145 32.5645 204.34 32.5645C204.477 32.5645 204.607 32.5417 204.73 32.4961C204.861 32.4505 204.981 32.3626 205.092 32.2324C205.209 32.1022 205.316 31.9199 205.414 31.6855C205.512 31.4447 205.596 31.1322 205.668 30.748C205.746 30.3639 205.808 29.8984 205.854 29.3516C205.906 28.8047 205.941 28.1536 205.961 27.3984L206.049 23.541H213.559V34H211.762V25.1035ZM216.186 26.6758C216.205 26.0378 216.326 25.5007 216.547 25.0645C216.768 24.6217 217.068 24.2637 217.445 23.9902C217.823 23.7168 218.269 23.5215 218.783 23.4043C219.304 23.2806 219.87 23.2188 220.482 23.2188C220.99 23.2188 221.482 23.2708 221.957 23.375C222.439 23.4792 222.865 23.6484 223.236 23.8828C223.607 24.1107 223.904 24.4102 224.125 24.7812C224.353 25.1458 224.467 25.5918 224.467 26.1191V32.2031C224.467 32.3724 224.512 32.5189 224.604 32.6426C224.695 32.7598 224.841 32.8184 225.043 32.8184C225.134 32.8184 225.229 32.8118 225.326 32.7988C225.424 32.7793 225.525 32.7598 225.629 32.7402V33.9805C225.479 34.0195 225.329 34.0553 225.18 34.0879C225.036 34.1204 224.864 34.1367 224.662 34.1367C224.35 34.1367 224.079 34.1107 223.852 34.0586C223.63 34.0065 223.441 33.9219 223.285 33.8047C223.135 33.681 223.018 33.5247 222.934 33.3359C222.849 33.1406 222.794 32.903 222.768 32.623C222.546 32.8639 222.312 33.0885 222.064 33.2969C221.817 33.4987 221.54 33.6777 221.234 33.834C220.928 33.9837 220.587 34.1009 220.209 34.1855C219.831 34.2767 219.405 34.3223 218.93 34.3223C218.526 34.3223 218.132 34.2572 217.748 34.127C217.37 33.9967 217.029 33.8047 216.723 33.5508C216.423 33.2969 216.182 32.9844 216 32.6133C215.818 32.2357 215.727 31.7995 215.727 31.3047C215.727 30.7643 215.818 30.2988 216 29.9082C216.182 29.5111 216.42 29.1823 216.713 28.9219C217.006 28.6549 217.341 28.4499 217.719 28.3066C218.096 28.1634 218.48 28.069 218.871 28.0234L221.811 27.6621C222.09 27.6296 222.309 27.5221 222.465 27.3398C222.628 27.151 222.709 26.8516 222.709 26.4414C222.709 25.8099 222.501 25.3574 222.084 25.084C221.674 24.804 221.081 24.6641 220.307 24.6641C219.512 24.6641 218.92 24.8333 218.529 25.1719C218.139 25.5039 217.917 26.0052 217.865 26.6758H216.186ZM222.67 28.6777C222.527 28.7819 222.348 28.8698 222.133 28.9414C221.924 29.0065 221.693 29.0618 221.439 29.1074C221.186 29.153 220.915 29.1953 220.629 29.2344C220.342 29.2669 220.056 29.3027 219.77 29.3418C219.444 29.3874 219.145 29.4525 218.871 29.5371C218.598 29.6217 218.36 29.7324 218.158 29.8691C217.956 30.0059 217.8 30.1719 217.689 30.3672C217.579 30.556 217.523 30.7806 217.523 31.041C217.523 31.3405 217.569 31.6042 217.66 31.832C217.758 32.0599 217.888 32.252 218.051 32.4082C218.22 32.5645 218.422 32.6816 218.656 32.7598C218.891 32.8379 219.148 32.877 219.428 32.877C219.604 32.877 219.805 32.8574 220.033 32.8184C220.261 32.7728 220.495 32.7077 220.736 32.623C220.977 32.5384 221.212 32.431 221.439 32.3008C221.674 32.1641 221.882 32.0013 222.064 31.8125C222.247 31.6237 222.393 31.4089 222.504 31.168C222.615 30.9271 222.67 30.6569 222.67 30.3574V28.6777ZM227.68 36.041C228.129 35.9629 228.445 35.6471 228.627 35.0938C228.725 34.8008 228.773 34.5176 228.773 34.2441C228.773 34.1986 228.77 34.1562 228.764 34.1172C228.764 34.0846 228.757 34.0456 228.744 34H227.68V31.8711H229.77V33.8438C229.77 34.6185 229.613 35.2988 229.301 35.8848C228.988 36.4707 228.448 36.832 227.68 36.9688V36.041ZM37.3184 46.541H39.1152V51.5996L44.3984 46.541H46.752L41.8398 51.1602L46.8301 57H44.5156L40.4336 52.2539L39.1152 53.3574V57H37.3184V46.541ZM55.5801 51.7559C55.5801 51.1764 55.515 50.6458 55.3848 50.1641C55.2546 49.6758 55.0592 49.2559 54.7988 48.9043C54.5384 48.5527 54.2161 48.2793 53.832 48.084C53.4544 47.8822 53.015 47.7812 52.5137 47.7812C52.0124 47.7812 51.5729 47.8822 51.1953 48.084C50.8177 48.2793 50.4987 48.5527 50.2383 48.9043C49.9779 49.2559 49.7826 49.6758 49.6523 50.1641C49.5221 50.6458 49.457 51.1764 49.457 51.7559C49.457 52.3418 49.5221 52.8822 49.6523 53.377C49.7826 53.8652 49.9779 54.2852 50.2383 54.6367C50.4987 54.9883 50.8177 55.265 51.1953 55.4668C51.5729 55.6621 52.0124 55.7598 52.5137 55.7598C53.015 55.7598 53.4544 55.6621 53.832 55.4668C54.2161 55.265 54.5384 54.9883 54.7988 54.6367C55.0592 54.2852 55.2546 53.8652 55.3848 53.377C55.515 52.8822 55.5801 52.3418 55.5801 51.7559ZM57.377 51.7559C57.377 52.6152 57.2663 53.39 57.0449 54.0801C56.8236 54.7637 56.5046 55.3464 56.0879 55.8281C55.6712 56.3099 55.1602 56.681 54.5547 56.9414C53.9557 57.1953 53.2754 57.3223 52.5137 57.3223C51.752 57.3223 51.0716 57.1953 50.4727 56.9414C49.8737 56.681 49.3659 56.3099 48.9492 55.8281C48.5326 55.3464 48.2135 54.7637 47.9922 54.0801C47.7708 53.39 47.6602 52.6152 47.6602 51.7559C47.6602 50.9095 47.7708 50.1445 47.9922 49.4609C48.2135 48.7773 48.5326 48.1947 48.9492 47.7129C49.3659 47.2311 49.8737 46.8633 50.4727 46.6094C51.0716 46.349 51.752 46.2188 52.5137 46.2188C53.2754 46.2188 53.9557 46.349 54.5547 46.6094C55.1602 46.8633 55.6712 47.2311 56.0879 47.7129C56.5046 48.1947 56.8236 48.7773 57.0449 49.4609C57.2663 50.1445 57.377 50.9095 57.377 51.7559ZM62.1914 48.1035H58.5879V46.541H67.5918V48.1035H63.9883V57H62.1914V48.1035ZM76.7129 51.7559C76.7129 51.1764 76.6478 50.6458 76.5176 50.1641C76.3874 49.6758 76.1921 49.2559 75.9316 48.9043C75.6712 48.5527 75.349 48.2793 74.9648 48.084C74.5872 47.8822 74.1478 47.7812 73.6465 47.7812C73.1452 47.7812 72.7057 47.8822 72.3281 48.084C71.9505 48.2793 71.6315 48.5527 71.3711 48.9043C71.1107 49.2559 70.9154 49.6758 70.7852 50.1641C70.6549 50.6458 70.5898 51.1764 70.5898 51.7559C70.5898 52.3418 70.6549 52.8822 70.7852 53.377C70.9154 53.8652 71.1107 54.2852 71.3711 54.6367C71.6315 54.9883 71.9505 55.265 72.3281 55.4668C72.7057 55.6621 73.1452 55.7598 73.6465 55.7598C74.1478 55.7598 74.5872 55.6621 74.9648 55.4668C75.349 55.265 75.6712 54.9883 75.9316 54.6367C76.1921 54.2852 76.3874 53.8652 76.5176 53.377C76.6478 52.8822 76.7129 52.3418 76.7129 51.7559ZM78.5098 51.7559C78.5098 52.6152 78.3991 53.39 78.1777 54.0801C77.9564 54.7637 77.6374 55.3464 77.2207 55.8281C76.804 56.3099 76.293 56.681 75.6875 56.9414C75.0885 57.1953 74.4082 57.3223 73.6465 57.3223C72.8848 57.3223 72.2044 57.1953 71.6055 56.9414C71.0065 56.681 70.4987 56.3099 70.082 55.8281C69.6654 55.3464 69.3464 54.7637 69.125 54.0801C68.9036 53.39 68.793 52.6152 68.793 51.7559C68.793 50.9095 68.9036 50.1445 69.125 49.4609C69.3464 48.7773 69.6654 48.1947 70.082 47.7129C70.4987 47.2311 71.0065 46.8633 71.6055 46.6094C72.2044 46.349 72.8848 46.2188 73.6465 46.2188C74.4082 46.2188 75.0885 46.349 75.6875 46.6094C76.293 46.8633 76.804 47.2311 77.2207 47.7129C77.6374 48.1947 77.9564 48.7773 78.1777 49.4609C78.3991 50.1445 78.5098 50.9095 78.5098 51.7559ZM80.4434 46.541H82.2402V47.9766H82.2793C82.3965 47.7357 82.543 47.5078 82.7188 47.293C82.901 47.0781 83.1159 46.8926 83.3633 46.7363C83.6172 46.5736 83.9069 46.4466 84.2324 46.3555C84.5645 46.2643 84.9421 46.2188 85.3652 46.2188C85.9251 46.2188 86.4622 46.3262 86.9766 46.541C87.4909 46.7559 87.9466 47.0781 88.3438 47.5078C88.7409 47.9375 89.0566 48.4779 89.291 49.1289C89.5254 49.7734 89.6426 50.5254 89.6426 51.3848C89.6426 52.459 89.5319 53.3737 89.3105 54.1289C89.0957 54.8776 88.7865 55.4896 88.3828 55.9648C87.9857 56.4401 87.5039 56.7852 86.9375 57C86.3711 57.2148 85.7396 57.3223 85.043 57.3223C84.6979 57.3223 84.3757 57.2767 84.0762 57.1855C83.7767 57.0944 83.5065 56.9772 83.2656 56.834C83.0312 56.6842 82.8294 56.5215 82.6602 56.3457C82.4909 56.1634 82.3639 55.9876 82.2793 55.8184H82.2402V61.1211H80.4434V46.541ZM82.2012 51.8242C82.2012 52.3906 82.2565 52.9147 82.3672 53.3965C82.4779 53.8717 82.6471 54.2852 82.875 54.6367C83.1094 54.9883 83.3991 55.265 83.7441 55.4668C84.0957 55.6621 84.5091 55.7598 84.9844 55.7598C85.4792 55.7598 85.9056 55.6621 86.2637 55.4668C86.6283 55.265 86.9277 54.9883 87.1621 54.6367C87.3965 54.2852 87.569 53.8717 87.6797 53.3965C87.7904 52.9147 87.8457 52.3906 87.8457 51.8242C87.8457 51.2318 87.7904 50.6882 87.6797 50.1934C87.569 49.6986 87.3965 49.2721 87.1621 48.9141C86.9277 48.556 86.6283 48.2793 86.2637 48.084C85.9056 47.8822 85.4792 47.7812 84.9844 47.7812C84.5091 47.7812 84.0957 47.8822 83.7441 48.084C83.3991 48.2793 83.1094 48.556 82.875 48.9141C82.6471 49.2721 82.4779 49.6986 82.3672 50.1934C82.2565 50.6882 82.2012 51.2318 82.2012 51.8242ZM101.674 46.541H103.471V57H101.674V46.541ZM91.6738 46.541H93.4707V50.4766H96.6152C97.1816 50.4766 97.6895 50.5547 98.1387 50.7109C98.5944 50.8607 98.9785 51.0788 99.291 51.3652C99.6035 51.6452 99.8411 51.987 100.004 52.3906C100.173 52.7878 100.258 53.237 100.258 53.7383C100.258 54.2461 100.173 54.7018 100.004 55.1055C99.8411 55.5026 99.6035 55.8444 99.291 56.1309C98.9785 56.4108 98.5944 56.6257 98.1387 56.7754C97.6895 56.9251 97.1816 57 96.6152 57H91.6738V46.541ZM93.4707 55.5645H96.2539C96.5664 55.5645 96.8561 55.5319 97.123 55.4668C97.3965 55.4017 97.6309 55.2975 97.8262 55.1543C98.0215 55.0046 98.1745 54.8158 98.2852 54.5879C98.3958 54.3535 98.4512 54.0703 98.4512 53.7383C98.4512 53.4128 98.3926 53.1361 98.2754 52.9082C98.1647 52.6803 98.0052 52.4948 97.7969 52.3516C97.5951 52.2018 97.3477 52.0944 97.0547 52.0293C96.7682 51.9577 96.4492 51.9219 96.0977 51.9219H93.4707V55.5645ZM108.949 42.4785C109.034 42.8952 109.21 43.2272 109.477 43.4746C109.743 43.7155 110.137 43.8359 110.658 43.8359C111.186 43.8359 111.583 43.7188 111.85 43.4844C112.117 43.2435 112.289 42.9082 112.367 42.4785H114.037C114.031 42.8691 113.946 43.224 113.783 43.543C113.62 43.8555 113.389 44.1224 113.09 44.3438C112.797 44.5651 112.442 44.7376 112.025 44.8613C111.615 44.9785 111.16 45.0371 110.658 45.0371C110.157 45.0371 109.701 44.9785 109.291 44.8613C108.881 44.7441 108.529 44.5749 108.236 44.3535C107.943 44.1322 107.712 43.8652 107.543 43.5527C107.38 43.2337 107.296 42.8757 107.289 42.4785H108.949ZM106.127 46.541H107.924V54.5586H107.963L113.1 46.541H115.16V57H113.354V48.9824H113.314L108.188 57H106.127V46.541ZM123.275 46.541H125.072V47.9766H125.111C125.229 47.7357 125.375 47.5078 125.551 47.293C125.733 47.0781 125.948 46.8926 126.195 46.7363C126.449 46.5736 126.739 46.4466 127.064 46.3555C127.396 46.2643 127.774 46.2188 128.197 46.2188C128.757 46.2188 129.294 46.3262 129.809 46.541C130.323 46.7559 130.779 47.0781 131.176 47.5078C131.573 47.9375 131.889 48.4779 132.123 49.1289C132.357 49.7734 132.475 50.5254 132.475 51.3848C132.475 52.459 132.364 53.3737 132.143 54.1289C131.928 54.8776 131.618 55.4896 131.215 55.9648C130.818 56.4401 130.336 56.7852 129.77 57C129.203 57.2148 128.572 57.3223 127.875 57.3223C127.53 57.3223 127.208 57.2767 126.908 57.1855C126.609 57.0944 126.339 56.9772 126.098 56.834C125.863 56.6842 125.661 56.5215 125.492 56.3457C125.323 56.1634 125.196 55.9876 125.111 55.8184H125.072V61.1211H123.275V46.541ZM125.033 51.8242C125.033 52.3906 125.089 52.9147 125.199 53.3965C125.31 53.8717 125.479 54.2852 125.707 54.6367C125.941 54.9883 126.231 55.265 126.576 55.4668C126.928 55.6621 127.341 55.7598 127.816 55.7598C128.311 55.7598 128.738 55.6621 129.096 55.4668C129.46 55.265 129.76 54.9883 129.994 54.6367C130.229 54.2852 130.401 53.8717 130.512 53.3965C130.622 52.9147 130.678 52.3906 130.678 51.8242C130.678 51.2318 130.622 50.6882 130.512 50.1934C130.401 49.6986 130.229 49.2721 129.994 48.9141C129.76 48.556 129.46 48.2793 129.096 48.084C128.738 47.8822 128.311 47.7812 127.816 47.7812C127.341 47.7812 126.928 47.8822 126.576 48.084C126.231 48.2793 125.941 48.556 125.707 48.9141C125.479 49.2721 125.31 49.6986 125.199 50.1934C125.089 50.6882 125.033 51.2318 125.033 51.8242ZM134.486 49.6758C134.506 49.0378 134.626 48.5007 134.848 48.0645C135.069 47.6217 135.368 47.2637 135.746 46.9902C136.124 46.7168 136.57 46.5215 137.084 46.4043C137.605 46.2806 138.171 46.2188 138.783 46.2188C139.291 46.2188 139.783 46.2708 140.258 46.375C140.74 46.4792 141.166 46.6484 141.537 46.8828C141.908 47.1107 142.204 47.4102 142.426 47.7812C142.654 48.1458 142.768 48.5918 142.768 49.1191V55.2031C142.768 55.3724 142.813 55.5189 142.904 55.6426C142.995 55.7598 143.142 55.8184 143.344 55.8184C143.435 55.8184 143.529 55.8118 143.627 55.7988C143.725 55.7793 143.826 55.7598 143.93 55.7402V56.9805C143.78 57.0195 143.63 57.0553 143.48 57.0879C143.337 57.1204 143.165 57.1367 142.963 57.1367C142.65 57.1367 142.38 57.1107 142.152 57.0586C141.931 57.0065 141.742 56.9219 141.586 56.8047C141.436 56.681 141.319 56.5247 141.234 56.3359C141.15 56.1406 141.094 55.903 141.068 55.623C140.847 55.8639 140.613 56.0885 140.365 56.2969C140.118 56.4987 139.841 56.6777 139.535 56.834C139.229 56.9837 138.887 57.1009 138.51 57.1855C138.132 57.2767 137.706 57.3223 137.23 57.3223C136.827 57.3223 136.433 57.2572 136.049 57.127C135.671 56.9967 135.329 56.8047 135.023 56.5508C134.724 56.2969 134.483 55.9844 134.301 55.6133C134.118 55.2357 134.027 54.7995 134.027 54.3047C134.027 53.7643 134.118 53.2988 134.301 52.9082C134.483 52.5111 134.721 52.1823 135.014 51.9219C135.307 51.6549 135.642 51.4499 136.02 51.3066C136.397 51.1634 136.781 51.069 137.172 51.0234L140.111 50.6621C140.391 50.6296 140.609 50.5221 140.766 50.3398C140.928 50.151 141.01 49.8516 141.01 49.4414C141.01 48.8099 140.801 48.3574 140.385 48.084C139.975 47.804 139.382 47.6641 138.607 47.6641C137.813 47.6641 137.221 47.8333 136.83 48.1719C136.439 48.5039 136.218 49.0052 136.166 49.6758H134.486ZM140.971 51.6777C140.827 51.7819 140.648 51.8698 140.434 51.9414C140.225 52.0065 139.994 52.0618 139.74 52.1074C139.486 52.153 139.216 52.1953 138.93 52.2344C138.643 52.2669 138.357 52.3027 138.07 52.3418C137.745 52.3874 137.445 52.4525 137.172 52.5371C136.898 52.6217 136.661 52.7324 136.459 52.8691C136.257 53.0059 136.101 53.1719 135.99 53.3672C135.88 53.556 135.824 53.7806 135.824 54.041C135.824 54.3405 135.87 54.6042 135.961 54.832C136.059 55.0599 136.189 55.252 136.352 55.4082C136.521 55.5645 136.723 55.6816 136.957 55.7598C137.191 55.8379 137.449 55.877 137.729 55.877C137.904 55.877 138.106 55.8574 138.334 55.8184C138.562 55.7728 138.796 55.7077 139.037 55.623C139.278 55.5384 139.512 55.431 139.74 55.3008C139.975 55.1641 140.183 55.0013 140.365 54.8125C140.548 54.6237 140.694 54.4089 140.805 54.168C140.915 53.9271 140.971 53.6569 140.971 53.3574V51.6777ZM153.861 53.3184C153.835 53.5723 153.783 53.849 153.705 54.1484C153.633 54.4479 153.526 54.7474 153.383 55.0469C153.24 55.3398 153.054 55.623 152.826 55.8965C152.605 56.1699 152.331 56.4141 152.006 56.6289C151.687 56.8372 151.309 57.0033 150.873 57.127C150.437 57.2572 149.939 57.3223 149.379 57.3223C149.073 57.3223 148.751 57.2832 148.412 57.2051C148.074 57.1335 147.742 57.0098 147.416 56.834C147.097 56.6582 146.791 56.4336 146.498 56.1602C146.212 55.8802 145.958 55.5352 145.736 55.125C145.521 54.7148 145.349 54.2396 145.219 53.6992C145.089 53.1523 145.023 52.5273 145.023 51.8242C145.023 50.9583 145.147 50.1803 145.395 49.4902C145.642 48.7936 145.971 48.2044 146.381 47.7227C146.798 47.2409 147.279 46.8698 147.826 46.6094C148.38 46.349 148.959 46.2188 149.564 46.2188C150.111 46.2188 150.593 46.2773 151.01 46.3945C151.433 46.5117 151.801 46.668 152.113 46.8633C152.426 47.0586 152.689 47.2865 152.904 47.5469C153.119 47.8008 153.292 48.071 153.422 48.3574C153.559 48.6374 153.66 48.9238 153.725 49.2168C153.796 49.5098 153.842 49.7897 153.861 50.0566H152.182C152.09 49.347 151.843 48.7904 151.439 48.3867C151.042 47.9831 150.482 47.7812 149.76 47.7812C149.265 47.7812 148.832 47.8822 148.461 48.084C148.096 48.2858 147.79 48.569 147.543 48.9336C147.302 49.2917 147.12 49.7279 146.996 50.2422C146.879 50.75 146.82 51.3099 146.82 51.9219C146.82 52.612 146.885 53.2077 147.016 53.709C147.146 54.2038 147.331 54.6139 147.572 54.9395C147.813 55.2585 148.106 55.4961 148.451 55.6523C148.803 55.8021 149.2 55.877 149.643 55.877C149.955 55.877 150.251 55.8216 150.531 55.7109C150.811 55.5938 151.062 55.4277 151.283 55.2129C151.505 54.9915 151.693 54.7214 151.85 54.4023C152.006 54.0833 152.117 53.722 152.182 53.3184H153.861ZM163.861 53.3184C163.835 53.5723 163.783 53.849 163.705 54.1484C163.633 54.4479 163.526 54.7474 163.383 55.0469C163.24 55.3398 163.054 55.623 162.826 55.8965C162.605 56.1699 162.331 56.4141 162.006 56.6289C161.687 56.8372 161.309 57.0033 160.873 57.127C160.437 57.2572 159.939 57.3223 159.379 57.3223C159.073 57.3223 158.751 57.2832 158.412 57.2051C158.074 57.1335 157.742 57.0098 157.416 56.834C157.097 56.6582 156.791 56.4336 156.498 56.1602C156.212 55.8802 155.958 55.5352 155.736 55.125C155.521 54.7148 155.349 54.2396 155.219 53.6992C155.089 53.1523 155.023 52.5273 155.023 51.8242C155.023 50.9583 155.147 50.1803 155.395 49.4902C155.642 48.7936 155.971 48.2044 156.381 47.7227C156.798 47.2409 157.279 46.8698 157.826 46.6094C158.38 46.349 158.959 46.2188 159.564 46.2188C160.111 46.2188 160.593 46.2773 161.01 46.3945C161.433 46.5117 161.801 46.668 162.113 46.8633C162.426 47.0586 162.689 47.2865 162.904 47.5469C163.119 47.8008 163.292 48.071 163.422 48.3574C163.559 48.6374 163.66 48.9238 163.725 49.2168C163.796 49.5098 163.842 49.7897 163.861 50.0566H162.182C162.09 49.347 161.843 48.7904 161.439 48.3867C161.042 47.9831 160.482 47.7812 159.76 47.7812C159.265 47.7812 158.832 47.8822 158.461 48.084C158.096 48.2858 157.79 48.569 157.543 48.9336C157.302 49.2917 157.12 49.7279 156.996 50.2422C156.879 50.75 156.82 51.3099 156.82 51.9219C156.82 52.612 156.885 53.2077 157.016 53.709C157.146 54.2038 157.331 54.6139 157.572 54.9395C157.813 55.2585 158.106 55.4961 158.451 55.6523C158.803 55.8021 159.2 55.877 159.643 55.877C159.955 55.877 160.251 55.8216 160.531 55.7109C160.811 55.5938 161.062 55.4277 161.283 55.2129C161.505 54.9915 161.693 54.7214 161.85 54.4023C162.006 54.0833 162.117 53.722 162.182 53.3184H163.861ZM165.639 46.541H167.436V51.5996L172.719 46.541H175.072L170.16 51.1602L175.15 57H172.836L168.754 52.2539L167.436 53.3574V57H165.639V46.541ZM176.576 49.6758C176.596 49.0378 176.716 48.5007 176.938 48.0645C177.159 47.6217 177.458 47.2637 177.836 46.9902C178.214 46.7168 178.66 46.5215 179.174 46.4043C179.695 46.2806 180.261 46.2188 180.873 46.2188C181.381 46.2188 181.872 46.2708 182.348 46.375C182.829 46.4792 183.256 46.6484 183.627 46.8828C183.998 47.1107 184.294 47.4102 184.516 47.7812C184.743 48.1458 184.857 48.5918 184.857 49.1191V55.2031C184.857 55.3724 184.903 55.5189 184.994 55.6426C185.085 55.7598 185.232 55.8184 185.434 55.8184C185.525 55.8184 185.619 55.8118 185.717 55.7988C185.814 55.7793 185.915 55.7598 186.02 55.7402V56.9805C185.87 57.0195 185.72 57.0553 185.57 57.0879C185.427 57.1204 185.255 57.1367 185.053 57.1367C184.74 57.1367 184.47 57.1107 184.242 57.0586C184.021 57.0065 183.832 56.9219 183.676 56.8047C183.526 56.681 183.409 56.5247 183.324 56.3359C183.24 56.1406 183.184 55.903 183.158 55.623C182.937 55.8639 182.702 56.0885 182.455 56.2969C182.208 56.4987 181.931 56.6777 181.625 56.834C181.319 56.9837 180.977 57.1009 180.6 57.1855C180.222 57.2767 179.796 57.3223 179.32 57.3223C178.917 57.3223 178.523 57.2572 178.139 57.127C177.761 56.9967 177.419 56.8047 177.113 56.5508C176.814 56.2969 176.573 55.9844 176.391 55.6133C176.208 55.2357 176.117 54.7995 176.117 54.3047C176.117 53.7643 176.208 53.2988 176.391 52.9082C176.573 52.5111 176.811 52.1823 177.104 51.9219C177.396 51.6549 177.732 51.4499 178.109 51.3066C178.487 51.1634 178.871 51.069 179.262 51.0234L182.201 50.6621C182.481 50.6296 182.699 50.5221 182.855 50.3398C183.018 50.151 183.1 49.8516 183.1 49.4414C183.1 48.8099 182.891 48.3574 182.475 48.084C182.064 47.804 181.472 47.6641 180.697 47.6641C179.903 47.6641 179.311 47.8333 178.92 48.1719C178.529 48.5039 178.308 49.0052 178.256 49.6758H176.576ZM183.061 51.6777C182.917 51.7819 182.738 51.8698 182.523 51.9414C182.315 52.0065 182.084 52.0618 181.83 52.1074C181.576 52.153 181.306 52.1953 181.02 52.2344C180.733 52.2669 180.447 52.3027 180.16 52.3418C179.835 52.3874 179.535 52.4525 179.262 52.5371C178.988 52.6217 178.751 52.7324 178.549 52.8691C178.347 53.0059 178.191 53.1719 178.08 53.3672C177.969 53.556 177.914 53.7806 177.914 54.041C177.914 54.3405 177.96 54.6042 178.051 54.832C178.148 55.0599 178.279 55.252 178.441 55.4082C178.611 55.5645 178.812 55.6816 179.047 55.7598C179.281 55.8379 179.538 55.877 179.818 55.877C179.994 55.877 180.196 55.8574 180.424 55.8184C180.652 55.7728 180.886 55.7077 181.127 55.623C181.368 55.5384 181.602 55.431 181.83 55.3008C182.064 55.1641 182.273 55.0013 182.455 54.8125C182.637 54.6237 182.784 54.4089 182.895 54.168C183.005 53.9271 183.061 53.6569 183.061 53.3574V51.6777ZM195.131 50.8184H196.039L199.467 46.541H201.635L197.523 51.502L201.791 57H199.574L196.039 52.2441H195.131V57H193.334V52.2441H192.416L188.852 57H186.635L190.941 51.502L186.85 46.541H189.027L192.416 50.8184H193.334V46.541H195.131V50.8184ZM212.24 53.6602C212.169 54.1159 212.012 54.5618 211.771 54.998C211.531 55.4342 211.215 55.8249 210.824 56.1699C210.434 56.515 209.971 56.7917 209.438 57C208.91 57.2148 208.324 57.3223 207.68 57.3223C206.977 57.3223 206.326 57.2083 205.727 56.9805C205.134 56.7461 204.62 56.3978 204.184 55.9355C203.754 55.4668 203.415 54.8809 203.168 54.1777C202.921 53.4746 202.797 52.6478 202.797 51.6973C202.797 51.0592 202.865 50.4831 203.002 49.9688C203.145 49.4479 203.334 48.9857 203.568 48.582C203.809 48.1719 204.086 47.8203 204.398 47.5273C204.711 47.2279 205.04 46.9837 205.385 46.7949C205.736 46.5996 206.094 46.4564 206.459 46.3652C206.824 46.2676 207.175 46.2188 207.514 46.2188C208.23 46.2188 208.884 46.3262 209.477 46.541C210.069 46.7559 210.577 47.0846 211 47.5273C211.43 47.9635 211.762 48.5137 211.996 49.1777C212.237 49.8353 212.357 50.61 212.357 51.502V52.4004H204.711C204.717 52.9082 204.789 53.3704 204.926 53.7871C205.062 54.1973 205.258 54.5488 205.512 54.8418C205.766 55.1348 206.072 55.3626 206.43 55.5254C206.794 55.6816 207.204 55.7598 207.66 55.7598C208.122 55.7598 208.513 55.6947 208.832 55.5645C209.151 55.4342 209.418 55.2682 209.633 55.0664C209.848 54.8646 210.02 54.64 210.15 54.3926C210.287 54.1452 210.401 53.901 210.492 53.6602H212.24ZM210.551 50.9648C210.538 50.457 210.46 50.0046 210.316 49.6074C210.18 49.2103 209.984 48.8783 209.73 48.6113C209.483 48.3379 209.184 48.1328 208.832 47.9961C208.48 47.8529 208.09 47.7812 207.66 47.7812C207.25 47.7812 206.872 47.8626 206.527 48.0254C206.182 48.1816 205.88 48.403 205.619 48.6895C205.359 48.9694 205.15 49.3047 204.994 49.6953C204.838 50.0794 204.743 50.5026 204.711 50.9648H210.551ZM217.25 48.1035H213.646V46.541H222.65V48.1035H219.047V57H217.25V48.1035ZM224.809 59.041C225.258 58.9629 225.574 58.6471 225.756 58.0938C225.854 57.8008 225.902 57.5176 225.902 57.2441C225.902 57.1986 225.899 57.1562 225.893 57.1172C225.893 57.0846 225.886 57.0456 225.873 57H224.809V54.8711H226.898V56.8438C226.898 57.6185 226.742 58.2988 226.43 58.8848C226.117 59.4707 225.577 59.832 224.809 59.9688V59.041ZM241.898 52.7812C241.508 52.8854 241.078 52.9733 240.609 53.0449C240.147 53.1165 239.714 53.1523 239.311 53.1523C237.911 53.1523 236.872 52.8854 236.195 52.3516C235.518 51.8112 235.18 50.9616 235.18 49.8027V46.541H236.977V49.4414C236.977 49.832 237.022 50.1706 237.113 50.457C237.211 50.7435 237.367 50.9811 237.582 51.1699C237.797 51.3522 238.08 51.4889 238.432 51.5801C238.783 51.6712 239.216 51.7168 239.73 51.7168C239.867 51.7168 240.03 51.7038 240.219 51.6777C240.414 51.6517 240.613 51.6191 240.814 51.5801C241.016 51.541 241.212 51.4987 241.4 51.4531C241.596 51.401 241.762 51.349 241.898 51.2969V46.541H243.705V57H241.898V52.7812ZM249.145 48.1035H245.541V46.541H254.545V48.1035H250.941V57H249.145V48.1035ZM263.666 51.7559C263.666 51.1764 263.601 50.6458 263.471 50.1641C263.34 49.6758 263.145 49.2559 262.885 48.9043C262.624 48.5527 262.302 48.2793 261.918 48.084C261.54 47.8822 261.101 47.7812 260.6 47.7812C260.098 47.7812 259.659 47.8822 259.281 48.084C258.904 48.2793 258.585 48.5527 258.324 48.9043C258.064 49.2559 257.868 49.6758 257.738 50.1641C257.608 50.6458 257.543 51.1764 257.543 51.7559C257.543 52.3418 257.608 52.8822 257.738 53.377C257.868 53.8652 258.064 54.2852 258.324 54.6367C258.585 54.9883 258.904 55.265 259.281 55.4668C259.659 55.6621 260.098 55.7598 260.6 55.7598C261.101 55.7598 261.54 55.6621 261.918 55.4668C262.302 55.265 262.624 54.9883 262.885 54.6367C263.145 54.2852 263.34 53.8652 263.471 53.377C263.601 52.8822 263.666 52.3418 263.666 51.7559ZM265.463 51.7559C265.463 52.6152 265.352 53.39 265.131 54.0801C264.91 54.7637 264.59 55.3464 264.174 55.8281C263.757 56.3099 263.246 56.681 262.641 56.9414C262.042 57.1953 261.361 57.3223 260.6 57.3223C259.838 57.3223 259.158 57.1953 258.559 56.9414C257.96 56.681 257.452 56.3099 257.035 55.8281C256.618 55.3464 256.299 54.7637 256.078 54.0801C255.857 53.39 255.746 52.6152 255.746 51.7559C255.746 50.9095 255.857 50.1445 256.078 49.4609C256.299 48.7773 256.618 48.1947 257.035 47.7129C257.452 47.2311 257.96 46.8633 258.559 46.6094C259.158 46.349 259.838 46.2188 260.6 46.2188C261.361 46.2188 262.042 46.349 262.641 46.6094C263.246 46.8633 263.757 47.2311 264.174 47.7129C264.59 48.1947 264.91 48.7773 265.131 49.4609C265.352 50.1445 265.463 50.9095 265.463 51.7559ZM281.781 57H273.695V59.5586H272.016V55.4375H273.393C273.679 54.7344 273.907 54.0182 274.076 53.2891C274.245 52.5534 274.376 51.8145 274.467 51.0723C274.558 50.3236 274.617 49.5716 274.643 48.8164C274.669 48.0612 274.682 47.3027 274.682 46.541H281.986V55.4375H283.461V59.5586H281.781V57ZM280.189 55.4375V48.1035H276.4C276.355 48.696 276.306 49.3047 276.254 49.9297C276.208 50.5547 276.143 51.1829 276.059 51.8145C275.98 52.4395 275.873 53.0579 275.736 53.6699C275.606 54.2819 275.434 54.8711 275.219 55.4375H280.189ZM285.17 49.6758C285.189 49.0378 285.31 48.5007 285.531 48.0645C285.753 47.6217 286.052 47.2637 286.43 46.9902C286.807 46.7168 287.253 46.5215 287.768 46.4043C288.288 46.2806 288.855 46.2188 289.467 46.2188C289.975 46.2188 290.466 46.2708 290.941 46.375C291.423 46.4792 291.85 46.6484 292.221 46.8828C292.592 47.1107 292.888 47.4102 293.109 47.7812C293.337 48.1458 293.451 48.5918 293.451 49.1191V55.2031C293.451 55.3724 293.497 55.5189 293.588 55.6426C293.679 55.7598 293.826 55.8184 294.027 55.8184C294.118 55.8184 294.213 55.8118 294.311 55.7988C294.408 55.7793 294.509 55.7598 294.613 55.7402V56.9805C294.464 57.0195 294.314 57.0553 294.164 57.0879C294.021 57.1204 293.848 57.1367 293.646 57.1367C293.334 57.1367 293.064 57.1107 292.836 57.0586C292.615 57.0065 292.426 56.9219 292.27 56.8047C292.12 56.681 292.003 56.5247 291.918 56.3359C291.833 56.1406 291.778 55.903 291.752 55.623C291.531 55.8639 291.296 56.0885 291.049 56.2969C290.801 56.4987 290.525 56.6777 290.219 56.834C289.913 56.9837 289.571 57.1009 289.193 57.1855C288.816 57.2767 288.389 57.3223 287.914 57.3223C287.51 57.3223 287.117 57.2572 286.732 57.127C286.355 56.9967 286.013 56.8047 285.707 56.5508C285.408 56.2969 285.167 55.9844 284.984 55.6133C284.802 55.2357 284.711 54.7995 284.711 54.3047C284.711 53.7643 284.802 53.2988 284.984 52.9082C285.167 52.5111 285.404 52.1823 285.697 51.9219C285.99 51.6549 286.326 51.4499 286.703 51.3066C287.081 51.1634 287.465 51.069 287.855 51.0234L290.795 50.6621C291.075 50.6296 291.293 50.5221 291.449 50.3398C291.612 50.151 291.693 49.8516 291.693 49.4414C291.693 48.8099 291.485 48.3574 291.068 48.084C290.658 47.804 290.066 47.6641 289.291 47.6641C288.497 47.6641 287.904 47.8333 287.514 48.1719C287.123 48.5039 286.902 49.0052 286.85 49.6758H285.17ZM291.654 51.6777C291.511 51.7819 291.332 51.8698 291.117 51.9414C290.909 52.0065 290.678 52.0618 290.424 52.1074C290.17 52.153 289.9 52.1953 289.613 52.2344C289.327 52.2669 289.04 52.3027 288.754 52.3418C288.428 52.3874 288.129 52.4525 287.855 52.5371C287.582 52.6217 287.344 52.7324 287.143 52.8691C286.941 53.0059 286.785 53.1719 286.674 53.3672C286.563 53.556 286.508 53.7806 286.508 54.041C286.508 54.3405 286.553 54.6042 286.645 54.832C286.742 55.0599 286.872 55.252 287.035 55.4082C287.204 55.5645 287.406 55.6816 287.641 55.7598C287.875 55.8379 288.132 55.877 288.412 55.877C288.588 55.877 288.79 55.8574 289.018 55.8184C289.245 55.7728 289.48 55.7077 289.721 55.623C289.962 55.5384 290.196 55.431 290.424 55.3008C290.658 55.1641 290.867 55.0013 291.049 54.8125C291.231 54.6237 291.378 54.4089 291.488 54.168C291.599 53.9271 291.654 53.6569 291.654 53.3574V51.6777ZM301.889 46.541H303.686V51.5996L308.969 46.541H311.322L306.41 51.1602L311.4 57H309.086L305.004 52.2539L303.686 53.3574V57H301.889V46.541ZM312.826 49.6758C312.846 49.0378 312.966 48.5007 313.188 48.0645C313.409 47.6217 313.708 47.2637 314.086 46.9902C314.464 46.7168 314.91 46.5215 315.424 46.4043C315.945 46.2806 316.511 46.2188 317.123 46.2188C317.631 46.2188 318.122 46.2708 318.598 46.375C319.079 46.4792 319.506 46.6484 319.877 46.8828C320.248 47.1107 320.544 47.4102 320.766 47.7812C320.993 48.1458 321.107 48.5918 321.107 49.1191V55.2031C321.107 55.3724 321.153 55.5189 321.244 55.6426C321.335 55.7598 321.482 55.8184 321.684 55.8184C321.775 55.8184 321.869 55.8118 321.967 55.7988C322.064 55.7793 322.165 55.7598 322.27 55.7402V56.9805C322.12 57.0195 321.97 57.0553 321.82 57.0879C321.677 57.1204 321.505 57.1367 321.303 57.1367C320.99 57.1367 320.72 57.1107 320.492 57.0586C320.271 57.0065 320.082 56.9219 319.926 56.8047C319.776 56.681 319.659 56.5247 319.574 56.3359C319.49 56.1406 319.434 55.903 319.408 55.623C319.187 55.8639 318.952 56.0885 318.705 56.2969C318.458 56.4987 318.181 56.6777 317.875 56.834C317.569 56.9837 317.227 57.1009 316.85 57.1855C316.472 57.2767 316.046 57.3223 315.57 57.3223C315.167 57.3223 314.773 57.2572 314.389 57.127C314.011 56.9967 313.669 56.8047 313.363 56.5508C313.064 56.2969 312.823 55.9844 312.641 55.6133C312.458 55.2357 312.367 54.7995 312.367 54.3047C312.367 53.7643 312.458 53.2988 312.641 52.9082C312.823 52.5111 313.061 52.1823 313.354 51.9219C313.646 51.6549 313.982 51.4499 314.359 51.3066C314.737 51.1634 315.121 51.069 315.512 51.0234L318.451 50.6621C318.731 50.6296 318.949 50.5221 319.105 50.3398C319.268 50.151 319.35 49.8516 319.35 49.4414C319.35 48.8099 319.141 48.3574 318.725 48.084C318.314 47.804 317.722 47.6641 316.947 47.6641C316.153 47.6641 315.561 47.8333 315.17 48.1719C314.779 48.5039 314.558 49.0052 314.506 49.6758H312.826ZM319.311 51.6777C319.167 51.7819 318.988 51.8698 318.773 51.9414C318.565 52.0065 318.334 52.0618 318.08 52.1074C317.826 52.153 317.556 52.1953 317.27 52.2344C316.983 52.2669 316.697 52.3027 316.41 52.3418C316.085 52.3874 315.785 52.4525 315.512 52.5371C315.238 52.6217 315.001 52.7324 314.799 52.8691C314.597 53.0059 314.441 53.1719 314.33 53.3672C314.219 53.556 314.164 53.7806 314.164 54.041C314.164 54.3405 314.21 54.6042 314.301 54.832C314.398 55.0599 314.529 55.252 314.691 55.4082C314.861 55.5645 315.062 55.6816 315.297 55.7598C315.531 55.8379 315.788 55.877 316.068 55.877C316.244 55.877 316.446 55.8574 316.674 55.8184C316.902 55.7728 317.136 55.7077 317.377 55.623C317.618 55.5384 317.852 55.431 318.08 55.3008C318.314 55.1641 318.523 55.0013 318.705 54.8125C318.887 54.6237 319.034 54.4089 319.145 54.168C319.255 53.9271 319.311 53.6569 319.311 53.3574V51.6777ZM323.979 46.541H325.775V51.5996L331.059 46.541H333.412L328.5 51.1602L333.49 57H331.176L327.094 52.2539L325.775 53.3574V57H323.979V46.541Z" fill="white"/>
</svg>
