<svg width="22" height="22" viewBox="0 0 22 22" fill="none" xmlns="http://www.w3.org/2000/svg">
<path d="M1.03497 20.9996L1.03476 20.9997C1.02637 21.0006 1.02307 20.9994 1.02148 20.9988C1.01858 20.9978 1.01404 20.9953 1.00938 20.9907C1.00472 20.986 1.00225 20.9814 1.00118 20.9785C1.00059 20.9769 0.99941 20.9735 1.00035 20.965L1.00036 20.965L1.50729 16.4056L12.4928 5.42037L16.5794 9.5071L5.59022 20.4968L1.03497 20.9996ZM18.1059 1.31135L20.6886 3.89424C21.1036 4.30923 21.104 4.98237 20.6886 5.39812C20.6886 5.39818 20.6885 5.39824 20.6885 5.3983L18.9659 7.12089L14.8794 3.03418L16.6022 1.31135C17.0173 0.896217 17.6907 0.896217 18.1059 1.31135Z" stroke="black" stroke-width="2"/>
</svg>
