<svg width="17" height="22" viewBox="0 0 17 22" fill="none" xmlns="http://www.w3.org/2000/svg">
<path d="M1 17.6556V2.6C1 2.03995 1 1.75992 1.10899 1.54601C1.20487 1.35785 1.35785 1.20487 1.54601 1.10899C1.75992 1 2.03995 1 2.6 1H14.4C14.9601 1 15.2401 1 15.454 1.10899C15.6422 1.20487 15.7951 1.35785 15.891 1.54601C16 1.75992 16 2.03995 16 2.6V17.8989C16 18.9013 16 19.4025 15.792 19.6723C15.6109 19.9072 15.3349 20.0497 15.0385 20.0611C14.6981 20.0742 14.2897 19.7838 13.4728 19.2029L9.01889 16.0357C8.66497 15.784 8.48801 15.6581 8.2962 15.6134C8.12691 15.5739 7.95024 15.5792 7.78363 15.6288C7.59486 15.685 7.42579 15.8213 7.08766 16.0938L7.08765 16.0938L3.60401 18.9014C2.77092 19.5728 2.35438 19.9085 2.0036 19.9097C1.69856 19.9108 1.40969 19.7726 1.21913 19.5344C1 19.2605 1 18.7255 1 17.6556Z" stroke="#898989" stroke-opacity="0.9" stroke-width="2" stroke-linecap="square"/>
</svg>
