<svg width="215" height="288" viewBox="0 0 215 288" fill="none" xmlns="http://www.w3.org/2000/svg">
<rect x="0.5" y="0.5" width="212" height="287" rx="26.5" fill="white" stroke="#8FDC2E"/>
<path d="M37.377 245.645H40.3848V257.52H46.0195V245.645H49.0176V257.52H50.5117V263.076H47.9141V260H37.377V245.645ZM52.3672 245.645H59.4082C59.9941 245.645 60.5085 245.7 60.9512 245.811C61.4004 245.921 61.7878 246.071 62.1133 246.26C62.4388 246.449 62.7122 246.667 62.9336 246.914C63.1549 247.161 63.3307 247.422 63.4609 247.695C63.5911 247.962 63.6823 248.236 63.7344 248.516C63.793 248.796 63.8223 249.062 63.8223 249.316C63.8223 249.681 63.7897 250.01 63.7246 250.303C63.6595 250.589 63.5553 250.853 63.4121 251.094C63.2754 251.328 63.0931 251.543 62.8652 251.738C62.6439 251.927 62.377 252.1 62.0645 252.256C62.5462 252.438 62.9336 252.663 63.2266 252.93C63.5195 253.197 63.7441 253.486 63.9004 253.799C64.0566 254.105 64.1608 254.424 64.2129 254.756C64.265 255.081 64.291 255.397 64.291 255.703C64.291 256.4 64.1641 257.015 63.9102 257.549C63.6562 258.083 63.2982 258.532 62.8359 258.896C62.3737 259.255 61.8105 259.528 61.1465 259.717C60.4889 259.906 59.7565 260 58.9492 260H52.3672V245.645ZM55.248 257.52H58.9883C59.3203 257.52 59.6263 257.48 59.9062 257.402C60.1862 257.324 60.4271 257.207 60.6289 257.051C60.8372 256.888 60.9967 256.686 61.1074 256.445C61.2246 256.198 61.2832 255.908 61.2832 255.576C61.2832 255.16 61.2148 254.827 61.0781 254.58C60.9414 254.326 60.7591 254.131 60.5312 253.994C60.3099 253.857 60.056 253.77 59.7695 253.73C59.4896 253.685 59.2031 253.662 58.9102 253.662H55.248V257.52ZM55.248 251.299H58.9492C59.2096 251.299 59.4603 251.27 59.7012 251.211C59.9421 251.152 60.1536 251.058 60.3359 250.928C60.5247 250.791 60.6745 250.618 60.7852 250.41C60.8958 250.202 60.9512 249.951 60.9512 249.658C60.9512 249.352 60.8991 249.102 60.7949 248.906C60.6973 248.704 60.5605 248.545 60.3848 248.428C60.209 248.311 60.0039 248.229 59.7695 248.184C59.5352 248.138 59.2878 248.115 59.0273 248.115H55.248V251.299ZM66.8203 245.645H77.3574V248.115H69.7012V251.299H76.7422V253.779H69.7012V257.402H77.6992V260H66.8203V245.645ZM78.7637 245.645H90.5215V248.115H86.1367V260H83.1387V248.115H78.7637V245.645ZM92.5039 245.645H95.502V251.484L100.99 245.645H104.867L99.0078 251.523L105.209 260H101.41L96.9668 253.643L95.502 255.137V260H92.5039V245.645ZM106.098 252.822C106.098 251.748 106.241 250.752 106.527 249.834C106.814 248.916 107.243 248.122 107.816 247.451C108.389 246.774 109.109 246.243 109.975 245.859C110.84 245.475 111.85 245.283 113.002 245.283C114.063 245.283 115.02 245.475 115.873 245.859C116.726 246.243 117.449 246.774 118.041 247.451C118.64 248.122 119.099 248.916 119.418 249.834C119.737 250.752 119.896 251.748 119.896 252.822C119.896 253.89 119.737 254.886 119.418 255.811C119.099 256.729 118.64 257.526 118.041 258.203C117.449 258.874 116.726 259.401 115.873 259.785C115.02 260.169 114.063 260.361 113.002 260.361C111.85 260.361 110.84 260.169 109.975 259.785C109.109 259.401 108.389 258.874 107.816 258.203C107.243 257.526 106.814 256.729 106.527 255.811C106.241 254.886 106.098 253.89 106.098 252.822ZM113.002 257.764C113.614 257.764 114.161 257.64 114.643 257.393C115.124 257.145 115.531 256.803 115.863 256.367C116.202 255.924 116.459 255.404 116.635 254.805C116.811 254.199 116.898 253.538 116.898 252.822C116.898 252.106 116.811 251.449 116.635 250.85C116.459 250.244 116.202 249.723 115.863 249.287C115.531 248.844 115.124 248.499 114.643 248.252C114.161 248.005 113.614 247.881 113.002 247.881C112.39 247.881 111.843 248.005 111.361 248.252C110.88 248.499 110.469 248.844 110.131 249.287C109.799 249.723 109.542 250.244 109.359 250.85C109.184 251.449 109.096 252.106 109.096 252.822C109.096 253.538 109.184 254.199 109.359 254.805C109.542 255.404 109.799 255.924 110.131 256.367C110.469 256.803 110.88 257.145 111.361 257.393C111.843 257.64 112.39 257.764 113.002 257.764ZM122.426 245.645H129.467C130.053 245.645 130.567 245.7 131.01 245.811C131.459 245.921 131.846 246.071 132.172 246.26C132.497 246.449 132.771 246.667 132.992 246.914C133.214 247.161 133.389 247.422 133.52 247.695C133.65 247.962 133.741 248.236 133.793 248.516C133.852 248.796 133.881 249.062 133.881 249.316C133.881 249.681 133.848 250.01 133.783 250.303C133.718 250.589 133.614 250.853 133.471 251.094C133.334 251.328 133.152 251.543 132.924 251.738C132.702 251.927 132.436 252.1 132.123 252.256C132.605 252.438 132.992 252.663 133.285 252.93C133.578 253.197 133.803 253.486 133.959 253.799C134.115 254.105 134.219 254.424 134.271 254.756C134.324 255.081 134.35 255.397 134.35 255.703C134.35 256.4 134.223 257.015 133.969 257.549C133.715 258.083 133.357 258.532 132.895 258.896C132.432 259.255 131.869 259.528 131.205 259.717C130.548 259.906 129.815 260 129.008 260H122.426V245.645ZM125.307 257.52H129.047C129.379 257.52 129.685 257.48 129.965 257.402C130.245 257.324 130.486 257.207 130.688 257.051C130.896 256.888 131.055 256.686 131.166 256.445C131.283 256.198 131.342 255.908 131.342 255.576C131.342 255.16 131.273 254.827 131.137 254.58C131 254.326 130.818 254.131 130.59 253.994C130.368 253.857 130.115 253.77 129.828 253.73C129.548 253.685 129.262 253.662 128.969 253.662H125.307V257.52ZM125.307 251.299H129.008C129.268 251.299 129.519 251.27 129.76 251.211C130.001 251.152 130.212 251.058 130.395 250.928C130.583 250.791 130.733 250.618 130.844 250.41C130.954 250.202 131.01 249.951 131.01 249.658C131.01 249.352 130.958 249.102 130.854 248.906C130.756 248.704 130.619 248.545 130.443 248.428C130.268 248.311 130.062 248.229 129.828 248.184C129.594 248.138 129.346 248.115 129.086 248.115H125.307V251.299ZM149.838 245.645H152.836V260H149.838V245.645ZM139.877 257.52H142.416C142.689 257.52 142.969 257.5 143.256 257.461C143.549 257.422 143.816 257.337 144.057 257.207C144.304 257.077 144.506 256.885 144.662 256.631C144.818 256.37 144.896 256.025 144.896 255.596C144.896 255.146 144.818 254.795 144.662 254.541C144.512 254.281 144.314 254.085 144.066 253.955C143.819 253.825 143.539 253.743 143.227 253.711C142.921 253.678 142.611 253.662 142.299 253.662H139.877V257.52ZM136.879 245.645H139.877V251.299H142.738C142.953 251.299 143.227 251.305 143.559 251.318C143.897 251.331 144.258 251.38 144.643 251.465C145.027 251.543 145.411 251.67 145.795 251.846C146.179 252.021 146.527 252.272 146.84 252.598C147.152 252.917 147.406 253.327 147.602 253.828C147.797 254.323 147.895 254.935 147.895 255.664C147.895 256.387 147.797 256.995 147.602 257.49C147.406 257.985 147.156 258.395 146.85 258.721C146.55 259.04 146.215 259.287 145.844 259.463C145.479 259.632 145.121 259.759 144.77 259.844C144.424 259.922 144.105 259.967 143.812 259.98C143.526 259.993 143.314 260 143.178 260H136.879V245.645ZM155.766 245.645H166.303V248.115H158.646V251.299H165.688V253.779H158.646V257.402H166.645V260H155.766V245.645Z" fill="#425807"/>
<path d="M99.5495 159.602C100.315 159.602 101.08 159.602 101.934 159.602C101.934 143.323 101.934 127.073 101.934 110.964C97.9117 112.013 93.8708 113.074 89.8299 114.119C88.0775 114.574 87.6154 114.304 87.168 112.549C86.3473 109.338 85.5524 106.12 84.7464 102.906C84.7131 102.773 84.6688 102.64 84.6429 102.503C84.0107 99.2148 83.9552 99.2776 81.3969 96.9905C78.7498 94.6296 76.232 92.1209 73.6478 89.686C72.7457 88.8362 72.8233 88.0419 73.6478 87.1884C76.0472 84.6981 78.3542 82.1118 80.8534 79.725C82.0919 78.5427 83.6706 77.7151 85.2492 76.6177C84.7797 74.3196 85.4341 71.9328 86.2068 69.5497C87.0349 67.0114 87.8224 64.462 88.5877 61.9016C88.9056 60.8375 89.5268 60.2833 90.6248 60.6232C94.2738 61.7538 97.9154 62.9139 101.542 64.1147C102.319 64.3733 103.017 64.8537 103.635 64.8684C108.094 63.4497 112.548 62.0087 117.018 60.6232C117.928 60.3424 118.545 60.8596 118.808 61.7168C119.913 65.3266 121.092 68.9142 122.039 72.5646C122.409 73.9981 122.235 75.5758 122.316 77.2458C125.096 78.1141 126.982 80.3605 128.978 82.4665C130.535 84.1033 132.08 85.7548 133.648 87.3805C134.398 88.1601 134.657 88.9766 133.77 89.7747C130.49 92.7305 127.174 95.6494 123.895 98.6125C123.61 98.8712 123.422 99.3182 123.348 99.7099C122.52 103.996 121.769 108.296 120.86 112.568C120.76 113.033 119.732 113.709 119.27 113.617C115.343 112.841 111.439 111.939 107.546 110.994C106.674 110.783 105.879 110.251 104.925 109.811C104.925 126.415 104.925 142.961 104.925 159.58C105.239 159.609 105.55 159.657 105.86 159.668C106.36 159.683 106.859 159.672 107.428 159.672C105.779 151.957 109.225 145.902 113.739 140.485C118.305 135.009 123.418 129.988 128.35 124.823C128.716 124.439 129.655 124.258 130.139 124.45C130.513 124.598 130.882 125.569 130.753 126.035C128.398 134.596 126.324 143.26 122.05 151.156C120.323 154.344 118.183 157.2 115.27 159.672C116.985 159.672 118.697 159.672 120.412 159.672C123.248 159.672 123.47 159.89 123.059 162.668C121.322 174.377 119.554 186.082 117.835 197.794C117.65 199.05 117.085 199.527 115.839 199.523C107.535 199.498 99.2316 199.498 90.9279 199.523C89.6931 199.527 89.0979 199.091 88.913 197.82C87.3972 187.475 85.8334 177.137 84.2843 166.795C84.0514 165.247 83.8295 163.695 83.5818 162.151C83.2676 160.222 83.6965 159.683 85.6152 159.672C87.5895 159.661 89.5674 159.668 91.5454 159.668C91.5454 159.495 91.5786 159.373 91.5417 159.339C85.7631 154.78 83.0236 148.329 80.7536 141.667C79.0344 136.62 77.648 131.455 76.2062 126.316C76.0509 125.758 76.3208 124.812 76.7385 124.457C77.0417 124.202 78.1286 124.413 78.5131 124.782C84.288 130.354 90.0998 135.904 94.7322 142.513C97.457 146.4 99.7196 150.509 99.8416 155.423C99.8564 156.797 99.6494 158.164 99.5495 159.602ZM80.1657 130.217C80.273 130.735 80.2914 130.897 80.3395 131.049C81.822 135.59 83.1863 140.175 84.8315 144.66C86.3288 148.739 88.377 152.556 91.5269 155.659C92.9761 157.086 94.6213 158.209 96.7139 158.829C96.8322 158.139 96.9653 157.559 97.0207 156.971C97.3128 153.93 96.4588 151.13 95.0798 148.481C91.4344 141.464 85.8629 136.026 80.1657 130.217ZM126.512 130.653C122.349 134.577 118.249 138.568 115.04 143.304C113.251 145.942 111.779 148.839 110.489 151.761C109.528 153.945 109.395 156.365 110.23 158.826C113.325 157.788 115.565 155.8 117.373 153.306C122.29 146.537 124.283 138.568 126.512 130.653ZM86.1254 79.4959C81.8405 81.5761 79.5742 85.4592 76.2357 88.4187C79.393 91.0161 81.7481 94.1456 85.1827 96.2664C87.1495 91.5593 90.7764 89.3609 95.4051 88.4963C96.3183 88.3264 97.2019 88.0049 98.1003 87.7574C93.2571 86.1908 88.4398 84.8718 86.1254 79.4959ZM101.039 92.6751C97.3165 96.8021 93.5529 100.604 87.2161 99.7136C87.375 103.826 88.9278 107.425 89.6931 111.389C93.9485 109.819 98.5144 109.915 102.256 107.055C98.7251 102.444 99.9821 97.6039 101.039 92.6751ZM119.432 76.5919C119.847 71.8848 117.491 67.9831 116.53 63.6122C112.837 64.7945 109.354 65.9104 105.657 67.0927C109.957 72.2986 108.67 77.5636 106.482 83.0946C108.622 81.299 110.367 79.6474 112.304 78.2656C114.353 76.8098 116.796 76.4736 119.432 76.5919ZM101.797 67.0668C98.0485 65.8623 94.577 64.7465 90.8947 63.5642C89.9926 67.8833 87.6523 71.7444 87.9629 76.4478C93.5677 75.8529 96.9986 79.3334 100.6 82.6919C98.677 77.3899 97.5864 72.2505 101.797 67.0668ZM116.016 191.048C107.472 191.048 99.1318 191.048 90.6876 191.048C90.9871 193.01 91.2681 194.846 91.5454 196.656C99.5089 196.656 107.313 196.656 115.188 196.656C115.469 194.772 115.735 192.969 116.016 191.048ZM130.879 88.7476C128.561 85.2634 123.407 80.5563 121.133 79.906C118.985 84.809 114.345 86.1539 109.65 87.5689C115.362 88.4077 120.405 90.074 122.76 96.3107C125.607 93.6616 128.25 91.1972 130.879 88.7476ZM118.56 110.606C119.285 107.066 120.009 103.519 120.775 99.7838C117.602 100.235 114.881 100.05 112.615 98.4574C110.423 96.9203 108.515 94.9806 106.419 93.1628C107.846 97.8034 109.014 102.462 105.964 106.878C107.99 108.611 111.987 109.778 118.56 110.606ZM87.0312 166.448C98.0263 166.448 108.833 166.448 119.702 166.448C119.902 165.07 120.083 163.821 120.268 162.539C108.914 162.539 97.7417 162.539 86.4434 162.539C86.6467 163.913 86.839 165.181 87.0312 166.448ZM119.244 169.404C108.626 169.404 98.1336 169.404 87.4786 169.404C87.7078 170.941 87.9111 172.326 88.1182 173.708C98.3739 173.708 108.46 173.708 118.619 173.708C118.83 172.245 119.033 170.845 119.244 169.404ZM89.1718 180.839C98.7029 180.839 108.108 180.839 117.58 180.839C117.769 179.369 117.943 178.031 118.12 176.675C108.175 176.675 98.4404 176.675 88.5692 176.675C88.7836 178.164 88.9796 179.516 89.1718 180.839ZM117.074 183.828C107.849 183.828 98.8064 183.828 89.6303 183.828C89.8521 185.317 90.0591 186.703 90.2662 188.114C99.0467 188.114 107.691 188.114 116.467 188.114C116.671 186.688 116.867 185.302 117.074 183.828ZM120.397 96.9795C119.27 95.5459 118.49 94.2934 117.458 93.3032C115.236 91.1639 112.208 91.0605 109.402 90.4508C109.21 90.4102 108.833 90.6134 108.763 90.7908C108.692 90.9681 108.84 91.3117 108.999 91.4817C110.101 92.6529 111.177 93.8611 112.364 94.94C114.497 96.8834 117.037 97.5374 120.397 96.9795ZM103.705 82.4998C106.47 76.8394 106.437 71.8995 103.679 69.291C100.503 73.0227 101.454 76.7803 103.705 82.4998ZM87.9703 96.9942C93.3274 97.5078 95.9634 93.8574 99.0504 90.4619C94.6287 91.5851 90.0591 91.9435 87.9703 96.9942ZM106.711 87.8793C106.681 86.3755 105.461 85.1895 103.956 85.2006C102.481 85.2117 101.228 86.4605 101.217 87.9273C101.206 89.4348 102.559 90.7464 104.071 90.6873C105.557 90.6356 106.74 89.3757 106.711 87.8793ZM104.03 104.653C106.016 101.073 104.822 97.7332 103.764 94.0828C102.925 97.7886 101.738 101.203 104.03 104.653ZM98.1114 84.5097C95.4421 81.7313 93.1203 79.1819 89.1016 79.1819C90.9982 82.7621 94.3699 83.5491 98.1114 84.5097ZM109.546 84.4321C112.829 83.5565 116.26 82.9357 118.224 79.3888C114.172 79.3334 111.901 81.9529 109.546 84.4321Z" fill="#8BC93E"/>
</svg>
