<svg width="1099" height="440" viewBox="0 0 1099 440" fill="none" xmlns="http://www.w3.org/2000/svg">
<g clip-path="url(#clip0_357:1670)">
<rect width="1099" height="440" fill="white"/>
<path fill-rule="evenodd" clip-rule="evenodd" d="M1099.76 0H0V352.874V354.276H0.0115036C0.771662 400.559 39.1087 437.84 86.3009 437.84L86.3008 437.838H170.484V438.449C209.474 438.449 242.332 411.991 252.398 375.892C263.207 410.638 295.852 435.882 334.453 435.882L334.453 366.294C341.262 406.552 376.574 437.222 419.121 437.222V371.486C428.368 408.503 462.052 435.957 502.231 436.062V436.449C544.248 436.449 579.145 405.722 586.069 365.315V437.34C632.272 437.34 670.172 402.752 673.975 358.702V434.84C719.205 434.84 756.185 399.234 758.902 354.276H759.329C760.214 400.138 797.683 437.111 844.014 437.715V438.109C888.28 438.109 924.644 404.006 928.721 360.409V437.723C973.695 437.723 1010.51 402.52 1013.6 357.923C1017.1 401.746 1054.07 436.219 1099.18 436.219V354.276H1099.76V0ZM149.711 354.276H86.3009L86.3009 437.69C86.367 397.724 113.238 364.121 149.711 354.276Z" fill="url(#paint0_linear_357:1670)"/>
</g>
<defs>
<linearGradient id="paint0_linear_357:1670" x1="550" y1="1.50439e-08" x2="549.882" y2="438.449" gradientUnits="userSpaceOnUse">
<stop offset="0.505208" stop-color="white" stop-opacity="0.16"/>
<stop offset="1" stop-color="#B6B6B6" stop-opacity="0.11"/>
</linearGradient>
<clipPath id="clip0_357:1670">
<rect width="1099" height="440" fill="white"/>
</clipPath>
</defs>
</svg>
