<svg width="1275" height="637" viewBox="0 0 1275 637" fill="none" xmlns="http://www.w3.org/2000/svg">
<g clip-path="url(#clip0_400:2)">
<path d="M100 -1546C100 -1566.99 117.013 -1584 138 -1584H1162C1182.99 -1584 1200 -1566.99 1200 -1546V235H100V-1546Z" fill="url(#paint0_linear_400:2)"/>
<path d="M427.835 447.24L538.098 447.24C538.098 386.607 488.738 337.465 427.835 337.465L427.835 447.24Z" fill="white"/>
<path d="M428.331 445.752L428.331 556.516C488.69 556.516 537.609 506.931 537.609 445.752L428.331 445.752Z" fill="white"/>
<path d="M317.573 338.451L317.573 449.215C377.932 449.215 426.852 399.63 426.852 338.451L317.573 338.451Z" fill="white"/>
<path d="M318.558 447.236L318.558 558C378.917 558 427.836 508.416 427.836 447.236L318.558 447.236Z" fill="white"/>
<path d="M537.608 445.752L537.608 556.516C597.967 556.516 646.887 506.931 646.887 445.752L537.608 445.752Z" fill="white"/>
<path d="M755.177 445.627L644.914 445.627C644.914 506.261 694.274 555.402 755.177 555.402L755.177 445.627Z" fill="white"/>
<path d="M747.061 450.049L857.324 450.049C857.324 389.415 807.964 340.273 747.061 340.273L747.061 450.049Z" fill="white"/>
<path d="M646.388 449.217V338.453C586.029 338.453 537.109 388.038 537.109 449.217H646.388Z" fill="white"/>
<path d="M755.181 448.721L755.181 337.957C694.822 337.957 645.902 387.541 645.902 448.721H755.181Z" fill="white"/>
<path d="M537.114 227.69L426.852 227.69C426.852 288.323 476.212 337.465 537.114 337.465L537.114 227.69Z" fill="white"/>
<path d="M535.147 339.439L645.41 339.439C645.41 278.806 596.05 229.664 535.147 229.664L535.147 339.439Z" fill="white"/>
<path d="M646.716 232.397L646.716 121.633C586.357 121.633 537.437 171.217 537.437 232.397H646.716Z" fill="white"/>
<path d="M426.515 230.273L538.008 230.273C538.008 167.859 488.097 117.273 426.515 117.273L426.515 230.273Z" fill="white"/>
<path d="M867.946 339.206L754.754 339.206C754.754 400.584 805.425 450.328 867.946 450.328L867.946 339.206Z" fill="white"/>
<path d="M862.799 339.206L862.799 450.328C923.898 450.328 973.418 400.584 973.418 339.206L862.799 339.206Z" fill="white"/>
<path d="M758.624 229.255L758.624 340.02C818.983 340.02 867.902 290.435 867.902 229.255L758.624 229.255Z" fill="white"/>
<path d="M759.614 229.261V118.414C697.033 118.414 646.312 168.036 646.312 229.261H759.614Z" fill="white"/>
<path d="M646.308 229.258L646.308 340.105C708.889 340.105 759.609 290.484 759.609 229.258L646.308 229.258Z" fill="white"/>
<path d="M978.739 226.78L868.477 226.78C868.477 287.413 917.837 336.555 978.739 336.555L978.739 226.78Z" fill="white"/>
<path d="M1200 224L1083 224C1083 284.758 1135.38 334 1200 334L1200 224Z" fill="white"/>
<path d="M1082.53 226L1200 226C1200 165.242 1147.42 116 1082.53 116L1082.53 226Z" fill="white"/>
<path d="M962.08 229V118C901.598 118 852.578 167.69 852.578 229H962.08Z" fill="white"/>
<path d="M1083.53 227V116C1017 116 963.078 165.69 963.078 227H1083.53Z" fill="white"/>
<path d="M1083.18 336.561V225.797C1022.82 225.797 973.898 275.381 973.898 336.561H1083.18Z" fill="white"/>
<path d="M1082.53 445.273L1193.03 445.273C1193.03 384.516 1143.57 335.273 1082.53 335.273L1082.53 445.273Z" fill="white"/>
<path d="M1083.53 336.273L973.031 336.273C973.031 396.479 1022.5 445.273 1083.53 445.273L1083.53 336.273Z" fill="white"/>
<path d="M428.506 228.273V117.273C368.023 117.273 319.004 166.963 319.004 228.273H428.506Z" fill="white"/>
<path d="M319.544 228.678V117.914C259.185 117.914 210.266 167.498 210.266 228.678H319.544Z" fill="white"/>
<path d="M99.9996 229.273L212.488 229.273C212.488 169.068 162.132 120.273 99.9996 120.273L99.9996 229.273Z" fill="white"/>
<path d="M100.003 338.455L210.266 338.455C210.266 277.821 160.906 228.68 100.003 228.68L100.003 338.455Z" fill="white"/>
<path d="M210.757 228.185L210.757 338.949C271.116 338.949 320.035 289.365 320.035 228.185L210.757 228.185Z" fill="white"/>
<path d="M210.263 338.455L100 338.455C100 399.089 149.36 448.23 210.263 448.23L210.263 338.455Z" fill="white"/>
<path d="M319.54 448.225L209.277 448.225C209.277 508.858 258.637 558 319.54 558L319.54 448.225Z" fill="white"/>
<path d="M317.568 338.455L207.305 338.455C207.305 399.089 256.665 448.23 317.568 448.23L317.568 338.455Z" fill="white"/>
<path d="M429.806 225.713L319.543 225.713C319.543 286.347 368.903 335.488 429.806 335.488L429.806 225.713Z" fill="white"/>
<rect x="110.824" y="212.855" width="398.719" height="159.223" fill="white"/>
<rect x="544.664" y="228.945" width="431.329" height="111.122" fill="white"/>
<rect x="645.324" y="334.164" width="101.479" height="99.9605" fill="white"/>
<rect x="978.332" y="204.512" width="105.42" height="131.631" fill="white"/>
<rect x="210.266" y="321.641" width="422.346" height="127.577" fill="white"/>
<path d="M757 118L757 229C817.205 229 866 179.31 866 118L757 118Z" fill="white"/>
</g>
<defs>
<linearGradient id="paint0_linear_400:2" x1="650" y1="-1584" x2="650" y2="235" gradientUnits="userSpaceOnUse">
<stop stop-color="white"/>
<stop offset="1" stop-color="#F7F7F7"/>
</linearGradient>
<clipPath id="clip0_400:2">
<rect width="1275" height="637" fill="white" transform="translate(1275 637) rotate(-180)"/>
</clipPath>
</defs>
</svg>
