<svg width="23" height="24" viewBox="0 0 23 24" fill="none" xmlns="http://www.w3.org/2000/svg">
<path d="M21.9052 11.3302C21.9092 12.8609 21.551 14.3709 20.8599 15.7371C20.0405 17.3743 18.7807 18.7514 17.2218 19.7141C15.6628 20.6768 13.8663 21.1871 12.0333 21.1878C10.5004 21.1918 8.98824 20.8341 7.61997 20.144L1 22.3475L3.20666 15.7371C2.51555 14.3709 2.1574 12.8609 2.1614 11.3302C2.16211 9.49992 2.67312 7.70596 3.63721 6.14928C4.6013 4.5926 5.98037 3.33468 7.61997 2.51643C8.98824 1.82632 10.5004 1.4687 12.0333 1.47269H12.614C15.0347 1.60605 17.3212 2.62632 19.0355 4.33817C20.7499 6.05001 21.7716 8.33313 21.9052 10.7504V11.3302Z" stroke="black" stroke-width="2" stroke-linecap="round" stroke-linejoin="round"/>
</svg>
