<svg width="15" height="15" viewBox="0 0 15 15" fill="none" xmlns="http://www.w3.org/2000/svg">
<path d="M6.05624 0.995069C6.3804 -0.0637866 7.87937 -0.0637856 8.20352 0.99507L8.44127 1.77166C8.64785 2.44648 9.41842 2.76566 10.0417 2.43457L10.7589 2.05355C11.7368 1.53403 12.7968 2.59396 12.2773 3.5719L11.8962 4.28914C11.5652 4.91239 11.8843 5.68296 12.5592 5.88954L13.3357 6.12729C14.3946 6.45145 14.3946 7.95041 13.3357 8.27457L12.5592 8.51231C11.8843 8.7189 11.5652 9.48946 11.8962 10.1127L12.2773 10.83C12.7968 11.8079 11.7368 12.8678 10.7589 12.3483L10.0417 11.9673C9.41842 11.6362 8.64785 11.9554 8.44127 12.6302L8.20352 13.4068C7.87936 14.4656 6.3804 14.4656 6.05624 13.4068L5.8185 12.6302C5.61191 11.9554 4.84135 11.6362 4.2181 11.9673L3.50086 12.3483C2.52292 12.8678 1.46299 11.8079 1.9825 10.83L2.36352 10.1127C2.69461 9.48946 2.37543 8.7189 1.70061 8.51231L0.924024 8.27457C-0.134832 7.95041 -0.134831 6.45145 0.924025 6.12729L1.70061 5.88954C2.37543 5.68296 2.69461 4.91239 2.36352 4.28914L1.9825 3.5719C1.46299 2.59396 2.52292 1.53404 3.50086 2.05355L4.2181 2.43457C4.84135 2.76566 5.61191 2.44648 5.8185 1.77166L6.05624 0.995069Z" fill="url(#paint0_linear_1137_18044)"/>
<defs>
<linearGradient id="paint0_linear_1137_18044" x1="7.12988" y1="0.200928" x2="7.12988" y2="14.2009" gradientUnits="userSpaceOnUse">
<stop stop-color="#DA8BFF"/>
<stop offset="1" stop-color="#4D1CB4" stop-opacity="0.83"/>
</linearGradient>
</defs>
</svg>
