<svg width="233" height="288" viewBox="0 0 233 288" fill="none" xmlns="http://www.w3.org/2000/svg">
<rect x="0.5" y="0.5" width="212" height="287" rx="26.5" fill="white" stroke="#8FDC2E"/>
<path d="M55.7188 243.645H58.7168V249.484L64.2051 243.645H68.082L62.2227 249.523L68.4238 258H64.625L60.1816 251.643L58.7168 253.137V258H55.7188V243.645ZM73.9707 243.645H77.3984L82.4766 258H79.2148L78.2969 255.041H72.9941L71.998 258H68.834L73.9707 243.645ZM73.7949 252.561H77.457L75.6699 246.877H75.6309L73.7949 252.561ZM84.625 243.645H87.623V249.484L93.1113 243.645H96.9883L91.1289 249.523L97.3301 258H93.5312L89.0879 251.643L87.623 253.137V258H84.625V243.645ZM97.584 243.645H109.342V246.115H104.957V258H101.959V246.115H97.584V243.645ZM112.203 255.275C112.392 255.399 112.61 255.497 112.857 255.568C113.105 255.64 113.385 255.676 113.697 255.676C114.107 255.676 114.43 255.555 114.664 255.314C114.898 255.074 115.061 254.771 115.152 254.406L110.064 243.645H113.443L116.705 251.359L119.566 243.645H122.789L118.209 254.24C117.61 255.64 116.975 256.678 116.305 257.355C115.634 258.026 114.885 258.361 114.059 258.361C113.798 258.361 113.57 258.348 113.375 258.322C113.186 258.296 113.02 258.264 112.877 258.225C112.74 258.186 112.617 258.146 112.506 258.107C112.402 258.068 112.301 258.033 112.203 258V255.275ZM133.609 248.361C133.57 248.225 133.521 248.068 133.463 247.893C133.404 247.71 133.323 247.528 133.219 247.346C133.121 247.163 132.994 246.984 132.838 246.809C132.688 246.633 132.499 246.477 132.271 246.34C132.044 246.203 131.77 246.092 131.451 246.008C131.132 245.923 130.758 245.881 130.328 245.881C130.146 245.881 129.931 245.904 129.684 245.949C129.436 245.995 129.182 246.083 128.922 246.213C128.661 246.337 128.404 246.512 128.15 246.74C127.896 246.968 127.669 247.268 127.467 247.639C127.271 248.003 127.112 248.446 126.988 248.967C126.865 249.488 126.803 250.106 126.803 250.822C126.803 251.597 126.884 252.29 127.047 252.902C127.21 253.514 127.444 254.032 127.75 254.455C128.056 254.878 128.424 255.204 128.854 255.432C129.29 255.653 129.781 255.764 130.328 255.764C130.96 255.764 131.474 255.666 131.871 255.471C132.268 255.275 132.584 255.038 132.818 254.758C133.059 254.478 133.238 254.185 133.355 253.879C133.473 253.573 133.564 253.306 133.629 253.078H136.607C136.445 253.977 136.174 254.758 135.797 255.422C135.419 256.079 134.96 256.626 134.42 257.062C133.88 257.499 133.271 257.824 132.594 258.039C131.923 258.254 131.207 258.361 130.445 258.361C129.378 258.361 128.43 258.186 127.604 257.834C126.783 257.476 126.09 256.968 125.523 256.311C124.964 255.653 124.537 254.862 124.244 253.938C123.951 253.007 123.805 251.968 123.805 250.822C123.805 249.937 123.889 249.136 124.059 248.42C124.228 247.704 124.462 247.069 124.762 246.516C125.068 245.956 125.426 245.474 125.836 245.07C126.246 244.66 126.692 244.325 127.174 244.064C127.662 243.798 128.173 243.602 128.707 243.479C129.241 243.348 129.781 243.283 130.328 243.283C131.109 243.283 131.803 243.365 132.408 243.527C133.014 243.69 133.544 243.908 134 244.182C134.456 244.455 134.843 244.768 135.162 245.119C135.488 245.471 135.751 245.835 135.953 246.213C136.161 246.584 136.314 246.958 136.412 247.336C136.516 247.707 136.581 248.049 136.607 248.361H133.609ZM151.979 243.645H154.977V258H151.979V243.645ZM142.018 255.52H144.557C144.83 255.52 145.11 255.5 145.396 255.461C145.689 255.422 145.956 255.337 146.197 255.207C146.445 255.077 146.646 254.885 146.803 254.631C146.959 254.37 147.037 254.025 147.037 253.596C147.037 253.146 146.959 252.795 146.803 252.541C146.653 252.281 146.454 252.085 146.207 251.955C145.96 251.825 145.68 251.743 145.367 251.711C145.061 251.678 144.752 251.662 144.439 251.662H142.018V255.52ZM139.02 243.645H142.018V249.299H144.879C145.094 249.299 145.367 249.305 145.699 249.318C146.038 249.331 146.399 249.38 146.783 249.465C147.167 249.543 147.551 249.67 147.936 249.846C148.32 250.021 148.668 250.272 148.98 250.598C149.293 250.917 149.547 251.327 149.742 251.828C149.938 252.323 150.035 252.935 150.035 253.664C150.035 254.387 149.938 254.995 149.742 255.49C149.547 255.985 149.296 256.395 148.99 256.721C148.691 257.04 148.355 257.287 147.984 257.463C147.62 257.632 147.262 257.759 146.91 257.844C146.565 257.922 146.246 257.967 145.953 257.98C145.667 257.993 145.455 258 145.318 258H139.02V243.645Z" fill="#425807"/>
<g clip-path="url(#clip0_429:10)">
<path d="M122.962 136.999C128.13 136.999 133.133 136.994 138.14 136.999C140.616 136.999 140.937 137.3 140.942 139.688C140.956 142.857 140.914 146.026 140.956 149.19C140.975 150.746 140.46 151.742 138.736 151.583C137.574 151.474 137.418 152.203 137.224 153.059C133.823 168.085 130.379 183.101 127.034 198.141C126.637 199.932 125.843 200.529 124.043 200.524C110.901 200.468 97.7581 200.468 84.6154 200.524C82.7966 200.534 82.0219 199.875 81.6534 198.108C78.5071 183.087 75.2805 168.08 72.0727 153.073C71.9783 152.622 71.8082 152.184 71.6617 151.691C71.1043 151.653 70.4665 151.794 70.0839 151.545C69.4366 151.127 68.4918 150.478 68.4682 149.89C68.317 146.199 68.3643 142.504 68.3973 138.809C68.4115 137.375 69.3469 136.985 70.6649 136.989C75.9088 137.022 81.1526 137.004 86.6705 137.004C83.9777 130.266 82.3148 123.581 86.0611 116.844C83.4864 115.749 80.9684 114.883 78.6441 113.656C69.4697 108.814 63.7251 101.428 62.4449 91.0097C61.8874 86.4682 63.2054 82.1899 65.2321 77.9257C63.7487 77.4133 62.3079 76.9713 60.9142 76.4166C56.2514 74.5736 53.2374 71.2779 52.217 66.3462C51.1068 60.9913 54.3571 55.4248 59.667 53.4267C64.4857 51.612 69.7248 53.5113 72.3893 58.5136C73.9057 61.3627 74.7088 64.5879 75.8426 67.6626C78.1339 67.2582 80.8219 66.7834 83.7131 66.2757C83.7131 65.7162 83.7179 64.9828 83.7131 64.2493C83.6517 55.5282 86.9114 48.6266 94.815 44.3201C97.9188 42.6276 101.292 42.1387 104.75 42.8204C110.14 43.8829 113.825 48.4997 114.227 54.4939C114.803 63.0787 110.254 70.7185 102.393 74.3668C101.982 74.5595 101.575 74.7664 101.023 75.0391C103.994 79.7264 105.685 84.818 105.969 90.1635C106.243 95.3961 105.78 100.666 105.638 106.017C107.887 106.44 110.348 106.9 112.989 107.399C113.282 104.291 113.357 101.137 113.929 98.0759C114.784 93.4874 115.644 88.8518 117.127 84.4419C118.96 78.9929 122.891 75.0908 128.158 72.6884C129.429 72.1101 129.5 71.5365 129.198 70.2954C127.823 64.6819 126.812 59.0026 128.739 53.3139C129.316 51.6167 130.105 49.9148 131.158 48.4761C134.919 43.3328 141.74 43.4786 145.217 48.8429C148.567 54.0097 149.044 59.6044 146.625 65.3025C145.784 67.2865 144.58 69.12 143.535 71.0382C144.66 72.0067 146.049 72.9234 147.079 74.1364C150.532 78.1937 151.363 83.0409 150.872 88.1654C149.937 97.949 144.556 104.855 136.397 109.867C132.448 112.293 128.418 114.583 124.398 116.947C125.499 122.157 126.887 123.355 122.962 136.999ZM134.234 151.846C114.359 151.846 94.7772 151.846 75.1387 151.846C75.2238 152.438 75.2663 152.904 75.3655 153.355C78.3701 167.384 81.4172 181.399 84.3367 195.447C84.6721 197.064 85.3382 197.327 86.7791 197.323C98.4998 197.275 110.225 197.252 121.946 197.346C123.618 197.36 124.124 196.768 124.45 195.296C126.637 185.404 128.909 175.536 131.144 165.654C132.169 161.089 133.185 156.524 134.234 151.846ZM103.035 96.1954C103.087 90.1071 102.293 85.5232 100.56 81.0945C98.0699 74.7335 93.6812 70.6997 86.6941 69.9004C82.7777 69.4538 78.8425 69.529 75.3844 71.6682C66.5927 77.103 63.2291 88.0855 67.3722 97.5212C71.057 105.918 77.8079 110.704 86.3162 113.445C87.4122 113.797 88.0736 113.727 88.8908 112.81C92.0419 109.27 96.0527 107.225 100.72 106.341C101.263 106.238 102.019 105.509 102.09 104.996C102.544 101.625 102.832 98.2405 103.035 96.1954ZM115.923 106.05C116.14 106.035 116.357 106.021 116.575 106.007C115.545 108.259 116.754 109.27 118.441 110.257C119.735 111.014 120.746 112.237 121.965 113.149C122.371 113.454 123.16 113.703 123.543 113.515C129.542 110.511 135.504 107.385 140.432 102.759C146.313 97.2344 148.647 90.3139 147.471 82.3638C146.549 76.158 142.18 72.552 136.756 73.3654C127.558 74.7382 121.19 79.6417 118.941 88.7907C117.543 94.4512 116.901 100.29 115.923 106.05ZM104.504 136.985C108.983 136.985 113.461 136.966 117.94 136.999C118.847 137.004 119.556 136.914 119.801 135.885C120.628 132.42 121.833 128.997 122.229 125.485C122.976 118.851 120.415 114.677 114.449 111.691C110.386 109.66 106.115 108.993 101.599 109.533C94.6024 110.375 88.357 116.247 87.2468 123.13C86.5335 127.558 88.0358 131.564 89.5428 135.588C89.9632 136.717 90.5963 137.027 91.7726 137.008C96.0149 136.938 100.257 136.985 104.504 136.985ZM71.7137 140.243C71.7137 142.97 71.7137 145.617 71.7137 148.287C93.752 148.287 115.634 148.287 137.597 148.287C137.597 145.56 137.597 142.918 137.597 140.243C115.554 140.243 93.667 140.243 71.7137 140.243ZM87.0626 66.5718C91.5033 67.2818 95.4527 68.7768 98.651 71.9032C98.8919 72.1383 99.6336 72.0208 100.073 71.8703C107.277 69.3316 112.02 61.5695 111 54.0567C110.258 48.636 106.739 45.5801 101.443 45.7493C98.6935 45.834 96.2417 46.7977 94.1016 48.4338C88.1491 52.9801 86.354 59.1812 87.0626 66.5718ZM132.552 70.5586C134.838 70.3988 136.822 70.2812 138.802 70.1026C139.345 70.0556 140.096 69.9898 140.37 69.6372C144.032 64.9311 146.096 59.8253 144.121 53.7793C142.907 50.0652 140.89 48.0201 138.306 47.9543C135.495 47.8791 133.213 49.8819 131.933 53.6148C129.944 59.3975 131.13 65.0439 132.552 70.5586ZM66.6305 75.0109C68.5202 73.2149 70.1831 71.6588 71.8082 70.065C72.0633 69.8111 72.3231 69.3739 72.2901 69.0495C71.9263 65.4059 71.2082 61.8563 68.8792 58.8803C66.125 55.3637 61.7079 54.9688 58.3348 57.8695C53.7665 61.7999 55.009 70.0932 60.6733 72.8388C62.6527 73.7979 64.8258 74.3668 66.6305 75.0109Z" fill="#8BC93E"/>
</g>
<defs>
<clipPath id="clip0_429:10">
<rect width="99" height="158" fill="white" transform="translate(52 42.5234)"/>
</clipPath>
</defs>
</svg>
