<svg width="25" height="22" viewBox="0 0 25 22" fill="none" xmlns="http://www.w3.org/2000/svg">
<mask id="path-1-inside-1_214_1222" fill="white">
<path d="M18.1762 0.373779C15.8555 0.373779 13.811 1.63531 12.6506 3.61771C11.4902 1.63531 9.44571 0.373779 7.12493 0.373779C3.478 0.373779 0.494141 3.61771 0.494141 7.58252C0.494141 13.163 7.90203 18.8166 11.1522 21.0286C12.0622 21.6479 13.2401 21.6501 14.1519 21.0334C17.4035 18.8339 24.807 13.2082 24.807 7.58252C24.807 3.61771 21.8232 0.373779 18.1762 0.373779Z"/>
</mask>
<path d="M12.6506 3.61771L10.9245 4.62804L12.6506 7.57681L14.3766 4.62804L12.6506 3.61771ZM14.1519 21.0334L15.2724 22.69L14.1519 21.0334ZM18.1762 -1.62622C15.096 -1.62622 12.4182 0.0557014 10.9245 2.60738L14.3766 4.62804C15.2038 3.21492 16.615 2.37378 18.1762 2.37378V-1.62622ZM14.3766 2.60738C12.883 0.0557014 10.2052 -1.62622 7.12493 -1.62622V2.37378C8.68622 2.37378 10.0974 3.21492 10.9245 4.62804L14.3766 2.60738ZM7.12493 -1.62622C2.21936 -1.62622 -1.50586 2.67378 -1.50586 7.58252H2.49414C2.49414 4.56164 4.73663 2.37378 7.12493 2.37378V-1.62622ZM-1.50586 7.58252C-1.50586 11.1871 0.828544 14.4873 3.15137 16.9431C5.55194 19.481 8.35001 21.5407 10.0269 22.682L12.2775 19.3752C10.7042 18.3045 8.17325 16.4314 6.05734 14.1944C3.86368 11.8752 2.49414 9.55837 2.49414 7.58252H-1.50586ZM15.2724 22.69C16.951 21.5546 19.75 19.5043 22.1513 16.9677C24.4773 14.5105 26.807 11.2071 26.807 7.58252H22.807C22.807 9.58363 21.435 11.9059 19.2464 14.2178C17.133 16.4504 14.6044 18.3127 13.0313 19.3768L15.2724 22.69ZM26.807 7.58252C26.807 2.67378 23.0818 -1.62622 18.1762 -1.62622V2.37378C20.5645 2.37378 22.807 4.56164 22.807 7.58252H26.807ZM10.0269 22.682C11.6135 23.7618 13.6814 23.7662 15.2724 22.69L13.0313 19.3768C12.7989 19.534 12.5109 19.534 12.2775 19.3752L10.0269 22.682Z" fill="#131313" mask="url(#path-1-inside-1_214_1222)"/>
</svg>
