<svg width="231" height="288" viewBox="0 0 231 288" fill="none" xmlns="http://www.w3.org/2000/svg">
<rect x="0.5" y="0.5" width="212" height="287" rx="26.5" fill="white" stroke="#8FDC2E"/>
<path d="M56.9219 252.656L52.5176 245.645H56.1016L58.6797 250.283L61.3164 245.645H64.7832L60.3789 252.539L65.0762 260H61.4043L58.6797 255.098L55.7793 260H52.2637L56.9219 252.656ZM66.9805 245.645H74.0215C74.6074 245.645 75.1217 245.7 75.5645 245.811C76.0137 245.921 76.401 246.071 76.7266 246.26C77.0521 246.449 77.3255 246.667 77.5469 246.914C77.7682 247.161 77.944 247.422 78.0742 247.695C78.2044 247.962 78.2956 248.236 78.3477 248.516C78.4062 248.796 78.4355 249.062 78.4355 249.316C78.4355 249.681 78.403 250.01 78.3379 250.303C78.2728 250.589 78.1686 250.853 78.0254 251.094C77.8887 251.328 77.7064 251.543 77.4785 251.738C77.2572 251.927 76.9902 252.1 76.6777 252.256C77.1595 252.438 77.5469 252.663 77.8398 252.93C78.1328 253.197 78.3574 253.486 78.5137 253.799C78.6699 254.105 78.7741 254.424 78.8262 254.756C78.8783 255.081 78.9043 255.397 78.9043 255.703C78.9043 256.4 78.7773 257.015 78.5234 257.549C78.2695 258.083 77.9115 258.532 77.4492 258.896C76.987 259.255 76.4238 259.528 75.7598 259.717C75.1022 259.906 74.3698 260 73.5625 260H66.9805V245.645ZM69.8613 257.52H73.6016C73.9336 257.52 74.2396 257.48 74.5195 257.402C74.7995 257.324 75.0404 257.207 75.2422 257.051C75.4505 256.888 75.61 256.686 75.7207 256.445C75.8379 256.198 75.8965 255.908 75.8965 255.576C75.8965 255.16 75.8281 254.827 75.6914 254.58C75.5547 254.326 75.3724 254.131 75.1445 253.994C74.9232 253.857 74.6693 253.77 74.3828 253.73C74.1029 253.685 73.8164 253.662 73.5234 253.662H69.8613V257.52ZM69.8613 251.299H73.5625C73.8229 251.299 74.0736 251.27 74.3145 251.211C74.5553 251.152 74.7669 251.058 74.9492 250.928C75.138 250.791 75.2878 250.618 75.3984 250.41C75.5091 250.202 75.5645 249.951 75.5645 249.658C75.5645 249.352 75.5124 249.102 75.4082 248.906C75.3105 248.704 75.1738 248.545 74.998 248.428C74.8223 248.311 74.6172 248.229 74.3828 248.184C74.1484 248.138 73.901 248.115 73.6406 248.115H69.8613V251.299ZM80.6719 252.822C80.6719 251.748 80.8151 250.752 81.1016 249.834C81.388 248.916 81.8177 248.122 82.3906 247.451C82.9635 246.774 83.6829 246.243 84.5488 245.859C85.4147 245.475 86.4238 245.283 87.5762 245.283C88.6374 245.283 89.5944 245.475 90.4473 245.859C91.3001 246.243 92.0228 246.774 92.6152 247.451C93.2142 248.122 93.6732 248.916 93.9922 249.834C94.3112 250.752 94.4707 251.748 94.4707 252.822C94.4707 253.89 94.3112 254.886 93.9922 255.811C93.6732 256.729 93.2142 257.526 92.6152 258.203C92.0228 258.874 91.3001 259.401 90.4473 259.785C89.5944 260.169 88.6374 260.361 87.5762 260.361C86.4238 260.361 85.4147 260.169 84.5488 259.785C83.6829 259.401 82.9635 258.874 82.3906 258.203C81.8177 257.526 81.388 256.729 81.1016 255.811C80.8151 254.886 80.6719 253.89 80.6719 252.822ZM87.5762 257.764C88.1882 257.764 88.735 257.64 89.2168 257.393C89.6986 257.145 90.1055 256.803 90.4375 256.367C90.776 255.924 91.0332 255.404 91.209 254.805C91.3848 254.199 91.4727 253.538 91.4727 252.822C91.4727 252.106 91.3848 251.449 91.209 250.85C91.0332 250.244 90.776 249.723 90.4375 249.287C90.1055 248.844 89.6986 248.499 89.2168 248.252C88.735 248.005 88.1882 247.881 87.5762 247.881C86.9642 247.881 86.4173 248.005 85.9355 248.252C85.4538 248.499 85.0436 248.844 84.7051 249.287C84.373 249.723 84.1159 250.244 83.9336 250.85C83.7578 251.449 83.6699 252.106 83.6699 252.822C83.6699 253.538 83.7578 254.199 83.9336 254.805C84.1159 255.404 84.373 255.924 84.7051 256.367C85.0436 256.803 85.4538 257.145 85.9355 257.393C86.4173 257.64 86.9642 257.764 87.5762 257.764ZM96.7559 245.645H99.6367V255.42H99.6758L105.359 245.645H108.396V260H105.516V250.283H105.477L99.8027 260H96.7559V245.645ZM102.82 244.893C101.57 244.893 100.63 244.648 99.998 244.16C99.3665 243.665 99.0508 242.907 99.0508 241.885H101.316C101.323 242.087 101.352 242.272 101.404 242.441C101.463 242.611 101.551 242.757 101.668 242.881C101.785 243.005 101.938 243.102 102.127 243.174C102.316 243.239 102.547 243.271 102.82 243.271C103.094 243.271 103.325 243.239 103.514 243.174C103.709 243.102 103.865 243.008 103.982 242.891C104.106 242.767 104.194 242.62 104.246 242.451C104.305 242.282 104.331 242.093 104.324 241.885H106.59C106.59 242.907 106.274 243.665 105.643 244.16C105.011 244.648 104.07 244.893 102.82 244.893ZM111.209 245.645H114.217V251.104H119.852V245.645H122.85V260H119.852V253.584H114.217V260H111.209V245.645ZM138.865 245.645H141.863V260H138.865V245.645ZM128.904 257.52H131.443C131.717 257.52 131.997 257.5 132.283 257.461C132.576 257.422 132.843 257.337 133.084 257.207C133.331 257.077 133.533 256.885 133.689 256.631C133.846 256.37 133.924 256.025 133.924 255.596C133.924 255.146 133.846 254.795 133.689 254.541C133.54 254.281 133.341 254.085 133.094 253.955C132.846 253.825 132.566 253.743 132.254 253.711C131.948 253.678 131.639 253.662 131.326 253.662H128.904V257.52ZM125.906 245.645H128.904V251.299H131.766C131.98 251.299 132.254 251.305 132.586 251.318C132.924 251.331 133.286 251.38 133.67 251.465C134.054 251.543 134.438 251.67 134.822 251.846C135.206 252.021 135.555 252.272 135.867 252.598C136.18 252.917 136.434 253.327 136.629 253.828C136.824 254.323 136.922 254.935 136.922 255.664C136.922 256.387 136.824 256.995 136.629 257.49C136.434 257.985 136.183 258.395 135.877 258.721C135.577 259.04 135.242 259.287 134.871 259.463C134.507 259.632 134.148 259.759 133.797 259.844C133.452 259.922 133.133 259.967 132.84 259.98C132.553 259.993 132.342 260 132.205 260H125.906V245.645ZM144.793 245.645H155.33V248.115H147.674V251.299H154.715V253.779H147.674V257.402H155.672V260H144.793V245.645Z" fill="#425807"/>
<path d="M101.885 151.27C101.885 146.371 101.9 141.723 101.852 137.074C101.848 136.716 101.468 136.253 101.136 136.025C97.4307 133.451 93.7147 130.884 89.9503 128.396C89.4615 128.075 88.6258 128.034 88.0214 128.172C81.1714 129.702 74.3401 131.313 67.4902 132.832C66.8746 132.97 65.9381 132.817 65.5165 132.418C64.7293 131.671 65.3412 130.519 66.6134 130.224C71.8628 129 77.1197 127.795 82.3728 126.579C83.4995 126.318 84.6263 126.038 86.0664 125.695C84.2569 124.46 82.6862 123.348 81.0632 122.322C80.7871 122.146 80.2686 122.285 79.8805 122.378C74.5901 123.631 69.2997 124.9 64.013 126.168C63.7406 126.232 63.4645 126.28 63.1959 126.355C62.2669 126.62 61.4536 126.467 61.1849 125.452C60.8865 124.333 61.6364 123.859 62.6027 123.628C67.3932 122.475 72.1799 121.322 76.9704 120.169C77.101 120.139 77.2241 120.083 77.642 119.938C76.0526 118.852 74.6386 117.837 73.1649 116.919C72.8888 116.748 72.359 116.905 71.9673 116.998C67.5424 118.084 63.125 119.184 58.7039 120.285C58.4315 120.352 58.1592 120.404 57.8906 120.482C56.9653 120.755 56.152 120.609 55.8721 119.598C55.5662 118.483 56.3086 117.998 57.2712 117.759C58.9427 117.349 60.6104 116.942 62.2781 116.528C64.692 115.923 67.1022 115.311 69.822 114.621C68.2177 113.509 66.9156 112.551 65.5501 111.7C65.2255 111.498 64.6547 111.562 64.2406 111.666C60.3641 112.64 56.4915 113.625 52.63 114.662C51.589 114.942 50.6862 114.92 50.3952 113.756C50.1153 112.651 50.9063 112.233 51.8763 111.983C55.1558 111.148 58.4241 110.267 62.0841 109.301C60.3194 108.103 58.8382 107.051 57.2973 106.096C57.0287 105.928 56.4989 106.115 56.1109 106.219C53.2829 106.977 50.4549 107.734 47.638 108.532C46.6642 108.808 45.8061 108.794 45.5039 107.682C45.2055 106.585 45.8994 106.107 46.8918 105.85C49.2087 105.245 51.5107 104.574 54.1149 103.85C52.3539 102.649 50.8429 101.585 49.2833 100.597C49.0035 100.421 48.4924 100.481 48.1305 100.586C46.4777 101.063 44.8361 101.578 43.2057 102.119C42.2282 102.444 41.3962 102.373 41.0791 101.272C40.7843 100.25 41.4149 99.7424 42.3364 99.4663C43.4743 99.1268 44.5973 98.7276 45.9405 98.2836C44.6869 97.4143 43.6161 96.6868 42.5602 95.9406C41.7059 95.3362 40.4635 94.7915 41.3365 93.4632C42.2021 92.1425 43.1833 92.9969 44.075 93.6013C45.1383 94.3214 46.2053 95.0377 47.5074 95.9182C47.4291 94.493 47.3769 93.3476 47.2985 92.2097C47.2276 91.2098 47.4664 90.3741 48.6118 90.3069C49.69 90.2435 50.0146 91.0158 50.0743 91.9522C50.1862 93.6722 50.2795 95.3921 50.4437 97.1046C50.4847 97.5187 50.6638 98.0597 50.9697 98.2873C52.3837 99.332 53.8612 100.287 55.6035 101.466C55.3461 98.8059 55.0588 96.4405 54.9208 94.0677C54.8872 93.4782 55.1558 92.6387 55.5886 92.3029C56.4206 91.6575 57.4428 92.3067 57.5958 93.5491C57.9614 96.5338 58.2151 99.5297 58.5994 102.511C58.6703 103.048 59.0733 103.764 59.4948 104.1C60.6925 105.04 61.9946 105.846 63.5354 106.898C63.2332 104.167 62.9683 101.709 62.6922 99.2499C62.584 98.2799 62.4535 97.3098 62.3341 96.3398C62.2184 95.3847 62.502 94.6124 63.5429 94.4892C64.5987 94.3661 65.0017 95.0563 65.1099 96.0227C65.5427 99.8618 66.0314 103.693 66.4269 107.533C66.5313 108.54 66.8112 109.267 67.7252 109.801C68.8744 110.469 69.9451 111.271 71.2994 112.185C70.9152 109.081 70.5682 106.279 70.2249 103.473C70.0645 102.179 69.919 100.888 69.7511 99.5931C69.6243 98.5895 69.6541 97.6232 70.9413 97.5113C72.2247 97.3994 72.415 98.403 72.5344 99.3655C73.0157 103.149 73.6462 106.924 73.8999 110.726C74.0715 113.315 74.8214 115.259 77.2987 116.334C77.8397 116.569 78.2986 116.983 78.9777 117.434C78.9777 116.711 79.0597 116.319 78.8508 115.811C77.3659 112.181 76.5563 108.26 77.2129 104.395C77.3472 103.589 77.1309 102.809 77.0637 102.018C76.9891 101.104 77.3062 100.421 78.2912 100.332C79.2687 100.239 79.7201 100.854 79.8395 101.753C80.2201 104.566 80.5931 107.38 80.9662 110.193C81.3505 113.099 81.7236 116.005 82.1303 118.908C82.1788 119.251 82.3094 119.699 82.5593 119.882C84.0853 120.99 85.6597 122.035 87.458 123.266C86.9058 119.363 86.4059 115.778 85.891 112.196C85.4881 109.387 85.0665 106.581 84.6524 103.775C84.5069 102.802 84.6374 101.925 85.794 101.765C86.9431 101.604 87.2901 102.376 87.4319 103.376C88.4243 110.375 89.4391 117.375 90.4726 124.37C90.5397 124.836 90.7114 125.448 91.0509 125.687C94.5467 128.142 98.0836 130.534 101.774 133.056C101.822 132.526 101.878 132.183 101.882 131.839C101.885 124.437 101.908 117.031 101.844 109.629C101.837 108.954 101.441 108.103 100.942 107.637C95.9458 102.958 90.8904 98.347 85.8537 93.7132C85.5814 93.4595 85.1449 93.2431 85.074 92.9409C84.9285 92.3365 84.7456 91.5493 85.0105 91.0867C85.4396 90.3405 86.2641 90.4002 86.9469 90.9523C87.3461 91.2732 87.7117 91.6314 88.0885 91.9783C92.2373 95.7913 96.3824 99.6043 100.535 103.414C100.897 103.746 101.281 104.052 101.882 104.563C101.882 102.425 101.93 100.582 101.844 98.7462C101.826 98.3321 101.386 97.8694 101.035 97.5486C97.0726 93.9445 93.0917 90.3666 89.1183 86.7812C88.7713 86.4678 88.2676 86.2066 88.1333 85.8186C87.9468 85.2814 87.8013 84.3785 88.0811 84.1173C88.4654 83.7629 89.3496 83.6398 89.8794 83.8263C90.4912 84.039 90.9501 84.6844 91.4725 85.1508C94.5542 87.9228 97.6322 90.6949 100.714 93.467C101.016 93.7356 101.337 93.9818 101.878 94.4296C101.878 92.4857 101.926 90.7882 101.841 89.0981C101.822 88.7287 101.386 88.3295 101.057 88.0348C97.7591 85.0874 94.4423 82.1623 91.133 79.2298C90.8196 78.9537 90.5136 78.6665 90.1965 78.3941C89.4951 77.786 89.2899 77.0622 89.9055 76.3197C90.5957 75.4915 91.3493 75.6929 92.0843 76.3458C94.9012 78.8493 97.7292 81.349 100.554 83.845C100.897 84.1509 101.251 84.4419 101.863 84.9642C101.863 82.9794 101.904 81.2482 101.826 79.5246C101.811 79.2037 101.352 78.8679 101.046 78.5993C98.3112 76.2078 95.5653 73.8349 92.8231 71.4546C92.4724 71.1487 92.1217 70.8427 91.7784 70.5256C91.133 69.9287 91.0098 69.2384 91.5732 68.552C92.2 67.7909 92.935 67.858 93.6439 68.4699C95.86 70.3876 98.0725 72.3165 100.289 74.2341C100.729 74.6147 101.184 74.984 101.878 75.5623C101.878 73.4954 101.923 71.7456 101.841 69.9996C101.822 69.6339 101.382 69.231 101.046 68.9437C98.8597 67.0596 96.6547 65.1979 94.4423 63.3436C93.6588 62.687 93.0506 61.9445 93.8677 60.9931C94.6922 60.0306 95.5093 60.5678 96.2779 61.2245C98.0389 62.7317 99.8185 64.2129 101.874 65.9441C101.874 63.7577 101.908 61.8774 101.841 60.0044C101.829 59.6873 101.408 59.3292 101.102 59.0829C99.7999 58.0308 98.4717 57.0085 97.1435 55.9863C96.3973 55.4117 95.9496 54.7103 96.5726 53.8484C97.2479 52.912 98.0725 53.1545 98.8671 53.7813C99.7738 54.4976 100.692 55.1916 101.885 56.1094C101.885 54.3633 101.904 52.9083 101.878 51.4495C101.859 50.4197 102.031 49.4907 103.307 49.5243C104.46 49.5542 104.687 50.4235 104.68 51.4047C104.669 52.8411 104.676 54.2775 104.676 56.0161C105.807 55.1543 106.751 54.4491 107.672 53.7179C108.418 53.1284 109.183 52.8709 109.873 53.7104C110.62 54.617 110.168 55.3408 109.366 55.9452C108.959 56.2549 108.564 56.5795 108.157 56.8929C104.258 59.9224 104.687 60.6238 104.844 65.7389C106.717 64.1495 108.493 62.6161 110.306 61.1237C110.683 60.8103 111.205 60.4223 111.616 60.4671C112.071 60.5156 112.776 60.9633 112.843 61.3364C112.936 61.855 112.713 62.6497 112.328 62.9966C110.187 64.933 107.993 66.8096 105.743 68.6154C104.926 69.272 104.594 69.9436 104.658 70.9733C104.743 72.3612 104.68 73.7566 104.68 75.3944C105.161 75.0326 105.486 74.8124 105.777 74.5587C108.064 72.5739 110.347 70.589 112.619 68.5967C113.358 67.9476 114.13 67.5483 114.918 68.4363C115.712 69.328 115.223 70.0443 114.477 70.6898C111.769 73.0365 109.123 75.4653 106.336 77.7151C105.049 78.756 104.456 79.8566 104.65 81.4945C104.769 82.4906 104.672 83.5166 104.672 84.7926C105.24 84.3412 105.635 84.0539 105.997 83.733C108.717 81.3266 111.437 78.9202 114.141 76.4988C114.891 75.8272 115.697 75.2564 116.555 76.1593C117.51 77.1629 116.757 77.9165 115.981 78.6068C112.496 81.696 109 84.7665 105.564 87.9117C105.094 88.3444 104.769 89.1279 104.71 89.7771C104.583 91.1874 104.669 92.6163 104.669 94.3624C105.493 93.6349 106.075 93.1312 106.646 92.6163C109.791 89.7771 112.94 86.9416 116.078 84.0949C116.794 83.4458 117.559 82.9607 118.372 83.8263C119.234 84.7404 118.708 85.5015 117.936 86.1954C113.783 89.9301 109.623 93.6647 105.516 97.4479C105.072 97.8545 104.747 98.5895 104.706 99.1977C104.594 100.817 104.669 102.451 104.669 104.41C105.217 103.947 105.59 103.652 105.937 103.335C110.187 99.429 114.436 95.519 118.686 91.609C119.029 91.2956 119.354 90.8143 119.749 90.7397C120.312 90.6315 121.152 90.6166 121.465 90.9449C121.775 91.2732 121.685 92.1052 121.555 92.6686C121.476 93.0118 121.003 93.2692 120.697 93.5528C115.694 98.153 110.698 102.764 105.672 107.339C104.967 107.98 104.643 108.622 104.646 109.607C104.687 116.916 104.669 124.228 104.669 131.537C104.669 131.955 104.669 132.369 104.669 132.989C105.441 132.545 105.881 132.362 106.396 131.843C108.676 129.552 111.373 127.743 114.332 126.448C115.753 125.825 116.179 125.064 116.339 123.915C117.287 117.143 118.253 110.372 119.249 103.608C119.331 103.048 119.555 102.399 119.943 102.026C120.212 101.768 121.032 101.709 121.312 101.932C121.704 102.246 122.066 102.925 122.017 103.406C121.771 105.813 121.394 108.2 121.051 110.596C120.469 114.681 119.883 118.766 119.253 123.169C121.059 121.934 122.637 120.889 124.17 119.777C124.413 119.602 124.51 119.143 124.558 118.8C125.308 113.36 126.036 107.921 126.771 102.481C126.808 102.205 126.815 101.921 126.871 101.649C127.058 100.765 127.543 100.183 128.517 100.339C129.423 100.485 129.714 101.153 129.614 101.996C129.379 103.936 129.125 105.872 128.871 107.809C128.457 110.943 128.035 114.073 127.58 117.487C129.185 116.393 130.613 115.468 131.979 114.453C132.248 114.256 132.348 113.741 132.401 113.353C132.968 109.017 133.505 104.675 134.057 100.339C134.12 99.8319 134.21 99.3282 134.277 98.8208C134.404 97.8732 134.941 97.3695 135.893 97.5187C136.866 97.6754 137.135 98.3955 137.023 99.2872C136.732 101.641 136.422 103.996 136.124 106.35C135.893 108.193 135.669 110.036 135.404 112.163C137.012 111.062 138.437 110.122 139.81 109.114C140.049 108.939 140.135 108.473 140.176 108.126C140.646 104.246 141.109 100.365 141.538 96.4778C141.653 95.4406 141.78 94.3699 143.123 94.493C144.586 94.6273 144.436 95.81 144.317 96.8509C143.996 99.623 143.649 102.395 143.325 105.167C143.272 105.622 143.269 106.081 143.224 106.827C144.858 105.708 146.362 104.794 147.708 103.69C148.108 103.365 148.16 102.522 148.231 101.903C148.544 99.1753 148.828 96.4442 149.078 93.7095C149.167 92.7394 149.552 92.0119 150.574 92.0828C151.682 92.1574 151.98 92.9857 151.868 94.0042C151.607 96.3957 151.357 98.7873 151.074 101.485C152.827 100.283 154.376 99.2723 155.853 98.1679C156.152 97.9441 156.282 97.3732 156.319 96.9479C156.465 95.2802 156.554 93.605 156.64 91.9298C156.689 90.9523 157.092 90.2472 158.133 90.3144C159.162 90.3852 159.498 91.1501 159.431 92.1089C159.353 93.2954 159.271 94.4818 159.174 95.948C160.658 94.9407 161.923 94.0975 163.173 93.2319C163.964 92.6835 164.736 92.5156 165.356 93.4073C165.968 94.2878 165.576 94.978 164.777 95.5227C163.513 96.3845 162.252 97.2501 160.759 98.2724C162.11 98.7164 163.251 99.1156 164.412 99.4663C165.352 99.7498 165.908 100.287 165.613 101.306C165.311 102.354 164.512 102.444 163.598 102.145C162.979 101.944 162.3 101.847 161.752 101.526C158.017 99.3357 155.45 101.541 152.783 103.887C155.267 104.574 157.677 105.216 160.069 105.917C161.259 106.268 161.752 107.387 160.979 108.103C160.576 108.476 159.707 108.633 159.14 108.499C156.26 107.801 153.421 106.943 150.544 106.23C150.025 106.1 149.216 106.215 148.753 106.492C147.417 107.283 146.168 108.223 144.619 109.282C147.988 110.17 151.029 110.969 154.07 111.771C154.428 111.864 154.79 111.954 155.148 112.054C156.036 112.301 156.566 112.857 156.293 113.797C156.028 114.715 155.323 115.009 154.379 114.744C153.342 114.45 152.312 114.121 151.26 113.89C148.384 113.256 145.567 112.323 142.683 111.726C142.011 111.588 141.146 111.771 140.53 112.107C139.321 112.763 138.228 113.625 136.81 114.591C139.948 115.382 142.769 116.095 145.589 116.808C146.94 117.151 148.291 117.498 149.641 117.834C150.559 118.061 151.033 118.624 150.798 119.565C150.559 120.524 149.857 120.736 148.951 120.512C144.306 119.356 139.65 118.24 135.02 117.024C134.057 116.77 133.341 116.875 132.572 117.453C131.501 118.259 130.367 118.986 129.017 119.915C129.714 120.124 130.162 120.285 130.625 120.393C135.008 121.449 139.396 122.479 143.772 123.564C144.362 123.71 145.011 124.034 145.384 124.482C145.608 124.751 145.53 125.609 145.261 125.862C144.899 126.206 144.179 126.452 143.694 126.347C140.288 125.605 136.904 124.766 133.516 123.952C131.255 123.411 129.002 122.84 126.733 122.337C126.282 122.236 125.677 122.232 125.316 122.456C123.782 123.408 122.312 124.467 120.547 125.668C123.223 126.292 125.629 126.855 128.032 127.411C131.971 128.325 135.908 129.246 139.851 130.146C140.855 130.373 141.746 130.757 141.441 131.963C141.142 133.138 140.194 133.1 139.18 132.862C132.389 131.272 125.592 129.731 118.805 128.127C117.82 127.896 117.055 127.997 116.216 128.586C112.672 131.067 109.075 133.474 105.519 135.94C105.154 136.193 104.713 136.686 104.71 137.07C104.654 141.723 104.672 146.371 104.672 151.266C105.281 151.266 105.814 151.266 106.344 151.266C112.444 151.266 118.54 151.263 124.64 151.266C125.976 151.266 127.058 152.352 127.058 153.688C127.058 165.003 127.058 176.319 127.058 187.631C127.058 189.732 126.774 190.004 124.614 190.004C110.37 190.004 96.1212 190.004 81.8766 190.004C79.7126 190.004 79.4515 189.754 79.4515 187.613C79.4478 176.297 79.4478 164.981 79.4515 153.669C79.4515 151.554 79.7462 151.266 81.8878 151.263C87.9393 151.259 93.9908 151.263 100.042 151.263C100.606 151.27 101.158 151.27 101.885 151.27ZM124.704 186.699C124.704 186.102 124.704 185.602 124.704 185.102C124.704 179.979 124.67 174.861 124.726 169.738C124.741 168.369 124.748 167.279 123.118 166.716C122.323 166.44 121.719 165.533 121.1 164.847C120.51 164.194 120.044 163.425 119.473 162.754C118.01 161.034 116.205 161.019 114.716 162.735C114.044 163.507 113.477 164.365 112.832 165.16C110.131 168.462 106.269 168.484 103.523 165.209C102.867 164.425 102.3 163.567 101.639 162.784C100.173 161.045 98.3747 161.011 96.886 162.709C96.2107 163.478 95.7444 164.462 94.9721 165.1C93.8603 166.022 92.6552 167.052 91.3195 167.432C88.8422 168.141 86.932 166.847 85.4284 164.906C84.6486 163.903 83.8502 162.914 83.063 161.918C82.9735 161.97 82.8802 162.022 82.7906 162.075C82.7906 170.264 82.7906 178.453 82.7906 186.695C96.7554 186.699 110.616 186.699 124.704 186.699ZM124.644 153.594C124.088 153.594 123.592 153.594 123.092 153.594C110.198 153.594 97.3002 153.594 84.4061 153.594C84.033 153.594 83.6488 153.546 83.2943 153.628C83.0742 153.676 82.7421 153.923 82.7347 154.091C82.6899 155.531 82.5593 157.001 82.7906 158.403C82.869 158.888 83.9472 159.161 84.4845 159.631C85.1822 160.239 85.8239 160.914 86.432 161.612C87.014 162.276 87.4767 163.041 88.0699 163.694C89.4317 165.194 91.1927 165.201 92.5358 163.698C93.2484 162.899 93.8379 162 94.5169 161.172C97.3263 157.758 101.247 157.795 104.005 161.261C104.613 162.026 105.161 162.84 105.803 163.575C107.284 165.272 109.079 165.238 110.56 163.515C110.862 163.16 111.164 162.802 111.41 162.41C114.537 157.419 119.592 157.389 122.782 162.448C123.226 163.149 123.875 163.724 124.64 164.601C124.644 160.717 124.644 157.243 124.644 153.594Z" fill="#8BC93E"/>
</svg>
