<svg width="572" height="558" viewBox="0 0 572 558" fill="none" xmlns="http://www.w3.org/2000/svg">
<path fill-rule="evenodd" clip-rule="evenodd" d="M571 417.477H570V557.477C491.567 557.477 428 494.805 428 417.477L428 276.477C506.985 276.477 571 339.596 571 417.477Z" fill="#87CE2E"/>
<path fill-rule="evenodd" clip-rule="evenodd" d="M285 278.477V140.477C206.567 140.477 143 202.253 143 278.477H1C1.00001 355.252 64.5674 417.477 143 417.477C222.537 417.477 287 355.252 287 278.477H285Z" fill="#87CE2E"/>
<path fill-rule="evenodd" clip-rule="evenodd" d="M428 0V0.476562L572 0.476564C572 77.8045 507.537 140.477 428 140.477V140H285C285 62.6721 349.015 0 428 0Z" fill="#87CE2E"/>
<path d="M143 417.477L-6.19435e-06 417.477C-2.77295e-06 493.7 64.015 555.477 143 555.477L143 417.477Z" fill="#87CE2E"/>
<path fill-rule="evenodd" clip-rule="evenodd" d="M143 555.477C143 478.701 206.567 416.477 285 416.477H428C428 493.252 363.985 555.477 285 555.477H143Z" fill="#87CE2E"/>
<path fill-rule="evenodd" clip-rule="evenodd" d="M428 276.477C507.537 276.477 572 215.595 572 140.477L428 140.477C349.015 140.477 285 202.253 285 278.477H287L287 417.477C364.212 417.477 426.917 355.435 427.986 278.477H428V276.477Z" fill="#87CE2E"/>
</svg>
