<svg width="213" height="288" viewBox="0 0 213 288" fill="none" xmlns="http://www.w3.org/2000/svg">
<rect x="0.5" y="0.5" width="212" height="287" rx="26.5" fill="white" stroke="#8FDC2E"/>
<path d="M19.3965 245.645H31.0371V260H28.0391V248.115H22.4043V260H19.3965V245.645ZM42.707 248.115H38.498L38.5078 250.283C38.5143 251.592 38.485 252.747 38.4199 253.75C38.3613 254.746 38.2637 255.615 38.127 256.357C37.9967 257.093 37.8275 257.712 37.6191 258.213C37.4173 258.714 37.1764 259.118 36.8965 259.424C36.6165 259.723 36.2975 259.938 35.9395 260.068C35.5814 260.199 35.1875 260.264 34.7578 260.264C34.4062 260.264 34.0938 260.241 33.8203 260.195C33.5534 260.156 33.2865 260.081 33.0195 259.971L33.0098 257.227C33.1009 257.272 33.1953 257.311 33.293 257.344C33.3971 257.37 33.498 257.393 33.5957 257.412C33.6934 257.425 33.7812 257.435 33.8594 257.441C33.944 257.448 34.0091 257.451 34.0547 257.451C34.2305 257.451 34.3932 257.428 34.543 257.383C34.6992 257.331 34.8359 257.223 34.9531 257.061C35.0768 256.898 35.1842 256.663 35.2754 256.357C35.3665 256.051 35.4414 255.645 35.5 255.137C35.5651 254.629 35.6107 254.001 35.6367 253.252C35.6693 252.503 35.6855 251.608 35.6855 250.566V245.645H45.7051V260H42.707V248.115ZM52.4043 245.645H55.832L60.9102 260H57.6484L56.7305 257.041H51.4277L50.4316 260H47.2676L52.4043 245.645ZM52.2285 254.561H55.8906L54.1035 248.877H54.0645L52.2285 254.561ZM63.9375 257.275C64.1263 257.399 64.3444 257.497 64.5918 257.568C64.8392 257.64 65.1191 257.676 65.4316 257.676C65.8418 257.676 66.1641 257.555 66.3984 257.314C66.6328 257.074 66.7956 256.771 66.8867 256.406L61.7988 245.645H65.1777L68.4395 253.359L71.3008 245.645H74.5234L69.9434 256.24C69.3444 257.64 68.7096 258.678 68.0391 259.355C67.3685 260.026 66.6198 260.361 65.793 260.361C65.5326 260.361 65.3047 260.348 65.1094 260.322C64.9206 260.296 64.7546 260.264 64.6113 260.225C64.4746 260.186 64.3509 260.146 64.2402 260.107C64.1361 260.068 64.0352 260.033 63.9375 260V257.275ZM76.0566 245.645H79.0645V251.104H84.6992V245.645H87.6973V260H84.6992V253.584H79.0645V260H76.0566V245.645ZM89.9922 252.822C89.9922 251.748 90.1354 250.752 90.4219 249.834C90.7083 248.916 91.138 248.122 91.7109 247.451C92.2839 246.774 93.0033 246.243 93.8691 245.859C94.735 245.475 95.7441 245.283 96.8965 245.283C97.9577 245.283 98.9147 245.475 99.7676 245.859C100.62 246.243 101.343 246.774 101.936 247.451C102.535 248.122 102.993 248.916 103.312 249.834C103.632 250.752 103.791 251.748 103.791 252.822C103.791 253.89 103.632 254.886 103.312 255.811C102.993 256.729 102.535 257.526 101.936 258.203C101.343 258.874 100.62 259.401 99.7676 259.785C98.9147 260.169 97.9577 260.361 96.8965 260.361C95.7441 260.361 94.735 260.169 93.8691 259.785C93.0033 259.401 92.2839 258.874 91.7109 258.203C91.138 257.526 90.7083 256.729 90.4219 255.811C90.1354 254.886 89.9922 253.89 89.9922 252.822ZM96.8965 257.764C97.5085 257.764 98.0553 257.64 98.5371 257.393C99.0189 257.145 99.4258 256.803 99.7578 256.367C100.096 255.924 100.354 255.404 100.529 254.805C100.705 254.199 100.793 253.538 100.793 252.822C100.793 252.106 100.705 251.449 100.529 250.85C100.354 250.244 100.096 249.723 99.7578 249.287C99.4258 248.844 99.0189 248.499 98.5371 248.252C98.0553 248.005 97.5085 247.881 96.8965 247.881C96.2845 247.881 95.7376 248.005 95.2559 248.252C94.7741 248.499 94.3639 248.844 94.0254 249.287C93.6934 249.723 93.4362 250.244 93.2539 250.85C93.0781 251.449 92.9902 252.106 92.9902 252.822C92.9902 253.538 93.0781 254.199 93.2539 254.805C93.4362 255.404 93.6934 255.924 94.0254 256.367C94.3639 256.803 94.7741 257.145 95.2559 257.393C95.7376 257.64 96.2845 257.764 96.8965 257.764ZM106.32 245.645H113.361C113.947 245.645 114.462 245.7 114.904 245.811C115.354 245.921 115.741 246.071 116.066 246.26C116.392 246.449 116.665 246.667 116.887 246.914C117.108 247.161 117.284 247.422 117.414 247.695C117.544 247.962 117.635 248.236 117.688 248.516C117.746 248.796 117.775 249.062 117.775 249.316C117.775 249.681 117.743 250.01 117.678 250.303C117.613 250.589 117.508 250.853 117.365 251.094C117.229 251.328 117.046 251.543 116.818 251.738C116.597 251.927 116.33 252.1 116.018 252.256C116.499 252.438 116.887 252.663 117.18 252.93C117.473 253.197 117.697 253.486 117.854 253.799C118.01 254.105 118.114 254.424 118.166 254.756C118.218 255.081 118.244 255.397 118.244 255.703C118.244 256.4 118.117 257.015 117.863 257.549C117.609 258.083 117.251 258.532 116.789 258.896C116.327 259.255 115.764 259.528 115.1 259.717C114.442 259.906 113.71 260 112.902 260H106.32V245.645ZM109.201 257.52H112.941C113.273 257.52 113.579 257.48 113.859 257.402C114.139 257.324 114.38 257.207 114.582 257.051C114.79 256.888 114.95 256.686 115.061 256.445C115.178 256.198 115.236 255.908 115.236 255.576C115.236 255.16 115.168 254.827 115.031 254.58C114.895 254.326 114.712 254.131 114.484 253.994C114.263 253.857 114.009 253.77 113.723 253.73C113.443 253.685 113.156 253.662 112.863 253.662H109.201V257.52ZM109.201 251.299H112.902C113.163 251.299 113.413 251.27 113.654 251.211C113.895 251.152 114.107 251.058 114.289 250.928C114.478 250.791 114.628 250.618 114.738 250.41C114.849 250.202 114.904 249.951 114.904 249.658C114.904 249.352 114.852 249.102 114.748 248.906C114.65 248.704 114.514 248.545 114.338 248.428C114.162 248.311 113.957 248.229 113.723 248.184C113.488 248.138 113.241 248.115 112.98 248.115H109.201V251.299ZM120.529 245.645H123.41V255.42H123.449L129.133 245.645H132.17V260H129.289V250.283H129.25L123.576 260H120.529V245.645ZM133.83 257.52H135.09C135.24 257.116 135.386 256.702 135.529 256.279C135.679 255.856 135.819 255.397 135.949 254.902C136.079 254.408 136.197 253.864 136.301 253.271C136.411 252.679 136.509 252.012 136.594 251.27C136.678 250.521 136.747 249.688 136.799 248.77C136.851 247.845 136.887 246.803 136.906 245.645H146.682V257.52H148.078V263.076H145.48V260H136.428V263.076H133.83V257.52ZM143.684 248.115H139.543C139.536 248.376 139.527 248.708 139.514 249.111C139.507 249.515 139.488 249.967 139.455 250.469C139.423 250.964 139.374 251.501 139.309 252.08C139.25 252.653 139.169 253.245 139.064 253.857C138.96 254.463 138.827 255.078 138.664 255.703C138.508 256.322 138.316 256.927 138.088 257.52H143.684V248.115ZM149.729 245.645H152.736V251.104H158.371V245.645H161.369V260H158.371V253.584H152.736V260H149.729V245.645ZM177.385 245.645H180.383V260H177.385V245.645ZM167.424 257.52H169.963C170.236 257.52 170.516 257.5 170.803 257.461C171.096 257.422 171.363 257.337 171.604 257.207C171.851 257.077 172.053 256.885 172.209 256.631C172.365 256.37 172.443 256.025 172.443 255.596C172.443 255.146 172.365 254.795 172.209 254.541C172.059 254.281 171.861 254.085 171.613 253.955C171.366 253.825 171.086 253.743 170.773 253.711C170.467 253.678 170.158 253.662 169.846 253.662H167.424V257.52ZM164.426 245.645H167.424V251.299H170.285C170.5 251.299 170.773 251.305 171.105 251.318C171.444 251.331 171.805 251.38 172.189 251.465C172.574 251.543 172.958 251.67 173.342 251.846C173.726 252.021 174.074 252.272 174.387 252.598C174.699 252.917 174.953 253.327 175.148 253.828C175.344 254.323 175.441 254.935 175.441 255.664C175.441 256.387 175.344 256.995 175.148 257.49C174.953 257.985 174.702 258.395 174.396 258.721C174.097 259.04 173.762 259.287 173.391 259.463C173.026 259.632 172.668 259.759 172.316 259.844C171.971 259.922 171.652 259.967 171.359 259.98C171.073 259.993 170.861 260 170.725 260H164.426V245.645ZM183.312 245.645H193.85V248.115H186.193V251.299H193.234V253.779H186.193V257.402H194.191V260H183.312V245.645Z" fill="#425807"/>
<g clip-path="url(#clip0_429:7)">
<path d="M108.513 153.377C108.513 151.537 108.513 149.864 108.513 147.974C109.82 147.974 111.109 147.99 112.401 147.97C121.361 147.839 128.346 141.952 129.782 133.15C130.473 128.905 129.731 128.936 126.251 129.343C119.452 130.137 113.806 133.057 109.576 138.517C109.289 138.889 108.994 139.253 108.551 139.815C108.551 135.806 108.551 132.031 108.551 127.926C110.177 127.926 111.807 128.019 113.425 127.91C121.074 127.387 127.461 120.691 127.648 113.066C127.69 111.258 127.221 110.832 125.447 110.952C118.715 111.416 113.154 114.1 109.04 119.537C108.932 119.681 108.928 119.909 108.877 120.095C108.761 120.002 108.645 119.913 108.532 119.82C108.532 116.234 108.532 112.644 108.532 108.771C110.336 108.771 112.075 108.899 113.794 108.748C121.342 108.094 127.609 101.258 127.659 93.7184C127.671 92.1809 127.194 91.7278 125.657 91.8208C118.87 92.2313 113.247 94.8957 109.071 100.36C108.963 100.503 108.823 100.623 108.559 100.902C108.559 96.8088 108.559 92.8935 108.559 88.7691C109.793 88.7691 110.992 88.8156 112.187 88.7614C119.11 88.4516 124.904 82.5535 125.067 75.6718C125.106 73.9911 124.722 73.5612 123.041 73.6619C117.69 73.9911 113.107 75.97 109.518 80.0363C109.262 80.3267 109.009 80.6172 108.749 80.8999C108.73 80.9231 108.668 80.9076 108.54 80.9115C108.54 77.2286 108.54 73.5457 108.54 69.6382C109.836 69.6382 111.085 69.6963 112.327 69.6305C119.176 69.2742 124.9 63.3839 125.059 56.5641C125.098 54.8834 124.706 54.4419 123.037 54.5465C116.716 54.9492 111.64 57.6252 107.997 62.8649C107.83 63.1012 107.682 63.3529 107.523 63.593C107.391 63.7905 107.259 63.988 106.991 64.3869C106.642 63.8796 106.367 63.4691 106.087 63.0663C102.498 57.8692 97.4415 55.2126 91.2442 54.5658C89.3117 54.3645 88.8771 54.8098 88.9431 56.7113C89.1798 63.4884 94.8687 69.2819 101.667 69.6382C102.909 69.704 104.159 69.646 105.474 69.646C105.474 73.5612 105.474 77.2557 105.474 81.1671C105.226 80.9386 105.086 80.8418 104.985 80.7179C101.586 76.5741 97.1116 74.4481 91.8768 73.7316C89.2729 73.3753 88.7762 73.8478 88.978 76.4967C89.4631 82.8246 95.117 88.3819 101.481 88.742C102.773 88.8156 104.073 88.7536 105.455 88.7536C105.455 92.8896 105.455 96.832 105.455 101.057C105.001 100.515 104.663 100.104 104.318 99.6978C100.069 94.6827 94.5349 92.2933 88.0855 91.813C86.801 91.7162 86.3354 92.2739 86.3392 93.6913C86.3664 101.231 92.6296 108.094 100.166 108.748C101.889 108.899 103.635 108.771 105.455 108.771C105.455 112.663 105.455 116.304 105.455 120.192C105.094 119.758 104.861 119.483 104.636 119.2C100.391 113.961 94.7639 111.459 88.1515 110.921C86.8748 110.816 86.347 111.385 86.3392 112.737C86.2927 120.277 92.68 127.271 100.243 127.879C101.923 128.015 103.623 127.898 105.428 127.898C105.428 131.984 105.428 135.841 105.428 139.9C104.997 139.362 104.675 138.963 104.353 138.564C99.5913 132.6 93.2427 129.765 85.7611 129.184C84.5348 129.087 84.0303 129.695 84.0265 131.093C83.9915 138.757 90.1538 146.197 97.8023 147.572C99.6456 147.901 101.555 147.866 103.433 147.97C104.093 148.009 104.76 147.978 105.482 147.978C105.482 149.833 105.482 151.506 105.482 153.381C104.943 153.381 104.43 153.381 103.918 153.381C96.3666 153.381 88.815 153.381 81.2635 153.381C79.1758 153.381 78.8032 153.779 79.0826 155.89C80.4292 166.033 81.6593 176.194 83.2038 186.31C84.3447 193.784 91.1084 199.376 98.6988 199.485C103.972 199.558 109.25 199.523 114.527 199.504C123.123 199.477 129.863 193.71 131.043 185.229C132.413 175.381 133.655 165.514 134.947 155.654C135.18 153.88 134.737 153.388 132.929 153.384C125.377 153.377 117.826 153.381 110.274 153.381C109.743 153.377 109.211 153.377 108.513 153.377ZM130.806 163.872C130.806 164.286 130.845 164.619 130.802 164.944C129.918 171.687 129.134 178.448 128.094 185.167C127.027 192.068 121.547 196.576 114.524 196.599C109.347 196.615 104.17 196.638 98.9937 196.592C92.5947 196.534 87.1968 192.142 86.0637 185.83C85.2061 181.039 84.6978 176.187 84.0459 171.357C83.7121 168.891 83.4017 166.42 83.068 163.872C99.0946 163.872 114.935 163.872 130.806 163.872ZM82.1483 156.44C98.7376 156.44 115.319 156.44 131.943 156.44C131.726 157.985 131.528 159.364 131.33 160.789C115.071 160.789 98.8811 160.789 82.6605 160.789C82.4626 159.36 82.2763 158.024 82.0978 156.684C82.0862 156.599 82.1328 156.506 82.1483 156.44ZM109.184 144.896C111.47 138.242 120.732 131.694 126.899 132.375C126.111 140.69 117.729 146.615 109.184 144.896ZM87.0533 132.368C93.9335 132.329 102.731 138.583 104.791 144.915C96.0755 146.468 88.33 141.031 87.0533 132.368ZM109.137 124.947C112.021 118.589 119.153 113.616 124.582 114.108C123.794 121.272 116.584 126.373 109.137 124.947ZM109.145 105.902C111.664 99.7249 119.696 94.1366 124.621 95.0545C123.414 102.42 117.038 106.928 109.145 105.902ZM104.787 105.906C96.6382 106.719 89.1759 101.301 89.5368 94.9383C96.1958 95.5811 102.738 100.255 104.787 105.906ZM104.919 124.982C97.0068 126.094 89.564 120.746 89.498 113.988C96.5373 114.956 101.621 118.581 104.919 124.982ZM122.013 76.6864C121.023 82.875 114.659 87.2743 109.207 85.6362C111.924 80.4971 116.045 77.4339 122.013 76.6864ZM121.947 57.5671C121.408 63.5233 114.042 68.6158 109.227 66.4549C111.962 61.3546 116.091 58.3068 121.947 57.5671ZM92.0863 76.9266C96.3588 76.7639 102.971 80.8612 104.632 85.8066C98.2603 86.5617 92.6063 82.5613 92.0863 76.9266ZM104.667 66.6175C98.885 67.88 92.3386 63.2638 92.1251 57.7724C96.7701 57.6988 103.088 62.1562 104.667 66.6175Z" fill="#8BC93E"/>
</g>
<defs>
<clipPath id="clip0_429:7">
<rect width="56" height="145" fill="white" transform="matrix(-1 0 0 1 135 54.5234)"/>
</clipPath>
</defs>
</svg>
