<svg width="66" height="66" viewBox="0 0 66 66" fill="none" xmlns="http://www.w3.org/2000/svg">
<circle cx="33" cy="33" r="33" fill="#A9E163"/>
<path d="M39.12 26.19C39.12 27.19 38.92 28.2 38.52 29.22C38.12 30.24 37.61 31.24 36.99 32.22C36.39 33.18 35.71 34.12 34.95 35.04C34.21 35.96 33.48 36.81 32.76 37.59L31.05 38.82V38.97L33.36 38.49H39.57V42H25.86V39.9C26.38 39.38 26.96 38.8 27.6 38.16C28.26 37.5 28.92 36.8 29.58 36.06C30.24 35.32 30.88 34.56 31.5 33.78C32.14 32.98 32.7 32.19 33.18 31.41C33.66 30.63 34.05 29.87 34.35 29.13C34.65 28.37 34.8 27.67 34.8 27.03C34.8 26.27 34.57 25.63 34.11 25.11C33.65 24.57 32.86 24.3 31.74 24.3C31.04 24.3 30.33 24.45 29.61 24.75C28.89 25.03 28.27 25.4 27.75 25.86L26.01 22.86C26.87 22.22 27.83 21.68 28.89 21.24C29.95 20.8 31.22 20.58 32.7 20.58C33.62 20.58 34.47 20.7 35.25 20.94C36.05 21.18 36.73 21.53 37.29 21.99C37.87 22.45 38.32 23.04 38.64 23.76C38.96 24.46 39.12 25.27 39.12 26.19Z" fill="white"/>
</svg>
