<svg width="66" height="66" viewBox="0 0 66 66" fill="none" xmlns="http://www.w3.org/2000/svg">
<circle cx="33" cy="33" r="33" fill="#A9E163"/>
<path d="M31.53 38.91C32.21 38.91 32.8 38.83 33.3 38.67C33.82 38.49 34.25 38.25 34.59 37.95C34.93 37.65 35.19 37.31 35.37 36.93C35.55 36.53 35.64 36.12 35.64 35.7C35.64 34.62 35.27 33.82 34.53 33.3C33.81 32.78 32.64 32.52 31.02 32.52H28.65V30.3L32.52 25.56L34.41 24.18L31.83 24.51H26.4V21H38.88V23.25L34.38 28.77L32.91 29.58V29.73L34.29 29.55C35.03 29.61 35.73 29.78 36.39 30.06C37.07 30.34 37.66 30.72 38.16 31.2C38.68 31.68 39.09 32.28 39.39 33C39.69 33.7 39.84 34.52 39.84 35.46C39.84 36.64 39.62 37.67 39.18 38.55C38.76 39.41 38.18 40.13 37.44 40.71C36.7 41.29 35.83 41.72 34.83 42C33.83 42.28 32.75 42.42 31.59 42.42C31.11 42.42 30.62 42.4 30.12 42.36C29.62 42.32 29.13 42.25 28.65 42.15C28.17 42.07 27.71 41.98 27.27 41.88C26.85 41.76 26.48 41.62 26.16 41.46L27.3 37.98C27.86 38.24 28.49 38.46 29.19 38.64C29.89 38.82 30.67 38.91 31.53 38.91Z" fill="white"/>
</svg>
