<svg width="239" height="288" viewBox="0 0 239 288" fill="none" xmlns="http://www.w3.org/2000/svg">
<rect x="0.5" y="0.5" width="212" height="287" rx="26.5" fill="white" stroke="#8FDC2E"/>
<path d="M61.377 245.645H65.7617L68.2812 256.816H68.3203L70.8398 245.645H75.2441V260H72.4805V247.998H72.4414L69.7168 260H66.7969L64.1797 247.998H64.1406V260H61.377V245.645ZM81.5625 252.656L77.1582 245.645H80.7422L83.3203 250.283L85.957 245.645H89.4238L85.0195 252.539L89.7168 260H86.0449L83.3203 255.098L80.4199 260H76.9043L81.5625 252.656ZM90.8594 252.822C90.8594 251.748 91.0026 250.752 91.2891 249.834C91.5755 248.916 92.0052 248.122 92.5781 247.451C93.151 246.774 93.8704 246.243 94.7363 245.859C95.6022 245.475 96.6113 245.283 97.7637 245.283C98.8249 245.283 99.7819 245.475 100.635 245.859C101.488 246.243 102.21 246.774 102.803 247.451C103.402 248.122 103.861 248.916 104.18 249.834C104.499 250.752 104.658 251.748 104.658 252.822C104.658 253.89 104.499 254.886 104.18 255.811C103.861 256.729 103.402 257.526 102.803 258.203C102.21 258.874 101.488 259.401 100.635 259.785C99.7819 260.169 98.8249 260.361 97.7637 260.361C96.6113 260.361 95.6022 260.169 94.7363 259.785C93.8704 259.401 93.151 258.874 92.5781 258.203C92.0052 257.526 91.5755 256.729 91.2891 255.811C91.0026 254.886 90.8594 253.89 90.8594 252.822ZM97.7637 257.764C98.3757 257.764 98.9225 257.64 99.4043 257.393C99.8861 257.145 100.293 256.803 100.625 256.367C100.964 255.924 101.221 255.404 101.396 254.805C101.572 254.199 101.66 253.538 101.66 252.822C101.66 252.106 101.572 251.449 101.396 250.85C101.221 250.244 100.964 249.723 100.625 249.287C100.293 248.844 99.8861 248.499 99.4043 248.252C98.9225 248.005 98.3757 247.881 97.7637 247.881C97.1517 247.881 96.6048 248.005 96.123 248.252C95.6413 248.499 95.2311 248.844 94.8926 249.287C94.5605 249.723 94.3034 250.244 94.1211 250.85C93.9453 251.449 93.8574 252.106 93.8574 252.822C93.8574 253.538 93.9453 254.199 94.1211 254.805C94.3034 255.404 94.5605 255.924 94.8926 256.367C95.2311 256.803 95.6413 257.145 96.123 257.393C96.6048 257.64 97.1517 257.764 97.7637 257.764ZM107.188 245.645H114.229C114.814 245.645 115.329 245.7 115.771 245.811C116.221 245.921 116.608 246.071 116.934 246.26C117.259 246.449 117.533 246.667 117.754 246.914C117.975 247.161 118.151 247.422 118.281 247.695C118.411 247.962 118.503 248.236 118.555 248.516C118.613 248.796 118.643 249.062 118.643 249.316C118.643 249.681 118.61 250.01 118.545 250.303C118.48 250.589 118.376 250.853 118.232 251.094C118.096 251.328 117.913 251.543 117.686 251.738C117.464 251.927 117.197 252.1 116.885 252.256C117.367 252.438 117.754 252.663 118.047 252.93C118.34 253.197 118.564 253.486 118.721 253.799C118.877 254.105 118.981 254.424 119.033 254.756C119.085 255.081 119.111 255.397 119.111 255.703C119.111 256.4 118.984 257.015 118.73 257.549C118.477 258.083 118.118 258.532 117.656 258.896C117.194 259.255 116.631 259.528 115.967 259.717C115.309 259.906 114.577 260 113.77 260H107.188V245.645ZM110.068 257.52H113.809C114.141 257.52 114.447 257.48 114.727 257.402C115.007 257.324 115.247 257.207 115.449 257.051C115.658 256.888 115.817 256.686 115.928 256.445C116.045 256.198 116.104 255.908 116.104 255.576C116.104 255.16 116.035 254.827 115.898 254.58C115.762 254.326 115.579 254.131 115.352 253.994C115.13 253.857 114.876 253.77 114.59 253.73C114.31 253.685 114.023 253.662 113.73 253.662H110.068V257.52ZM110.068 251.299H113.77C114.03 251.299 114.281 251.27 114.521 251.211C114.762 251.152 114.974 251.058 115.156 250.928C115.345 250.791 115.495 250.618 115.605 250.41C115.716 250.202 115.771 249.951 115.771 249.658C115.771 249.352 115.719 249.102 115.615 248.906C115.518 248.704 115.381 248.545 115.205 248.428C115.029 248.311 114.824 248.229 114.59 248.184C114.355 248.138 114.108 248.115 113.848 248.115H110.068V251.299ZM134.6 245.645H137.598V260H134.6V245.645ZM124.639 257.52H127.178C127.451 257.52 127.731 257.5 128.018 257.461C128.311 257.422 128.577 257.337 128.818 257.207C129.066 257.077 129.268 256.885 129.424 256.631C129.58 256.37 129.658 256.025 129.658 255.596C129.658 255.146 129.58 254.795 129.424 254.541C129.274 254.281 129.076 254.085 128.828 253.955C128.581 253.825 128.301 253.743 127.988 253.711C127.682 253.678 127.373 253.662 127.061 253.662H124.639V257.52ZM121.641 245.645H124.639V251.299H127.5C127.715 251.299 127.988 251.305 128.32 251.318C128.659 251.331 129.02 251.38 129.404 251.465C129.788 251.543 130.173 251.67 130.557 251.846C130.941 252.021 131.289 252.272 131.602 252.598C131.914 252.917 132.168 253.327 132.363 253.828C132.559 254.323 132.656 254.935 132.656 255.664C132.656 256.387 132.559 256.995 132.363 257.49C132.168 257.985 131.917 258.395 131.611 258.721C131.312 259.04 130.977 259.287 130.605 259.463C130.241 259.632 129.883 259.759 129.531 259.844C129.186 259.922 128.867 259.967 128.574 259.98C128.288 259.993 128.076 260 127.939 260H121.641V245.645ZM140.527 245.645H151.064V248.115H143.408V251.299H150.449V253.779H143.408V257.402H151.406V260H140.527V245.645Z" fill="#425807"/>
<path d="M160.791 176.067C160.791 178.383 160.745 180.338 160.826 182.283C160.845 182.712 161.214 183.23 161.571 183.525C164.243 185.711 166.953 187.854 169.651 190.009C169.839 190.159 170.032 190.3 170.22 190.45C171.004 191.079 171.304 191.85 170.616 192.678C169.97 193.456 169.198 193.31 168.46 192.72C166.588 191.221 164.708 189.729 162.832 188.237C162.248 187.774 161.656 187.317 160.791 186.646C160.791 188.878 160.791 190.768 160.791 192.655C160.791 193.134 160.818 193.613 160.772 194.089C160.687 194.959 160.249 195.542 159.304 195.523C158.37 195.504 157.92 194.955 157.916 194.043C157.908 192.175 157.908 190.312 157.908 188.445C157.908 187.984 157.908 187.528 157.908 186.711C155.633 188.514 153.626 190.105 151.616 191.696C151.128 192.083 150.651 192.486 150.144 192.85C149.41 193.383 148.533 193.41 148.161 192.613C147.915 192.091 148.041 191.044 148.43 190.642C149.452 189.583 150.713 188.747 151.874 187.823C153.638 186.42 155.41 185.028 157.147 183.59C157.482 183.314 157.855 182.858 157.87 182.474C157.943 180.488 157.905 178.494 157.905 176.151C156.013 177.647 154.376 178.939 152.742 180.231C151.916 180.887 151.093 181.55 150.263 182.198C149.51 182.785 148.729 182.85 148.122 182.045C147.526 181.259 147.757 180.53 148.514 179.928C151.332 177.693 154.172 175.484 156.932 173.18C157.432 172.765 157.824 171.968 157.87 171.316C157.997 169.529 157.912 167.727 157.912 165.572C155.552 167.447 153.465 169.103 151.382 170.76C151.082 170.998 150.782 171.235 150.482 171.477C149.679 172.125 148.826 172.405 148.107 171.45C147.449 170.576 147.884 169.859 148.656 169.249C151.443 167.052 154.241 164.866 156.963 162.593C157.459 162.178 157.824 161.366 157.87 160.71C157.993 158.95 157.912 157.174 157.912 155.104C157.336 155.518 156.924 155.79 156.54 156.093C154.545 157.669 152.554 159.249 150.574 160.844C149.79 161.477 148.968 161.891 148.187 160.967C147.346 159.966 147.968 159.226 148.799 158.57C151.547 156.4 154.307 154.245 156.997 152.006C157.466 151.614 157.831 150.855 157.87 150.242C157.985 148.447 157.912 146.641 157.912 144.486C156.175 145.851 154.691 147.013 153.207 148.179C152.227 148.949 151.251 149.728 150.278 150.506C149.525 151.108 148.768 151.177 148.141 150.38C147.523 149.594 147.745 148.857 148.495 148.263C151.27 146.051 154.026 143.815 156.84 141.652C157.643 141.035 157.985 140.379 157.935 139.363C157.851 137.665 157.912 135.958 157.912 133.907C155.606 135.732 153.557 137.35 151.509 138.972C151.059 139.329 150.617 139.701 150.152 140.042C149.414 140.583 148.549 140.598 148.18 139.793C147.938 139.267 148.053 138.217 148.441 137.833C149.587 136.691 150.947 135.759 152.223 134.743C153.838 133.458 155.483 132.212 157.04 130.858C157.474 130.479 157.843 129.792 157.874 129.229C157.978 127.388 157.912 125.54 157.912 123.331C155.856 124.965 154.076 126.384 152.289 127.799C151.612 128.335 150.947 128.888 150.255 129.405C149.502 129.969 148.703 130.053 148.103 129.248C147.515 128.462 147.776 127.722 148.522 127.128C151.301 124.919 154.042 122.66 156.871 120.521C157.778 119.834 157.97 119.129 157.824 118.082C157.074 112.79 153.496 108.546 148.71 107.365C148.483 107.307 148.249 107.288 147.988 107.246C147.626 123.059 141.365 135.928 128.684 145.429C118.452 153.095 106.817 155.836 94.2364 153.524C68.6139 148.815 55.153 124.516 56.6444 106.552C56.3177 106.571 55.9948 106.536 55.6988 106.609C50.4021 107.875 46.4123 112.641 46.2047 118.059C46.1855 118.596 46.593 119.313 47.0312 119.673C49.7256 121.905 52.4816 124.068 55.2337 126.234C56.0717 126.894 56.6867 127.63 55.891 128.634C55.0646 129.677 54.219 129.133 53.4118 128.485C51.0979 126.625 48.7685 124.785 46.1586 122.703C46.1586 125.114 46.1125 127.227 46.2009 129.336C46.2163 129.689 46.7659 130.065 47.1311 130.356C49.6757 132.4 52.2318 134.421 54.784 136.449C55.0838 136.687 55.3875 136.925 55.6719 137.181C56.3523 137.787 56.4599 138.497 55.891 139.206C55.3106 139.931 54.5765 139.946 53.8615 139.386C51.9396 137.876 50.0331 136.342 48.1151 134.819C47.5577 134.378 46.9966 133.941 46.1432 133.274C46.1432 135.456 46.0971 137.339 46.1855 139.218C46.2009 139.586 46.6929 139.988 47.0465 140.276C49.5488 142.293 52.0703 144.283 54.5841 146.285C54.884 146.522 55.1838 146.764 55.4797 147.005C56.26 147.638 56.5637 148.409 55.8564 149.229C55.1992 149.992 54.4073 149.82 53.6809 149.245C51.6514 147.634 49.6295 146.016 47.6039 144.406C47.2041 144.087 46.8005 143.784 46.1356 143.271C46.1356 145.621 46.0856 147.653 46.1778 149.682C46.1971 150.088 46.6967 150.545 47.0773 150.855C49.7602 153.026 52.4662 155.173 55.1761 157.312C55.991 157.953 56.7097 158.678 55.9179 159.701C55.0608 160.813 54.1575 160.207 53.3157 159.533C51.3708 157.972 49.4181 156.419 47.4655 154.87C47.1042 154.586 46.7236 154.329 46.1317 153.904C46.1317 156.208 46.0894 158.248 46.1701 160.28C46.1855 160.648 46.6391 161.07 46.985 161.35C49.7103 163.551 52.447 165.733 55.1992 167.896C56.0371 168.555 56.6713 169.303 55.9026 170.296C55.1069 171.324 54.2267 170.825 53.4118 170.169C51.0979 168.31 48.7724 166.462 46.1471 164.368C46.1471 166.772 46.1125 168.877 46.1855 170.982C46.1971 171.304 46.666 171.657 46.9889 171.918C49.6026 174.023 52.2356 176.109 54.8609 178.199C55.0492 178.348 55.2376 178.494 55.4259 178.64C56.2139 179.246 56.5675 179.99 55.9064 180.856C55.2299 181.738 54.4419 181.546 53.6578 180.917C51.6014 179.265 49.5334 177.627 47.4655 175.99C47.108 175.71 46.7313 175.453 46.1356 175.024C46.1356 177.332 46.0856 179.372 46.1778 181.404C46.1971 181.811 46.716 182.263 47.1042 182.578C49.6411 184.629 52.2049 186.646 54.7571 188.675C55.0185 188.882 55.2799 189.096 55.5412 189.307C56.2792 189.909 56.5176 190.634 55.8987 191.428C55.2722 192.229 54.5111 192.152 53.7577 191.558C51.7667 189.978 49.7794 188.391 47.7884 186.811C47.3425 186.458 46.8928 186.109 46.124 185.511C46.124 187.317 46.124 188.809 46.124 190.304C46.124 191.309 46.1125 192.314 46.124 193.318C46.1317 194.292 45.682 194.921 44.6903 194.909C43.6986 194.902 43.2566 194.223 43.2489 193.287C43.2335 191.228 43.2412 189.173 43.2412 187.114C43.2412 186.688 43.2412 186.259 43.2412 185.638C42.8491 185.86 42.5685 185.979 42.3418 186.159C40.1201 187.912 37.9022 189.668 35.692 191.435C34.931 192.041 34.143 192.337 33.4242 191.47C32.6632 190.553 33.0975 189.813 33.9162 189.162C36.7376 186.93 39.5704 184.714 42.3341 182.413C42.803 182.026 43.1643 181.266 43.2028 180.653C43.3181 178.847 43.245 177.029 43.245 174.901C41.4731 176.297 39.9125 177.52 38.3558 178.751C37.4525 179.464 36.5492 180.177 35.6536 180.902C34.881 181.527 34.0738 181.742 33.3896 180.871C32.7208 180.02 33.0783 179.269 33.8547 178.651C36.6722 176.416 39.5127 174.207 42.2726 171.903C42.7684 171.489 43.1566 170.687 43.1989 170.035C43.3258 168.248 43.2412 166.45 43.2412 164.326C40.8504 166.22 38.7248 167.903 36.5992 169.587C36.2609 169.855 35.9227 170.123 35.5844 170.392C34.7926 171.013 33.97 171.147 33.3281 170.269C32.7516 169.475 33.0437 168.751 33.7932 168.156C36.6107 165.921 39.4013 163.647 42.2418 161.446C42.9491 160.898 43.3027 160.349 43.2604 159.421C43.1797 157.658 43.2374 155.886 43.2374 153.8C42.1227 154.667 41.2002 155.372 40.2892 156.093C38.7824 157.282 37.2795 158.474 35.7881 159.678C35.0002 160.315 34.1584 160.691 33.3973 159.77C32.6401 158.858 33.1244 158.114 33.9431 157.47C36.6914 155.303 39.3974 153.079 42.1765 150.947C42.9914 150.322 43.3065 149.67 43.2604 148.662C43.1797 146.956 43.2374 145.245 43.2374 143.194C41.7383 144.386 40.4814 145.383 39.2245 146.38C38.1713 147.216 37.1142 148.041 36.0687 148.888C35.2154 149.578 34.2737 150.345 33.3589 149.164C32.4402 147.976 33.478 147.274 34.316 146.607C35.8919 145.353 37.4679 144.099 39.0438 142.845C39.1207 142.784 39.1976 142.73 39.2706 142.669C43.591 139.229 43.591 139.229 43.1413 133.458C42.8338 133.635 42.5532 133.75 42.3225 133.93C40.1008 135.682 37.883 137.442 35.6767 139.21C34.9156 139.82 34.1315 140.119 33.4127 139.252C32.6516 138.34 33.0706 137.592 33.8932 136.94C36.7145 134.708 39.5473 132.492 42.311 130.191C42.7799 129.8 43.1451 129.045 43.1835 128.435C43.2989 126.637 43.2258 124.827 43.2258 122.683C41.8421 123.769 40.6928 124.658 39.5512 125.559C38.1943 126.629 36.8452 127.707 35.4922 128.776C34.7349 129.375 33.97 129.432 33.355 128.627C32.7516 127.837 32.9783 127.116 33.7356 126.514C36.553 124.275 39.3513 122.016 42.1842 119.804C42.8684 119.271 43.2066 118.722 43.2912 117.806C44.2636 107.05 54.8301 100.509 64.6087 104.592C65.289 104.876 65.8694 105.409 66.4883 105.835C66.5613 105.885 66.5728 106.019 66.642 106.072C67.2801 106.556 72.7075 106.203 73.2917 105.62C82.1978 96.7585 91.1076 87.9047 99.9752 79.0049C100.41 78.5678 100.648 77.7549 100.656 77.1107C100.713 72.7087 100.682 68.3067 100.694 63.9047C100.694 63.3833 100.621 62.7659 100.863 62.3671C101.113 61.953 101.72 61.5159 102.158 61.5235C102.597 61.5312 103.181 61.9952 103.419 62.417C103.654 62.8273 103.561 63.4408 103.561 63.9623C103.569 68.3182 103.527 72.6703 103.604 77.0263C103.615 77.7433 103.942 78.6406 104.438 79.1391C113.198 87.943 122 96.7048 130.829 105.436C131.275 105.877 132.048 106.007 132.689 106.222C132.947 106.31 133.262 106.23 133.55 106.237C135.703 106.299 137.694 106.007 139.785 105.156C149.425 101.237 159.646 107.821 160.764 118.423C160.837 119.117 161.291 119.938 161.829 120.39C164.474 122.611 167.195 124.735 169.909 126.874C170.727 127.522 171.431 128.255 170.647 129.263C169.789 130.368 168.878 129.75 168.041 129.079C165.723 127.223 163.401 125.379 160.795 123.305C160.795 125.69 160.76 127.802 160.833 129.911C160.845 130.23 161.314 130.579 161.633 130.839C164.397 133.063 167.168 135.283 169.959 137.477C170.8 138.14 171.415 138.869 170.612 139.869C169.782 140.909 168.932 140.356 168.129 139.708C165.784 137.83 163.424 135.962 160.784 133.861C160.784 136.25 160.741 138.324 160.826 140.391C160.841 140.755 161.337 141.154 161.691 141.438C164.493 143.696 167.306 145.932 170.128 148.163C170.896 148.773 171.315 149.482 170.658 150.368C170.005 151.254 169.217 151.124 168.417 150.483C166.172 148.685 163.912 146.898 161.66 145.111C161.448 144.946 161.222 144.804 160.78 144.498C160.78 146.775 160.73 148.815 160.822 150.848C160.841 151.254 161.345 151.71 161.725 152.021C164.297 154.107 166.891 156.154 169.482 158.217C169.743 158.428 170.009 158.635 170.266 158.85C170.989 159.456 171.258 160.192 170.631 160.974C170.001 161.76 169.205 161.661 168.471 161.082C166.476 159.51 164.493 157.914 162.506 156.331C162.025 155.951 161.545 155.575 160.787 154.985C160.787 157.343 160.745 159.414 160.826 161.484C160.841 161.849 161.314 162.259 161.664 162.543C164.462 164.801 167.291 167.025 170.089 169.284C171.081 170.085 171.231 171.078 170.485 171.699C169.709 172.347 168.982 172.071 168.283 171.512C165.888 169.594 163.486 167.685 160.818 165.56C160.818 167.957 160.784 170.112 160.857 172.267C160.868 172.574 161.391 172.892 161.721 173.157C164.454 175.35 167.187 177.539 169.943 179.706C170.777 180.361 171.427 181.082 170.631 182.095C169.816 183.13 168.952 182.612 168.14 181.96C165.803 180.051 163.443 178.18 160.791 176.067ZM144.913 109.171C116.342 109.171 87.8827 109.171 59.4196 109.171C59.5964 130.26 77.6544 151.078 101.632 151.373C125.732 151.676 144.532 131.131 144.913 109.171ZM103.723 83.0081C103.723 90.5505 103.723 98.3421 103.723 106.13C111.614 106.13 119.371 106.13 126.974 106.13C119.221 98.4188 111.43 90.6732 103.723 83.0081ZM77.3315 106.134C84.9922 106.134 92.7527 106.134 100.602 106.134C100.602 98.3153 100.602 90.5697 100.602 82.9429C92.8411 90.677 85.0729 98.4188 77.3315 106.134Z" fill="#8BC93E"/>
</svg>
