<svg width="213" height="288" viewBox="0 0 213 288" fill="none" xmlns="http://www.w3.org/2000/svg">
<rect x="0.5" y="0.5" width="212" height="287" rx="26.5" fill="white" stroke="#8FDC2E"/>
<path d="M29.377 245.645H41.0176V260H38.0195V248.115H32.3848V260H29.377V245.645ZM47.9707 245.645H51.3984L56.4766 260H53.2148L52.2969 257.041H46.9941L45.998 260H42.834L47.9707 245.645ZM47.7949 254.561H51.457L49.6699 248.877H49.6309L47.7949 254.561ZM58.2832 245.645H69.9238V260H66.9258V248.115H61.291V260H58.2832V245.645ZM72.2188 252.822C72.2188 251.748 72.362 250.752 72.6484 249.834C72.9349 248.916 73.3646 248.122 73.9375 247.451C74.5104 246.774 75.2298 246.243 76.0957 245.859C76.9616 245.475 77.9707 245.283 79.123 245.283C80.1842 245.283 81.1413 245.475 81.9941 245.859C82.847 246.243 83.5697 246.774 84.1621 247.451C84.7611 248.122 85.2201 248.916 85.5391 249.834C85.8581 250.752 86.0176 251.748 86.0176 252.822C86.0176 253.89 85.8581 254.886 85.5391 255.811C85.2201 256.729 84.7611 257.526 84.1621 258.203C83.5697 258.874 82.847 259.401 81.9941 259.785C81.1413 260.169 80.1842 260.361 79.123 260.361C77.9707 260.361 76.9616 260.169 76.0957 259.785C75.2298 259.401 74.5104 258.874 73.9375 258.203C73.3646 257.526 72.9349 256.729 72.6484 255.811C72.362 254.886 72.2188 253.89 72.2188 252.822ZM79.123 257.764C79.735 257.764 80.2819 257.64 80.7637 257.393C81.2454 257.145 81.6523 256.803 81.9844 256.367C82.3229 255.924 82.5801 255.404 82.7559 254.805C82.9316 254.199 83.0195 253.538 83.0195 252.822C83.0195 252.106 82.9316 251.449 82.7559 250.85C82.5801 250.244 82.3229 249.723 81.9844 249.287C81.6523 248.844 81.2454 248.499 80.7637 248.252C80.2819 248.005 79.735 247.881 79.123 247.881C78.5111 247.881 77.9642 248.005 77.4824 248.252C77.0007 248.499 76.5905 248.844 76.252 249.287C75.9199 249.723 75.6628 250.244 75.4805 250.85C75.3047 251.449 75.2168 252.106 75.2168 252.822C75.2168 253.538 75.3047 254.199 75.4805 254.805C75.6628 255.404 75.9199 255.924 76.252 256.367C76.5905 256.803 77.0007 257.145 77.4824 257.393C77.9642 257.64 78.5111 257.764 79.123 257.764ZM88.5469 245.645H95.0703C95.832 245.645 96.4928 245.749 97.0527 245.957C97.6191 246.165 98.0879 246.468 98.459 246.865C98.8301 247.262 99.1068 247.744 99.2891 248.311C99.4714 248.877 99.5625 249.521 99.5625 250.244C99.5625 250.915 99.4551 251.533 99.2402 252.1C99.0254 252.66 98.7129 253.145 98.3027 253.555C97.8991 253.958 97.4043 254.274 96.8184 254.502C96.2324 254.73 95.5684 254.844 94.8262 254.844H91.5449V260H88.5469V245.645ZM91.5449 252.363H94.3867C95.0638 252.363 95.5944 252.197 95.9785 251.865C96.3691 251.533 96.5645 250.993 96.5645 250.244C96.5645 249.867 96.5124 249.544 96.4082 249.277C96.3105 249.01 96.1673 248.792 95.9785 248.623C95.7962 248.447 95.5684 248.32 95.2949 248.242C95.028 248.158 94.7253 248.115 94.3867 248.115H91.5449V252.363ZM101.125 252.822C101.125 251.748 101.268 250.752 101.555 249.834C101.841 248.916 102.271 248.122 102.844 247.451C103.417 246.774 104.136 246.243 105.002 245.859C105.868 245.475 106.877 245.283 108.029 245.283C109.09 245.283 110.048 245.475 110.9 245.859C111.753 246.243 112.476 246.774 113.068 247.451C113.667 248.122 114.126 248.916 114.445 249.834C114.764 250.752 114.924 251.748 114.924 252.822C114.924 253.89 114.764 254.886 114.445 255.811C114.126 256.729 113.667 257.526 113.068 258.203C112.476 258.874 111.753 259.401 110.9 259.785C110.048 260.169 109.09 260.361 108.029 260.361C106.877 260.361 105.868 260.169 105.002 259.785C104.136 259.401 103.417 258.874 102.844 258.203C102.271 257.526 101.841 256.729 101.555 255.811C101.268 254.886 101.125 253.89 101.125 252.822ZM108.029 257.764C108.641 257.764 109.188 257.64 109.67 257.393C110.152 257.145 110.559 256.803 110.891 256.367C111.229 255.924 111.486 255.404 111.662 254.805C111.838 254.199 111.926 253.538 111.926 252.822C111.926 252.106 111.838 251.449 111.662 250.85C111.486 250.244 111.229 249.723 110.891 249.287C110.559 248.844 110.152 248.499 109.67 248.252C109.188 248.005 108.641 247.881 108.029 247.881C107.417 247.881 106.87 248.005 106.389 248.252C105.907 248.499 105.497 248.844 105.158 249.287C104.826 249.723 104.569 250.244 104.387 250.85C104.211 251.449 104.123 252.106 104.123 252.822C104.123 253.538 104.211 254.199 104.387 254.805C104.569 255.404 104.826 255.924 105.158 256.367C105.497 256.803 105.907 257.145 106.389 257.393C106.87 257.64 107.417 257.764 108.029 257.764ZM116.057 245.645H127.814V248.115H123.43V260H120.432V248.115H116.057V245.645ZM129.455 245.645H132.463V251.104H138.098V245.645H141.096V260H138.098V253.584H132.463V260H129.455V245.645ZM143.908 245.645H146.789V255.42H146.828L152.512 245.645H155.549V260H152.668V250.283H152.629L146.955 260H143.908V245.645ZM158.703 245.645H161.701V251.484L167.189 245.645H171.066L165.207 251.523L171.408 260H167.609L163.166 253.643L161.701 255.137V260H158.703V245.645ZM172.814 245.645H175.695V255.42H175.734L181.418 245.645H184.455V260H181.574V250.283H181.535L175.861 260H172.814V245.645Z" fill="#425807"/>
<g clip-path="url(#clip0_429:8)">
<path d="M81.8578 116.067C81.7661 118.297 81.524 120.532 81.6267 122.751C81.7478 125.405 82.1109 128.047 82.4703 130.683C82.7747 132.906 82.0192 134.209 79.8662 134.783C78.7183 135.089 77.5666 135.387 76.404 135.619C74.13 136.068 72.4466 134.555 72.6666 132.17C73.0334 128.239 73.4918 124.319 73.91 120.395C73.9613 119.899 73.9943 119.398 73.7889 118.765C73.5542 119.151 73.2938 119.527 73.0884 119.932C71.1849 123.638 70.488 127.639 70.2936 131.754C70.1579 134.628 68.7862 135.758 65.9438 135.416C63.138 135.078 60.7393 133.97 58.9385 131.78C57.6512 130.215 56.1401 129.888 54.2842 130.466C53.6901 130.65 53.0079 130.812 52.4211 130.694C50.7119 130.352 50.2865 128.401 51.6215 127.061C53.6277 125.048 55.6816 123.082 57.7172 121.102C64.9462 114.072 72.1825 107.046 79.4078 100.012C84.0034 95.5362 91.4671 95.4663 95.828 100.122C100.853 105.485 102.287 111.79 99.8881 118.842C99.2976 120.576 98.1533 121.466 96.7302 121.441C95.2961 121.415 94.2289 120.506 93.675 118.735C92.7104 115.669 91.1517 112.975 88.6943 110.782C88.8447 111.175 88.9988 111.565 89.1491 111.959C90.6712 115.942 92.1713 119.928 93.719 123.899C94.2288 125.202 94.2105 126.369 93.3449 127.529C93.1139 127.838 92.9965 128.393 93.0919 128.769C95.5089 138.512 97.9589 148.247 100.409 157.982C100.442 158.107 100.519 158.221 100.592 158.376C103.38 158.376 106.163 158.376 109.175 158.376C109.175 157.864 109.175 157.382 109.175 156.904C109.175 141.519 109.167 126.134 109.189 110.748C109.189 109.85 109.028 109.276 108.159 108.772C106.941 108.069 105.874 107.097 104.755 106.218C103.174 104.973 102.804 103.737 103.519 101.863C105.28 97.2367 107.073 92.6248 108.848 88.0056C108.991 87.6376 109.098 87.2548 109.219 86.8793C109.046 86.7284 108.874 86.5775 108.701 86.4266C108.364 86.964 108.082 87.5455 107.682 88.0314C105.639 90.5011 104.19 93.28 103.218 96.3349C102.598 98.2857 100.922 99.2979 99.1985 98.6022C98.3586 98.2636 97.4711 97.4686 97.0933 96.6552C93.8548 89.6214 96.103 79.8898 102.019 74.8878C106.952 70.7139 114.375 71.0047 119.03 75.5319C128.98 85.223 138.938 94.9068 148.892 104.594C149.251 104.944 149.787 105.268 149.897 105.691C150.087 106.427 150.315 107.443 149.966 107.958C149.574 108.54 148.367 109.169 147.847 108.96C144.667 107.668 142.514 108.845 140.401 111.231C138.424 113.465 135.582 114.138 132.666 114.212C130.649 114.263 129.358 112.872 129.273 110.701C129.09 106.026 128.338 101.484 126.196 97.2661C125.929 96.7361 125.62 96.2245 125.316 95.7129C125.283 95.654 125.162 95.6503 124.821 95.5252C125.067 97.9839 125.283 100.325 125.536 102.662C125.826 105.353 126.167 108.039 126.449 110.734C126.699 113.111 124.883 114.797 122.507 114.37C121.34 114.16 120.192 113.833 119.041 113.549C116.312 112.879 115.582 111.606 115.927 108.86C116.36 105.404 116.697 101.93 116.847 98.4513C116.935 96.427 116.576 94.3842 116.418 92.3488C116.29 92.3414 116.162 92.3341 116.029 92.323C115.597 94.502 115.164 96.6772 114.738 98.8562C114.254 101.33 113.818 103.818 113.275 106.28C113.114 107.013 112.648 107.675 112.347 108.382C112.178 108.783 111.936 109.206 111.936 109.622C111.918 125.651 111.922 141.681 111.925 157.706C111.925 157.883 111.969 158.063 112.017 158.42C112.784 158.42 113.543 158.42 114.306 158.42C117.874 158.42 121.443 158.431 125.012 158.413C125.991 158.409 126.805 158.623 126.801 159.789C126.798 160.945 125.98 161.192 125.004 161.177C124.183 161.166 123.361 161.173 122.364 161.173C122.213 162.513 122.048 163.809 121.927 165.108C121.256 172.282 120.581 179.459 119.943 186.636C119.829 187.91 119.327 188.521 117.97 188.517C109.046 188.484 100.123 188.484 91.1994 188.521C89.824 188.524 89.3435 187.873 89.2298 186.629C88.4926 178.539 87.7334 170.449 86.9779 162.359C86.9449 162.002 86.8715 161.652 86.7981 161.173C85.8409 161.173 84.935 161.17 84.0327 161.173C83.0828 161.181 82.3676 160.827 82.3639 159.786C82.3603 158.74 83.0645 158.409 84.0254 158.413C88.2799 158.424 92.5381 158.417 96.7926 158.417C97.0163 158.417 97.24 158.383 97.6288 158.354C95.2595 148.873 92.9085 139.461 90.5208 129.914C90.1467 130.142 89.857 130.311 89.5746 130.491C87.4877 131.813 85.2431 130.948 84.7222 128.5C83.8603 124.466 83.1085 120.406 82.3126 116.358C82.2942 116.269 82.2576 116.185 82.2282 116.1C82.1109 116.089 81.9862 116.078 81.8578 116.067ZM119.55 161.254C109.512 161.254 99.6533 161.254 89.6369 161.254C90.4071 169.448 91.17 177.552 91.9366 185.679C100.438 185.679 108.79 185.679 117.254 185.679C118.017 177.541 118.777 169.466 119.55 161.254ZM100.093 96.4159C100.449 95.654 100.691 95.2418 100.838 94.8001C101.931 91.4875 103.556 88.462 105.94 85.9334C106.813 85.0059 107.986 84.2109 109.175 83.7692C110.792 83.1692 112.032 84.1483 112.017 85.8745C112.01 86.9014 111.771 87.9725 111.408 88.9368C109.714 93.4898 107.935 98.006 106.218 102.548C106.075 102.92 105.995 103.601 106.196 103.774C107.425 104.83 108.745 105.783 110.187 106.887C110.389 106.273 110.539 105.949 110.605 105.607C111.445 101.333 112.23 97.049 113.121 92.7831C113.447 91.2262 113.869 89.6472 114.526 88.2081C115.292 86.5297 117.02 86.5775 117.911 88.2044C118.237 88.797 118.435 89.4742 118.604 90.1367C120.024 95.7092 119.782 101.333 119.033 106.961C118.546 110.62 118.505 110.616 122.074 111.473C122.206 111.507 122.342 111.532 122.474 111.565C123.453 111.827 123.79 111.532 123.658 110.461C123.145 106.273 122.65 102.077 122.268 97.8735C122.136 96.4306 122.21 94.9216 122.492 93.5045C122.635 92.7794 123.346 91.8298 123.992 91.6384C124.63 91.4507 125.62 91.9439 126.251 92.415C126.878 92.8862 127.297 93.6738 127.722 94.3768C130.656 99.2132 131.764 104.561 131.969 110.134C132.01 111.271 132.373 111.525 133.447 111.404C135.677 111.157 137.617 110.366 139.125 108.68C140.915 106.678 142.87 105.099 145.936 105.551C145.562 105.007 145.096 104.708 144.707 104.329C135.501 95.389 126.306 86.4377 117.108 77.4863C113.297 73.7762 107.15 73.7357 103.321 77.398C98.7878 81.7375 97.1226 89.0362 99.3306 94.9363C99.4846 95.3412 99.723 95.7019 100.093 96.4159ZM79.8369 131.964C79.7856 131.5 79.7636 131.231 79.7195 130.966C78.9933 126.513 78.4982 122.041 79.0594 117.536C79.2904 115.68 79.6645 113.818 80.2404 112.048C80.4531 111.389 81.414 110.583 82.0522 110.568C82.6794 110.553 83.5156 111.341 83.9154 111.989C84.3995 112.78 84.5975 113.781 84.7883 114.72C85.6392 118.897 86.4387 123.086 87.2676 127.267C87.341 127.632 87.4877 127.985 87.649 128.485C88.6943 127.694 89.5342 126.984 90.4438 126.384C91.225 125.869 91.3791 125.361 91.0123 124.455C89.3729 120.373 87.7994 116.266 86.2407 112.154C85.9693 111.433 85.7602 110.653 85.7199 109.887C85.6098 107.929 87.0476 106.784 88.841 107.535C89.8937 107.977 90.8913 108.765 91.6688 109.618C93.697 111.838 95.1421 114.44 96.103 117.304C96.2571 117.76 96.4441 118.202 96.7082 118.89C97.0126 118.378 97.1997 118.132 97.3134 117.856C99.4956 112.5 97.7095 105.205 93.3119 101.48C89.9193 98.6059 84.5902 98.7936 81.4103 101.889C73.0994 109.975 64.7885 118.062 56.4628 126.134C56.1144 126.472 55.6413 126.678 55.2232 126.943C55.3075 127.098 55.3919 127.252 55.4762 127.403C57.9886 127.131 59.6684 128.463 61.1905 130.16C62.8483 132.008 64.9462 132.755 67.3301 132.659C67.6749 130.12 67.9023 127.701 68.3534 125.324C69.0063 121.864 70.3083 118.643 72.4245 115.798C73.048 114.959 73.8219 114.282 74.9809 114.584C76.1509 114.885 76.4847 115.868 76.58 116.902C76.6864 118.04 76.7634 119.199 76.668 120.329C76.4406 122.979 76.0885 125.622 75.8098 128.268C75.6484 129.796 75.5237 131.327 75.3697 133.038C76.9835 132.652 78.3515 132.324 79.8369 131.964Z" fill="#8BC93E"/>
<path d="M132.112 63.2567C136.062 61.5893 140.009 59.9257 143.959 58.262C145.011 57.8166 146.056 57.3566 147.124 56.948C148.558 56.3996 149.838 56.683 150.857 57.8424C151.822 58.9466 152.757 60.0803 153.656 61.2397C155.347 63.426 154.448 66.0061 151.741 66.6502C147.384 67.6882 143.016 68.6672 138.651 69.6757C138.307 69.7567 137.973 69.8745 137.647 70.0732C141.619 70.8167 145.591 70.6401 149.552 70.11C151.272 69.8782 152.974 69.5211 154.683 69.2193C156.674 68.866 158.108 69.6978 158.71 71.6265C159.121 72.9368 159.484 74.2655 159.803 75.6053C160.404 78.1376 158.699 80.011 156.055 79.7865C152.09 79.4515 148.125 79.1166 144.157 78.8185C143.177 78.7449 142.187 78.8074 140.834 78.8074C143.775 80.6146 146.64 81.6047 149.662 82.0501C151.917 82.3814 154.21 82.4954 156.487 82.6206C158.728 82.7457 160.056 84.0487 159.997 86.3049C159.913 89.555 158.937 92.4958 156.458 94.6821C154.566 96.3494 154.14 98.1824 155.101 100.453C155.603 101.646 155.666 102.802 154.43 103.626C153.443 104.285 152.427 104.002 151.173 102.78C141.12 92.9964 131.07 83.2095 121.014 73.43C116.227 68.774 115.879 60.9894 120.24 55.9616C125.235 50.2014 134.067 47.9709 141.189 50.6651C142.935 51.3277 143.768 52.5423 143.57 54.2243C143.394 55.7187 142.47 56.5726 141.09 57.0327C138.098 58.0301 135.442 59.6165 133.099 61.7292C132.827 61.9721 132.567 62.2334 132.321 62.5058C132.174 62.6714 132.068 62.8739 131.943 63.0579C132.002 63.1205 132.057 63.1904 132.112 63.2567ZM141.289 53.8268C140.533 53.4624 140.17 53.2379 139.777 53.1017C133.803 51.0406 126.493 52.9913 122.338 57.743C118.949 61.6188 119.169 67.7839 122.844 71.3651C132.237 80.5116 141.637 89.6543 151.034 98.7971C151.276 99.0326 151.554 99.2314 152.038 99.6326C151.305 96.6549 152.512 94.6379 154.393 92.9007C156.209 91.2223 157.056 89.117 157.254 86.684C157.331 85.7492 157.045 85.3995 156.055 85.359C153.865 85.267 151.664 85.1492 149.5 84.8179C145.481 84.2033 141.663 82.9298 138.387 80.4416C137.735 79.9448 137.21 78.87 137.188 78.0492C137.159 76.8935 138.266 76.3524 139.308 76.2899C141.351 76.161 143.412 76.0764 145.455 76.1905C149.016 76.3856 152.57 76.7352 156.124 77.0407C156.99 77.1143 157.342 76.8567 157.06 75.9476C156.762 74.9832 156.451 74.0189 156.267 73.0288C156.08 72.0056 155.622 71.8252 154.643 72.035C149.882 73.0546 145.059 73.6251 140.196 73.2239C138.032 73.0472 135.871 72.5393 133.77 71.9688C133.194 71.8105 132.534 70.9087 132.457 70.283C132.391 69.7493 132.985 68.9212 133.513 68.5752C134.335 68.0378 135.321 67.6882 136.286 67.4563C140.951 66.33 145.631 65.27 150.3 64.1731C150.802 64.0554 151.279 63.8345 151.972 63.5879C150.971 62.3402 150.076 61.3059 149.277 60.2017C148.738 59.4545 148.206 59.4361 147.41 59.7821C142.924 61.7292 138.424 63.6431 133.905 65.5203C133.117 65.8478 132.244 66.076 131.397 66.1202C129.273 66.227 128.202 64.7878 129.042 62.8113C129.512 61.7108 130.293 60.6655 131.155 59.8263C133.583 57.467 136.462 55.7886 139.634 54.6145C140.078 54.4415 140.489 54.2059 141.289 53.8268Z" fill="#8BC93E"/>
<path d="M67.6854 88.7563C65.4665 86.2902 63.0605 84.7812 60.3648 83.6954C59.9833 83.5408 59.5946 83.4046 59.2131 83.2537C57.7094 82.6611 56.9869 81.7041 56.9795 80.2944C56.9685 78.8516 57.7241 77.7805 59.3048 77.2542C65.5032 75.2041 71.2211 76.1795 76.3742 80.1951C81.5309 84.218 82.7449 90.1255 79.6311 95.8931C79.2239 96.6439 78.6701 97.3543 78.0576 97.9506C68.8738 106.917 59.6679 115.864 50.4621 124.812C50.1026 125.162 49.7542 125.699 49.3324 125.776C48.5916 125.916 47.6306 126.023 47.0695 125.662C46.5633 125.338 46.413 124.381 46.2149 123.675C46.1415 123.413 46.3433 123.056 46.4716 122.762C47.3372 120.737 46.9374 119.1 45.2503 117.605C43.079 115.684 42.1695 113.104 42.0081 110.244C41.8724 107.793 43.1157 106.409 45.5767 106.398C49.4058 106.379 53.1468 105.908 56.7118 104.421C57.4196 104.127 58.0982 103.762 58.7547 103.118C58.2559 103.118 57.7534 103.085 57.2583 103.122C53.4292 103.431 49.6002 103.762 45.7674 104.064C43.1267 104.274 41.5973 102.474 42.2318 99.9123C42.4739 98.9333 42.76 97.9653 43.035 96.9936C43.7282 94.5202 44.9532 93.8724 47.5609 94.2699C50.6748 94.741 53.8106 95.0944 56.9465 95.3851C58.4649 95.525 60.0053 95.4109 61.5348 95.4109C61.5494 95.2342 61.5641 95.0539 61.5788 94.8772C59.4955 94.384 57.4123 93.8871 55.3254 93.4013C53.4109 92.9522 51.4853 92.5584 49.5855 92.0615C47.0438 91.3953 46.2479 89.0323 47.8433 86.9417C48.5109 86.0657 49.2297 85.2302 49.9303 84.3836C51.401 82.6133 52.4096 82.3446 54.4892 83.2206C58.575 84.9431 62.6534 86.6841 66.7319 88.414C66.9262 88.5023 67.1316 88.5612 67.6854 88.7563ZM44.7515 101.23C45.1916 101.271 45.4557 101.329 45.7088 101.311C49.4461 101.013 53.1835 100.63 56.9245 100.428C58.4539 100.343 60.0494 100.446 61.5311 100.81C63.3576 101.256 63.6987 102.953 62.3453 104.281C61.7658 104.848 61.058 105.316 60.3464 105.713C55.9672 108.164 51.2139 109.169 46.2442 109.114C44.8505 109.099 44.6231 109.615 44.8028 110.818C45.0706 112.6 45.6794 114.186 46.9778 115.463C48.6356 117.097 50.154 118.798 49.5305 121.798C50.2603 121.131 50.6601 120.789 51.0379 120.421C59.3195 112.364 67.5974 104.307 75.8754 96.2501C79.345 92.8712 79.4917 87.0337 76.0807 83.607C72.5341 80.0478 68.2099 78.5167 63.2109 79.1277C62.0336 79.2712 60.8893 79.7055 59.7303 80.0037C59.7303 80.1509 59.7303 80.2944 59.7266 80.4417C60.1631 80.6257 60.5922 80.8208 61.036 80.9901C63.8931 82.0759 66.4825 83.6254 68.65 85.786C69.4349 86.57 70.1208 87.5637 70.5242 88.5943C71.2101 90.3426 70.1061 91.7707 68.2356 91.6345C67.348 91.572 66.4458 91.2665 65.6132 90.9242C61.6008 89.2642 57.614 87.5417 53.6053 85.878C53.2385 85.7271 52.5746 85.6277 52.3876 85.8265C51.4413 86.8386 50.6051 87.9576 49.6112 89.1869C50.231 89.3673 50.5684 89.485 50.9132 89.566C55.4941 90.6518 60.0824 91.6934 64.6449 92.8418C65.903 93.1583 67.3223 93.5742 67.4324 95.26C67.5057 96.3568 66.4054 97.1261 64.3919 97.5383C59.1985 98.5983 54.0197 98.256 48.8446 97.3653C47.8764 97.1997 46.9044 97.0525 45.8921 96.8905C45.4924 98.4217 45.1366 99.7725 44.7515 101.23Z" fill="#8BC93E"/>
</g>
<defs>
<clipPath id="clip0_429:8">
<rect width="118" height="139" fill="white" transform="translate(42 49.5234)"/>
</clipPath>
</defs>
</svg>
