<svg width="355" height="26" viewBox="0 0 355 26" fill="none" xmlns="http://www.w3.org/2000/svg">
<path d="M328.715 0.00141765L328.715 25.2871C342.681 25.2871 354.001 13.9678 354.001 0.00141649L328.715 0.00141765Z" fill="#A9E163" fill-opacity="0.2"/>
<path fill-rule="evenodd" clip-rule="evenodd" d="M25.2857 0.000537129L25.2857 2.40218e-06L50.5714 0C50.5714 13.9664 39.2521 25.2857 25.2857 25.2857L25.2857 25.2862L0 25.2862C0 11.3199 11.3193 0.000536518 25.2857 0.000537129Z" fill="#A9E163"/>
<path fill-rule="evenodd" clip-rule="evenodd" d="M75.8599 0.00249025L75.8599 0.00195553L101.146 0.00195312C101.146 13.9683 89.8263 25.2876 75.8599 25.2876L75.8599 25.2882L50.5742 25.2882C50.5742 11.3218 61.8936 0.00248964 75.8599 0.00249025Z" fill="#A9E163"/>
<path fill-rule="evenodd" clip-rule="evenodd" d="M126.432 0.00249025L126.432 0.00195553L151.718 0.00195312C151.718 13.9683 140.399 25.2876 126.432 25.2876L126.432 25.2882L101.146 25.2882C101.146 11.3218 112.466 0.00248964 126.432 0.00249025Z" fill="#A9E163"/>
<path fill-rule="evenodd" clip-rule="evenodd" d="M177.001 0.00249025L177.001 0.00195553L202.286 0.00195312C202.286 13.9683 190.967 25.2876 177.001 25.2876L177.001 25.2882L151.715 25.2882C151.715 11.3218 163.034 0.00248964 177.001 0.00249025Z" fill="#A9E163"/>
<path fill-rule="evenodd" clip-rule="evenodd" d="M227.571 0.00249025L227.571 0.00195553L252.857 0.00195312C252.857 13.9683 241.537 25.2876 227.571 25.2876L227.571 25.2882L202.285 25.2882C202.285 11.3218 213.604 0.00248964 227.571 0.00249025Z" fill="#A9E163"/>
<path d="M328.715 25.2876L328.715 0.00195312C314.748 0.00195251 303.429 11.3213 303.429 25.2876L328.715 25.2876Z" fill="#A9E163" fill-opacity="0.2"/>
<path fill-rule="evenodd" clip-rule="evenodd" d="M278.143 0.00249025L278.143 0.00195547L303.429 0.00195312C303.429 13.9683 292.109 25.2876 278.143 25.2876L278.143 25.2882L252.857 25.2882C252.857 11.3218 264.177 0.00248964 278.143 0.00249025Z" fill="#A9E163"/>
</svg>
