<svg width="355" height="26" viewBox="0 0 355 26" fill="none" xmlns="http://www.w3.org/2000/svg">
<path fill-rule="evenodd" clip-rule="evenodd" d="M25.2857 0.000556203L25.2857 0H50.5714C50.5714 13.9664 39.2521 25.2857 25.2857 25.2857L25.2857 25.2863L0 25.2863C0 11.3199 11.3193 0.000555592 25.2857 0.000556203Z" fill="#A9E163"/>
<path fill-rule="evenodd" clip-rule="evenodd" d="M75.858 25.2857L50.5723 25.2857C50.5723 11.3193 61.8916 0 75.858 0L75.858 0.00139756L101.144 0.00139639C101.144 13.9678 89.8244 25.2871 75.858 25.2871L75.858 25.2857Z" fill="#A9E163"/>
<path fill-rule="evenodd" clip-rule="evenodd" d="M126.43 25.2857L101.145 25.2857C101.145 11.3193 112.464 0 126.43 0L126.43 0.00139756L151.716 0.00139639C151.716 13.9678 140.397 25.2871 126.43 25.2871L126.43 25.2857Z" fill="#A9E163"/>
<path fill-rule="evenodd" clip-rule="evenodd" d="M177.001 25.2857L151.715 25.2857C151.715 11.3193 163.034 0 177.001 0L177.001 0.00139756L202.286 0.00139639C202.286 13.9678 190.967 25.2871 177.001 25.2871L177.001 25.2857Z" fill="#A9E163"/>
<path fill-rule="evenodd" clip-rule="evenodd" d="M227.573 25.2857L202.287 25.2857C202.287 11.3193 213.606 0 227.573 0L227.573 0.00139756L252.859 0.00139639C252.859 13.9678 241.539 25.2871 227.573 25.2871L227.573 25.2857Z" fill="#A9E163" fill-opacity="0.2"/>
<path fill-rule="evenodd" clip-rule="evenodd" d="M328.715 25.2857L303.43 25.2857C303.43 11.3193 314.749 0 328.715 0L328.715 0.00139756L354.001 0.00139639C354.001 13.9678 342.682 25.2871 328.715 25.2871L328.715 25.2857Z" fill="#A9E163" fill-opacity="0.2"/>
<path fill-rule="evenodd" clip-rule="evenodd" d="M278.145 25.2857L252.859 25.2857C252.859 11.3193 264.179 0 278.145 0L278.145 0.0013973L303.431 0.00139614C303.431 13.9678 292.111 25.2871 278.145 25.2871L278.145 25.2857Z" fill="#A9E163" fill-opacity="0.2"/>
</svg>
