<svg width="360" height="27" viewBox="0 0 360 27" fill="none" xmlns="http://www.w3.org/2000/svg">
<path fill-rule="evenodd" clip-rule="evenodd" d="M25.7216 26.0996L25.7216 26.0997L0.0078125 26.0997C0.00781312 11.6837 11.5188 0 25.7216 0H51.4353C51.4353 14.4159 39.9243 26.0996 25.7216 26.0996Z" fill="#A9E163"/>
<path fill-rule="evenodd" clip-rule="evenodd" d="M77.1473 26.0996V26.0997L51.4336 26.0997C51.4336 11.6837 62.9445 0 77.1473 0H102.861C102.861 14.4159 91.3501 26.0996 77.1473 26.0996Z" fill="#A9E163"/>
<path fill-rule="evenodd" clip-rule="evenodd" d="M102.863 26.0997C102.863 11.6837 114.374 0 128.577 0H154.291C154.291 14.4159 142.78 26.0996 128.577 26.0997L102.863 26.0997Z" fill="#A9E163"/>
<path fill-rule="evenodd" clip-rule="evenodd" d="M154.289 26.0997C154.289 11.6837 165.8 0 180.003 0H205.717C205.717 14.4159 194.206 26.0996 180.003 26.0997L154.289 26.0997Z" fill="#A9E163"/>
<path fill-rule="evenodd" clip-rule="evenodd" d="M205.715 26.0997C205.715 11.6837 217.226 0 231.429 0H257.142C257.142 14.4159 245.631 26.0996 231.429 26.0997L205.715 26.0997Z" fill="#A9E163"/>
<path fill-rule="evenodd" clip-rule="evenodd" d="M308.566 26.0997C308.566 11.6837 320.077 0 334.28 0H359.994C359.994 14.4159 348.483 26.0996 334.28 26.0997L308.566 26.0997Z" fill="#A9E163" fill-opacity="0.2"/>
<path fill-rule="evenodd" clip-rule="evenodd" d="M257.145 26.0997C257.145 11.6837 268.655 0 282.858 0H308.572C308.572 14.4159 297.061 26.0996 282.858 26.0997L257.145 26.0997Z" fill="#A9E163"/>
</svg>
