<svg width="355" height="27" viewBox="0 0 355 27" fill="none" xmlns="http://www.w3.org/2000/svg">
<path fill-rule="evenodd" clip-rule="evenodd" d="M25.2857 0.857978L25.2857 0.857422H50.5714C50.5714 14.8238 39.2521 26.1431 25.2857 26.1431L25.2857 26.1437L0 26.1437C0 12.1773 11.3193 0.857977 25.2857 0.857978Z" fill="#A9E163"/>
<path fill-rule="evenodd" clip-rule="evenodd" d="M75.858 0.857978L75.858 0.857422H101.144C101.144 14.8238 89.8244 26.1431 75.858 26.1431L75.858 26.1437L50.5723 26.1437C50.5723 12.1773 61.8916 0.857977 75.858 0.857978Z" fill="#A9E163"/>
<path fill-rule="evenodd" clip-rule="evenodd" d="M126.43 0.857978L126.43 0.857422H151.716C151.716 14.8238 140.397 26.1431 126.43 26.1431L126.43 26.1437L101.145 26.1437C101.145 12.1773 112.464 0.857977 126.43 0.857978Z" fill="#A9E163"/>
<path fill-rule="evenodd" clip-rule="evenodd" d="M328.715 0.857978L328.715 0.857422H354.001C354.001 14.8238 342.682 26.1431 328.715 26.1431L328.715 26.1437L303.43 26.1437C303.43 12.1773 314.749 0.857977 328.715 0.857978Z" fill="#A9E163" fill-opacity="0.2"/>
<path fill-rule="evenodd" clip-rule="evenodd" d="M278.143 0.856025L278.143 0.855471L303.429 0.855469C303.429 14.8218 292.11 26.1412 278.143 26.1412L278.143 26.1417L252.857 26.1417C252.857 12.1754 264.177 0.856024 278.143 0.856025Z" fill="#A9E163" fill-opacity="0.2"/>
<path fill-rule="evenodd" clip-rule="evenodd" d="M177.286 0.998604L177.286 0.998047H202.571C202.571 14.9644 191.252 26.2838 177.286 26.2838L177.286 26.2843L152 26.2843C152 12.3179 163.319 0.998603 177.286 0.998604Z" fill="#A9E163" fill-opacity="0.2"/>
<path fill-rule="evenodd" clip-rule="evenodd" d="M227.286 0.998604L227.286 0.998047H252.571C252.571 14.9644 241.252 26.2838 227.286 26.2838L227.286 26.2843L202 26.2843C202 12.3179 213.319 0.998603 227.286 0.998604Z" fill="#A9E163" fill-opacity="0.2"/>
</svg>
