<svg width="27" height="26" viewBox="0 0 27 26" fill="none" xmlns="http://www.w3.org/2000/svg">
<path fill-rule="evenodd" clip-rule="evenodd" d="M26.6717 13.0919C26.6717 13.4874 26.4418 13.8469 26.0827 14.0127L1.92438 25.1694C1.54303 25.3455 1.09259 25.2683 0.791622 24.9753C0.490657 24.6822 0.401458 24.234 0.567306 23.8481L5.18975 13.0919L0.567305 2.33567C0.401457 1.94975 0.490657 1.50153 0.791623 1.20851C1.09259 0.915486 1.54303 0.838307 1.92438 1.01442L26.0827 12.1711C26.4418 12.3369 26.6717 12.6964 26.6717 13.0919ZM3.47539 3.96505L7.22552 12.6914C7.33539 12.9471 7.33539 13.2367 7.22552 13.4923L3.47539 22.2187L23.2384 13.0919L3.47539 3.96505Z" fill="#898989"/>
</svg>
