<svg width="23" height="24" viewBox="0 0 23 24" fill="none" xmlns="http://www.w3.org/2000/svg">
<path d="M6.94792 2.16H6.70833C6.8401 2.16 6.94792 2.052 6.94792 1.92V2.16H16.0521V1.92C16.0521 2.052 16.1599 2.16 16.2917 2.16H16.0521V4.32H18.2083V1.92C18.2083 0.861 17.3488 0 16.2917 0H6.70833C5.65117 0 4.79167 0.861 4.79167 1.92V4.32H6.94792V2.16ZM22.0417 4.32H0.958333C0.428255 4.32 0 4.749 0 5.28V6.24C0 6.372 0.107812 6.48 0.239583 6.48H2.04844L2.78815 22.17C2.83607 23.193 3.6806 24 4.70182 24H18.2982C19.3224 24 20.1639 23.196 20.2118 22.17L20.9516 6.48H22.7604C22.8922 6.48 23 6.372 23 6.24V5.28C23 4.749 22.5717 4.32 22.0417 4.32ZM18.0676 21.84H4.93242L4.20768 6.48H18.7923L18.0676 21.84Z" fill="black"/>
</svg>
