<svg width="351" height="56" viewBox="0 0 351 56" fill="none" xmlns="http://www.w3.org/2000/svg">
<rect width="350.91" height="56" rx="28" fill="#A9E163"/>
<path d="M90.68 21.36V42H87.52V38.76C85.76 41.2933 83.3867 42.56 80.4 42.56C78.2133 42.56 76.52 41.96 75.32 40.76C74.12 39.56 73.52 37.8267 73.52 35.56V21.36H76.92V34.64C76.92 36.2667 77.2267 37.5067 77.84 38.36C78.48 39.1867 79.6133 39.6 81.24 39.6C85.2667 39.6 87.28 37.12 87.28 32.16V21.36H90.68ZM111.107 27.36H107.707C107.493 24.8533 105.813 23.6 102.667 23.6C101.36 23.6 100.333 23.8533 99.5866 24.36C98.8399 24.8667 98.4666 25.5467 98.4666 26.4C98.4666 26.64 98.4932 26.88 98.5466 27.12C98.5999 27.3333 98.6932 27.5333 98.8266 27.72C98.9866 27.88 99.1199 28.0267 99.2266 28.16C99.3599 28.2933 99.5599 28.4267 99.8266 28.56C100.12 28.6667 100.333 28.76 100.467 28.84C100.627 28.92 100.893 29.0133 101.267 29.12C101.667 29.2 101.947 29.2667 102.107 29.32C102.267 29.3467 102.573 29.4133 103.027 29.52C103.507 29.6267 103.813 29.6933 103.947 29.72C104.933 29.9333 105.667 30.1067 106.147 30.24C106.653 30.3733 107.333 30.6267 108.187 31C109.067 31.3467 109.733 31.72 110.187 32.12C110.64 32.4933 111.04 33.0267 111.387 33.72C111.76 34.3867 111.947 35.1467 111.947 36C111.947 38 111.16 39.6133 109.587 40.84C108.04 42.04 105.973 42.64 103.387 42.64C100.587 42.64 98.4266 42.0267 96.9066 40.8C95.4132 39.5733 94.6132 37.8 94.5066 35.48H97.8666C98.0532 38.3867 99.9199 39.84 103.467 39.84C104.987 39.84 106.2 39.5333 107.107 38.92C108.04 38.28 108.507 37.44 108.507 36.4C108.507 35.7067 108.267 35.1333 107.787 34.68C107.307 34.2267 106.773 33.9067 106.187 33.72C105.6 33.5067 104.76 33.2667 103.667 33C103.507 32.9733 103.387 32.9467 103.307 32.92C103.067 32.8667 102.547 32.76 101.747 32.6C100.973 32.4133 100.413 32.2667 100.067 32.16C99.7199 32.0533 99.2132 31.8933 98.5466 31.68C97.9066 31.44 97.4266 31.2 97.1066 30.96C96.7866 30.6933 96.4266 30.3733 96.0266 30C95.6532 29.6 95.3866 29.1467 95.2266 28.64C95.0666 28.1067 94.9866 27.5067 94.9866 26.84C94.9866 24.9733 95.6932 23.4933 97.1066 22.4C98.5466 21.3067 100.467 20.76 102.867 20.76C105.293 20.76 107.267 21.3333 108.787 22.48C110.333 23.6267 111.107 25.2533 111.107 27.36ZM133.427 35.48C132.387 40.28 129.387 42.68 124.427 42.68C121.387 42.68 119 41.7333 117.267 39.84C115.56 37.9467 114.707 35.32 114.707 31.96C114.707 28.6267 115.587 25.9333 117.347 23.88C119.133 21.8 121.453 20.76 124.307 20.76C127.48 20.76 129.827 21.84 131.347 24C132.893 26.1333 133.667 28.84 133.667 32.12V32.6H118.147L118.107 32.84C118.107 35.0267 118.68 36.7467 119.827 38C120.973 39.2533 122.547 39.88 124.547 39.88C126.04 39.88 127.213 39.5333 128.067 38.84C128.947 38.1467 129.627 37.0267 130.107 35.48H133.427ZM130.147 29.84C129.987 27.8667 129.387 26.3333 128.347 25.24C127.307 24.12 125.933 23.56 124.227 23.56C122.573 23.56 121.2 24.12 120.107 25.24C119.013 26.36 118.36 27.8933 118.147 29.84H130.147ZM148.031 20.88V24.4C147.791 24.3733 147.498 24.36 147.151 24.36C146.058 24.36 145.111 24.5333 144.311 24.88C143.511 25.2 142.871 25.6267 142.391 26.16C141.938 26.6933 141.564 27.36 141.271 28.16C140.978 28.96 140.778 29.76 140.671 30.56C140.591 31.36 140.551 32.2667 140.551 33.28V42H137.151V21.36H140.391V25.8C141.751 22.52 144.298 20.88 148.031 20.88ZM177.044 27.36H173.644C173.431 24.8533 171.751 23.6 168.604 23.6C167.297 23.6 166.271 23.8533 165.524 24.36C164.777 24.8667 164.404 25.5467 164.404 26.4C164.404 26.64 164.431 26.88 164.484 27.12C164.537 27.3333 164.631 27.5333 164.764 27.72C164.924 27.88 165.057 28.0267 165.164 28.16C165.297 28.2933 165.497 28.4267 165.764 28.56C166.057 28.6667 166.271 28.76 166.404 28.84C166.564 28.92 166.831 29.0133 167.204 29.12C167.604 29.2 167.884 29.2667 168.044 29.32C168.204 29.3467 168.511 29.4133 168.964 29.52C169.444 29.6267 169.751 29.6933 169.884 29.72C170.871 29.9333 171.604 30.1067 172.084 30.24C172.591 30.3733 173.271 30.6267 174.124 31C175.004 31.3467 175.671 31.72 176.124 32.12C176.577 32.4933 176.977 33.0267 177.324 33.72C177.697 34.3867 177.884 35.1467 177.884 36C177.884 38 177.097 39.6133 175.524 40.84C173.977 42.04 171.911 42.64 169.324 42.64C166.524 42.64 164.364 42.0267 162.844 40.8C161.351 39.5733 160.551 37.8 160.444 35.48H163.804C163.991 38.3867 165.857 39.84 169.404 39.84C170.924 39.84 172.137 39.5333 173.044 38.92C173.977 38.28 174.444 37.44 174.444 36.4C174.444 35.7067 174.204 35.1333 173.724 34.68C173.244 34.2267 172.711 33.9067 172.124 33.72C171.537 33.5067 170.697 33.2667 169.604 33C169.444 32.9733 169.324 32.9467 169.244 32.92C169.004 32.8667 168.484 32.76 167.684 32.6C166.911 32.4133 166.351 32.2667 166.004 32.16C165.657 32.0533 165.151 31.8933 164.484 31.68C163.844 31.44 163.364 31.2 163.044 30.96C162.724 30.6933 162.364 30.3733 161.964 30C161.591 29.6 161.324 29.1467 161.164 28.64C161.004 28.1067 160.924 27.5067 160.924 26.84C160.924 24.9733 161.631 23.4933 163.044 22.4C164.484 21.3067 166.404 20.76 168.804 20.76C171.231 20.76 173.204 21.3333 174.724 22.48C176.271 23.6267 177.044 25.2533 177.044 27.36ZM192.484 20.88V24.4C192.244 24.3733 191.951 24.36 191.604 24.36C190.511 24.36 189.564 24.5333 188.764 24.88C187.964 25.2 187.324 25.6267 186.844 26.16C186.391 26.6933 186.017 27.36 185.724 28.16C185.431 28.96 185.231 29.76 185.124 30.56C185.044 31.36 185.004 32.2667 185.004 33.28V42H181.604V21.36H184.844V25.8C186.204 22.52 188.751 20.88 192.484 20.88ZM195.981 23.72C197.795 21.7467 200.261 20.76 203.381 20.76C206.501 20.76 208.928 21.7067 210.661 23.6C212.395 25.4933 213.261 28.1467 213.261 31.56C213.261 35.0533 212.395 37.7733 210.661 39.72C208.928 41.6667 206.488 42.64 203.341 42.64C200.195 42.64 197.728 41.68 195.941 39.76C194.155 37.84 193.261 35.1733 193.261 31.76C193.261 28.3733 194.168 25.6933 195.981 23.72ZM208.021 25.8C206.875 24.3333 205.301 23.6 203.301 23.6C201.301 23.6 199.715 24.3333 198.541 25.8C197.368 27.2667 196.781 29.2267 196.781 31.68C196.781 34.2133 197.355 36.2 198.501 37.64C199.675 39.0533 201.301 39.76 203.381 39.76C205.381 39.76 206.941 39.04 208.061 37.6C209.208 36.16 209.781 34.1733 209.781 31.64C209.781 29.1867 209.195 27.24 208.021 25.8ZM228.07 20.88V24.4C227.83 24.3733 227.537 24.36 227.19 24.36C226.097 24.36 225.15 24.5333 224.35 24.88C223.55 25.2 222.91 25.6267 222.43 26.16C221.977 26.6933 221.603 27.36 221.31 28.16C221.017 28.96 220.817 29.76 220.71 30.56C220.63 31.36 220.59 32.2667 220.59 33.28V42H217.19V21.36H220.43V25.8C221.79 22.52 224.337 20.88 228.07 20.88ZM234.23 13.52V17.68H230.79V13.52H234.23ZM234.23 21.36V42H230.79V21.36H234.23ZM257.137 35.48C256.098 40.28 253.098 42.68 248.138 42.68C245.098 42.68 242.711 41.7333 240.978 39.84C239.271 37.9467 238.418 35.32 238.418 31.96C238.418 28.6267 239.298 25.9333 241.058 23.88C242.844 21.8 245.164 20.76 248.018 20.76C251.191 20.76 253.538 21.84 255.058 24C256.604 26.1333 257.378 28.84 257.378 32.12V32.6H241.858L241.818 32.84C241.818 35.0267 242.391 36.7467 243.538 38C244.684 39.2533 246.258 39.88 248.258 39.88C249.751 39.88 250.924 39.5333 251.778 38.84C252.658 38.1467 253.338 37.0267 253.818 35.48H257.137ZM253.858 29.84C253.698 27.8667 253.098 26.3333 252.058 25.24C251.018 24.12 249.644 23.56 247.938 23.56C246.284 23.56 244.911 24.12 243.818 25.24C242.724 26.36 242.071 27.8933 241.858 29.84H253.858ZM276.302 27.36H272.902C272.689 24.8533 271.009 23.6 267.862 23.6C266.555 23.6 265.529 23.8533 264.782 24.36C264.035 24.8667 263.662 25.5467 263.662 26.4C263.662 26.64 263.689 26.88 263.742 27.12C263.795 27.3333 263.889 27.5333 264.022 27.72C264.182 27.88 264.315 28.0267 264.422 28.16C264.555 28.2933 264.755 28.4267 265.022 28.56C265.315 28.6667 265.529 28.76 265.662 28.84C265.822 28.92 266.089 29.0133 266.462 29.12C266.862 29.2 267.142 29.2667 267.302 29.32C267.462 29.3467 267.769 29.4133 268.222 29.52C268.702 29.6267 269.009 29.6933 269.142 29.72C270.129 29.9333 270.862 30.1067 271.342 30.24C271.849 30.3733 272.529 30.6267 273.382 31C274.262 31.3467 274.929 31.72 275.382 32.12C275.835 32.4933 276.235 33.0267 276.582 33.72C276.955 34.3867 277.142 35.1467 277.142 36C277.142 38 276.355 39.6133 274.782 40.84C273.235 42.04 271.169 42.64 268.582 42.64C265.782 42.64 263.622 42.0267 262.102 40.8C260.609 39.5733 259.809 37.8 259.702 35.48H263.062C263.249 38.3867 265.115 39.84 268.662 39.84C270.182 39.84 271.395 39.5333 272.302 38.92C273.235 38.28 273.702 37.44 273.702 36.4C273.702 35.7067 273.462 35.1333 272.982 34.68C272.502 34.2267 271.969 33.9067 271.382 33.72C270.795 33.5067 269.955 33.2667 268.862 33C268.702 32.9733 268.582 32.9467 268.502 32.92C268.262 32.8667 267.742 32.76 266.942 32.6C266.169 32.4133 265.609 32.2667 265.262 32.16C264.915 32.0533 264.409 31.8933 263.742 31.68C263.102 31.44 262.622 31.2 262.302 30.96C261.982 30.6933 261.622 30.3733 261.222 30C260.849 29.6 260.582 29.1467 260.422 28.64C260.262 28.1067 260.182 27.5067 260.182 26.84C260.182 24.9733 260.889 23.4933 262.302 22.4C263.742 21.3067 265.662 20.76 268.062 20.76C270.489 20.76 272.462 21.3333 273.982 22.48C275.529 23.6267 276.302 25.2533 276.302 27.36Z" fill="black"/>
</svg>
